G04 #@! TF.GenerationSoftware,KiCad,Pcbnew,6.0.1-79c1e3a40b~116~ubuntu21.04.1*
G04 #@! TF.CreationDate,2022-02-15T17:06:26-05:00*
G04 #@! TF.ProjectId,reset_modules,72657365-745f-46d6-9f64-756c65732e6b,rev?*
G04 #@! TF.SameCoordinates,Original*
G04 #@! TF.FileFunction,Legend,Bot*
G04 #@! TF.FilePolarity,Positive*
%FSLAX46Y46*%
G04 Gerber Fmt 4.6, Leading zero omitted, Abs format (unit mm)*
G04 Created by KiCad (PCBNEW 6.0.1-79c1e3a40b~116~ubuntu21.04.1) date 2022-02-15 17:06:26*
%MOMM*%
%LPD*%
G01*
G04 APERTURE LIST*
%ADD10C,0.150000*%
%ADD11R,1.700000X1.700000*%
%ADD12O,1.700000X1.700000*%
%ADD13R,1.600000X1.600000*%
%ADD14O,1.600000X1.600000*%
G04 APERTURE END LIST*
D10*
X130654761Y-92316041D02*
X130702380Y-92452946D01*
X130702380Y-92691041D01*
X130654761Y-92792232D01*
X130607142Y-92845803D01*
X130511904Y-92905327D01*
X130416666Y-92917232D01*
X130321428Y-92881517D01*
X130273809Y-92839851D01*
X130226190Y-92750565D01*
X130178571Y-92566041D01*
X130130952Y-92476755D01*
X130083333Y-92435089D01*
X129988095Y-92399375D01*
X129892857Y-92411279D01*
X129797619Y-92470803D01*
X129750000Y-92524375D01*
X129702380Y-92625565D01*
X129702380Y-92863660D01*
X129750000Y-93000565D01*
X130416666Y-93298184D02*
X130416666Y-93774375D01*
X130702380Y-93167232D02*
X129702380Y-93625565D01*
X130702380Y-93833898D01*
X129702380Y-94149375D02*
X130702380Y-94357708D01*
X129702380Y-94816041D01*
X129702380Y-95339851D02*
X129702380Y-95530327D01*
X129750000Y-95619613D01*
X129845238Y-95702946D01*
X130035714Y-95726755D01*
X130369047Y-95685089D01*
X130559523Y-95613660D01*
X130654761Y-95506517D01*
X130702380Y-95405327D01*
X130702380Y-95214851D01*
X130654761Y-95125565D01*
X130559523Y-95042232D01*
X130369047Y-95018422D01*
X130035714Y-95060089D01*
X129845238Y-95131517D01*
X129750000Y-95238660D01*
X129702380Y-95339851D01*
X130178571Y-97232708D02*
X130226190Y-97369613D01*
X130273809Y-97411279D01*
X130369047Y-97446994D01*
X130511904Y-97429136D01*
X130607142Y-97369613D01*
X130654761Y-97316041D01*
X130702380Y-97214851D01*
X130702380Y-96833898D01*
X129702380Y-96958898D01*
X129702380Y-97292232D01*
X129750000Y-97381517D01*
X129797619Y-97423184D01*
X129892857Y-97458898D01*
X129988095Y-97446994D01*
X130083333Y-97387470D01*
X130130952Y-97333898D01*
X130178571Y-97232708D01*
X130178571Y-96899375D01*
X130416666Y-97821994D02*
X130416666Y-98298184D01*
X130702380Y-97691041D02*
X129702380Y-98149375D01*
X130702380Y-98357708D01*
X129702380Y-99101755D02*
X130416666Y-99012470D01*
X130559523Y-98946994D01*
X130654761Y-98839851D01*
X130702380Y-98691041D01*
X130702380Y-98595803D01*
X130702380Y-99452946D02*
X129702380Y-99577946D01*
X130607142Y-100512470D02*
X130654761Y-100458898D01*
X130702380Y-100310089D01*
X130702380Y-100214851D01*
X130654761Y-100077946D01*
X130559523Y-99994613D01*
X130464285Y-99958898D01*
X130273809Y-99935089D01*
X130130952Y-99952946D01*
X129940476Y-100024375D01*
X129845238Y-100083898D01*
X129750000Y-100191041D01*
X129702380Y-100339851D01*
X129702380Y-100435089D01*
X129750000Y-100571994D01*
X129797619Y-100613660D01*
%LPC*%
D11*
X112395000Y-85090000D03*
D12*
X112395000Y-87630000D03*
X112395000Y-90170000D03*
X112395000Y-92710000D03*
X112395000Y-95250000D03*
X112395000Y-97790000D03*
X112395000Y-100330000D03*
X112395000Y-102870000D03*
D11*
X90170000Y-85090000D03*
D12*
X90170000Y-87630000D03*
X90170000Y-90170000D03*
X90170000Y-92710000D03*
X90170000Y-95250000D03*
X90170000Y-97790000D03*
X90170000Y-100330000D03*
X90170000Y-102870000D03*
D11*
X97155000Y-109220000D03*
D12*
X99695000Y-109220000D03*
X102235000Y-109220000D03*
X104775000Y-109220000D03*
D11*
X119380000Y-109220000D03*
D12*
X121920000Y-109220000D03*
X124460000Y-109220000D03*
X127000000Y-109220000D03*
D11*
X77470000Y-85090000D03*
D12*
X80010000Y-85090000D03*
X82550000Y-85090000D03*
D11*
X77470000Y-87630000D03*
D12*
X80010000Y-87630000D03*
X82550000Y-87630000D03*
D11*
X77470000Y-90170000D03*
D12*
X80010000Y-90170000D03*
X82550000Y-90170000D03*
D11*
X77470000Y-92710000D03*
D12*
X80010000Y-92710000D03*
X82550000Y-92710000D03*
D11*
X77470000Y-95250000D03*
D12*
X80010000Y-95250000D03*
X82550000Y-95250000D03*
D11*
X77470000Y-97790000D03*
D12*
X80010000Y-97790000D03*
X82550000Y-97790000D03*
D11*
X70485000Y-82550000D03*
D12*
X70485000Y-85090000D03*
X70485000Y-87630000D03*
X70485000Y-90170000D03*
X70485000Y-92710000D03*
X70485000Y-95250000D03*
X70485000Y-97790000D03*
X70485000Y-100330000D03*
X70485000Y-102870000D03*
X70485000Y-105410000D03*
X70485000Y-107950000D03*
X70485000Y-110490000D03*
D11*
X77470000Y-100330000D03*
D12*
X80010000Y-100330000D03*
X82550000Y-100330000D03*
D11*
X77470000Y-102870000D03*
D12*
X80010000Y-102870000D03*
X82550000Y-102870000D03*
D11*
X77470000Y-105410000D03*
D12*
X80010000Y-105410000D03*
X82550000Y-105410000D03*
D11*
X77470000Y-107950000D03*
D12*
X80010000Y-107950000D03*
X82550000Y-107950000D03*
D13*
X119380000Y-85090000D03*
D14*
X119380000Y-87630000D03*
X119380000Y-90170000D03*
X119380000Y-92710000D03*
X119380000Y-95250000D03*
X119380000Y-97790000D03*
X119380000Y-100330000D03*
X127000000Y-100330000D03*
X127000000Y-97790000D03*
X127000000Y-95250000D03*
X127000000Y-92710000D03*
X127000000Y-90170000D03*
X127000000Y-87630000D03*
X127000000Y-85090000D03*
D13*
X97155000Y-85090000D03*
D14*
X97155000Y-87630000D03*
X97155000Y-90170000D03*
X97155000Y-92710000D03*
X97155000Y-95250000D03*
X97155000Y-97790000D03*
X97155000Y-100330000D03*
X104775000Y-100330000D03*
X104775000Y-97790000D03*
X104775000Y-95250000D03*
X104775000Y-92710000D03*
X104775000Y-90170000D03*
X104775000Y-87630000D03*
X104775000Y-85090000D03*
M02*
