%FSLAX45Y45*%
G04 Gerber Fmt 4.5, Leading zero omitted, Abs format (unit mm)*
G04 Created by KiCad (PCBNEW 6.0.1-79c1e3a40b~116~ubuntu21.04.1) date 2022-02-15 17:07:17*
%MOMM*%
%LPD*%
G01*
G04 APERTURE LIST*
%TA.AperFunction,Profile*%
%ADD10C,0.100000*%
%TD*%
%ADD11C,0.200000*%
%ADD12C,0.040000*%
%ADD13C,0.080000*%
%ADD14C,0.100000*%
G04 APERTURE END LIST*
D10*
X13271500Y-10985500D02*
X12954000Y-11303000D01*
X6794500Y-8001000D02*
X6794500Y-11303000D01*
X13271500Y-8318500D02*
X13271500Y-10985500D01*
X6794500Y-8001000D02*
X12954000Y-8001000D01*
X12954000Y-8001000D02*
X13271500Y-8318500D01*
X6794500Y-11303000D02*
X12954000Y-11303000D01*
D11*
D12*
X9822500Y-10394000D02*
X9862500Y-10434000D01*
X9862500Y-10394000D02*
X9822500Y-10434000D01*
X10013000Y-9822500D02*
X10053000Y-9862500D01*
X10053000Y-9822500D02*
X10013000Y-9862500D01*
X10203500Y-9632000D02*
X10243500Y-9672000D01*
X10243500Y-9632000D02*
X10203500Y-9672000D01*
X12045000Y-10394000D02*
X12085000Y-10434000D01*
X12085000Y-10394000D02*
X12045000Y-10434000D01*
X12299000Y-9568500D02*
X12339000Y-9608500D01*
X12339000Y-9568500D02*
X12299000Y-9608500D01*
X12299000Y-9822500D02*
X12339000Y-9862500D01*
X12339000Y-9822500D02*
X12299000Y-9862500D01*
D13*
X9755500Y-8509000D02*
G75*
G03*
X9755500Y-8509000I-40000J0D01*
G01*
X9755500Y-8763000D02*
G75*
G03*
X9755500Y-8763000I-40000J0D01*
G01*
X9755500Y-9017000D02*
G75*
G03*
X9755500Y-9017000I-40000J0D01*
G01*
X9755500Y-9271000D02*
G75*
G03*
X9755500Y-9271000I-40000J0D01*
G01*
X9755500Y-9525000D02*
G75*
G03*
X9755500Y-9525000I-40000J0D01*
G01*
X9755500Y-9779000D02*
G75*
G03*
X9755500Y-9779000I-40000J0D01*
G01*
X9755500Y-10033000D02*
G75*
G03*
X9755500Y-10033000I-40000J0D01*
G01*
X10517500Y-8509000D02*
G75*
G03*
X10517500Y-8509000I-40000J0D01*
G01*
X10517500Y-8763000D02*
G75*
G03*
X10517500Y-8763000I-40000J0D01*
G01*
X10517500Y-9017000D02*
G75*
G03*
X10517500Y-9017000I-40000J0D01*
G01*
X10517500Y-9271000D02*
G75*
G03*
X10517500Y-9271000I-40000J0D01*
G01*
X10517500Y-9525000D02*
G75*
G03*
X10517500Y-9525000I-40000J0D01*
G01*
X10517500Y-9779000D02*
G75*
G03*
X10517500Y-9779000I-40000J0D01*
G01*
X10517500Y-10033000D02*
G75*
G03*
X10517500Y-10033000I-40000J0D01*
G01*
X11978000Y-8509000D02*
G75*
G03*
X11978000Y-8509000I-40000J0D01*
G01*
X11978000Y-8763000D02*
G75*
G03*
X11978000Y-8763000I-40000J0D01*
G01*
X11978000Y-9017000D02*
G75*
G03*
X11978000Y-9017000I-40000J0D01*
G01*
X11978000Y-9271000D02*
G75*
G03*
X11978000Y-9271000I-40000J0D01*
G01*
X11978000Y-9525000D02*
G75*
G03*
X11978000Y-9525000I-40000J0D01*
G01*
X11978000Y-9779000D02*
G75*
G03*
X11978000Y-9779000I-40000J0D01*
G01*
X11978000Y-10033000D02*
G75*
G03*
X11978000Y-10033000I-40000J0D01*
G01*
X12740000Y-8509000D02*
G75*
G03*
X12740000Y-8509000I-40000J0D01*
G01*
X12740000Y-8763000D02*
G75*
G03*
X12740000Y-8763000I-40000J0D01*
G01*
X12740000Y-9017000D02*
G75*
G03*
X12740000Y-9017000I-40000J0D01*
G01*
X12740000Y-9271000D02*
G75*
G03*
X12740000Y-9271000I-40000J0D01*
G01*
X12740000Y-9525000D02*
G75*
G03*
X12740000Y-9525000I-40000J0D01*
G01*
X12740000Y-9779000D02*
G75*
G03*
X12740000Y-9779000I-40000J0D01*
G01*
X12740000Y-10033000D02*
G75*
G03*
X12740000Y-10033000I-40000J0D01*
G01*
D14*
X7048500Y-8205000D02*
X7048500Y-8305000D01*
X6998500Y-8255000D02*
X7098500Y-8255000D01*
X7048500Y-8459000D02*
X7048500Y-8559000D01*
X6998500Y-8509000D02*
X7098500Y-8509000D01*
X7048500Y-8713000D02*
X7048500Y-8813000D01*
X6998500Y-8763000D02*
X7098500Y-8763000D01*
X7048500Y-8967000D02*
X7048500Y-9067000D01*
X6998500Y-9017000D02*
X7098500Y-9017000D01*
X7048500Y-9221000D02*
X7048500Y-9321000D01*
X6998500Y-9271000D02*
X7098500Y-9271000D01*
X7048500Y-9475000D02*
X7048500Y-9575000D01*
X6998500Y-9525000D02*
X7098500Y-9525000D01*
X7048500Y-9729000D02*
X7048500Y-9829000D01*
X6998500Y-9779000D02*
X7098500Y-9779000D01*
X7048500Y-9983000D02*
X7048500Y-10083000D01*
X6998500Y-10033000D02*
X7098500Y-10033000D01*
X7048500Y-10237000D02*
X7048500Y-10337000D01*
X6998500Y-10287000D02*
X7098500Y-10287000D01*
X7048500Y-10491000D02*
X7048500Y-10591000D01*
X6998500Y-10541000D02*
X7098500Y-10541000D01*
X7048500Y-10745000D02*
X7048500Y-10845000D01*
X6998500Y-10795000D02*
X7098500Y-10795000D01*
X7048500Y-10999000D02*
X7048500Y-11099000D01*
X6998500Y-11049000D02*
X7098500Y-11049000D01*
X7747000Y-8459000D02*
X7747000Y-8559000D01*
X7697000Y-8509000D02*
X7797000Y-8509000D01*
X7747000Y-8713000D02*
X7747000Y-8813000D01*
X7697000Y-8763000D02*
X7797000Y-8763000D01*
X7747000Y-8967000D02*
X7747000Y-9067000D01*
X7697000Y-9017000D02*
X7797000Y-9017000D01*
X7747000Y-9221000D02*
X7747000Y-9321000D01*
X7697000Y-9271000D02*
X7797000Y-9271000D01*
X7747000Y-9475000D02*
X7747000Y-9575000D01*
X7697000Y-9525000D02*
X7797000Y-9525000D01*
X7747000Y-9729000D02*
X7747000Y-9829000D01*
X7697000Y-9779000D02*
X7797000Y-9779000D01*
X7747000Y-9983000D02*
X7747000Y-10083000D01*
X7697000Y-10033000D02*
X7797000Y-10033000D01*
X7747000Y-10237000D02*
X7747000Y-10337000D01*
X7697000Y-10287000D02*
X7797000Y-10287000D01*
X7747000Y-10491000D02*
X7747000Y-10591000D01*
X7697000Y-10541000D02*
X7797000Y-10541000D01*
X7747000Y-10745000D02*
X7747000Y-10845000D01*
X7697000Y-10795000D02*
X7797000Y-10795000D01*
X8001000Y-8459000D02*
X8001000Y-8559000D01*
X7951000Y-8509000D02*
X8051000Y-8509000D01*
X8001000Y-8713000D02*
X8001000Y-8813000D01*
X7951000Y-8763000D02*
X8051000Y-8763000D01*
X8001000Y-8967000D02*
X8001000Y-9067000D01*
X7951000Y-9017000D02*
X8051000Y-9017000D01*
X8001000Y-9221000D02*
X8001000Y-9321000D01*
X7951000Y-9271000D02*
X8051000Y-9271000D01*
X8001000Y-9475000D02*
X8001000Y-9575000D01*
X7951000Y-9525000D02*
X8051000Y-9525000D01*
X8001000Y-9729000D02*
X8001000Y-9829000D01*
X7951000Y-9779000D02*
X8051000Y-9779000D01*
X8001000Y-9983000D02*
X8001000Y-10083000D01*
X7951000Y-10033000D02*
X8051000Y-10033000D01*
X8001000Y-10237000D02*
X8001000Y-10337000D01*
X7951000Y-10287000D02*
X8051000Y-10287000D01*
X8001000Y-10491000D02*
X8001000Y-10591000D01*
X7951000Y-10541000D02*
X8051000Y-10541000D01*
X8001000Y-10745000D02*
X8001000Y-10845000D01*
X7951000Y-10795000D02*
X8051000Y-10795000D01*
X8255000Y-8459000D02*
X8255000Y-8559000D01*
X8205000Y-8509000D02*
X8305000Y-8509000D01*
X8255000Y-8713000D02*
X8255000Y-8813000D01*
X8205000Y-8763000D02*
X8305000Y-8763000D01*
X8255000Y-8967000D02*
X8255000Y-9067000D01*
X8205000Y-9017000D02*
X8305000Y-9017000D01*
X8255000Y-9221000D02*
X8255000Y-9321000D01*
X8205000Y-9271000D02*
X8305000Y-9271000D01*
X8255000Y-9475000D02*
X8255000Y-9575000D01*
X8205000Y-9525000D02*
X8305000Y-9525000D01*
X8255000Y-9729000D02*
X8255000Y-9829000D01*
X8205000Y-9779000D02*
X8305000Y-9779000D01*
X8255000Y-9983000D02*
X8255000Y-10083000D01*
X8205000Y-10033000D02*
X8305000Y-10033000D01*
X8255000Y-10237000D02*
X8255000Y-10337000D01*
X8205000Y-10287000D02*
X8305000Y-10287000D01*
X8255000Y-10491000D02*
X8255000Y-10591000D01*
X8205000Y-10541000D02*
X8305000Y-10541000D01*
X8255000Y-10745000D02*
X8255000Y-10845000D01*
X8205000Y-10795000D02*
X8305000Y-10795000D01*
X9017000Y-8459000D02*
X9017000Y-8559000D01*
X8967000Y-8509000D02*
X9067000Y-8509000D01*
X9017000Y-8713000D02*
X9017000Y-8813000D01*
X8967000Y-8763000D02*
X9067000Y-8763000D01*
X9017000Y-8967000D02*
X9017000Y-9067000D01*
X8967000Y-9017000D02*
X9067000Y-9017000D01*
X9017000Y-9221000D02*
X9017000Y-9321000D01*
X8967000Y-9271000D02*
X9067000Y-9271000D01*
X9017000Y-9475000D02*
X9017000Y-9575000D01*
X8967000Y-9525000D02*
X9067000Y-9525000D01*
X9017000Y-9729000D02*
X9017000Y-9829000D01*
X8967000Y-9779000D02*
X9067000Y-9779000D01*
X9017000Y-9983000D02*
X9017000Y-10083000D01*
X8967000Y-10033000D02*
X9067000Y-10033000D01*
X9017000Y-10237000D02*
X9017000Y-10337000D01*
X8967000Y-10287000D02*
X9067000Y-10287000D01*
X9715500Y-10872000D02*
X9715500Y-10972000D01*
X9665500Y-10922000D02*
X9765500Y-10922000D01*
X9969500Y-10872000D02*
X9969500Y-10972000D01*
X9919500Y-10922000D02*
X10019500Y-10922000D01*
X10223500Y-10872000D02*
X10223500Y-10972000D01*
X10173500Y-10922000D02*
X10273500Y-10922000D01*
X10477500Y-10872000D02*
X10477500Y-10972000D01*
X10427500Y-10922000D02*
X10527500Y-10922000D01*
X11239500Y-8459000D02*
X11239500Y-8559000D01*
X11189500Y-8509000D02*
X11289500Y-8509000D01*
X11239500Y-8713000D02*
X11239500Y-8813000D01*
X11189500Y-8763000D02*
X11289500Y-8763000D01*
X11239500Y-8967000D02*
X11239500Y-9067000D01*
X11189500Y-9017000D02*
X11289500Y-9017000D01*
X11239500Y-9221000D02*
X11239500Y-9321000D01*
X11189500Y-9271000D02*
X11289500Y-9271000D01*
X11239500Y-9475000D02*
X11239500Y-9575000D01*
X11189500Y-9525000D02*
X11289500Y-9525000D01*
X11239500Y-9729000D02*
X11239500Y-9829000D01*
X11189500Y-9779000D02*
X11289500Y-9779000D01*
X11239500Y-9983000D02*
X11239500Y-10083000D01*
X11189500Y-10033000D02*
X11289500Y-10033000D01*
X11239500Y-10237000D02*
X11239500Y-10337000D01*
X11189500Y-10287000D02*
X11289500Y-10287000D01*
X11938000Y-10872000D02*
X11938000Y-10972000D01*
X11888000Y-10922000D02*
X11988000Y-10922000D01*
X12192000Y-10872000D02*
X12192000Y-10972000D01*
X12142000Y-10922000D02*
X12242000Y-10922000D01*
X12446000Y-10872000D02*
X12446000Y-10972000D01*
X12396000Y-10922000D02*
X12496000Y-10922000D01*
X12700000Y-10872000D02*
X12700000Y-10972000D01*
X12650000Y-10922000D02*
X12750000Y-10922000D01*
D11*
X7047119Y-11618476D02*
X7047119Y-11418476D01*
X7094738Y-11418476D01*
X7123309Y-11428000D01*
X7142357Y-11447048D01*
X7151881Y-11466095D01*
X7161405Y-11504190D01*
X7161405Y-11532762D01*
X7151881Y-11570857D01*
X7142357Y-11589905D01*
X7123309Y-11608952D01*
X7094738Y-11618476D01*
X7047119Y-11618476D01*
X7247119Y-11618476D02*
X7247119Y-11485143D01*
X7247119Y-11523238D02*
X7256643Y-11504190D01*
X7266167Y-11494667D01*
X7285214Y-11485143D01*
X7304262Y-11485143D01*
X7370928Y-11618476D02*
X7370928Y-11485143D01*
X7370928Y-11418476D02*
X7361405Y-11428000D01*
X7370928Y-11437524D01*
X7380452Y-11428000D01*
X7370928Y-11418476D01*
X7370928Y-11437524D01*
X7494738Y-11618476D02*
X7475690Y-11608952D01*
X7466167Y-11589905D01*
X7466167Y-11418476D01*
X7599500Y-11618476D02*
X7580452Y-11608952D01*
X7570928Y-11589905D01*
X7570928Y-11418476D01*
X7828071Y-11618476D02*
X7828071Y-11418476D01*
X7894738Y-11561333D01*
X7961405Y-11418476D01*
X7961405Y-11618476D01*
X8142357Y-11618476D02*
X8142357Y-11513714D01*
X8132833Y-11494667D01*
X8113786Y-11485143D01*
X8075690Y-11485143D01*
X8056643Y-11494667D01*
X8142357Y-11608952D02*
X8123309Y-11618476D01*
X8075690Y-11618476D01*
X8056643Y-11608952D01*
X8047119Y-11589905D01*
X8047119Y-11570857D01*
X8056643Y-11551809D01*
X8075690Y-11542286D01*
X8123309Y-11542286D01*
X8142357Y-11532762D01*
X8237595Y-11485143D02*
X8237595Y-11685143D01*
X8237595Y-11494667D02*
X8256643Y-11485143D01*
X8294738Y-11485143D01*
X8313786Y-11494667D01*
X8323309Y-11504190D01*
X8332833Y-11523238D01*
X8332833Y-11580381D01*
X8323309Y-11599428D01*
X8313786Y-11608952D01*
X8294738Y-11618476D01*
X8256643Y-11618476D01*
X8237595Y-11608952D01*
X8418548Y-11599428D02*
X8428071Y-11608952D01*
X8418548Y-11618476D01*
X8409024Y-11608952D01*
X8418548Y-11599428D01*
X8418548Y-11618476D01*
X8418548Y-11494667D02*
X8428071Y-11504190D01*
X8418548Y-11513714D01*
X8409024Y-11504190D01*
X8418548Y-11494667D01*
X8418548Y-11513714D01*
D12*
X6749500Y-11928000D02*
X6789500Y-11968000D01*
X6789500Y-11928000D02*
X6749500Y-11968000D01*
D11*
X7085214Y-11838476D02*
X7104262Y-11838476D01*
X7123309Y-11848000D01*
X7132833Y-11857524D01*
X7142357Y-11876571D01*
X7151881Y-11914667D01*
X7151881Y-11962286D01*
X7142357Y-12000381D01*
X7132833Y-12019428D01*
X7123309Y-12028952D01*
X7104262Y-12038476D01*
X7085214Y-12038476D01*
X7066167Y-12028952D01*
X7056643Y-12019428D01*
X7047119Y-12000381D01*
X7037595Y-11962286D01*
X7037595Y-11914667D01*
X7047119Y-11876571D01*
X7056643Y-11857524D01*
X7066167Y-11848000D01*
X7085214Y-11838476D01*
X7237595Y-12019428D02*
X7247119Y-12028952D01*
X7237595Y-12038476D01*
X7228071Y-12028952D01*
X7237595Y-12019428D01*
X7237595Y-12038476D01*
X7418548Y-11905143D02*
X7418548Y-12038476D01*
X7370928Y-11828952D02*
X7323309Y-11971809D01*
X7447119Y-11971809D01*
X7561405Y-11838476D02*
X7580452Y-11838476D01*
X7599500Y-11848000D01*
X7609024Y-11857524D01*
X7618548Y-11876571D01*
X7628071Y-11914667D01*
X7628071Y-11962286D01*
X7618548Y-12000381D01*
X7609024Y-12019428D01*
X7599500Y-12028952D01*
X7580452Y-12038476D01*
X7561405Y-12038476D01*
X7542357Y-12028952D01*
X7532833Y-12019428D01*
X7523309Y-12000381D01*
X7513786Y-11962286D01*
X7513786Y-11914667D01*
X7523309Y-11876571D01*
X7532833Y-11857524D01*
X7542357Y-11848000D01*
X7561405Y-11838476D01*
X7751881Y-11838476D02*
X7770928Y-11838476D01*
X7789976Y-11848000D01*
X7799500Y-11857524D01*
X7809024Y-11876571D01*
X7818548Y-11914667D01*
X7818548Y-11962286D01*
X7809024Y-12000381D01*
X7799500Y-12019428D01*
X7789976Y-12028952D01*
X7770928Y-12038476D01*
X7751881Y-12038476D01*
X7732833Y-12028952D01*
X7723309Y-12019428D01*
X7713786Y-12000381D01*
X7704262Y-11962286D01*
X7704262Y-11914667D01*
X7713786Y-11876571D01*
X7723309Y-11857524D01*
X7732833Y-11848000D01*
X7751881Y-11838476D01*
X7904262Y-12038476D02*
X7904262Y-11905143D01*
X7904262Y-11924190D02*
X7913786Y-11914667D01*
X7932833Y-11905143D01*
X7961405Y-11905143D01*
X7980452Y-11914667D01*
X7989976Y-11933714D01*
X7989976Y-12038476D01*
X7989976Y-11933714D02*
X7999500Y-11914667D01*
X8018548Y-11905143D01*
X8047119Y-11905143D01*
X8066167Y-11914667D01*
X8075690Y-11933714D01*
X8075690Y-12038476D01*
X8170928Y-12038476D02*
X8170928Y-11905143D01*
X8170928Y-11924190D02*
X8180452Y-11914667D01*
X8199500Y-11905143D01*
X8228071Y-11905143D01*
X8247119Y-11914667D01*
X8256643Y-11933714D01*
X8256643Y-12038476D01*
X8256643Y-11933714D02*
X8266167Y-11914667D01*
X8285214Y-11905143D01*
X8313786Y-11905143D01*
X8332833Y-11914667D01*
X8342357Y-11933714D01*
X8342357Y-12038476D01*
X8732833Y-11828952D02*
X8561405Y-12086095D01*
X8989976Y-11838476D02*
X9009024Y-11838476D01*
X9028071Y-11848000D01*
X9037595Y-11857524D01*
X9047119Y-11876571D01*
X9056643Y-11914667D01*
X9056643Y-11962286D01*
X9047119Y-12000381D01*
X9037595Y-12019428D01*
X9028071Y-12028952D01*
X9009024Y-12038476D01*
X8989976Y-12038476D01*
X8970929Y-12028952D01*
X8961405Y-12019428D01*
X8951881Y-12000381D01*
X8942357Y-11962286D01*
X8942357Y-11914667D01*
X8951881Y-11876571D01*
X8961405Y-11857524D01*
X8970929Y-11848000D01*
X8989976Y-11838476D01*
X9142357Y-12019428D02*
X9151881Y-12028952D01*
X9142357Y-12038476D01*
X9132833Y-12028952D01*
X9142357Y-12019428D01*
X9142357Y-12038476D01*
X9275690Y-11838476D02*
X9294738Y-11838476D01*
X9313786Y-11848000D01*
X9323310Y-11857524D01*
X9332833Y-11876571D01*
X9342357Y-11914667D01*
X9342357Y-11962286D01*
X9332833Y-12000381D01*
X9323310Y-12019428D01*
X9313786Y-12028952D01*
X9294738Y-12038476D01*
X9275690Y-12038476D01*
X9256643Y-12028952D01*
X9247119Y-12019428D01*
X9237595Y-12000381D01*
X9228071Y-11962286D01*
X9228071Y-11914667D01*
X9237595Y-11876571D01*
X9247119Y-11857524D01*
X9256643Y-11848000D01*
X9275690Y-11838476D01*
X9532833Y-12038476D02*
X9418548Y-12038476D01*
X9475690Y-12038476D02*
X9475690Y-11838476D01*
X9456643Y-11867048D01*
X9437595Y-11886095D01*
X9418548Y-11895619D01*
X9713786Y-11838476D02*
X9618548Y-11838476D01*
X9609024Y-11933714D01*
X9618548Y-11924190D01*
X9637595Y-11914667D01*
X9685214Y-11914667D01*
X9704262Y-11924190D01*
X9713786Y-11933714D01*
X9723310Y-11952762D01*
X9723310Y-12000381D01*
X9713786Y-12019428D01*
X9704262Y-12028952D01*
X9685214Y-12038476D01*
X9637595Y-12038476D01*
X9618548Y-12028952D01*
X9609024Y-12019428D01*
X9789976Y-11838476D02*
X9923310Y-11838476D01*
X9837595Y-12038476D01*
X9989976Y-11838476D02*
X9989976Y-11876571D01*
X10066167Y-11838476D02*
X10066167Y-11876571D01*
X10361405Y-12114667D02*
X10351881Y-12105143D01*
X10332833Y-12076571D01*
X10323310Y-12057524D01*
X10313786Y-12028952D01*
X10304262Y-11981333D01*
X10304262Y-11943238D01*
X10313786Y-11895619D01*
X10323310Y-11867048D01*
X10332833Y-11848000D01*
X10351881Y-11819428D01*
X10361405Y-11809905D01*
X10523310Y-11838476D02*
X10485214Y-11838476D01*
X10466167Y-11848000D01*
X10456643Y-11857524D01*
X10437595Y-11886095D01*
X10428071Y-11924190D01*
X10428071Y-12000381D01*
X10437595Y-12019428D01*
X10447119Y-12028952D01*
X10466167Y-12038476D01*
X10504262Y-12038476D01*
X10523310Y-12028952D01*
X10532833Y-12019428D01*
X10542357Y-12000381D01*
X10542357Y-11952762D01*
X10532833Y-11933714D01*
X10523310Y-11924190D01*
X10504262Y-11914667D01*
X10466167Y-11914667D01*
X10447119Y-11924190D01*
X10437595Y-11933714D01*
X10428071Y-11952762D01*
X10780452Y-12038476D02*
X10780452Y-11838476D01*
X10866167Y-12038476D02*
X10866167Y-11933714D01*
X10856643Y-11914667D01*
X10837595Y-11905143D01*
X10809024Y-11905143D01*
X10789976Y-11914667D01*
X10780452Y-11924190D01*
X10989976Y-12038476D02*
X10970929Y-12028952D01*
X10961405Y-12019428D01*
X10951881Y-12000381D01*
X10951881Y-11943238D01*
X10961405Y-11924190D01*
X10970929Y-11914667D01*
X10989976Y-11905143D01*
X11018548Y-11905143D01*
X11037595Y-11914667D01*
X11047119Y-11924190D01*
X11056643Y-11943238D01*
X11056643Y-12000381D01*
X11047119Y-12019428D01*
X11037595Y-12028952D01*
X11018548Y-12038476D01*
X10989976Y-12038476D01*
X11170929Y-12038476D02*
X11151881Y-12028952D01*
X11142357Y-12009905D01*
X11142357Y-11838476D01*
X11323309Y-12028952D02*
X11304262Y-12038476D01*
X11266167Y-12038476D01*
X11247119Y-12028952D01*
X11237595Y-12009905D01*
X11237595Y-11933714D01*
X11247119Y-11914667D01*
X11266167Y-11905143D01*
X11304262Y-11905143D01*
X11323309Y-11914667D01*
X11332833Y-11933714D01*
X11332833Y-11952762D01*
X11237595Y-11971809D01*
X11409024Y-12028952D02*
X11428071Y-12038476D01*
X11466167Y-12038476D01*
X11485214Y-12028952D01*
X11494738Y-12009905D01*
X11494738Y-12000381D01*
X11485214Y-11981333D01*
X11466167Y-11971809D01*
X11437595Y-11971809D01*
X11418548Y-11962286D01*
X11409024Y-11943238D01*
X11409024Y-11933714D01*
X11418548Y-11914667D01*
X11437595Y-11905143D01*
X11466167Y-11905143D01*
X11485214Y-11914667D01*
X11561405Y-12114667D02*
X11570928Y-12105143D01*
X11589976Y-12076571D01*
X11599500Y-12057524D01*
X11609024Y-12028952D01*
X11618548Y-11981333D01*
X11618548Y-11943238D01*
X11609024Y-11895619D01*
X11599500Y-11867048D01*
X11589976Y-11848000D01*
X11570928Y-11819428D01*
X11561405Y-11809905D01*
D13*
X6789500Y-12212000D02*
G75*
G03*
X6789500Y-12212000I-40000J0D01*
G01*
D11*
X7085214Y-12102476D02*
X7104262Y-12102476D01*
X7123309Y-12112000D01*
X7132833Y-12121524D01*
X7142357Y-12140571D01*
X7151881Y-12178667D01*
X7151881Y-12226286D01*
X7142357Y-12264381D01*
X7132833Y-12283428D01*
X7123309Y-12292952D01*
X7104262Y-12302476D01*
X7085214Y-12302476D01*
X7066167Y-12292952D01*
X7056643Y-12283428D01*
X7047119Y-12264381D01*
X7037595Y-12226286D01*
X7037595Y-12178667D01*
X7047119Y-12140571D01*
X7056643Y-12121524D01*
X7066167Y-12112000D01*
X7085214Y-12102476D01*
X7237595Y-12283428D02*
X7247119Y-12292952D01*
X7237595Y-12302476D01*
X7228071Y-12292952D01*
X7237595Y-12283428D01*
X7237595Y-12302476D01*
X7361405Y-12188190D02*
X7342357Y-12178667D01*
X7332833Y-12169143D01*
X7323309Y-12150095D01*
X7323309Y-12140571D01*
X7332833Y-12121524D01*
X7342357Y-12112000D01*
X7361405Y-12102476D01*
X7399500Y-12102476D01*
X7418548Y-12112000D01*
X7428071Y-12121524D01*
X7437595Y-12140571D01*
X7437595Y-12150095D01*
X7428071Y-12169143D01*
X7418548Y-12178667D01*
X7399500Y-12188190D01*
X7361405Y-12188190D01*
X7342357Y-12197714D01*
X7332833Y-12207238D01*
X7323309Y-12226286D01*
X7323309Y-12264381D01*
X7332833Y-12283428D01*
X7342357Y-12292952D01*
X7361405Y-12302476D01*
X7399500Y-12302476D01*
X7418548Y-12292952D01*
X7428071Y-12283428D01*
X7437595Y-12264381D01*
X7437595Y-12226286D01*
X7428071Y-12207238D01*
X7418548Y-12197714D01*
X7399500Y-12188190D01*
X7561405Y-12102476D02*
X7580452Y-12102476D01*
X7599500Y-12112000D01*
X7609024Y-12121524D01*
X7618548Y-12140571D01*
X7628071Y-12178667D01*
X7628071Y-12226286D01*
X7618548Y-12264381D01*
X7609024Y-12283428D01*
X7599500Y-12292952D01*
X7580452Y-12302476D01*
X7561405Y-12302476D01*
X7542357Y-12292952D01*
X7532833Y-12283428D01*
X7523309Y-12264381D01*
X7513786Y-12226286D01*
X7513786Y-12178667D01*
X7523309Y-12140571D01*
X7532833Y-12121524D01*
X7542357Y-12112000D01*
X7561405Y-12102476D01*
X7751881Y-12102476D02*
X7770928Y-12102476D01*
X7789976Y-12112000D01*
X7799500Y-12121524D01*
X7809024Y-12140571D01*
X7818548Y-12178667D01*
X7818548Y-12226286D01*
X7809024Y-12264381D01*
X7799500Y-12283428D01*
X7789976Y-12292952D01*
X7770928Y-12302476D01*
X7751881Y-12302476D01*
X7732833Y-12292952D01*
X7723309Y-12283428D01*
X7713786Y-12264381D01*
X7704262Y-12226286D01*
X7704262Y-12178667D01*
X7713786Y-12140571D01*
X7723309Y-12121524D01*
X7732833Y-12112000D01*
X7751881Y-12102476D01*
X7904262Y-12302476D02*
X7904262Y-12169143D01*
X7904262Y-12188190D02*
X7913786Y-12178667D01*
X7932833Y-12169143D01*
X7961405Y-12169143D01*
X7980452Y-12178667D01*
X7989976Y-12197714D01*
X7989976Y-12302476D01*
X7989976Y-12197714D02*
X7999500Y-12178667D01*
X8018548Y-12169143D01*
X8047119Y-12169143D01*
X8066167Y-12178667D01*
X8075690Y-12197714D01*
X8075690Y-12302476D01*
X8170928Y-12302476D02*
X8170928Y-12169143D01*
X8170928Y-12188190D02*
X8180452Y-12178667D01*
X8199500Y-12169143D01*
X8228071Y-12169143D01*
X8247119Y-12178667D01*
X8256643Y-12197714D01*
X8256643Y-12302476D01*
X8256643Y-12197714D02*
X8266167Y-12178667D01*
X8285214Y-12169143D01*
X8313786Y-12169143D01*
X8332833Y-12178667D01*
X8342357Y-12197714D01*
X8342357Y-12302476D01*
X8732833Y-12092952D02*
X8561405Y-12350095D01*
X8989976Y-12102476D02*
X9009024Y-12102476D01*
X9028071Y-12112000D01*
X9037595Y-12121524D01*
X9047119Y-12140571D01*
X9056643Y-12178667D01*
X9056643Y-12226286D01*
X9047119Y-12264381D01*
X9037595Y-12283428D01*
X9028071Y-12292952D01*
X9009024Y-12302476D01*
X8989976Y-12302476D01*
X8970929Y-12292952D01*
X8961405Y-12283428D01*
X8951881Y-12264381D01*
X8942357Y-12226286D01*
X8942357Y-12178667D01*
X8951881Y-12140571D01*
X8961405Y-12121524D01*
X8970929Y-12112000D01*
X8989976Y-12102476D01*
X9142357Y-12283428D02*
X9151881Y-12292952D01*
X9142357Y-12302476D01*
X9132833Y-12292952D01*
X9142357Y-12283428D01*
X9142357Y-12302476D01*
X9275690Y-12102476D02*
X9294738Y-12102476D01*
X9313786Y-12112000D01*
X9323310Y-12121524D01*
X9332833Y-12140571D01*
X9342357Y-12178667D01*
X9342357Y-12226286D01*
X9332833Y-12264381D01*
X9323310Y-12283428D01*
X9313786Y-12292952D01*
X9294738Y-12302476D01*
X9275690Y-12302476D01*
X9256643Y-12292952D01*
X9247119Y-12283428D01*
X9237595Y-12264381D01*
X9228071Y-12226286D01*
X9228071Y-12178667D01*
X9237595Y-12140571D01*
X9247119Y-12121524D01*
X9256643Y-12112000D01*
X9275690Y-12102476D01*
X9409024Y-12102476D02*
X9532833Y-12102476D01*
X9466167Y-12178667D01*
X9494738Y-12178667D01*
X9513786Y-12188190D01*
X9523310Y-12197714D01*
X9532833Y-12216762D01*
X9532833Y-12264381D01*
X9523310Y-12283428D01*
X9513786Y-12292952D01*
X9494738Y-12302476D01*
X9437595Y-12302476D01*
X9418548Y-12292952D01*
X9409024Y-12283428D01*
X9723310Y-12302476D02*
X9609024Y-12302476D01*
X9666167Y-12302476D02*
X9666167Y-12102476D01*
X9647119Y-12131048D01*
X9628071Y-12150095D01*
X9609024Y-12159619D01*
X9904262Y-12102476D02*
X9809024Y-12102476D01*
X9799500Y-12197714D01*
X9809024Y-12188190D01*
X9828071Y-12178667D01*
X9875690Y-12178667D01*
X9894738Y-12188190D01*
X9904262Y-12197714D01*
X9913786Y-12216762D01*
X9913786Y-12264381D01*
X9904262Y-12283428D01*
X9894738Y-12292952D01*
X9875690Y-12302476D01*
X9828071Y-12302476D01*
X9809024Y-12292952D01*
X9799500Y-12283428D01*
X9989976Y-12102476D02*
X9989976Y-12140571D01*
X10066167Y-12102476D02*
X10066167Y-12140571D01*
X10361405Y-12378667D02*
X10351881Y-12369143D01*
X10332833Y-12340571D01*
X10323310Y-12321524D01*
X10313786Y-12292952D01*
X10304262Y-12245333D01*
X10304262Y-12207238D01*
X10313786Y-12159619D01*
X10323310Y-12131048D01*
X10332833Y-12112000D01*
X10351881Y-12083428D01*
X10361405Y-12073905D01*
X10428071Y-12121524D02*
X10437595Y-12112000D01*
X10456643Y-12102476D01*
X10504262Y-12102476D01*
X10523310Y-12112000D01*
X10532833Y-12121524D01*
X10542357Y-12140571D01*
X10542357Y-12159619D01*
X10532833Y-12188190D01*
X10418548Y-12302476D01*
X10542357Y-12302476D01*
X10656643Y-12188190D02*
X10637595Y-12178667D01*
X10628071Y-12169143D01*
X10618548Y-12150095D01*
X10618548Y-12140571D01*
X10628071Y-12121524D01*
X10637595Y-12112000D01*
X10656643Y-12102476D01*
X10694738Y-12102476D01*
X10713786Y-12112000D01*
X10723310Y-12121524D01*
X10732833Y-12140571D01*
X10732833Y-12150095D01*
X10723310Y-12169143D01*
X10713786Y-12178667D01*
X10694738Y-12188190D01*
X10656643Y-12188190D01*
X10637595Y-12197714D01*
X10628071Y-12207238D01*
X10618548Y-12226286D01*
X10618548Y-12264381D01*
X10628071Y-12283428D01*
X10637595Y-12292952D01*
X10656643Y-12302476D01*
X10694738Y-12302476D01*
X10713786Y-12292952D01*
X10723310Y-12283428D01*
X10732833Y-12264381D01*
X10732833Y-12226286D01*
X10723310Y-12207238D01*
X10713786Y-12197714D01*
X10694738Y-12188190D01*
X10970929Y-12302476D02*
X10970929Y-12102476D01*
X11056643Y-12302476D02*
X11056643Y-12197714D01*
X11047119Y-12178667D01*
X11028071Y-12169143D01*
X10999500Y-12169143D01*
X10980452Y-12178667D01*
X10970929Y-12188190D01*
X11180452Y-12302476D02*
X11161405Y-12292952D01*
X11151881Y-12283428D01*
X11142357Y-12264381D01*
X11142357Y-12207238D01*
X11151881Y-12188190D01*
X11161405Y-12178667D01*
X11180452Y-12169143D01*
X11209024Y-12169143D01*
X11228071Y-12178667D01*
X11237595Y-12188190D01*
X11247119Y-12207238D01*
X11247119Y-12264381D01*
X11237595Y-12283428D01*
X11228071Y-12292952D01*
X11209024Y-12302476D01*
X11180452Y-12302476D01*
X11361405Y-12302476D02*
X11342357Y-12292952D01*
X11332833Y-12273905D01*
X11332833Y-12102476D01*
X11513786Y-12292952D02*
X11494738Y-12302476D01*
X11456643Y-12302476D01*
X11437595Y-12292952D01*
X11428071Y-12273905D01*
X11428071Y-12197714D01*
X11437595Y-12178667D01*
X11456643Y-12169143D01*
X11494738Y-12169143D01*
X11513786Y-12178667D01*
X11523309Y-12197714D01*
X11523309Y-12216762D01*
X11428071Y-12235809D01*
X11599500Y-12292952D02*
X11618548Y-12302476D01*
X11656643Y-12302476D01*
X11675690Y-12292952D01*
X11685214Y-12273905D01*
X11685214Y-12264381D01*
X11675690Y-12245333D01*
X11656643Y-12235809D01*
X11628071Y-12235809D01*
X11609024Y-12226286D01*
X11599500Y-12207238D01*
X11599500Y-12197714D01*
X11609024Y-12178667D01*
X11628071Y-12169143D01*
X11656643Y-12169143D01*
X11675690Y-12178667D01*
X11751881Y-12378667D02*
X11761405Y-12369143D01*
X11780452Y-12340571D01*
X11789976Y-12321524D01*
X11799500Y-12292952D01*
X11809024Y-12245333D01*
X11809024Y-12207238D01*
X11799500Y-12159619D01*
X11789976Y-12131048D01*
X11780452Y-12112000D01*
X11761405Y-12083428D01*
X11751881Y-12073905D01*
D14*
X6739500Y-12426000D02*
X6739500Y-12526000D01*
X6689500Y-12476000D02*
X6789500Y-12476000D01*
D11*
X7151881Y-12566476D02*
X7037595Y-12566476D01*
X7094738Y-12566476D02*
X7094738Y-12366476D01*
X7075690Y-12395048D01*
X7056643Y-12414095D01*
X7037595Y-12423619D01*
X7237595Y-12547428D02*
X7247119Y-12556952D01*
X7237595Y-12566476D01*
X7228071Y-12556952D01*
X7237595Y-12547428D01*
X7237595Y-12566476D01*
X7370928Y-12366476D02*
X7389976Y-12366476D01*
X7409024Y-12376000D01*
X7418548Y-12385524D01*
X7428071Y-12404571D01*
X7437595Y-12442667D01*
X7437595Y-12490286D01*
X7428071Y-12528381D01*
X7418548Y-12547428D01*
X7409024Y-12556952D01*
X7389976Y-12566476D01*
X7370928Y-12566476D01*
X7351881Y-12556952D01*
X7342357Y-12547428D01*
X7332833Y-12528381D01*
X7323309Y-12490286D01*
X7323309Y-12442667D01*
X7332833Y-12404571D01*
X7342357Y-12385524D01*
X7351881Y-12376000D01*
X7370928Y-12366476D01*
X7561405Y-12366476D02*
X7580452Y-12366476D01*
X7599500Y-12376000D01*
X7609024Y-12385524D01*
X7618548Y-12404571D01*
X7628071Y-12442667D01*
X7628071Y-12490286D01*
X7618548Y-12528381D01*
X7609024Y-12547428D01*
X7599500Y-12556952D01*
X7580452Y-12566476D01*
X7561405Y-12566476D01*
X7542357Y-12556952D01*
X7532833Y-12547428D01*
X7523309Y-12528381D01*
X7513786Y-12490286D01*
X7513786Y-12442667D01*
X7523309Y-12404571D01*
X7532833Y-12385524D01*
X7542357Y-12376000D01*
X7561405Y-12366476D01*
X7751881Y-12366476D02*
X7770928Y-12366476D01*
X7789976Y-12376000D01*
X7799500Y-12385524D01*
X7809024Y-12404571D01*
X7818548Y-12442667D01*
X7818548Y-12490286D01*
X7809024Y-12528381D01*
X7799500Y-12547428D01*
X7789976Y-12556952D01*
X7770928Y-12566476D01*
X7751881Y-12566476D01*
X7732833Y-12556952D01*
X7723309Y-12547428D01*
X7713786Y-12528381D01*
X7704262Y-12490286D01*
X7704262Y-12442667D01*
X7713786Y-12404571D01*
X7723309Y-12385524D01*
X7732833Y-12376000D01*
X7751881Y-12366476D01*
X7904262Y-12566476D02*
X7904262Y-12433143D01*
X7904262Y-12452190D02*
X7913786Y-12442667D01*
X7932833Y-12433143D01*
X7961405Y-12433143D01*
X7980452Y-12442667D01*
X7989976Y-12461714D01*
X7989976Y-12566476D01*
X7989976Y-12461714D02*
X7999500Y-12442667D01*
X8018548Y-12433143D01*
X8047119Y-12433143D01*
X8066167Y-12442667D01*
X8075690Y-12461714D01*
X8075690Y-12566476D01*
X8170928Y-12566476D02*
X8170928Y-12433143D01*
X8170928Y-12452190D02*
X8180452Y-12442667D01*
X8199500Y-12433143D01*
X8228071Y-12433143D01*
X8247119Y-12442667D01*
X8256643Y-12461714D01*
X8256643Y-12566476D01*
X8256643Y-12461714D02*
X8266167Y-12442667D01*
X8285214Y-12433143D01*
X8313786Y-12433143D01*
X8332833Y-12442667D01*
X8342357Y-12461714D01*
X8342357Y-12566476D01*
X8732833Y-12356952D02*
X8561405Y-12614095D01*
X8989976Y-12366476D02*
X9009024Y-12366476D01*
X9028071Y-12376000D01*
X9037595Y-12385524D01*
X9047119Y-12404571D01*
X9056643Y-12442667D01*
X9056643Y-12490286D01*
X9047119Y-12528381D01*
X9037595Y-12547428D01*
X9028071Y-12556952D01*
X9009024Y-12566476D01*
X8989976Y-12566476D01*
X8970929Y-12556952D01*
X8961405Y-12547428D01*
X8951881Y-12528381D01*
X8942357Y-12490286D01*
X8942357Y-12442667D01*
X8951881Y-12404571D01*
X8961405Y-12385524D01*
X8970929Y-12376000D01*
X8989976Y-12366476D01*
X9142357Y-12547428D02*
X9151881Y-12556952D01*
X9142357Y-12566476D01*
X9132833Y-12556952D01*
X9142357Y-12547428D01*
X9142357Y-12566476D01*
X9275690Y-12366476D02*
X9294738Y-12366476D01*
X9313786Y-12376000D01*
X9323310Y-12385524D01*
X9332833Y-12404571D01*
X9342357Y-12442667D01*
X9342357Y-12490286D01*
X9332833Y-12528381D01*
X9323310Y-12547428D01*
X9313786Y-12556952D01*
X9294738Y-12566476D01*
X9275690Y-12566476D01*
X9256643Y-12556952D01*
X9247119Y-12547428D01*
X9237595Y-12528381D01*
X9228071Y-12490286D01*
X9228071Y-12442667D01*
X9237595Y-12404571D01*
X9247119Y-12385524D01*
X9256643Y-12376000D01*
X9275690Y-12366476D01*
X9409024Y-12366476D02*
X9532833Y-12366476D01*
X9466167Y-12442667D01*
X9494738Y-12442667D01*
X9513786Y-12452190D01*
X9523310Y-12461714D01*
X9532833Y-12480762D01*
X9532833Y-12528381D01*
X9523310Y-12547428D01*
X9513786Y-12556952D01*
X9494738Y-12566476D01*
X9437595Y-12566476D01*
X9418548Y-12556952D01*
X9409024Y-12547428D01*
X9628071Y-12566476D02*
X9666167Y-12566476D01*
X9685214Y-12556952D01*
X9694738Y-12547428D01*
X9713786Y-12518857D01*
X9723310Y-12480762D01*
X9723310Y-12404571D01*
X9713786Y-12385524D01*
X9704262Y-12376000D01*
X9685214Y-12366476D01*
X9647119Y-12366476D01*
X9628071Y-12376000D01*
X9618548Y-12385524D01*
X9609024Y-12404571D01*
X9609024Y-12452190D01*
X9618548Y-12471238D01*
X9628071Y-12480762D01*
X9647119Y-12490286D01*
X9685214Y-12490286D01*
X9704262Y-12480762D01*
X9713786Y-12471238D01*
X9723310Y-12452190D01*
X9894738Y-12433143D02*
X9894738Y-12566476D01*
X9847119Y-12356952D02*
X9799500Y-12499809D01*
X9923310Y-12499809D01*
X9989976Y-12366476D02*
X9989976Y-12404571D01*
X10066167Y-12366476D02*
X10066167Y-12404571D01*
X10361405Y-12642667D02*
X10351881Y-12633143D01*
X10332833Y-12604571D01*
X10323310Y-12585524D01*
X10313786Y-12556952D01*
X10304262Y-12509333D01*
X10304262Y-12471238D01*
X10313786Y-12423619D01*
X10323310Y-12395048D01*
X10332833Y-12376000D01*
X10351881Y-12347428D01*
X10361405Y-12337905D01*
X10523310Y-12366476D02*
X10485214Y-12366476D01*
X10466167Y-12376000D01*
X10456643Y-12385524D01*
X10437595Y-12414095D01*
X10428071Y-12452190D01*
X10428071Y-12528381D01*
X10437595Y-12547428D01*
X10447119Y-12556952D01*
X10466167Y-12566476D01*
X10504262Y-12566476D01*
X10523310Y-12556952D01*
X10532833Y-12547428D01*
X10542357Y-12528381D01*
X10542357Y-12480762D01*
X10532833Y-12461714D01*
X10523310Y-12452190D01*
X10504262Y-12442667D01*
X10466167Y-12442667D01*
X10447119Y-12452190D01*
X10437595Y-12461714D01*
X10428071Y-12480762D01*
X10713786Y-12366476D02*
X10675690Y-12366476D01*
X10656643Y-12376000D01*
X10647119Y-12385524D01*
X10628071Y-12414095D01*
X10618548Y-12452190D01*
X10618548Y-12528381D01*
X10628071Y-12547428D01*
X10637595Y-12556952D01*
X10656643Y-12566476D01*
X10694738Y-12566476D01*
X10713786Y-12556952D01*
X10723310Y-12547428D01*
X10732833Y-12528381D01*
X10732833Y-12480762D01*
X10723310Y-12461714D01*
X10713786Y-12452190D01*
X10694738Y-12442667D01*
X10656643Y-12442667D01*
X10637595Y-12452190D01*
X10628071Y-12461714D01*
X10618548Y-12480762D01*
X10970929Y-12566476D02*
X10970929Y-12366476D01*
X11056643Y-12566476D02*
X11056643Y-12461714D01*
X11047119Y-12442667D01*
X11028071Y-12433143D01*
X10999500Y-12433143D01*
X10980452Y-12442667D01*
X10970929Y-12452190D01*
X11180452Y-12566476D02*
X11161405Y-12556952D01*
X11151881Y-12547428D01*
X11142357Y-12528381D01*
X11142357Y-12471238D01*
X11151881Y-12452190D01*
X11161405Y-12442667D01*
X11180452Y-12433143D01*
X11209024Y-12433143D01*
X11228071Y-12442667D01*
X11237595Y-12452190D01*
X11247119Y-12471238D01*
X11247119Y-12528381D01*
X11237595Y-12547428D01*
X11228071Y-12556952D01*
X11209024Y-12566476D01*
X11180452Y-12566476D01*
X11361405Y-12566476D02*
X11342357Y-12556952D01*
X11332833Y-12537905D01*
X11332833Y-12366476D01*
X11513786Y-12556952D02*
X11494738Y-12566476D01*
X11456643Y-12566476D01*
X11437595Y-12556952D01*
X11428071Y-12537905D01*
X11428071Y-12461714D01*
X11437595Y-12442667D01*
X11456643Y-12433143D01*
X11494738Y-12433143D01*
X11513786Y-12442667D01*
X11523309Y-12461714D01*
X11523309Y-12480762D01*
X11428071Y-12499809D01*
X11599500Y-12556952D02*
X11618548Y-12566476D01*
X11656643Y-12566476D01*
X11675690Y-12556952D01*
X11685214Y-12537905D01*
X11685214Y-12528381D01*
X11675690Y-12509333D01*
X11656643Y-12499809D01*
X11628071Y-12499809D01*
X11609024Y-12490286D01*
X11599500Y-12471238D01*
X11599500Y-12461714D01*
X11609024Y-12442667D01*
X11628071Y-12433143D01*
X11656643Y-12433143D01*
X11675690Y-12442667D01*
X11751881Y-12642667D02*
X11761405Y-12633143D01*
X11780452Y-12604571D01*
X11789976Y-12585524D01*
X11799500Y-12556952D01*
X11809024Y-12509333D01*
X11809024Y-12471238D01*
X11799500Y-12423619D01*
X11789976Y-12395048D01*
X11780452Y-12376000D01*
X11761405Y-12347428D01*
X11751881Y-12337905D01*
M02*
