G04 #@! TF.GenerationSoftware,KiCad,Pcbnew,6.0.1-79c1e3a40b~116~ubuntu21.04.1*
G04 #@! TF.CreationDate,2022-02-15T17:06:26-05:00*
G04 #@! TF.ProjectId,reset_modules,72657365-745f-46d6-9f64-756c65732e6b,rev?*
G04 #@! TF.SameCoordinates,Original*
G04 #@! TF.FileFunction,Copper,L2,Bot*
G04 #@! TF.FilePolarity,Positive*
%FSLAX46Y46*%
G04 Gerber Fmt 4.6, Leading zero omitted, Abs format (unit mm)*
G04 Created by KiCad (PCBNEW 6.0.1-79c1e3a40b~116~ubuntu21.04.1) date 2022-02-15 17:06:26*
%MOMM*%
%LPD*%
G01*
G04 APERTURE LIST*
G04 #@! TA.AperFunction,ComponentPad*
%ADD10R,1.700000X1.700000*%
G04 #@! TD*
G04 #@! TA.AperFunction,ComponentPad*
%ADD11O,1.700000X1.700000*%
G04 #@! TD*
G04 #@! TA.AperFunction,ComponentPad*
%ADD12R,1.600000X1.600000*%
G04 #@! TD*
G04 #@! TA.AperFunction,ComponentPad*
%ADD13O,1.600000X1.600000*%
G04 #@! TD*
G04 #@! TA.AperFunction,ViaPad*
%ADD14C,0.800000*%
G04 #@! TD*
G04 #@! TA.AperFunction,Conductor*
%ADD15C,0.250000*%
G04 #@! TD*
G04 APERTURE END LIST*
D10*
X112395000Y-85090000D03*
D11*
X112395000Y-87630000D03*
X112395000Y-90170000D03*
X112395000Y-92710000D03*
X112395000Y-95250000D03*
X112395000Y-97790000D03*
X112395000Y-100330000D03*
X112395000Y-102870000D03*
D10*
X90170000Y-85090000D03*
D11*
X90170000Y-87630000D03*
X90170000Y-90170000D03*
X90170000Y-92710000D03*
X90170000Y-95250000D03*
X90170000Y-97790000D03*
X90170000Y-100330000D03*
X90170000Y-102870000D03*
D10*
X97155000Y-109220000D03*
D11*
X99695000Y-109220000D03*
X102235000Y-109220000D03*
X104775000Y-109220000D03*
D10*
X119380000Y-109220000D03*
D11*
X121920000Y-109220000D03*
X124460000Y-109220000D03*
X127000000Y-109220000D03*
D10*
X77470000Y-85090000D03*
D11*
X80010000Y-85090000D03*
X82550000Y-85090000D03*
D10*
X77470000Y-87630000D03*
D11*
X80010000Y-87630000D03*
X82550000Y-87630000D03*
D10*
X77470000Y-90170000D03*
D11*
X80010000Y-90170000D03*
X82550000Y-90170000D03*
D10*
X77470000Y-92710000D03*
D11*
X80010000Y-92710000D03*
X82550000Y-92710000D03*
D10*
X77470000Y-95250000D03*
D11*
X80010000Y-95250000D03*
X82550000Y-95250000D03*
D10*
X77470000Y-97790000D03*
D11*
X80010000Y-97790000D03*
X82550000Y-97790000D03*
D10*
X70485000Y-82550000D03*
D11*
X70485000Y-85090000D03*
X70485000Y-87630000D03*
X70485000Y-90170000D03*
X70485000Y-92710000D03*
X70485000Y-95250000D03*
X70485000Y-97790000D03*
X70485000Y-100330000D03*
X70485000Y-102870000D03*
X70485000Y-105410000D03*
X70485000Y-107950000D03*
X70485000Y-110490000D03*
D10*
X77470000Y-100330000D03*
D11*
X80010000Y-100330000D03*
X82550000Y-100330000D03*
D10*
X77470000Y-102870000D03*
D11*
X80010000Y-102870000D03*
X82550000Y-102870000D03*
D10*
X77470000Y-105410000D03*
D11*
X80010000Y-105410000D03*
X82550000Y-105410000D03*
D10*
X77470000Y-107950000D03*
D11*
X80010000Y-107950000D03*
X82550000Y-107950000D03*
D12*
X119380000Y-85090000D03*
D13*
X119380000Y-87630000D03*
X119380000Y-90170000D03*
X119380000Y-92710000D03*
X119380000Y-95250000D03*
X119380000Y-97790000D03*
X119380000Y-100330000D03*
X127000000Y-100330000D03*
X127000000Y-97790000D03*
X127000000Y-95250000D03*
X127000000Y-92710000D03*
X127000000Y-90170000D03*
X127000000Y-87630000D03*
X127000000Y-85090000D03*
D12*
X97155000Y-85090000D03*
D13*
X97155000Y-87630000D03*
X97155000Y-90170000D03*
X97155000Y-92710000D03*
X97155000Y-95250000D03*
X97155000Y-97790000D03*
X97155000Y-100330000D03*
X104775000Y-100330000D03*
X104775000Y-97790000D03*
X104775000Y-95250000D03*
X104775000Y-92710000D03*
X104775000Y-90170000D03*
X104775000Y-87630000D03*
X104775000Y-85090000D03*
D14*
X123190000Y-98425000D03*
X123190000Y-95885000D03*
X100330000Y-98425000D03*
X102235000Y-96520000D03*
X120650000Y-104140000D03*
X98425000Y-104140000D03*
D15*
X123190000Y-98425000D02*
X123190000Y-95885000D01*
X100330000Y-98425000D02*
X102235000Y-96520000D01*
X103649999Y-108094999D02*
X103649999Y-93835001D01*
X103649999Y-93835001D02*
X104775000Y-92710000D01*
X104775000Y-109220000D02*
X103649999Y-108094999D01*
X105339001Y-110395001D02*
X105950001Y-109784001D01*
X105950001Y-101505001D02*
X104775000Y-100330000D01*
X105950001Y-109784001D02*
X105950001Y-101505001D01*
X102235000Y-109220000D02*
X103410001Y-110395001D01*
X103410001Y-110395001D02*
X105339001Y-110395001D01*
X99695000Y-109220000D02*
X99695000Y-100330000D01*
X99695000Y-100330000D02*
X97155000Y-97790000D01*
X97155000Y-90170000D02*
X96029999Y-91295001D01*
X96029999Y-108094999D02*
X97155000Y-109220000D01*
X96029999Y-91295001D02*
X96029999Y-108094999D01*
X127000000Y-92710000D02*
X125874999Y-93835001D01*
X125874999Y-108094999D02*
X127000000Y-109220000D01*
X125874999Y-93835001D02*
X125874999Y-108094999D01*
X127564001Y-110395001D02*
X128175001Y-109784001D01*
X128175001Y-109784001D02*
X128175001Y-101505001D01*
X125635001Y-110395001D02*
X127564001Y-110395001D01*
X124460000Y-109220000D02*
X125635001Y-110395001D01*
X128175001Y-101505001D02*
X127000000Y-100330000D01*
X119380000Y-97790000D02*
X121920000Y-100330000D01*
X121920000Y-100330000D02*
X121920000Y-109220000D01*
X118254999Y-91295001D02*
X118254999Y-108094999D01*
X118254999Y-108094999D02*
X119380000Y-109220000D01*
X119380000Y-90170000D02*
X118254999Y-91295001D01*
X120650000Y-101600000D02*
X119380000Y-100330000D01*
X97155000Y-100330000D02*
X97155000Y-102870000D01*
X97155000Y-102870000D02*
X98425000Y-104140000D01*
X120650000Y-104140000D02*
X120650000Y-101600000D01*
G04 #@! TA.AperFunction,Conductor*
G36*
X129345511Y-80538002D02*
G01*
X129366485Y-80554905D01*
X132170095Y-83358515D01*
X132204121Y-83420827D01*
X132207000Y-83447610D01*
X132207000Y-109592390D01*
X132186998Y-109660511D01*
X132170095Y-109681485D01*
X129366485Y-112485095D01*
X129304173Y-112519121D01*
X129277390Y-112522000D01*
X68579000Y-112522000D01*
X68510879Y-112501998D01*
X68464386Y-112448342D01*
X68453000Y-112396000D01*
X68453000Y-110757966D01*
X69153257Y-110757966D01*
X69183565Y-110892446D01*
X69186645Y-110902275D01*
X69266770Y-111099603D01*
X69271413Y-111108794D01*
X69382694Y-111290388D01*
X69388777Y-111298699D01*
X69528213Y-111459667D01*
X69535580Y-111466883D01*
X69699434Y-111602916D01*
X69707881Y-111608831D01*
X69891756Y-111716279D01*
X69901042Y-111720729D01*
X70100001Y-111796703D01*
X70109899Y-111799579D01*
X70213250Y-111820606D01*
X70227299Y-111819410D01*
X70231000Y-111809065D01*
X70231000Y-111808517D01*
X70739000Y-111808517D01*
X70743064Y-111822359D01*
X70756478Y-111824393D01*
X70763184Y-111823534D01*
X70773262Y-111821392D01*
X70977255Y-111760191D01*
X70986842Y-111756433D01*
X71178095Y-111662739D01*
X71186945Y-111657464D01*
X71360328Y-111533792D01*
X71368200Y-111527139D01*
X71519052Y-111376812D01*
X71525730Y-111368965D01*
X71650003Y-111196020D01*
X71655313Y-111187183D01*
X71749670Y-110996267D01*
X71753469Y-110986672D01*
X71815377Y-110782910D01*
X71817555Y-110772837D01*
X71818986Y-110761962D01*
X71816775Y-110747778D01*
X71803617Y-110744000D01*
X70757115Y-110744000D01*
X70741876Y-110748475D01*
X70740671Y-110749865D01*
X70739000Y-110757548D01*
X70739000Y-111808517D01*
X70231000Y-111808517D01*
X70231000Y-110762115D01*
X70226525Y-110746876D01*
X70225135Y-110745671D01*
X70217452Y-110744000D01*
X69168225Y-110744000D01*
X69154694Y-110747973D01*
X69153257Y-110757966D01*
X68453000Y-110757966D01*
X68453000Y-107916695D01*
X69122251Y-107916695D01*
X69122548Y-107921848D01*
X69122548Y-107921851D01*
X69130889Y-108066507D01*
X69135110Y-108139715D01*
X69136247Y-108144759D01*
X69136248Y-108144767D01*
X69157275Y-108238069D01*
X69184222Y-108357639D01*
X69268266Y-108564616D01*
X69319019Y-108647438D01*
X69382291Y-108750688D01*
X69384987Y-108755088D01*
X69531250Y-108923938D01*
X69703126Y-109066632D01*
X69776955Y-109109774D01*
X69825679Y-109161412D01*
X69838750Y-109231195D01*
X69812019Y-109296967D01*
X69771562Y-109330327D01*
X69763457Y-109334546D01*
X69754738Y-109340036D01*
X69584433Y-109467905D01*
X69576726Y-109474748D01*
X69429590Y-109628717D01*
X69423104Y-109636727D01*
X69303098Y-109812649D01*
X69298000Y-109821623D01*
X69208338Y-110014783D01*
X69204775Y-110024470D01*
X69149389Y-110224183D01*
X69150912Y-110232607D01*
X69163292Y-110236000D01*
X71803344Y-110236000D01*
X71816875Y-110232027D01*
X71818180Y-110222947D01*
X71776214Y-110055875D01*
X71772894Y-110046124D01*
X71687972Y-109850814D01*
X71683105Y-109841739D01*
X71567426Y-109662926D01*
X71561136Y-109654757D01*
X71417806Y-109497240D01*
X71410273Y-109490215D01*
X71243139Y-109358222D01*
X71234556Y-109352520D01*
X71197602Y-109332120D01*
X71147631Y-109281687D01*
X71132859Y-109212245D01*
X71157975Y-109145839D01*
X71185327Y-109119232D01*
X71208797Y-109102491D01*
X71364860Y-108991173D01*
X71508400Y-108848134D01*
X76111500Y-108848134D01*
X76118255Y-108910316D01*
X76169385Y-109046705D01*
X76256739Y-109163261D01*
X76373295Y-109250615D01*
X76509684Y-109301745D01*
X76571866Y-109308500D01*
X78368134Y-109308500D01*
X78430316Y-109301745D01*
X78566705Y-109250615D01*
X78683261Y-109163261D01*
X78770615Y-109046705D01*
X78792799Y-108987529D01*
X78814598Y-108929382D01*
X78857240Y-108872618D01*
X78923802Y-108847918D01*
X78993150Y-108863126D01*
X79027817Y-108891114D01*
X79056250Y-108923938D01*
X79228126Y-109066632D01*
X79421000Y-109179338D01*
X79629692Y-109259030D01*
X79634760Y-109260061D01*
X79634763Y-109260062D01*
X79741054Y-109281687D01*
X79848597Y-109303567D01*
X79853772Y-109303757D01*
X79853774Y-109303757D01*
X80066673Y-109311564D01*
X80066677Y-109311564D01*
X80071837Y-109311753D01*
X80076957Y-109311097D01*
X80076959Y-109311097D01*
X80288288Y-109284025D01*
X80288289Y-109284025D01*
X80293416Y-109283368D01*
X80299019Y-109281687D01*
X80502429Y-109220661D01*
X80502434Y-109220659D01*
X80507384Y-109219174D01*
X80707994Y-109120896D01*
X80889860Y-108991173D01*
X81048096Y-108833489D01*
X81107594Y-108750689D01*
X81178453Y-108652077D01*
X81179776Y-108653028D01*
X81226645Y-108609857D01*
X81296580Y-108597625D01*
X81362026Y-108625144D01*
X81389875Y-108656994D01*
X81449987Y-108755088D01*
X81596250Y-108923938D01*
X81768126Y-109066632D01*
X81961000Y-109179338D01*
X82169692Y-109259030D01*
X82174760Y-109260061D01*
X82174763Y-109260062D01*
X82281054Y-109281687D01*
X82388597Y-109303567D01*
X82393772Y-109303757D01*
X82393774Y-109303757D01*
X82606673Y-109311564D01*
X82606677Y-109311564D01*
X82611837Y-109311753D01*
X82616957Y-109311097D01*
X82616959Y-109311097D01*
X82828288Y-109284025D01*
X82828289Y-109284025D01*
X82833416Y-109283368D01*
X82839019Y-109281687D01*
X83042429Y-109220661D01*
X83042434Y-109220659D01*
X83047384Y-109219174D01*
X83247994Y-109120896D01*
X83429860Y-108991173D01*
X83588096Y-108833489D01*
X83647594Y-108750689D01*
X83715435Y-108656277D01*
X83718453Y-108652077D01*
X83739320Y-108609857D01*
X83815136Y-108456453D01*
X83815137Y-108456451D01*
X83817430Y-108451811D01*
X83882370Y-108238069D01*
X83911529Y-108016590D01*
X83912505Y-107976638D01*
X83913074Y-107953365D01*
X83913074Y-107953361D01*
X83913156Y-107950000D01*
X83894852Y-107727361D01*
X83840431Y-107510702D01*
X83751354Y-107305840D01*
X83630014Y-107118277D01*
X83479670Y-106953051D01*
X83475619Y-106949852D01*
X83475615Y-106949848D01*
X83308414Y-106817800D01*
X83308410Y-106817798D01*
X83304359Y-106814598D01*
X83263053Y-106791796D01*
X83213084Y-106741364D01*
X83198312Y-106671921D01*
X83223428Y-106605516D01*
X83250780Y-106578909D01*
X83294603Y-106547650D01*
X83429860Y-106451173D01*
X83588096Y-106293489D01*
X83647594Y-106210689D01*
X83715435Y-106116277D01*
X83718453Y-106112077D01*
X83739320Y-106069857D01*
X83815136Y-105916453D01*
X83815137Y-105916451D01*
X83817430Y-105911811D01*
X83882370Y-105698069D01*
X83911529Y-105476590D01*
X83913156Y-105410000D01*
X83894852Y-105187361D01*
X83840431Y-104970702D01*
X83751354Y-104765840D01*
X83630014Y-104578277D01*
X83479670Y-104413051D01*
X83475619Y-104409852D01*
X83475615Y-104409848D01*
X83308414Y-104277800D01*
X83308410Y-104277798D01*
X83304359Y-104274598D01*
X83263053Y-104251796D01*
X83213084Y-104201364D01*
X83198312Y-104131921D01*
X83223428Y-104065516D01*
X83250780Y-104038909D01*
X83294603Y-104007650D01*
X83429860Y-103911173D01*
X83588096Y-103753489D01*
X83647594Y-103670689D01*
X83715435Y-103576277D01*
X83718453Y-103572077D01*
X83739320Y-103529857D01*
X83815136Y-103376453D01*
X83815137Y-103376451D01*
X83817430Y-103371811D01*
X83882370Y-103158069D01*
X83911529Y-102936590D01*
X83913156Y-102870000D01*
X83910418Y-102836695D01*
X88807251Y-102836695D01*
X88807548Y-102841848D01*
X88807548Y-102841851D01*
X88813011Y-102936590D01*
X88820110Y-103059715D01*
X88821247Y-103064761D01*
X88821248Y-103064767D01*
X88841119Y-103152939D01*
X88869222Y-103277639D01*
X88953266Y-103484616D01*
X89004019Y-103567438D01*
X89067291Y-103670688D01*
X89069987Y-103675088D01*
X89216250Y-103843938D01*
X89388126Y-103986632D01*
X89581000Y-104099338D01*
X89789692Y-104179030D01*
X89794760Y-104180061D01*
X89794763Y-104180062D01*
X89876734Y-104196739D01*
X90008597Y-104223567D01*
X90013772Y-104223757D01*
X90013774Y-104223757D01*
X90226673Y-104231564D01*
X90226677Y-104231564D01*
X90231837Y-104231753D01*
X90236957Y-104231097D01*
X90236959Y-104231097D01*
X90448288Y-104204025D01*
X90448289Y-104204025D01*
X90453416Y-104203368D01*
X90463562Y-104200324D01*
X90662429Y-104140661D01*
X90662434Y-104140659D01*
X90667384Y-104139174D01*
X90867994Y-104040896D01*
X91049860Y-103911173D01*
X91208096Y-103753489D01*
X91267594Y-103670689D01*
X91335435Y-103576277D01*
X91338453Y-103572077D01*
X91359320Y-103529857D01*
X91435136Y-103376453D01*
X91435137Y-103376451D01*
X91437430Y-103371811D01*
X91502370Y-103158069D01*
X91531529Y-102936590D01*
X91533156Y-102870000D01*
X91514852Y-102647361D01*
X91460431Y-102430702D01*
X91371354Y-102225840D01*
X91250014Y-102038277D01*
X91099670Y-101873051D01*
X91095619Y-101869852D01*
X91095615Y-101869848D01*
X90928414Y-101737800D01*
X90928410Y-101737798D01*
X90924359Y-101734598D01*
X90883053Y-101711796D01*
X90833084Y-101661364D01*
X90818312Y-101591921D01*
X90843428Y-101525516D01*
X90870780Y-101498909D01*
X90923727Y-101461142D01*
X91049860Y-101371173D01*
X91074917Y-101346204D01*
X91196106Y-101225437D01*
X91208096Y-101213489D01*
X91267594Y-101130689D01*
X91335435Y-101036277D01*
X91338453Y-101032077D01*
X91359320Y-100989857D01*
X91435136Y-100836453D01*
X91435137Y-100836451D01*
X91437430Y-100831811D01*
X91502370Y-100618069D01*
X91531529Y-100396590D01*
X91531688Y-100390091D01*
X91533074Y-100333365D01*
X91533074Y-100333361D01*
X91533156Y-100330000D01*
X91514852Y-100107361D01*
X91460431Y-99890702D01*
X91371354Y-99685840D01*
X91250014Y-99498277D01*
X91099670Y-99333051D01*
X91095619Y-99329852D01*
X91095615Y-99329848D01*
X90928414Y-99197800D01*
X90928410Y-99197798D01*
X90924359Y-99194598D01*
X90883053Y-99171796D01*
X90833084Y-99121364D01*
X90818312Y-99051921D01*
X90843428Y-98985516D01*
X90870780Y-98958909D01*
X90919207Y-98924366D01*
X91049860Y-98831173D01*
X91081788Y-98799357D01*
X91193616Y-98687918D01*
X91208096Y-98673489D01*
X91239498Y-98629789D01*
X91335435Y-98496277D01*
X91338453Y-98492077D01*
X91358628Y-98451257D01*
X91435136Y-98296453D01*
X91435137Y-98296451D01*
X91437430Y-98291811D01*
X91502370Y-98078069D01*
X91531529Y-97856590D01*
X91533156Y-97790000D01*
X91514852Y-97567361D01*
X91460431Y-97350702D01*
X91371354Y-97145840D01*
X91250014Y-96958277D01*
X91099670Y-96793051D01*
X91095619Y-96789852D01*
X91095615Y-96789848D01*
X90928414Y-96657800D01*
X90928410Y-96657798D01*
X90924359Y-96654598D01*
X90883053Y-96631796D01*
X90833084Y-96581364D01*
X90818312Y-96511921D01*
X90843428Y-96445516D01*
X90870780Y-96418909D01*
X90919207Y-96384366D01*
X91049860Y-96291173D01*
X91081788Y-96259357D01*
X91178355Y-96163126D01*
X91208096Y-96133489D01*
X91239498Y-96089789D01*
X91335435Y-95956277D01*
X91338453Y-95952077D01*
X91358628Y-95911257D01*
X91435136Y-95756453D01*
X91435137Y-95756451D01*
X91437430Y-95751811D01*
X91502370Y-95538069D01*
X91531529Y-95316590D01*
X91533156Y-95250000D01*
X91514852Y-95027361D01*
X91460431Y-94810702D01*
X91371354Y-94605840D01*
X91250014Y-94418277D01*
X91099670Y-94253051D01*
X91095619Y-94249852D01*
X91095615Y-94249848D01*
X90928414Y-94117800D01*
X90928410Y-94117798D01*
X90924359Y-94114598D01*
X90883053Y-94091796D01*
X90833084Y-94041364D01*
X90818312Y-93971921D01*
X90843428Y-93905516D01*
X90870780Y-93878909D01*
X90919207Y-93844366D01*
X91049860Y-93751173D01*
X91081788Y-93719357D01*
X91193616Y-93607918D01*
X91208096Y-93593489D01*
X91239498Y-93549789D01*
X91335435Y-93416277D01*
X91338453Y-93412077D01*
X91348054Y-93392652D01*
X91435136Y-93216453D01*
X91435137Y-93216451D01*
X91437430Y-93211811D01*
X91502370Y-92998069D01*
X91531529Y-92776590D01*
X91533156Y-92710000D01*
X91514852Y-92487361D01*
X91460431Y-92270702D01*
X91371354Y-92065840D01*
X91250014Y-91878277D01*
X91099670Y-91713051D01*
X91095619Y-91709852D01*
X91095615Y-91709848D01*
X90928414Y-91577800D01*
X90928410Y-91577798D01*
X90924359Y-91574598D01*
X90883053Y-91551796D01*
X90833084Y-91501364D01*
X90818312Y-91431921D01*
X90843428Y-91365516D01*
X90870780Y-91338909D01*
X90919207Y-91304366D01*
X90960456Y-91274944D01*
X95391779Y-91274944D01*
X95392525Y-91282836D01*
X95395940Y-91318962D01*
X95396499Y-91330820D01*
X95396499Y-108016232D01*
X95395972Y-108027415D01*
X95394297Y-108034908D01*
X95394546Y-108042834D01*
X95394546Y-108042835D01*
X95396437Y-108102985D01*
X95396499Y-108106944D01*
X95396499Y-108134855D01*
X95396996Y-108138789D01*
X95396996Y-108138790D01*
X95397004Y-108138855D01*
X95397937Y-108150692D01*
X95399326Y-108194888D01*
X95402082Y-108204373D01*
X95404977Y-108214338D01*
X95408986Y-108233699D01*
X95411525Y-108253796D01*
X95414444Y-108261167D01*
X95414444Y-108261169D01*
X95427803Y-108294911D01*
X95431648Y-108306141D01*
X95441770Y-108340982D01*
X95443981Y-108348592D01*
X95448014Y-108355411D01*
X95448016Y-108355416D01*
X95454292Y-108366027D01*
X95462987Y-108383775D01*
X95470447Y-108402616D01*
X95475109Y-108409032D01*
X95475109Y-108409033D01*
X95496435Y-108438386D01*
X95502951Y-108448306D01*
X95525457Y-108486361D01*
X95539778Y-108500682D01*
X95552618Y-108515715D01*
X95564527Y-108532106D01*
X95582144Y-108546680D01*
X95598604Y-108560297D01*
X95607383Y-108568287D01*
X95759595Y-108720499D01*
X95793621Y-108782811D01*
X95796500Y-108809594D01*
X95796500Y-110118134D01*
X95803255Y-110180316D01*
X95854385Y-110316705D01*
X95941739Y-110433261D01*
X96058295Y-110520615D01*
X96194684Y-110571745D01*
X96256866Y-110578500D01*
X98053134Y-110578500D01*
X98115316Y-110571745D01*
X98251705Y-110520615D01*
X98368261Y-110433261D01*
X98455615Y-110316705D01*
X98487142Y-110232607D01*
X98499598Y-110199382D01*
X98542240Y-110142618D01*
X98608802Y-110117918D01*
X98678150Y-110133126D01*
X98712817Y-110161114D01*
X98741250Y-110193938D01*
X98913126Y-110336632D01*
X99106000Y-110449338D01*
X99314692Y-110529030D01*
X99319760Y-110530061D01*
X99319763Y-110530062D01*
X99427012Y-110551882D01*
X99533597Y-110573567D01*
X99538772Y-110573757D01*
X99538774Y-110573757D01*
X99751673Y-110581564D01*
X99751677Y-110581564D01*
X99756837Y-110581753D01*
X99761957Y-110581097D01*
X99761959Y-110581097D01*
X99973288Y-110554025D01*
X99973289Y-110554025D01*
X99978416Y-110553368D01*
X100024827Y-110539444D01*
X100187429Y-110490661D01*
X100187434Y-110490659D01*
X100192384Y-110489174D01*
X100392994Y-110390896D01*
X100574860Y-110261173D01*
X100581582Y-110254475D01*
X100675268Y-110161115D01*
X100733096Y-110103489D01*
X100863453Y-109922077D01*
X100864776Y-109923028D01*
X100911645Y-109879857D01*
X100981580Y-109867625D01*
X101047026Y-109895144D01*
X101074875Y-109926994D01*
X101134987Y-110025088D01*
X101281250Y-110193938D01*
X101453126Y-110336632D01*
X101646000Y-110449338D01*
X101854692Y-110529030D01*
X101859760Y-110530061D01*
X101859763Y-110530062D01*
X101967012Y-110551882D01*
X102073597Y-110573567D01*
X102078772Y-110573757D01*
X102078774Y-110573757D01*
X102291673Y-110581564D01*
X102291677Y-110581564D01*
X102296837Y-110581753D01*
X102301957Y-110581097D01*
X102301959Y-110581097D01*
X102513288Y-110554025D01*
X102513289Y-110554025D01*
X102518416Y-110553368D01*
X102523367Y-110551883D01*
X102523370Y-110551882D01*
X102564829Y-110539444D01*
X102635825Y-110539028D01*
X102690131Y-110571035D01*
X102906344Y-110787248D01*
X102913888Y-110795538D01*
X102918001Y-110802019D01*
X102923778Y-110807444D01*
X102967668Y-110848659D01*
X102970510Y-110851414D01*
X102990231Y-110871135D01*
X102993426Y-110873613D01*
X103002448Y-110881319D01*
X103034680Y-110911587D01*
X103041629Y-110915407D01*
X103052433Y-110921347D01*
X103068957Y-110932200D01*
X103084960Y-110944614D01*
X103125544Y-110962177D01*
X103136174Y-110967384D01*
X103174941Y-110988696D01*
X103182618Y-110990667D01*
X103182623Y-110990669D01*
X103194559Y-110993733D01*
X103213267Y-111000138D01*
X103231856Y-111008182D01*
X103239681Y-111009421D01*
X103239683Y-111009422D01*
X103275520Y-111015098D01*
X103287141Y-111017505D01*
X103318960Y-111025674D01*
X103329971Y-111028501D01*
X103350232Y-111028501D01*
X103369941Y-111030052D01*
X103389944Y-111033220D01*
X103397836Y-111032474D01*
X103403063Y-111031980D01*
X103433955Y-111029060D01*
X103445812Y-111028501D01*
X105260234Y-111028501D01*
X105271417Y-111029028D01*
X105278910Y-111030703D01*
X105286836Y-111030454D01*
X105286837Y-111030454D01*
X105346987Y-111028563D01*
X105350946Y-111028501D01*
X105378857Y-111028501D01*
X105382792Y-111028004D01*
X105382857Y-111027996D01*
X105394694Y-111027063D01*
X105426952Y-111026049D01*
X105430971Y-111025923D01*
X105438890Y-111025674D01*
X105458344Y-111020022D01*
X105477701Y-111016014D01*
X105489931Y-111014469D01*
X105489932Y-111014469D01*
X105497798Y-111013475D01*
X105505169Y-111010556D01*
X105505171Y-111010556D01*
X105538913Y-110997197D01*
X105550143Y-110993352D01*
X105584984Y-110983230D01*
X105584985Y-110983230D01*
X105592594Y-110981019D01*
X105599413Y-110976986D01*
X105599418Y-110976984D01*
X105610029Y-110970708D01*
X105627777Y-110962013D01*
X105646618Y-110954553D01*
X105666988Y-110939754D01*
X105682388Y-110928565D01*
X105692308Y-110922049D01*
X105723536Y-110903581D01*
X105723539Y-110903579D01*
X105730363Y-110899543D01*
X105744684Y-110885222D01*
X105759718Y-110872381D01*
X105761433Y-110871135D01*
X105776108Y-110860473D01*
X105804299Y-110826396D01*
X105812289Y-110817617D01*
X106342248Y-110287658D01*
X106350538Y-110280114D01*
X106357019Y-110276001D01*
X106403660Y-110226333D01*
X106406414Y-110223492D01*
X106426135Y-110203771D01*
X106428613Y-110200576D01*
X106436319Y-110191554D01*
X106450909Y-110176017D01*
X106466587Y-110159322D01*
X106476347Y-110141569D01*
X106487200Y-110125046D01*
X106492561Y-110118134D01*
X106499614Y-110109042D01*
X106517177Y-110068458D01*
X106522384Y-110057828D01*
X106543696Y-110019061D01*
X106545667Y-110011384D01*
X106545669Y-110011379D01*
X106548733Y-109999443D01*
X106555139Y-109980731D01*
X106560035Y-109969418D01*
X106563182Y-109962146D01*
X106569529Y-109922077D01*
X106570098Y-109918482D01*
X106572505Y-109906861D01*
X106581529Y-109871712D01*
X106581529Y-109871711D01*
X106583501Y-109864031D01*
X106583501Y-109843770D01*
X106585052Y-109824059D01*
X106586980Y-109811886D01*
X106588220Y-109804058D01*
X106584060Y-109760047D01*
X106583501Y-109748190D01*
X106583501Y-102836695D01*
X111032251Y-102836695D01*
X111032548Y-102841848D01*
X111032548Y-102841851D01*
X111038011Y-102936590D01*
X111045110Y-103059715D01*
X111046247Y-103064761D01*
X111046248Y-103064767D01*
X111066119Y-103152939D01*
X111094222Y-103277639D01*
X111178266Y-103484616D01*
X111229019Y-103567438D01*
X111292291Y-103670688D01*
X111294987Y-103675088D01*
X111441250Y-103843938D01*
X111613126Y-103986632D01*
X111806000Y-104099338D01*
X112014692Y-104179030D01*
X112019760Y-104180061D01*
X112019763Y-104180062D01*
X112101734Y-104196739D01*
X112233597Y-104223567D01*
X112238772Y-104223757D01*
X112238774Y-104223757D01*
X112451673Y-104231564D01*
X112451677Y-104231564D01*
X112456837Y-104231753D01*
X112461957Y-104231097D01*
X112461959Y-104231097D01*
X112673288Y-104204025D01*
X112673289Y-104204025D01*
X112678416Y-104203368D01*
X112688562Y-104200324D01*
X112887429Y-104140661D01*
X112887434Y-104140659D01*
X112892384Y-104139174D01*
X113092994Y-104040896D01*
X113274860Y-103911173D01*
X113433096Y-103753489D01*
X113492594Y-103670689D01*
X113560435Y-103576277D01*
X113563453Y-103572077D01*
X113584320Y-103529857D01*
X113660136Y-103376453D01*
X113660137Y-103376451D01*
X113662430Y-103371811D01*
X113727370Y-103158069D01*
X113756529Y-102936590D01*
X113758156Y-102870000D01*
X113739852Y-102647361D01*
X113685431Y-102430702D01*
X113596354Y-102225840D01*
X113475014Y-102038277D01*
X113324670Y-101873051D01*
X113320619Y-101869852D01*
X113320615Y-101869848D01*
X113153414Y-101737800D01*
X113153410Y-101737798D01*
X113149359Y-101734598D01*
X113108053Y-101711796D01*
X113058084Y-101661364D01*
X113043312Y-101591921D01*
X113068428Y-101525516D01*
X113095780Y-101498909D01*
X113148727Y-101461142D01*
X113274860Y-101371173D01*
X113299917Y-101346204D01*
X113421106Y-101225437D01*
X113433096Y-101213489D01*
X113492594Y-101130689D01*
X113560435Y-101036277D01*
X113563453Y-101032077D01*
X113584320Y-100989857D01*
X113660136Y-100836453D01*
X113660137Y-100836451D01*
X113662430Y-100831811D01*
X113727370Y-100618069D01*
X113756529Y-100396590D01*
X113756688Y-100390091D01*
X113758074Y-100333365D01*
X113758074Y-100333361D01*
X113758156Y-100330000D01*
X113739852Y-100107361D01*
X113685431Y-99890702D01*
X113596354Y-99685840D01*
X113475014Y-99498277D01*
X113324670Y-99333051D01*
X113320619Y-99329852D01*
X113320615Y-99329848D01*
X113153414Y-99197800D01*
X113153410Y-99197798D01*
X113149359Y-99194598D01*
X113108053Y-99171796D01*
X113058084Y-99121364D01*
X113043312Y-99051921D01*
X113068428Y-98985516D01*
X113095780Y-98958909D01*
X113144207Y-98924366D01*
X113274860Y-98831173D01*
X113306788Y-98799357D01*
X113418616Y-98687918D01*
X113433096Y-98673489D01*
X113464498Y-98629789D01*
X113560435Y-98496277D01*
X113563453Y-98492077D01*
X113583628Y-98451257D01*
X113660136Y-98296453D01*
X113660137Y-98296451D01*
X113662430Y-98291811D01*
X113727370Y-98078069D01*
X113756529Y-97856590D01*
X113758156Y-97790000D01*
X113739852Y-97567361D01*
X113685431Y-97350702D01*
X113596354Y-97145840D01*
X113475014Y-96958277D01*
X113324670Y-96793051D01*
X113320619Y-96789852D01*
X113320615Y-96789848D01*
X113153414Y-96657800D01*
X113153410Y-96657798D01*
X113149359Y-96654598D01*
X113108053Y-96631796D01*
X113058084Y-96581364D01*
X113043312Y-96511921D01*
X113068428Y-96445516D01*
X113095780Y-96418909D01*
X113144207Y-96384366D01*
X113274860Y-96291173D01*
X113306788Y-96259357D01*
X113403355Y-96163126D01*
X113433096Y-96133489D01*
X113464498Y-96089789D01*
X113560435Y-95956277D01*
X113563453Y-95952077D01*
X113583628Y-95911257D01*
X113660136Y-95756453D01*
X113660137Y-95756451D01*
X113662430Y-95751811D01*
X113727370Y-95538069D01*
X113756529Y-95316590D01*
X113758156Y-95250000D01*
X113739852Y-95027361D01*
X113685431Y-94810702D01*
X113596354Y-94605840D01*
X113475014Y-94418277D01*
X113324670Y-94253051D01*
X113320619Y-94249852D01*
X113320615Y-94249848D01*
X113153414Y-94117800D01*
X113153410Y-94117798D01*
X113149359Y-94114598D01*
X113108053Y-94091796D01*
X113058084Y-94041364D01*
X113043312Y-93971921D01*
X113068428Y-93905516D01*
X113095780Y-93878909D01*
X113144207Y-93844366D01*
X113274860Y-93751173D01*
X113306788Y-93719357D01*
X113418616Y-93607918D01*
X113433096Y-93593489D01*
X113464498Y-93549789D01*
X113560435Y-93416277D01*
X113563453Y-93412077D01*
X113573054Y-93392652D01*
X113660136Y-93216453D01*
X113660137Y-93216451D01*
X113662430Y-93211811D01*
X113727370Y-92998069D01*
X113756529Y-92776590D01*
X113758156Y-92710000D01*
X113739852Y-92487361D01*
X113685431Y-92270702D01*
X113596354Y-92065840D01*
X113475014Y-91878277D01*
X113324670Y-91713051D01*
X113320619Y-91709852D01*
X113320615Y-91709848D01*
X113153414Y-91577800D01*
X113153410Y-91577798D01*
X113149359Y-91574598D01*
X113108053Y-91551796D01*
X113058084Y-91501364D01*
X113043312Y-91431921D01*
X113068428Y-91365516D01*
X113095780Y-91338909D01*
X113144207Y-91304366D01*
X113185456Y-91274944D01*
X117616779Y-91274944D01*
X117617525Y-91282836D01*
X117620940Y-91318962D01*
X117621499Y-91330820D01*
X117621499Y-108016232D01*
X117620972Y-108027415D01*
X117619297Y-108034908D01*
X117619546Y-108042834D01*
X117619546Y-108042835D01*
X117621437Y-108102985D01*
X117621499Y-108106944D01*
X117621499Y-108134855D01*
X117621996Y-108138789D01*
X117621996Y-108138790D01*
X117622004Y-108138855D01*
X117622937Y-108150692D01*
X117624326Y-108194888D01*
X117627082Y-108204373D01*
X117629977Y-108214338D01*
X117633986Y-108233699D01*
X117636525Y-108253796D01*
X117639444Y-108261167D01*
X117639444Y-108261169D01*
X117652803Y-108294911D01*
X117656648Y-108306141D01*
X117666770Y-108340982D01*
X117668981Y-108348592D01*
X117673014Y-108355411D01*
X117673016Y-108355416D01*
X117679292Y-108366027D01*
X117687987Y-108383775D01*
X117695447Y-108402616D01*
X117700109Y-108409032D01*
X117700109Y-108409033D01*
X117721435Y-108438386D01*
X117727951Y-108448306D01*
X117750457Y-108486361D01*
X117764778Y-108500682D01*
X117777618Y-108515715D01*
X117789527Y-108532106D01*
X117807144Y-108546680D01*
X117823604Y-108560297D01*
X117832383Y-108568287D01*
X117984595Y-108720499D01*
X118018621Y-108782811D01*
X118021500Y-108809594D01*
X118021500Y-110118134D01*
X118028255Y-110180316D01*
X118079385Y-110316705D01*
X118166739Y-110433261D01*
X118283295Y-110520615D01*
X118419684Y-110571745D01*
X118481866Y-110578500D01*
X120278134Y-110578500D01*
X120340316Y-110571745D01*
X120476705Y-110520615D01*
X120593261Y-110433261D01*
X120680615Y-110316705D01*
X120712142Y-110232607D01*
X120724598Y-110199382D01*
X120767240Y-110142618D01*
X120833802Y-110117918D01*
X120903150Y-110133126D01*
X120937817Y-110161114D01*
X120966250Y-110193938D01*
X121138126Y-110336632D01*
X121331000Y-110449338D01*
X121539692Y-110529030D01*
X121544760Y-110530061D01*
X121544763Y-110530062D01*
X121652012Y-110551882D01*
X121758597Y-110573567D01*
X121763772Y-110573757D01*
X121763774Y-110573757D01*
X121976673Y-110581564D01*
X121976677Y-110581564D01*
X121981837Y-110581753D01*
X121986957Y-110581097D01*
X121986959Y-110581097D01*
X122198288Y-110554025D01*
X122198289Y-110554025D01*
X122203416Y-110553368D01*
X122249827Y-110539444D01*
X122412429Y-110490661D01*
X122412434Y-110490659D01*
X122417384Y-110489174D01*
X122617994Y-110390896D01*
X122799860Y-110261173D01*
X122806582Y-110254475D01*
X122900268Y-110161115D01*
X122958096Y-110103489D01*
X123088453Y-109922077D01*
X123089776Y-109923028D01*
X123136645Y-109879857D01*
X123206580Y-109867625D01*
X123272026Y-109895144D01*
X123299875Y-109926994D01*
X123359987Y-110025088D01*
X123506250Y-110193938D01*
X123678126Y-110336632D01*
X123871000Y-110449338D01*
X124079692Y-110529030D01*
X124084760Y-110530061D01*
X124084763Y-110530062D01*
X124192012Y-110551882D01*
X124298597Y-110573567D01*
X124303772Y-110573757D01*
X124303774Y-110573757D01*
X124516673Y-110581564D01*
X124516677Y-110581564D01*
X124521837Y-110581753D01*
X124526957Y-110581097D01*
X124526959Y-110581097D01*
X124738288Y-110554025D01*
X124738289Y-110554025D01*
X124743416Y-110553368D01*
X124748367Y-110551883D01*
X124748370Y-110551882D01*
X124789829Y-110539444D01*
X124860825Y-110539028D01*
X124915131Y-110571035D01*
X125131344Y-110787248D01*
X125138888Y-110795538D01*
X125143001Y-110802019D01*
X125148778Y-110807444D01*
X125192668Y-110848659D01*
X125195510Y-110851414D01*
X125215231Y-110871135D01*
X125218426Y-110873613D01*
X125227448Y-110881319D01*
X125259680Y-110911587D01*
X125266629Y-110915407D01*
X125277433Y-110921347D01*
X125293957Y-110932200D01*
X125309960Y-110944614D01*
X125350544Y-110962177D01*
X125361174Y-110967384D01*
X125399941Y-110988696D01*
X125407618Y-110990667D01*
X125407623Y-110990669D01*
X125419559Y-110993733D01*
X125438267Y-111000138D01*
X125456856Y-111008182D01*
X125464681Y-111009421D01*
X125464683Y-111009422D01*
X125500520Y-111015098D01*
X125512141Y-111017505D01*
X125543960Y-111025674D01*
X125554971Y-111028501D01*
X125575232Y-111028501D01*
X125594941Y-111030052D01*
X125614944Y-111033220D01*
X125622836Y-111032474D01*
X125628063Y-111031980D01*
X125658955Y-111029060D01*
X125670812Y-111028501D01*
X127485234Y-111028501D01*
X127496417Y-111029028D01*
X127503910Y-111030703D01*
X127511836Y-111030454D01*
X127511837Y-111030454D01*
X127571987Y-111028563D01*
X127575946Y-111028501D01*
X127603857Y-111028501D01*
X127607792Y-111028004D01*
X127607857Y-111027996D01*
X127619694Y-111027063D01*
X127651952Y-111026049D01*
X127655971Y-111025923D01*
X127663890Y-111025674D01*
X127683344Y-111020022D01*
X127702701Y-111016014D01*
X127714931Y-111014469D01*
X127714932Y-111014469D01*
X127722798Y-111013475D01*
X127730169Y-111010556D01*
X127730171Y-111010556D01*
X127763913Y-110997197D01*
X127775143Y-110993352D01*
X127809984Y-110983230D01*
X127809985Y-110983230D01*
X127817594Y-110981019D01*
X127824413Y-110976986D01*
X127824418Y-110976984D01*
X127835029Y-110970708D01*
X127852777Y-110962013D01*
X127871618Y-110954553D01*
X127891988Y-110939754D01*
X127907388Y-110928565D01*
X127917308Y-110922049D01*
X127948536Y-110903581D01*
X127948539Y-110903579D01*
X127955363Y-110899543D01*
X127969684Y-110885222D01*
X127984718Y-110872381D01*
X127986433Y-110871135D01*
X128001108Y-110860473D01*
X128029299Y-110826396D01*
X128037289Y-110817617D01*
X128567248Y-110287658D01*
X128575538Y-110280114D01*
X128582019Y-110276001D01*
X128628660Y-110226333D01*
X128631414Y-110223492D01*
X128651135Y-110203771D01*
X128653613Y-110200576D01*
X128661319Y-110191554D01*
X128675909Y-110176017D01*
X128691587Y-110159322D01*
X128701347Y-110141569D01*
X128712200Y-110125046D01*
X128717561Y-110118134D01*
X128724614Y-110109042D01*
X128742177Y-110068458D01*
X128747384Y-110057828D01*
X128768696Y-110019061D01*
X128770667Y-110011384D01*
X128770669Y-110011379D01*
X128773733Y-109999443D01*
X128780139Y-109980731D01*
X128785035Y-109969418D01*
X128788182Y-109962146D01*
X128794529Y-109922077D01*
X128795098Y-109918482D01*
X128797505Y-109906861D01*
X128806529Y-109871712D01*
X128806529Y-109871711D01*
X128808501Y-109864031D01*
X128808501Y-109843770D01*
X128810052Y-109824059D01*
X128811980Y-109811886D01*
X128813220Y-109804058D01*
X128809060Y-109760047D01*
X128808501Y-109748190D01*
X128808501Y-101583764D01*
X128809028Y-101572580D01*
X128810702Y-101565092D01*
X128808563Y-101497033D01*
X128808501Y-101493076D01*
X128808501Y-101465145D01*
X128807995Y-101461139D01*
X128807062Y-101449293D01*
X128807061Y-101449242D01*
X128805674Y-101405111D01*
X128800023Y-101385659D01*
X128796015Y-101366307D01*
X128794468Y-101354064D01*
X128793475Y-101346204D01*
X128787818Y-101331916D01*
X128777201Y-101305098D01*
X128773356Y-101293871D01*
X128772323Y-101290316D01*
X128761019Y-101251408D01*
X128756985Y-101244586D01*
X128756982Y-101244580D01*
X128750707Y-101233969D01*
X128742011Y-101216219D01*
X128737473Y-101204757D01*
X128737470Y-101204752D01*
X128734553Y-101197384D01*
X128720379Y-101177875D01*
X128708574Y-101161626D01*
X128702058Y-101151708D01*
X128683576Y-101120458D01*
X128679543Y-101113638D01*
X128665219Y-101099314D01*
X128652377Y-101084279D01*
X128640473Y-101067894D01*
X128606407Y-101039712D01*
X128597628Y-101031723D01*
X128309152Y-100743247D01*
X128275126Y-100680935D01*
X128276540Y-100621541D01*
X128277470Y-100618069D01*
X128293543Y-100558087D01*
X128313498Y-100330000D01*
X128293543Y-100101913D01*
X128292119Y-100096598D01*
X128235707Y-99886067D01*
X128235706Y-99886065D01*
X128234284Y-99880757D01*
X128224281Y-99859305D01*
X128139849Y-99678238D01*
X128139846Y-99678233D01*
X128137523Y-99673251D01*
X128064098Y-99568389D01*
X128009357Y-99490211D01*
X128009355Y-99490208D01*
X128006198Y-99485700D01*
X127844300Y-99323802D01*
X127839792Y-99320645D01*
X127839789Y-99320643D01*
X127694346Y-99218803D01*
X127656749Y-99192477D01*
X127651767Y-99190154D01*
X127651762Y-99190151D01*
X127617543Y-99174195D01*
X127564258Y-99127278D01*
X127544797Y-99059001D01*
X127565339Y-98991041D01*
X127617543Y-98945805D01*
X127651762Y-98929849D01*
X127651767Y-98929846D01*
X127656749Y-98927523D01*
X127799555Y-98827529D01*
X127839789Y-98799357D01*
X127839792Y-98799355D01*
X127844300Y-98796198D01*
X128006198Y-98634300D01*
X128019763Y-98614928D01*
X128109032Y-98487438D01*
X128137523Y-98446749D01*
X128139846Y-98441767D01*
X128139849Y-98441762D01*
X128231961Y-98244225D01*
X128231961Y-98244224D01*
X128234284Y-98239243D01*
X128244150Y-98202425D01*
X128292119Y-98023402D01*
X128292120Y-98023398D01*
X128293543Y-98018087D01*
X128313498Y-97790000D01*
X128293543Y-97561913D01*
X128287593Y-97539707D01*
X128235707Y-97346067D01*
X128235706Y-97346065D01*
X128234284Y-97340757D01*
X128220463Y-97311118D01*
X128139849Y-97138238D01*
X128139846Y-97138233D01*
X128137523Y-97133251D01*
X128032598Y-96983403D01*
X128009357Y-96950211D01*
X128009355Y-96950208D01*
X128006198Y-96945700D01*
X127844300Y-96783802D01*
X127839792Y-96780645D01*
X127839789Y-96780643D01*
X127704780Y-96686109D01*
X127656749Y-96652477D01*
X127651767Y-96650154D01*
X127651762Y-96650151D01*
X127617543Y-96634195D01*
X127564258Y-96587278D01*
X127544797Y-96519001D01*
X127565339Y-96451041D01*
X127617543Y-96405805D01*
X127651762Y-96389849D01*
X127651767Y-96389846D01*
X127656749Y-96387523D01*
X127799555Y-96287529D01*
X127839789Y-96259357D01*
X127839792Y-96259355D01*
X127844300Y-96256198D01*
X128006198Y-96094300D01*
X128019763Y-96074928D01*
X128109032Y-95947438D01*
X128137523Y-95906749D01*
X128139846Y-95901767D01*
X128139849Y-95901762D01*
X128231961Y-95704225D01*
X128231961Y-95704224D01*
X128234284Y-95699243D01*
X128244150Y-95662425D01*
X128292119Y-95483402D01*
X128292119Y-95483400D01*
X128293543Y-95478087D01*
X128313498Y-95250000D01*
X128293543Y-95021913D01*
X128287593Y-94999707D01*
X128235707Y-94806067D01*
X128235706Y-94806065D01*
X128234284Y-94800757D01*
X128222092Y-94774610D01*
X128139849Y-94598238D01*
X128139846Y-94598233D01*
X128137523Y-94593251D01*
X128064098Y-94488389D01*
X128009357Y-94410211D01*
X128009355Y-94410208D01*
X128006198Y-94405700D01*
X127844300Y-94243802D01*
X127839792Y-94240645D01*
X127839789Y-94240643D01*
X127704780Y-94146109D01*
X127656749Y-94112477D01*
X127651767Y-94110154D01*
X127651762Y-94110151D01*
X127617543Y-94094195D01*
X127564258Y-94047278D01*
X127544797Y-93979001D01*
X127565339Y-93911041D01*
X127617543Y-93865805D01*
X127651762Y-93849849D01*
X127651767Y-93849846D01*
X127656749Y-93847523D01*
X127799896Y-93747290D01*
X127839789Y-93719357D01*
X127839792Y-93719355D01*
X127844300Y-93716198D01*
X128006198Y-93554300D01*
X128030923Y-93518990D01*
X128076498Y-93453901D01*
X128137523Y-93366749D01*
X128139846Y-93361767D01*
X128139849Y-93361762D01*
X128231961Y-93164225D01*
X128231961Y-93164224D01*
X128234284Y-93159243D01*
X128244150Y-93122425D01*
X128292119Y-92943402D01*
X128292119Y-92943400D01*
X128293543Y-92938087D01*
X128313498Y-92710000D01*
X128293543Y-92481913D01*
X128287593Y-92459707D01*
X128235707Y-92266067D01*
X128235706Y-92266065D01*
X128234284Y-92260757D01*
X128222092Y-92234610D01*
X128139849Y-92058238D01*
X128139846Y-92058233D01*
X128137523Y-92053251D01*
X128064098Y-91948389D01*
X128009357Y-91870211D01*
X128009355Y-91870208D01*
X128006198Y-91865700D01*
X127844300Y-91703802D01*
X127839792Y-91700645D01*
X127839789Y-91700643D01*
X127704780Y-91606109D01*
X127656749Y-91572477D01*
X127651767Y-91570154D01*
X127651762Y-91570151D01*
X127617543Y-91554195D01*
X127564258Y-91507278D01*
X127544797Y-91439001D01*
X127565339Y-91371041D01*
X127617543Y-91325805D01*
X127651762Y-91309849D01*
X127651767Y-91309846D01*
X127656749Y-91307523D01*
X127799896Y-91207290D01*
X127839789Y-91179357D01*
X127839792Y-91179355D01*
X127844300Y-91176198D01*
X128006198Y-91014300D01*
X128030923Y-90978990D01*
X128076498Y-90913901D01*
X128137523Y-90826749D01*
X128139846Y-90821767D01*
X128139849Y-90821762D01*
X128231961Y-90624225D01*
X128231961Y-90624224D01*
X128234284Y-90619243D01*
X128244150Y-90582425D01*
X128292119Y-90403402D01*
X128292119Y-90403400D01*
X128293543Y-90398087D01*
X128313498Y-90170000D01*
X128293543Y-89941913D01*
X128287593Y-89919707D01*
X128235707Y-89726067D01*
X128235706Y-89726065D01*
X128234284Y-89720757D01*
X128222092Y-89694610D01*
X128139849Y-89518238D01*
X128139846Y-89518233D01*
X128137523Y-89513251D01*
X128064098Y-89408389D01*
X128009357Y-89330211D01*
X128009355Y-89330208D01*
X128006198Y-89325700D01*
X127844300Y-89163802D01*
X127839792Y-89160645D01*
X127839789Y-89160643D01*
X127704780Y-89066109D01*
X127656749Y-89032477D01*
X127651767Y-89030154D01*
X127651762Y-89030151D01*
X127617543Y-89014195D01*
X127564258Y-88967278D01*
X127544797Y-88899001D01*
X127565339Y-88831041D01*
X127617543Y-88785805D01*
X127651762Y-88769849D01*
X127651767Y-88769846D01*
X127656749Y-88767523D01*
X127799555Y-88667529D01*
X127839789Y-88639357D01*
X127839792Y-88639355D01*
X127844300Y-88636198D01*
X128006198Y-88474300D01*
X128030923Y-88438990D01*
X128109032Y-88327438D01*
X128137523Y-88286749D01*
X128139846Y-88281767D01*
X128139849Y-88281762D01*
X128231961Y-88084225D01*
X128231961Y-88084224D01*
X128234284Y-88079243D01*
X128244150Y-88042425D01*
X128292119Y-87863402D01*
X128292119Y-87863400D01*
X128293543Y-87858087D01*
X128313498Y-87630000D01*
X128293543Y-87401913D01*
X128287593Y-87379707D01*
X128235707Y-87186067D01*
X128235706Y-87186065D01*
X128234284Y-87180757D01*
X128222092Y-87154610D01*
X128139849Y-86978238D01*
X128139846Y-86978233D01*
X128137523Y-86973251D01*
X128064098Y-86868389D01*
X128009357Y-86790211D01*
X128009355Y-86790208D01*
X128006198Y-86785700D01*
X127844300Y-86623802D01*
X127839792Y-86620645D01*
X127839789Y-86620643D01*
X127761611Y-86565902D01*
X127656749Y-86492477D01*
X127651767Y-86490154D01*
X127651762Y-86490151D01*
X127617543Y-86474195D01*
X127564258Y-86427278D01*
X127544797Y-86359001D01*
X127565339Y-86291041D01*
X127617543Y-86245805D01*
X127651762Y-86229849D01*
X127651767Y-86229846D01*
X127656749Y-86227523D01*
X127799555Y-86127529D01*
X127839789Y-86099357D01*
X127839792Y-86099355D01*
X127844300Y-86096198D01*
X128006198Y-85934300D01*
X128030923Y-85898990D01*
X128109032Y-85787438D01*
X128137523Y-85746749D01*
X128139846Y-85741767D01*
X128139849Y-85741762D01*
X128231961Y-85544225D01*
X128231961Y-85544224D01*
X128234284Y-85539243D01*
X128244150Y-85502425D01*
X128292119Y-85323402D01*
X128292119Y-85323400D01*
X128293543Y-85318087D01*
X128313498Y-85090000D01*
X128293543Y-84861913D01*
X128287593Y-84839707D01*
X128235707Y-84646067D01*
X128235706Y-84646065D01*
X128234284Y-84640757D01*
X128222092Y-84614610D01*
X128139849Y-84438238D01*
X128139846Y-84438233D01*
X128137523Y-84433251D01*
X128064098Y-84328389D01*
X128009357Y-84250211D01*
X128009355Y-84250208D01*
X128006198Y-84245700D01*
X127844300Y-84083802D01*
X127839792Y-84080645D01*
X127839789Y-84080643D01*
X127670553Y-83962143D01*
X127656749Y-83952477D01*
X127651767Y-83950154D01*
X127651762Y-83950151D01*
X127454225Y-83858039D01*
X127454224Y-83858039D01*
X127449243Y-83855716D01*
X127443935Y-83854294D01*
X127443933Y-83854293D01*
X127233402Y-83797881D01*
X127233400Y-83797881D01*
X127228087Y-83796457D01*
X127000000Y-83776502D01*
X126771913Y-83796457D01*
X126766600Y-83797881D01*
X126766598Y-83797881D01*
X126556067Y-83854293D01*
X126556065Y-83854294D01*
X126550757Y-83855716D01*
X126545776Y-83858039D01*
X126545775Y-83858039D01*
X126348238Y-83950151D01*
X126348233Y-83950154D01*
X126343251Y-83952477D01*
X126329447Y-83962143D01*
X126160211Y-84080643D01*
X126160208Y-84080645D01*
X126155700Y-84083802D01*
X125993802Y-84245700D01*
X125990645Y-84250208D01*
X125990643Y-84250211D01*
X125935902Y-84328389D01*
X125862477Y-84433251D01*
X125860154Y-84438233D01*
X125860151Y-84438238D01*
X125777908Y-84614610D01*
X125765716Y-84640757D01*
X125764294Y-84646065D01*
X125764293Y-84646067D01*
X125712407Y-84839707D01*
X125706457Y-84861913D01*
X125686502Y-85090000D01*
X125706457Y-85318087D01*
X125707881Y-85323400D01*
X125707881Y-85323402D01*
X125755851Y-85502425D01*
X125765716Y-85539243D01*
X125768039Y-85544224D01*
X125768039Y-85544225D01*
X125860151Y-85741762D01*
X125860154Y-85741767D01*
X125862477Y-85746749D01*
X125890968Y-85787438D01*
X125969078Y-85898990D01*
X125993802Y-85934300D01*
X126155700Y-86096198D01*
X126160208Y-86099355D01*
X126160211Y-86099357D01*
X126200445Y-86127529D01*
X126343251Y-86227523D01*
X126348233Y-86229846D01*
X126348238Y-86229849D01*
X126382457Y-86245805D01*
X126435742Y-86292722D01*
X126455203Y-86360999D01*
X126434661Y-86428959D01*
X126382457Y-86474195D01*
X126348238Y-86490151D01*
X126348233Y-86490154D01*
X126343251Y-86492477D01*
X126238389Y-86565902D01*
X126160211Y-86620643D01*
X126160208Y-86620645D01*
X126155700Y-86623802D01*
X125993802Y-86785700D01*
X125990645Y-86790208D01*
X125990643Y-86790211D01*
X125935902Y-86868389D01*
X125862477Y-86973251D01*
X125860154Y-86978233D01*
X125860151Y-86978238D01*
X125777908Y-87154610D01*
X125765716Y-87180757D01*
X125764294Y-87186065D01*
X125764293Y-87186067D01*
X125712407Y-87379707D01*
X125706457Y-87401913D01*
X125686502Y-87630000D01*
X125706457Y-87858087D01*
X125707881Y-87863400D01*
X125707881Y-87863402D01*
X125755851Y-88042425D01*
X125765716Y-88079243D01*
X125768039Y-88084224D01*
X125768039Y-88084225D01*
X125860151Y-88281762D01*
X125860154Y-88281767D01*
X125862477Y-88286749D01*
X125890968Y-88327438D01*
X125969078Y-88438990D01*
X125993802Y-88474300D01*
X126155700Y-88636198D01*
X126160208Y-88639355D01*
X126160211Y-88639357D01*
X126200445Y-88667529D01*
X126343251Y-88767523D01*
X126348233Y-88769846D01*
X126348238Y-88769849D01*
X126382457Y-88785805D01*
X126435742Y-88832722D01*
X126455203Y-88900999D01*
X126434661Y-88968959D01*
X126382457Y-89014195D01*
X126348238Y-89030151D01*
X126348233Y-89030154D01*
X126343251Y-89032477D01*
X126295220Y-89066109D01*
X126160211Y-89160643D01*
X126160208Y-89160645D01*
X126155700Y-89163802D01*
X125993802Y-89325700D01*
X125990645Y-89330208D01*
X125990643Y-89330211D01*
X125935902Y-89408389D01*
X125862477Y-89513251D01*
X125860154Y-89518233D01*
X125860151Y-89518238D01*
X125777908Y-89694610D01*
X125765716Y-89720757D01*
X125764294Y-89726065D01*
X125764293Y-89726067D01*
X125712407Y-89919707D01*
X125706457Y-89941913D01*
X125686502Y-90170000D01*
X125706457Y-90398087D01*
X125707881Y-90403400D01*
X125707881Y-90403402D01*
X125755851Y-90582425D01*
X125765716Y-90619243D01*
X125768039Y-90624224D01*
X125768039Y-90624225D01*
X125860151Y-90821762D01*
X125860154Y-90821767D01*
X125862477Y-90826749D01*
X125923502Y-90913901D01*
X125969078Y-90978990D01*
X125993802Y-91014300D01*
X126155700Y-91176198D01*
X126160208Y-91179355D01*
X126160211Y-91179357D01*
X126200104Y-91207290D01*
X126343251Y-91307523D01*
X126348233Y-91309846D01*
X126348238Y-91309849D01*
X126382457Y-91325805D01*
X126435742Y-91372722D01*
X126455203Y-91440999D01*
X126434661Y-91508959D01*
X126382457Y-91554195D01*
X126348238Y-91570151D01*
X126348233Y-91570154D01*
X126343251Y-91572477D01*
X126295220Y-91606109D01*
X126160211Y-91700643D01*
X126160208Y-91700645D01*
X126155700Y-91703802D01*
X125993802Y-91865700D01*
X125990645Y-91870208D01*
X125990643Y-91870211D01*
X125935902Y-91948389D01*
X125862477Y-92053251D01*
X125860154Y-92058233D01*
X125860151Y-92058238D01*
X125777908Y-92234610D01*
X125765716Y-92260757D01*
X125764294Y-92266065D01*
X125764293Y-92266067D01*
X125712407Y-92459707D01*
X125706457Y-92481913D01*
X125686502Y-92710000D01*
X125706457Y-92938087D01*
X125707879Y-92943392D01*
X125707881Y-92943406D01*
X125723459Y-93001539D01*
X125721771Y-93072516D01*
X125690848Y-93123248D01*
X125505255Y-93308840D01*
X125482741Y-93331354D01*
X125474462Y-93338888D01*
X125467981Y-93343001D01*
X125421356Y-93392652D01*
X125418601Y-93395494D01*
X125398864Y-93415231D01*
X125396384Y-93418428D01*
X125388681Y-93427448D01*
X125358413Y-93459680D01*
X125354594Y-93466626D01*
X125354592Y-93466629D01*
X125348651Y-93477435D01*
X125337800Y-93493954D01*
X125325385Y-93509960D01*
X125322240Y-93517229D01*
X125322237Y-93517233D01*
X125307825Y-93550538D01*
X125302608Y-93561188D01*
X125281304Y-93599941D01*
X125279333Y-93607616D01*
X125279333Y-93607617D01*
X125276266Y-93619563D01*
X125269862Y-93638267D01*
X125261818Y-93656856D01*
X125260579Y-93664679D01*
X125260576Y-93664689D01*
X125254900Y-93700525D01*
X125252494Y-93712145D01*
X125243471Y-93747290D01*
X125241499Y-93754971D01*
X125241499Y-93775225D01*
X125239948Y-93794935D01*
X125236779Y-93814944D01*
X125237525Y-93822836D01*
X125240940Y-93858962D01*
X125241499Y-93870820D01*
X125241499Y-107886101D01*
X125221497Y-107954222D01*
X125167841Y-108000715D01*
X125097567Y-108010819D01*
X125054606Y-107996410D01*
X125018789Y-107976638D01*
X125013920Y-107974914D01*
X125013916Y-107974912D01*
X124813087Y-107903795D01*
X124813083Y-107903794D01*
X124808212Y-107902069D01*
X124803119Y-107901162D01*
X124803116Y-107901161D01*
X124593373Y-107863800D01*
X124593367Y-107863799D01*
X124588284Y-107862894D01*
X124514452Y-107861992D01*
X124370081Y-107860228D01*
X124370079Y-107860228D01*
X124364911Y-107860165D01*
X124144091Y-107893955D01*
X123931756Y-107963357D01*
X123901443Y-107979137D01*
X123757975Y-108053822D01*
X123733607Y-108066507D01*
X123729474Y-108069610D01*
X123729471Y-108069612D01*
X123573166Y-108186969D01*
X123554965Y-108200635D01*
X123551393Y-108204373D01*
X123409748Y-108352596D01*
X123400629Y-108362138D01*
X123293201Y-108519621D01*
X123238293Y-108564621D01*
X123167768Y-108572792D01*
X123104021Y-108541538D01*
X123083324Y-108517054D01*
X123002822Y-108392617D01*
X123002820Y-108392614D01*
X123000014Y-108388277D01*
X122849670Y-108223051D01*
X122845619Y-108219852D01*
X122845615Y-108219848D01*
X122678414Y-108087800D01*
X122678410Y-108087798D01*
X122674359Y-108084598D01*
X122669835Y-108082101D01*
X122669831Y-108082098D01*
X122618608Y-108053822D01*
X122568636Y-108003390D01*
X122553500Y-107943513D01*
X122553500Y-100408763D01*
X122554027Y-100397579D01*
X122555701Y-100390091D01*
X122553562Y-100322032D01*
X122553500Y-100318075D01*
X122553500Y-100290144D01*
X122552994Y-100286138D01*
X122552061Y-100274292D01*
X122550922Y-100238037D01*
X122550673Y-100230110D01*
X122545022Y-100210658D01*
X122541014Y-100191306D01*
X122539468Y-100179068D01*
X122539467Y-100179066D01*
X122538474Y-100171203D01*
X122522194Y-100130086D01*
X122518359Y-100118885D01*
X122506018Y-100076406D01*
X122501985Y-100069587D01*
X122501983Y-100069582D01*
X122495707Y-100058971D01*
X122487010Y-100041221D01*
X122479552Y-100022383D01*
X122453571Y-99986623D01*
X122447053Y-99976701D01*
X122428578Y-99945460D01*
X122428574Y-99945455D01*
X122424542Y-99938637D01*
X122410218Y-99924313D01*
X122397376Y-99909278D01*
X122385472Y-99892893D01*
X122351406Y-99864711D01*
X122342627Y-99856722D01*
X120910905Y-98425000D01*
X122276496Y-98425000D01*
X122296458Y-98614928D01*
X122355473Y-98796556D01*
X122450960Y-98961944D01*
X122455378Y-98966851D01*
X122455379Y-98966852D01*
X122559220Y-99082179D01*
X122578747Y-99103866D01*
X122669809Y-99170027D01*
X122708036Y-99197800D01*
X122733248Y-99216118D01*
X122739276Y-99218802D01*
X122739278Y-99218803D01*
X122901681Y-99291109D01*
X122907712Y-99293794D01*
X123001112Y-99313647D01*
X123088056Y-99332128D01*
X123088061Y-99332128D01*
X123094513Y-99333500D01*
X123285487Y-99333500D01*
X123291939Y-99332128D01*
X123291944Y-99332128D01*
X123378888Y-99313647D01*
X123472288Y-99293794D01*
X123478319Y-99291109D01*
X123640722Y-99218803D01*
X123640724Y-99218802D01*
X123646752Y-99216118D01*
X123671965Y-99197800D01*
X123710191Y-99170027D01*
X123801253Y-99103866D01*
X123820780Y-99082179D01*
X123924621Y-98966852D01*
X123924622Y-98966851D01*
X123929040Y-98961944D01*
X124024527Y-98796556D01*
X124083542Y-98614928D01*
X124103504Y-98425000D01*
X124089993Y-98296453D01*
X124084232Y-98241635D01*
X124084232Y-98241633D01*
X124083542Y-98235072D01*
X124024527Y-98053444D01*
X123929040Y-97888056D01*
X123855863Y-97806785D01*
X123825147Y-97742779D01*
X123823500Y-97722476D01*
X123823500Y-96587524D01*
X123843502Y-96519403D01*
X123855858Y-96503221D01*
X123929040Y-96421944D01*
X124024527Y-96256556D01*
X124083542Y-96074928D01*
X124103504Y-95885000D01*
X124089993Y-95756453D01*
X124084232Y-95701635D01*
X124084232Y-95701633D01*
X124083542Y-95695072D01*
X124024527Y-95513444D01*
X123929040Y-95348056D01*
X123903696Y-95319908D01*
X123805675Y-95211045D01*
X123805674Y-95211044D01*
X123801253Y-95206134D01*
X123646752Y-95093882D01*
X123640724Y-95091198D01*
X123640722Y-95091197D01*
X123478319Y-95018891D01*
X123478318Y-95018891D01*
X123472288Y-95016206D01*
X123370499Y-94994570D01*
X123291944Y-94977872D01*
X123291939Y-94977872D01*
X123285487Y-94976500D01*
X123094513Y-94976500D01*
X123088061Y-94977872D01*
X123088056Y-94977872D01*
X123009501Y-94994570D01*
X122907712Y-95016206D01*
X122901682Y-95018891D01*
X122901681Y-95018891D01*
X122739278Y-95091197D01*
X122739276Y-95091198D01*
X122733248Y-95093882D01*
X122578747Y-95206134D01*
X122574326Y-95211044D01*
X122574325Y-95211045D01*
X122476305Y-95319908D01*
X122450960Y-95348056D01*
X122355473Y-95513444D01*
X122296458Y-95695072D01*
X122295768Y-95701633D01*
X122295768Y-95701635D01*
X122290007Y-95756453D01*
X122276496Y-95885000D01*
X122296458Y-96074928D01*
X122355473Y-96256556D01*
X122450960Y-96421944D01*
X122524137Y-96503215D01*
X122554853Y-96567221D01*
X122556500Y-96587524D01*
X122556500Y-97722476D01*
X122536498Y-97790597D01*
X122524142Y-97806779D01*
X122450960Y-97888056D01*
X122355473Y-98053444D01*
X122296458Y-98235072D01*
X122295768Y-98241633D01*
X122295768Y-98241635D01*
X122290007Y-98296453D01*
X122276496Y-98425000D01*
X120910905Y-98425000D01*
X120689152Y-98203247D01*
X120655126Y-98140935D01*
X120656540Y-98081541D01*
X120658845Y-98072939D01*
X120673543Y-98018087D01*
X120693498Y-97790000D01*
X120673543Y-97561913D01*
X120667593Y-97539707D01*
X120615707Y-97346067D01*
X120615706Y-97346065D01*
X120614284Y-97340757D01*
X120600463Y-97311118D01*
X120519849Y-97138238D01*
X120519846Y-97138233D01*
X120517523Y-97133251D01*
X120412598Y-96983403D01*
X120389357Y-96950211D01*
X120389355Y-96950208D01*
X120386198Y-96945700D01*
X120224300Y-96783802D01*
X120219792Y-96780645D01*
X120219789Y-96780643D01*
X120084780Y-96686109D01*
X120036749Y-96652477D01*
X120031767Y-96650154D01*
X120031762Y-96650151D01*
X119997543Y-96634195D01*
X119944258Y-96587278D01*
X119924797Y-96519001D01*
X119945339Y-96451041D01*
X119997543Y-96405805D01*
X120031762Y-96389849D01*
X120031767Y-96389846D01*
X120036749Y-96387523D01*
X120179555Y-96287529D01*
X120219789Y-96259357D01*
X120219792Y-96259355D01*
X120224300Y-96256198D01*
X120386198Y-96094300D01*
X120399763Y-96074928D01*
X120489032Y-95947438D01*
X120517523Y-95906749D01*
X120519846Y-95901767D01*
X120519849Y-95901762D01*
X120611961Y-95704225D01*
X120611961Y-95704224D01*
X120614284Y-95699243D01*
X120624150Y-95662425D01*
X120672119Y-95483402D01*
X120672119Y-95483400D01*
X120673543Y-95478087D01*
X120693498Y-95250000D01*
X120673543Y-95021913D01*
X120667593Y-94999707D01*
X120615707Y-94806067D01*
X120615706Y-94806065D01*
X120614284Y-94800757D01*
X120602092Y-94774610D01*
X120519849Y-94598238D01*
X120519846Y-94598233D01*
X120517523Y-94593251D01*
X120444098Y-94488389D01*
X120389357Y-94410211D01*
X120389355Y-94410208D01*
X120386198Y-94405700D01*
X120224300Y-94243802D01*
X120219792Y-94240645D01*
X120219789Y-94240643D01*
X120084780Y-94146109D01*
X120036749Y-94112477D01*
X120031767Y-94110154D01*
X120031762Y-94110151D01*
X119997543Y-94094195D01*
X119944258Y-94047278D01*
X119924797Y-93979001D01*
X119945339Y-93911041D01*
X119997543Y-93865805D01*
X120031762Y-93849849D01*
X120031767Y-93849846D01*
X120036749Y-93847523D01*
X120179896Y-93747290D01*
X120219789Y-93719357D01*
X120219792Y-93719355D01*
X120224300Y-93716198D01*
X120386198Y-93554300D01*
X120410923Y-93518990D01*
X120456498Y-93453901D01*
X120517523Y-93366749D01*
X120519846Y-93361767D01*
X120519849Y-93361762D01*
X120611961Y-93164225D01*
X120611961Y-93164224D01*
X120614284Y-93159243D01*
X120624150Y-93122425D01*
X120672119Y-92943402D01*
X120672119Y-92943400D01*
X120673543Y-92938087D01*
X120693498Y-92710000D01*
X120673543Y-92481913D01*
X120667593Y-92459707D01*
X120615707Y-92266067D01*
X120615706Y-92266065D01*
X120614284Y-92260757D01*
X120602092Y-92234610D01*
X120519849Y-92058238D01*
X120519846Y-92058233D01*
X120517523Y-92053251D01*
X120444098Y-91948389D01*
X120389357Y-91870211D01*
X120389355Y-91870208D01*
X120386198Y-91865700D01*
X120224300Y-91703802D01*
X120219792Y-91700645D01*
X120219789Y-91700643D01*
X120084780Y-91606109D01*
X120036749Y-91572477D01*
X120031767Y-91570154D01*
X120031762Y-91570151D01*
X119997543Y-91554195D01*
X119944258Y-91507278D01*
X119924797Y-91439001D01*
X119945339Y-91371041D01*
X119997543Y-91325805D01*
X120031762Y-91309849D01*
X120031767Y-91309846D01*
X120036749Y-91307523D01*
X120179896Y-91207290D01*
X120219789Y-91179357D01*
X120219792Y-91179355D01*
X120224300Y-91176198D01*
X120386198Y-91014300D01*
X120410923Y-90978990D01*
X120456498Y-90913901D01*
X120517523Y-90826749D01*
X120519846Y-90821767D01*
X120519849Y-90821762D01*
X120611961Y-90624225D01*
X120611961Y-90624224D01*
X120614284Y-90619243D01*
X120624150Y-90582425D01*
X120672119Y-90403402D01*
X120672119Y-90403400D01*
X120673543Y-90398087D01*
X120693498Y-90170000D01*
X120673543Y-89941913D01*
X120667593Y-89919707D01*
X120615707Y-89726067D01*
X120615706Y-89726065D01*
X120614284Y-89720757D01*
X120602092Y-89694610D01*
X120519849Y-89518238D01*
X120519846Y-89518233D01*
X120517523Y-89513251D01*
X120444098Y-89408389D01*
X120389357Y-89330211D01*
X120389355Y-89330208D01*
X120386198Y-89325700D01*
X120224300Y-89163802D01*
X120219792Y-89160645D01*
X120219789Y-89160643D01*
X120084780Y-89066109D01*
X120036749Y-89032477D01*
X120031767Y-89030154D01*
X120031762Y-89030151D01*
X119997543Y-89014195D01*
X119944258Y-88967278D01*
X119924797Y-88899001D01*
X119945339Y-88831041D01*
X119997543Y-88785805D01*
X120031762Y-88769849D01*
X120031767Y-88769846D01*
X120036749Y-88767523D01*
X120179555Y-88667529D01*
X120219789Y-88639357D01*
X120219792Y-88639355D01*
X120224300Y-88636198D01*
X120386198Y-88474300D01*
X120410923Y-88438990D01*
X120489032Y-88327438D01*
X120517523Y-88286749D01*
X120519846Y-88281767D01*
X120519849Y-88281762D01*
X120611961Y-88084225D01*
X120611961Y-88084224D01*
X120614284Y-88079243D01*
X120624150Y-88042425D01*
X120672119Y-87863402D01*
X120672119Y-87863400D01*
X120673543Y-87858087D01*
X120693498Y-87630000D01*
X120673543Y-87401913D01*
X120667593Y-87379707D01*
X120615707Y-87186067D01*
X120615706Y-87186065D01*
X120614284Y-87180757D01*
X120602092Y-87154610D01*
X120519849Y-86978238D01*
X120519846Y-86978233D01*
X120517523Y-86973251D01*
X120444098Y-86868389D01*
X120389357Y-86790211D01*
X120389355Y-86790208D01*
X120386198Y-86785700D01*
X120224300Y-86623802D01*
X120219789Y-86620643D01*
X120215576Y-86617108D01*
X120216527Y-86615974D01*
X120176529Y-86565929D01*
X120169224Y-86495310D01*
X120201258Y-86431951D01*
X120262462Y-86395970D01*
X120279517Y-86392918D01*
X120290316Y-86391745D01*
X120426705Y-86340615D01*
X120543261Y-86253261D01*
X120630615Y-86136705D01*
X120681745Y-86000316D01*
X120688500Y-85938134D01*
X120688500Y-84241866D01*
X120681745Y-84179684D01*
X120630615Y-84043295D01*
X120543261Y-83926739D01*
X120426705Y-83839385D01*
X120290316Y-83788255D01*
X120228134Y-83781500D01*
X118531866Y-83781500D01*
X118469684Y-83788255D01*
X118333295Y-83839385D01*
X118216739Y-83926739D01*
X118129385Y-84043295D01*
X118078255Y-84179684D01*
X118071500Y-84241866D01*
X118071500Y-85938134D01*
X118078255Y-86000316D01*
X118129385Y-86136705D01*
X118216739Y-86253261D01*
X118333295Y-86340615D01*
X118469684Y-86391745D01*
X118480474Y-86392917D01*
X118482606Y-86393803D01*
X118485222Y-86394425D01*
X118485121Y-86394848D01*
X118546035Y-86420155D01*
X118586463Y-86478517D01*
X118588922Y-86549471D01*
X118552629Y-86610490D01*
X118543969Y-86617489D01*
X118540207Y-86620646D01*
X118535700Y-86623802D01*
X118373802Y-86785700D01*
X118370645Y-86790208D01*
X118370643Y-86790211D01*
X118315902Y-86868389D01*
X118242477Y-86973251D01*
X118240154Y-86978233D01*
X118240151Y-86978238D01*
X118157908Y-87154610D01*
X118145716Y-87180757D01*
X118144294Y-87186065D01*
X118144293Y-87186067D01*
X118092407Y-87379707D01*
X118086457Y-87401913D01*
X118066502Y-87630000D01*
X118086457Y-87858087D01*
X118087881Y-87863400D01*
X118087881Y-87863402D01*
X118135851Y-88042425D01*
X118145716Y-88079243D01*
X118148039Y-88084224D01*
X118148039Y-88084225D01*
X118240151Y-88281762D01*
X118240154Y-88281767D01*
X118242477Y-88286749D01*
X118270968Y-88327438D01*
X118349078Y-88438990D01*
X118373802Y-88474300D01*
X118535700Y-88636198D01*
X118540208Y-88639355D01*
X118540211Y-88639357D01*
X118580445Y-88667529D01*
X118723251Y-88767523D01*
X118728233Y-88769846D01*
X118728238Y-88769849D01*
X118762457Y-88785805D01*
X118815742Y-88832722D01*
X118835203Y-88900999D01*
X118814661Y-88968959D01*
X118762457Y-89014195D01*
X118728238Y-89030151D01*
X118728233Y-89030154D01*
X118723251Y-89032477D01*
X118675220Y-89066109D01*
X118540211Y-89160643D01*
X118540208Y-89160645D01*
X118535700Y-89163802D01*
X118373802Y-89325700D01*
X118370645Y-89330208D01*
X118370643Y-89330211D01*
X118315902Y-89408389D01*
X118242477Y-89513251D01*
X118240154Y-89518233D01*
X118240151Y-89518238D01*
X118157908Y-89694610D01*
X118145716Y-89720757D01*
X118144294Y-89726065D01*
X118144293Y-89726067D01*
X118092407Y-89919707D01*
X118086457Y-89941913D01*
X118066502Y-90170000D01*
X118086457Y-90398087D01*
X118087879Y-90403392D01*
X118087881Y-90403406D01*
X118103459Y-90461539D01*
X118101771Y-90532516D01*
X118070848Y-90583248D01*
X117885255Y-90768840D01*
X117862741Y-90791354D01*
X117854462Y-90798888D01*
X117847981Y-90803001D01*
X117801356Y-90852652D01*
X117798601Y-90855494D01*
X117778864Y-90875231D01*
X117776384Y-90878428D01*
X117768681Y-90887448D01*
X117738413Y-90919680D01*
X117734594Y-90926626D01*
X117734592Y-90926629D01*
X117728651Y-90937435D01*
X117717800Y-90953954D01*
X117705385Y-90969960D01*
X117702240Y-90977229D01*
X117702237Y-90977233D01*
X117687825Y-91010538D01*
X117682608Y-91021188D01*
X117661304Y-91059941D01*
X117659333Y-91067616D01*
X117659333Y-91067617D01*
X117656266Y-91079563D01*
X117649862Y-91098267D01*
X117641818Y-91116856D01*
X117640579Y-91124679D01*
X117640576Y-91124689D01*
X117634900Y-91160525D01*
X117632494Y-91172145D01*
X117623471Y-91207290D01*
X117621499Y-91214971D01*
X117621499Y-91235225D01*
X117619948Y-91254935D01*
X117616779Y-91274944D01*
X113185456Y-91274944D01*
X113274860Y-91211173D01*
X113306788Y-91179357D01*
X113418616Y-91067918D01*
X113433096Y-91053489D01*
X113464498Y-91009789D01*
X113560435Y-90876277D01*
X113563453Y-90872077D01*
X113573054Y-90852652D01*
X113660136Y-90676453D01*
X113660137Y-90676451D01*
X113662430Y-90671811D01*
X113727370Y-90458069D01*
X113756529Y-90236590D01*
X113758156Y-90170000D01*
X113739852Y-89947361D01*
X113685431Y-89730702D01*
X113596354Y-89525840D01*
X113475014Y-89338277D01*
X113324670Y-89173051D01*
X113320619Y-89169852D01*
X113320615Y-89169848D01*
X113153414Y-89037800D01*
X113153410Y-89037798D01*
X113149359Y-89034598D01*
X113108053Y-89011796D01*
X113058084Y-88961364D01*
X113043312Y-88891921D01*
X113068428Y-88825516D01*
X113095780Y-88798909D01*
X113144207Y-88764366D01*
X113274860Y-88671173D01*
X113306788Y-88639357D01*
X113418616Y-88527918D01*
X113433096Y-88513489D01*
X113464498Y-88469789D01*
X113560435Y-88336277D01*
X113563453Y-88332077D01*
X113583628Y-88291257D01*
X113660136Y-88136453D01*
X113660137Y-88136451D01*
X113662430Y-88131811D01*
X113727370Y-87918069D01*
X113756529Y-87696590D01*
X113758156Y-87630000D01*
X113739852Y-87407361D01*
X113685431Y-87190702D01*
X113596354Y-86985840D01*
X113475014Y-86798277D01*
X113460024Y-86781803D01*
X113327798Y-86636488D01*
X113296746Y-86572642D01*
X113305141Y-86502143D01*
X113350317Y-86447375D01*
X113376761Y-86433706D01*
X113483297Y-86393767D01*
X113491705Y-86390615D01*
X113608261Y-86303261D01*
X113695615Y-86186705D01*
X113746745Y-86050316D01*
X113753500Y-85988134D01*
X113753500Y-84191866D01*
X113746745Y-84129684D01*
X113695615Y-83993295D01*
X113608261Y-83876739D01*
X113491705Y-83789385D01*
X113355316Y-83738255D01*
X113293134Y-83731500D01*
X111496866Y-83731500D01*
X111434684Y-83738255D01*
X111298295Y-83789385D01*
X111181739Y-83876739D01*
X111094385Y-83993295D01*
X111043255Y-84129684D01*
X111036500Y-84191866D01*
X111036500Y-85988134D01*
X111043255Y-86050316D01*
X111094385Y-86186705D01*
X111181739Y-86303261D01*
X111298295Y-86390615D01*
X111306704Y-86393767D01*
X111306705Y-86393768D01*
X111415451Y-86434535D01*
X111472216Y-86477176D01*
X111496916Y-86543738D01*
X111481709Y-86613087D01*
X111462316Y-86639568D01*
X111378729Y-86727037D01*
X111335629Y-86772138D01*
X111332720Y-86776403D01*
X111332714Y-86776411D01*
X111323300Y-86790211D01*
X111209743Y-86956680D01*
X111115688Y-87159305D01*
X111055989Y-87374570D01*
X111032251Y-87596695D01*
X111032548Y-87601848D01*
X111032548Y-87601851D01*
X111038011Y-87696590D01*
X111045110Y-87819715D01*
X111046247Y-87824761D01*
X111046248Y-87824767D01*
X111054955Y-87863402D01*
X111094222Y-88037639D01*
X111178266Y-88244616D01*
X111229019Y-88327438D01*
X111292291Y-88430688D01*
X111294987Y-88435088D01*
X111441250Y-88603938D01*
X111613126Y-88746632D01*
X111680163Y-88785805D01*
X111686445Y-88789476D01*
X111735169Y-88841114D01*
X111748240Y-88910897D01*
X111721509Y-88976669D01*
X111681055Y-89010027D01*
X111668607Y-89016507D01*
X111664474Y-89019610D01*
X111664471Y-89019612D01*
X111494100Y-89147530D01*
X111489965Y-89150635D01*
X111486393Y-89154373D01*
X111378729Y-89267037D01*
X111335629Y-89312138D01*
X111332720Y-89316403D01*
X111332714Y-89316411D01*
X111323300Y-89330211D01*
X111209743Y-89496680D01*
X111115688Y-89699305D01*
X111055989Y-89914570D01*
X111032251Y-90136695D01*
X111032548Y-90141848D01*
X111032548Y-90141851D01*
X111038011Y-90236590D01*
X111045110Y-90359715D01*
X111046247Y-90364761D01*
X111046248Y-90364767D01*
X111054955Y-90403402D01*
X111094222Y-90577639D01*
X111178266Y-90784616D01*
X111219958Y-90852652D01*
X111292291Y-90970688D01*
X111294987Y-90975088D01*
X111441250Y-91143938D01*
X111613126Y-91286632D01*
X111678573Y-91324876D01*
X111686445Y-91329476D01*
X111735169Y-91381114D01*
X111748240Y-91450897D01*
X111721509Y-91516669D01*
X111681055Y-91550027D01*
X111668607Y-91556507D01*
X111664474Y-91559610D01*
X111664471Y-91559612D01*
X111494100Y-91687530D01*
X111489965Y-91690635D01*
X111486393Y-91694373D01*
X111378729Y-91807037D01*
X111335629Y-91852138D01*
X111332720Y-91856403D01*
X111332714Y-91856411D01*
X111323300Y-91870211D01*
X111209743Y-92036680D01*
X111115688Y-92239305D01*
X111055989Y-92454570D01*
X111032251Y-92676695D01*
X111032548Y-92681848D01*
X111032548Y-92681851D01*
X111038011Y-92776590D01*
X111045110Y-92899715D01*
X111046247Y-92904761D01*
X111046248Y-92904767D01*
X111054955Y-92943402D01*
X111094222Y-93117639D01*
X111178266Y-93324616D01*
X111219958Y-93392652D01*
X111292291Y-93510688D01*
X111294987Y-93515088D01*
X111441250Y-93683938D01*
X111613126Y-93826632D01*
X111678573Y-93864876D01*
X111686445Y-93869476D01*
X111735169Y-93921114D01*
X111748240Y-93990897D01*
X111721509Y-94056669D01*
X111681055Y-94090027D01*
X111668607Y-94096507D01*
X111664474Y-94099610D01*
X111664471Y-94099612D01*
X111494100Y-94227530D01*
X111489965Y-94230635D01*
X111486393Y-94234373D01*
X111378729Y-94347037D01*
X111335629Y-94392138D01*
X111332720Y-94396403D01*
X111332714Y-94396411D01*
X111323300Y-94410211D01*
X111209743Y-94576680D01*
X111115688Y-94779305D01*
X111055989Y-94994570D01*
X111032251Y-95216695D01*
X111032548Y-95221848D01*
X111032548Y-95221851D01*
X111038011Y-95316590D01*
X111045110Y-95439715D01*
X111046247Y-95444761D01*
X111046248Y-95444767D01*
X111054955Y-95483402D01*
X111094222Y-95657639D01*
X111178266Y-95864616D01*
X111229019Y-95947438D01*
X111292291Y-96050688D01*
X111294987Y-96055088D01*
X111441250Y-96223938D01*
X111613126Y-96366632D01*
X111680163Y-96405805D01*
X111686445Y-96409476D01*
X111735169Y-96461114D01*
X111748240Y-96530897D01*
X111721509Y-96596669D01*
X111681055Y-96630027D01*
X111668607Y-96636507D01*
X111664474Y-96639610D01*
X111664471Y-96639612D01*
X111494100Y-96767530D01*
X111489965Y-96770635D01*
X111486393Y-96774373D01*
X111378729Y-96887037D01*
X111335629Y-96932138D01*
X111332720Y-96936403D01*
X111332714Y-96936411D01*
X111323300Y-96950211D01*
X111209743Y-97116680D01*
X111194003Y-97150590D01*
X111121290Y-97307237D01*
X111115688Y-97319305D01*
X111055989Y-97534570D01*
X111032251Y-97756695D01*
X111032548Y-97761848D01*
X111032548Y-97761851D01*
X111038011Y-97856590D01*
X111045110Y-97979715D01*
X111046247Y-97984761D01*
X111046248Y-97984767D01*
X111054955Y-98023402D01*
X111094222Y-98197639D01*
X111178266Y-98404616D01*
X111229019Y-98487438D01*
X111292291Y-98590688D01*
X111294987Y-98595088D01*
X111441250Y-98763938D01*
X111613126Y-98906632D01*
X111680163Y-98945805D01*
X111686445Y-98949476D01*
X111735169Y-99001114D01*
X111748240Y-99070897D01*
X111721509Y-99136669D01*
X111681055Y-99170027D01*
X111668607Y-99176507D01*
X111664474Y-99179610D01*
X111664471Y-99179612D01*
X111494100Y-99307530D01*
X111489965Y-99310635D01*
X111486393Y-99314373D01*
X111378729Y-99427037D01*
X111335629Y-99472138D01*
X111332720Y-99476403D01*
X111332714Y-99476411D01*
X111323300Y-99490211D01*
X111209743Y-99656680D01*
X111115688Y-99859305D01*
X111055989Y-100074570D01*
X111032251Y-100296695D01*
X111032548Y-100301848D01*
X111032548Y-100301851D01*
X111038011Y-100396590D01*
X111045110Y-100519715D01*
X111046247Y-100524761D01*
X111046248Y-100524767D01*
X111066119Y-100612939D01*
X111094222Y-100737639D01*
X111178266Y-100944616D01*
X111229019Y-101027438D01*
X111292291Y-101130688D01*
X111294987Y-101135088D01*
X111441250Y-101303938D01*
X111613126Y-101446632D01*
X111651576Y-101469100D01*
X111686445Y-101489476D01*
X111735169Y-101541114D01*
X111748240Y-101610897D01*
X111721509Y-101676669D01*
X111681055Y-101710027D01*
X111668607Y-101716507D01*
X111664474Y-101719610D01*
X111664471Y-101719612D01*
X111566978Y-101792812D01*
X111489965Y-101850635D01*
X111486393Y-101854373D01*
X111378729Y-101967037D01*
X111335629Y-102012138D01*
X111209743Y-102196680D01*
X111115688Y-102399305D01*
X111055989Y-102614570D01*
X111032251Y-102836695D01*
X106583501Y-102836695D01*
X106583501Y-101583764D01*
X106584028Y-101572580D01*
X106585702Y-101565092D01*
X106583563Y-101497033D01*
X106583501Y-101493076D01*
X106583501Y-101465145D01*
X106582995Y-101461139D01*
X106582062Y-101449293D01*
X106582061Y-101449242D01*
X106580674Y-101405111D01*
X106575023Y-101385659D01*
X106571015Y-101366307D01*
X106569468Y-101354064D01*
X106568475Y-101346204D01*
X106562818Y-101331916D01*
X106552201Y-101305098D01*
X106548356Y-101293871D01*
X106547323Y-101290316D01*
X106536019Y-101251408D01*
X106531985Y-101244586D01*
X106531982Y-101244580D01*
X106525707Y-101233969D01*
X106517011Y-101216219D01*
X106512473Y-101204757D01*
X106512470Y-101204752D01*
X106509553Y-101197384D01*
X106495379Y-101177875D01*
X106483574Y-101161626D01*
X106477058Y-101151708D01*
X106458576Y-101120458D01*
X106454543Y-101113638D01*
X106440219Y-101099314D01*
X106427377Y-101084279D01*
X106415473Y-101067894D01*
X106381407Y-101039712D01*
X106372628Y-101031723D01*
X106084152Y-100743247D01*
X106050126Y-100680935D01*
X106051540Y-100621541D01*
X106052470Y-100618069D01*
X106068543Y-100558087D01*
X106088498Y-100330000D01*
X106068543Y-100101913D01*
X106067119Y-100096598D01*
X106010707Y-99886067D01*
X106010706Y-99886065D01*
X106009284Y-99880757D01*
X105999281Y-99859305D01*
X105914849Y-99678238D01*
X105914846Y-99678233D01*
X105912523Y-99673251D01*
X105839098Y-99568389D01*
X105784357Y-99490211D01*
X105784355Y-99490208D01*
X105781198Y-99485700D01*
X105619300Y-99323802D01*
X105614792Y-99320645D01*
X105614789Y-99320643D01*
X105469346Y-99218803D01*
X105431749Y-99192477D01*
X105426767Y-99190154D01*
X105426762Y-99190151D01*
X105392543Y-99174195D01*
X105339258Y-99127278D01*
X105319797Y-99059001D01*
X105340339Y-98991041D01*
X105392543Y-98945805D01*
X105426762Y-98929849D01*
X105426767Y-98929846D01*
X105431749Y-98927523D01*
X105574555Y-98827529D01*
X105614789Y-98799357D01*
X105614792Y-98799355D01*
X105619300Y-98796198D01*
X105781198Y-98634300D01*
X105794763Y-98614928D01*
X105884032Y-98487438D01*
X105912523Y-98446749D01*
X105914846Y-98441767D01*
X105914849Y-98441762D01*
X106006961Y-98244225D01*
X106006961Y-98244224D01*
X106009284Y-98239243D01*
X106019150Y-98202425D01*
X106067119Y-98023402D01*
X106067120Y-98023398D01*
X106068543Y-98018087D01*
X106088498Y-97790000D01*
X106068543Y-97561913D01*
X106062593Y-97539707D01*
X106010707Y-97346067D01*
X106010706Y-97346065D01*
X106009284Y-97340757D01*
X105995463Y-97311118D01*
X105914849Y-97138238D01*
X105914846Y-97138233D01*
X105912523Y-97133251D01*
X105807598Y-96983403D01*
X105784357Y-96950211D01*
X105784355Y-96950208D01*
X105781198Y-96945700D01*
X105619300Y-96783802D01*
X105614792Y-96780645D01*
X105614789Y-96780643D01*
X105479780Y-96686109D01*
X105431749Y-96652477D01*
X105426767Y-96650154D01*
X105426762Y-96650151D01*
X105392543Y-96634195D01*
X105339258Y-96587278D01*
X105319797Y-96519001D01*
X105340339Y-96451041D01*
X105392543Y-96405805D01*
X105426762Y-96389849D01*
X105426767Y-96389846D01*
X105431749Y-96387523D01*
X105574555Y-96287529D01*
X105614789Y-96259357D01*
X105614792Y-96259355D01*
X105619300Y-96256198D01*
X105781198Y-96094300D01*
X105794763Y-96074928D01*
X105884032Y-95947438D01*
X105912523Y-95906749D01*
X105914846Y-95901767D01*
X105914849Y-95901762D01*
X106006961Y-95704225D01*
X106006961Y-95704224D01*
X106009284Y-95699243D01*
X106019150Y-95662425D01*
X106067119Y-95483402D01*
X106067119Y-95483400D01*
X106068543Y-95478087D01*
X106088498Y-95250000D01*
X106068543Y-95021913D01*
X106062593Y-94999707D01*
X106010707Y-94806067D01*
X106010706Y-94806065D01*
X106009284Y-94800757D01*
X105997092Y-94774610D01*
X105914849Y-94598238D01*
X105914846Y-94598233D01*
X105912523Y-94593251D01*
X105839098Y-94488389D01*
X105784357Y-94410211D01*
X105784355Y-94410208D01*
X105781198Y-94405700D01*
X105619300Y-94243802D01*
X105614792Y-94240645D01*
X105614789Y-94240643D01*
X105479780Y-94146109D01*
X105431749Y-94112477D01*
X105426767Y-94110154D01*
X105426762Y-94110151D01*
X105392543Y-94094195D01*
X105339258Y-94047278D01*
X105319797Y-93979001D01*
X105340339Y-93911041D01*
X105392543Y-93865805D01*
X105426762Y-93849849D01*
X105426767Y-93849846D01*
X105431749Y-93847523D01*
X105574896Y-93747290D01*
X105614789Y-93719357D01*
X105614792Y-93719355D01*
X105619300Y-93716198D01*
X105781198Y-93554300D01*
X105805923Y-93518990D01*
X105851498Y-93453901D01*
X105912523Y-93366749D01*
X105914846Y-93361767D01*
X105914849Y-93361762D01*
X106006961Y-93164225D01*
X106006961Y-93164224D01*
X106009284Y-93159243D01*
X106019150Y-93122425D01*
X106067119Y-92943402D01*
X106067119Y-92943400D01*
X106068543Y-92938087D01*
X106088498Y-92710000D01*
X106068543Y-92481913D01*
X106062593Y-92459707D01*
X106010707Y-92266067D01*
X106010706Y-92266065D01*
X106009284Y-92260757D01*
X105997092Y-92234610D01*
X105914849Y-92058238D01*
X105914846Y-92058233D01*
X105912523Y-92053251D01*
X105839098Y-91948389D01*
X105784357Y-91870211D01*
X105784355Y-91870208D01*
X105781198Y-91865700D01*
X105619300Y-91703802D01*
X105614792Y-91700645D01*
X105614789Y-91700643D01*
X105479780Y-91606109D01*
X105431749Y-91572477D01*
X105426767Y-91570154D01*
X105426762Y-91570151D01*
X105392543Y-91554195D01*
X105339258Y-91507278D01*
X105319797Y-91439001D01*
X105340339Y-91371041D01*
X105392543Y-91325805D01*
X105426762Y-91309849D01*
X105426767Y-91309846D01*
X105431749Y-91307523D01*
X105574896Y-91207290D01*
X105614789Y-91179357D01*
X105614792Y-91179355D01*
X105619300Y-91176198D01*
X105781198Y-91014300D01*
X105805923Y-90978990D01*
X105851498Y-90913901D01*
X105912523Y-90826749D01*
X105914846Y-90821767D01*
X105914849Y-90821762D01*
X106006961Y-90624225D01*
X106006961Y-90624224D01*
X106009284Y-90619243D01*
X106019150Y-90582425D01*
X106067119Y-90403402D01*
X106067119Y-90403400D01*
X106068543Y-90398087D01*
X106088498Y-90170000D01*
X106068543Y-89941913D01*
X106062593Y-89919707D01*
X106010707Y-89726067D01*
X106010706Y-89726065D01*
X106009284Y-89720757D01*
X105997092Y-89694610D01*
X105914849Y-89518238D01*
X105914846Y-89518233D01*
X105912523Y-89513251D01*
X105839098Y-89408389D01*
X105784357Y-89330211D01*
X105784355Y-89330208D01*
X105781198Y-89325700D01*
X105619300Y-89163802D01*
X105614792Y-89160645D01*
X105614789Y-89160643D01*
X105479780Y-89066109D01*
X105431749Y-89032477D01*
X105426767Y-89030154D01*
X105426762Y-89030151D01*
X105392543Y-89014195D01*
X105339258Y-88967278D01*
X105319797Y-88899001D01*
X105340339Y-88831041D01*
X105392543Y-88785805D01*
X105426762Y-88769849D01*
X105426767Y-88769846D01*
X105431749Y-88767523D01*
X105574555Y-88667529D01*
X105614789Y-88639357D01*
X105614792Y-88639355D01*
X105619300Y-88636198D01*
X105781198Y-88474300D01*
X105805923Y-88438990D01*
X105884032Y-88327438D01*
X105912523Y-88286749D01*
X105914846Y-88281767D01*
X105914849Y-88281762D01*
X106006961Y-88084225D01*
X106006961Y-88084224D01*
X106009284Y-88079243D01*
X106019150Y-88042425D01*
X106067119Y-87863402D01*
X106067119Y-87863400D01*
X106068543Y-87858087D01*
X106088498Y-87630000D01*
X106068543Y-87401913D01*
X106062593Y-87379707D01*
X106010707Y-87186067D01*
X106010706Y-87186065D01*
X106009284Y-87180757D01*
X105997092Y-87154610D01*
X105914849Y-86978238D01*
X105914846Y-86978233D01*
X105912523Y-86973251D01*
X105839098Y-86868389D01*
X105784357Y-86790211D01*
X105784355Y-86790208D01*
X105781198Y-86785700D01*
X105619300Y-86623802D01*
X105614792Y-86620645D01*
X105614789Y-86620643D01*
X105536611Y-86565902D01*
X105431749Y-86492477D01*
X105426767Y-86490154D01*
X105426762Y-86490151D01*
X105392543Y-86474195D01*
X105339258Y-86427278D01*
X105319797Y-86359001D01*
X105340339Y-86291041D01*
X105392543Y-86245805D01*
X105426762Y-86229849D01*
X105426767Y-86229846D01*
X105431749Y-86227523D01*
X105574555Y-86127529D01*
X105614789Y-86099357D01*
X105614792Y-86099355D01*
X105619300Y-86096198D01*
X105781198Y-85934300D01*
X105805923Y-85898990D01*
X105884032Y-85787438D01*
X105912523Y-85746749D01*
X105914846Y-85741767D01*
X105914849Y-85741762D01*
X106006961Y-85544225D01*
X106006961Y-85544224D01*
X106009284Y-85539243D01*
X106019150Y-85502425D01*
X106067119Y-85323402D01*
X106067119Y-85323400D01*
X106068543Y-85318087D01*
X106088498Y-85090000D01*
X106068543Y-84861913D01*
X106062593Y-84839707D01*
X106010707Y-84646067D01*
X106010706Y-84646065D01*
X106009284Y-84640757D01*
X105997092Y-84614610D01*
X105914849Y-84438238D01*
X105914846Y-84438233D01*
X105912523Y-84433251D01*
X105839098Y-84328389D01*
X105784357Y-84250211D01*
X105784355Y-84250208D01*
X105781198Y-84245700D01*
X105619300Y-84083802D01*
X105614792Y-84080645D01*
X105614789Y-84080643D01*
X105445553Y-83962143D01*
X105431749Y-83952477D01*
X105426767Y-83950154D01*
X105426762Y-83950151D01*
X105229225Y-83858039D01*
X105229224Y-83858039D01*
X105224243Y-83855716D01*
X105218935Y-83854294D01*
X105218933Y-83854293D01*
X105008402Y-83797881D01*
X105008400Y-83797881D01*
X105003087Y-83796457D01*
X104775000Y-83776502D01*
X104546913Y-83796457D01*
X104541600Y-83797881D01*
X104541598Y-83797881D01*
X104331067Y-83854293D01*
X104331065Y-83854294D01*
X104325757Y-83855716D01*
X104320776Y-83858039D01*
X104320775Y-83858039D01*
X104123238Y-83950151D01*
X104123233Y-83950154D01*
X104118251Y-83952477D01*
X104104447Y-83962143D01*
X103935211Y-84080643D01*
X103935208Y-84080645D01*
X103930700Y-84083802D01*
X103768802Y-84245700D01*
X103765645Y-84250208D01*
X103765643Y-84250211D01*
X103710902Y-84328389D01*
X103637477Y-84433251D01*
X103635154Y-84438233D01*
X103635151Y-84438238D01*
X103552908Y-84614610D01*
X103540716Y-84640757D01*
X103539294Y-84646065D01*
X103539293Y-84646067D01*
X103487407Y-84839707D01*
X103481457Y-84861913D01*
X103461502Y-85090000D01*
X103481457Y-85318087D01*
X103482881Y-85323400D01*
X103482881Y-85323402D01*
X103530851Y-85502425D01*
X103540716Y-85539243D01*
X103543039Y-85544224D01*
X103543039Y-85544225D01*
X103635151Y-85741762D01*
X103635154Y-85741767D01*
X103637477Y-85746749D01*
X103665968Y-85787438D01*
X103744078Y-85898990D01*
X103768802Y-85934300D01*
X103930700Y-86096198D01*
X103935208Y-86099355D01*
X103935211Y-86099357D01*
X103975445Y-86127529D01*
X104118251Y-86227523D01*
X104123233Y-86229846D01*
X104123238Y-86229849D01*
X104157457Y-86245805D01*
X104210742Y-86292722D01*
X104230203Y-86360999D01*
X104209661Y-86428959D01*
X104157457Y-86474195D01*
X104123238Y-86490151D01*
X104123233Y-86490154D01*
X104118251Y-86492477D01*
X104013389Y-86565902D01*
X103935211Y-86620643D01*
X103935208Y-86620645D01*
X103930700Y-86623802D01*
X103768802Y-86785700D01*
X103765645Y-86790208D01*
X103765643Y-86790211D01*
X103710902Y-86868389D01*
X103637477Y-86973251D01*
X103635154Y-86978233D01*
X103635151Y-86978238D01*
X103552908Y-87154610D01*
X103540716Y-87180757D01*
X103539294Y-87186065D01*
X103539293Y-87186067D01*
X103487407Y-87379707D01*
X103481457Y-87401913D01*
X103461502Y-87630000D01*
X103481457Y-87858087D01*
X103482881Y-87863400D01*
X103482881Y-87863402D01*
X103530851Y-88042425D01*
X103540716Y-88079243D01*
X103543039Y-88084224D01*
X103543039Y-88084225D01*
X103635151Y-88281762D01*
X103635154Y-88281767D01*
X103637477Y-88286749D01*
X103665968Y-88327438D01*
X103744078Y-88438990D01*
X103768802Y-88474300D01*
X103930700Y-88636198D01*
X103935208Y-88639355D01*
X103935211Y-88639357D01*
X103975445Y-88667529D01*
X104118251Y-88767523D01*
X104123233Y-88769846D01*
X104123238Y-88769849D01*
X104157457Y-88785805D01*
X104210742Y-88832722D01*
X104230203Y-88900999D01*
X104209661Y-88968959D01*
X104157457Y-89014195D01*
X104123238Y-89030151D01*
X104123233Y-89030154D01*
X104118251Y-89032477D01*
X104070220Y-89066109D01*
X103935211Y-89160643D01*
X103935208Y-89160645D01*
X103930700Y-89163802D01*
X103768802Y-89325700D01*
X103765645Y-89330208D01*
X103765643Y-89330211D01*
X103710902Y-89408389D01*
X103637477Y-89513251D01*
X103635154Y-89518233D01*
X103635151Y-89518238D01*
X103552908Y-89694610D01*
X103540716Y-89720757D01*
X103539294Y-89726065D01*
X103539293Y-89726067D01*
X103487407Y-89919707D01*
X103481457Y-89941913D01*
X103461502Y-90170000D01*
X103481457Y-90398087D01*
X103482881Y-90403400D01*
X103482881Y-90403402D01*
X103530851Y-90582425D01*
X103540716Y-90619243D01*
X103543039Y-90624224D01*
X103543039Y-90624225D01*
X103635151Y-90821762D01*
X103635154Y-90821767D01*
X103637477Y-90826749D01*
X103698502Y-90913901D01*
X103744078Y-90978990D01*
X103768802Y-91014300D01*
X103930700Y-91176198D01*
X103935208Y-91179355D01*
X103935211Y-91179357D01*
X103975104Y-91207290D01*
X104118251Y-91307523D01*
X104123233Y-91309846D01*
X104123238Y-91309849D01*
X104157457Y-91325805D01*
X104210742Y-91372722D01*
X104230203Y-91440999D01*
X104209661Y-91508959D01*
X104157457Y-91554195D01*
X104123238Y-91570151D01*
X104123233Y-91570154D01*
X104118251Y-91572477D01*
X104070220Y-91606109D01*
X103935211Y-91700643D01*
X103935208Y-91700645D01*
X103930700Y-91703802D01*
X103768802Y-91865700D01*
X103765645Y-91870208D01*
X103765643Y-91870211D01*
X103710902Y-91948389D01*
X103637477Y-92053251D01*
X103635154Y-92058233D01*
X103635151Y-92058238D01*
X103552908Y-92234610D01*
X103540716Y-92260757D01*
X103539294Y-92266065D01*
X103539293Y-92266067D01*
X103487407Y-92459707D01*
X103481457Y-92481913D01*
X103461502Y-92710000D01*
X103481457Y-92938087D01*
X103482879Y-92943392D01*
X103482881Y-92943406D01*
X103498459Y-93001539D01*
X103496771Y-93072516D01*
X103465848Y-93123248D01*
X103280255Y-93308840D01*
X103257741Y-93331354D01*
X103249462Y-93338888D01*
X103242981Y-93343001D01*
X103196356Y-93392652D01*
X103193601Y-93395494D01*
X103173864Y-93415231D01*
X103171384Y-93418428D01*
X103163681Y-93427448D01*
X103133413Y-93459680D01*
X103129594Y-93466626D01*
X103129592Y-93466629D01*
X103123651Y-93477435D01*
X103112800Y-93493954D01*
X103100385Y-93509960D01*
X103097240Y-93517229D01*
X103097237Y-93517233D01*
X103082825Y-93550538D01*
X103077608Y-93561188D01*
X103056304Y-93599941D01*
X103054333Y-93607616D01*
X103054333Y-93607617D01*
X103051266Y-93619563D01*
X103044862Y-93638267D01*
X103036818Y-93656856D01*
X103035579Y-93664679D01*
X103035576Y-93664689D01*
X103029900Y-93700525D01*
X103027494Y-93712145D01*
X103018471Y-93747290D01*
X103016499Y-93754971D01*
X103016499Y-93775225D01*
X103014948Y-93794935D01*
X103011779Y-93814944D01*
X103012525Y-93822836D01*
X103015940Y-93858962D01*
X103016499Y-93870820D01*
X103016499Y-95717536D01*
X102996497Y-95785657D01*
X102942841Y-95832150D01*
X102872567Y-95842254D01*
X102816438Y-95819472D01*
X102697094Y-95732763D01*
X102697093Y-95732762D01*
X102691752Y-95728882D01*
X102685724Y-95726198D01*
X102685722Y-95726197D01*
X102523319Y-95653891D01*
X102523318Y-95653891D01*
X102517288Y-95651206D01*
X102423888Y-95631353D01*
X102336944Y-95612872D01*
X102336939Y-95612872D01*
X102330487Y-95611500D01*
X102139513Y-95611500D01*
X102133061Y-95612872D01*
X102133056Y-95612872D01*
X102046112Y-95631353D01*
X101952712Y-95651206D01*
X101946682Y-95653891D01*
X101946681Y-95653891D01*
X101784278Y-95726197D01*
X101784276Y-95726198D01*
X101778248Y-95728882D01*
X101772907Y-95732762D01*
X101772906Y-95732763D01*
X101746689Y-95751811D01*
X101623747Y-95841134D01*
X101619326Y-95846044D01*
X101619325Y-95846045D01*
X101523854Y-95952077D01*
X101495960Y-95983056D01*
X101400473Y-96148444D01*
X101341458Y-96330072D01*
X101340768Y-96336633D01*
X101340768Y-96336635D01*
X101335420Y-96387523D01*
X101327460Y-96463261D01*
X101324093Y-96495293D01*
X101297080Y-96560950D01*
X101287887Y-96571209D01*
X100379498Y-97479597D01*
X100317188Y-97513621D01*
X100290405Y-97516500D01*
X100234513Y-97516500D01*
X100228061Y-97517872D01*
X100228056Y-97517872D01*
X100149501Y-97534570D01*
X100047712Y-97556206D01*
X100041682Y-97558891D01*
X100041681Y-97558891D01*
X99879278Y-97631197D01*
X99879276Y-97631198D01*
X99873248Y-97633882D01*
X99718747Y-97746134D01*
X99714326Y-97751044D01*
X99714325Y-97751045D01*
X99616305Y-97859908D01*
X99590960Y-97888056D01*
X99495473Y-98053444D01*
X99436458Y-98235072D01*
X99435768Y-98241633D01*
X99435768Y-98241635D01*
X99430007Y-98296453D01*
X99416496Y-98425000D01*
X99436458Y-98614928D01*
X99495473Y-98796556D01*
X99590960Y-98961944D01*
X99595378Y-98966851D01*
X99595379Y-98966852D01*
X99699220Y-99082179D01*
X99705734Y-99095751D01*
X99705843Y-99095775D01*
X99719519Y-99104427D01*
X99848036Y-99197800D01*
X99873248Y-99216118D01*
X99879276Y-99218802D01*
X99879278Y-99218803D01*
X100041681Y-99291109D01*
X100047712Y-99293794D01*
X100141112Y-99313647D01*
X100228056Y-99332128D01*
X100228061Y-99332128D01*
X100234513Y-99333500D01*
X100425487Y-99333500D01*
X100431939Y-99332128D01*
X100431944Y-99332128D01*
X100518888Y-99313647D01*
X100612288Y-99293794D01*
X100618319Y-99291109D01*
X100780722Y-99218803D01*
X100780724Y-99218802D01*
X100786752Y-99216118D01*
X100811965Y-99197800D01*
X100850191Y-99170027D01*
X100941253Y-99103866D01*
X100960780Y-99082179D01*
X101064621Y-98966852D01*
X101064622Y-98966851D01*
X101069040Y-98961944D01*
X101164527Y-98796556D01*
X101223542Y-98614928D01*
X101240907Y-98449706D01*
X101267920Y-98384050D01*
X101277113Y-98373791D01*
X102185502Y-97465403D01*
X102247812Y-97431379D01*
X102274595Y-97428500D01*
X102330487Y-97428500D01*
X102336939Y-97427128D01*
X102336944Y-97427128D01*
X102423888Y-97408647D01*
X102517288Y-97388794D01*
X102591574Y-97355720D01*
X102685722Y-97313803D01*
X102685724Y-97313802D01*
X102691752Y-97311118D01*
X102705120Y-97301406D01*
X102816438Y-97220528D01*
X102883306Y-97196670D01*
X102952457Y-97212750D01*
X103001937Y-97263664D01*
X103016499Y-97322464D01*
X103016499Y-107886101D01*
X102996497Y-107954222D01*
X102942841Y-108000715D01*
X102872567Y-108010819D01*
X102829606Y-107996410D01*
X102793789Y-107976638D01*
X102788920Y-107974914D01*
X102788916Y-107974912D01*
X102588087Y-107903795D01*
X102588083Y-107903794D01*
X102583212Y-107902069D01*
X102578119Y-107901162D01*
X102578116Y-107901161D01*
X102368373Y-107863800D01*
X102368367Y-107863799D01*
X102363284Y-107862894D01*
X102289452Y-107861992D01*
X102145081Y-107860228D01*
X102145079Y-107860228D01*
X102139911Y-107860165D01*
X101919091Y-107893955D01*
X101706756Y-107963357D01*
X101676443Y-107979137D01*
X101532975Y-108053822D01*
X101508607Y-108066507D01*
X101504474Y-108069610D01*
X101504471Y-108069612D01*
X101348166Y-108186969D01*
X101329965Y-108200635D01*
X101326393Y-108204373D01*
X101184748Y-108352596D01*
X101175629Y-108362138D01*
X101068201Y-108519621D01*
X101013293Y-108564621D01*
X100942768Y-108572792D01*
X100879021Y-108541538D01*
X100858324Y-108517054D01*
X100777822Y-108392617D01*
X100777820Y-108392614D01*
X100775014Y-108388277D01*
X100624670Y-108223051D01*
X100620619Y-108219852D01*
X100620615Y-108219848D01*
X100453414Y-108087800D01*
X100453410Y-108087798D01*
X100449359Y-108084598D01*
X100444835Y-108082101D01*
X100444831Y-108082098D01*
X100393608Y-108053822D01*
X100343636Y-108003390D01*
X100328500Y-107943513D01*
X100328500Y-100408763D01*
X100329027Y-100397579D01*
X100330701Y-100390091D01*
X100328562Y-100322032D01*
X100328500Y-100318075D01*
X100328500Y-100290144D01*
X100327994Y-100286138D01*
X100327061Y-100274292D01*
X100325922Y-100238037D01*
X100325673Y-100230110D01*
X100320022Y-100210658D01*
X100316014Y-100191306D01*
X100314468Y-100179068D01*
X100314467Y-100179066D01*
X100313474Y-100171203D01*
X100297194Y-100130086D01*
X100293359Y-100118885D01*
X100281018Y-100076406D01*
X100276985Y-100069587D01*
X100276983Y-100069582D01*
X100270707Y-100058971D01*
X100262010Y-100041221D01*
X100254552Y-100022383D01*
X100228571Y-99986623D01*
X100222053Y-99976701D01*
X100203578Y-99945460D01*
X100203574Y-99945455D01*
X100199542Y-99938637D01*
X100185218Y-99924313D01*
X100172376Y-99909278D01*
X100160472Y-99892893D01*
X100126406Y-99864711D01*
X100117627Y-99856722D01*
X99556363Y-99295458D01*
X99545398Y-99275377D01*
X99539494Y-99273765D01*
X99516489Y-99255584D01*
X98464152Y-98203247D01*
X98430126Y-98140935D01*
X98431540Y-98081541D01*
X98433845Y-98072939D01*
X98448543Y-98018087D01*
X98468498Y-97790000D01*
X98448543Y-97561913D01*
X98442593Y-97539707D01*
X98390707Y-97346067D01*
X98390706Y-97346065D01*
X98389284Y-97340757D01*
X98375463Y-97311118D01*
X98294849Y-97138238D01*
X98294846Y-97138233D01*
X98292523Y-97133251D01*
X98187598Y-96983403D01*
X98164357Y-96950211D01*
X98164355Y-96950208D01*
X98161198Y-96945700D01*
X97999300Y-96783802D01*
X97994792Y-96780645D01*
X97994789Y-96780643D01*
X97859780Y-96686109D01*
X97811749Y-96652477D01*
X97806767Y-96650154D01*
X97806762Y-96650151D01*
X97772543Y-96634195D01*
X97719258Y-96587278D01*
X97699797Y-96519001D01*
X97720339Y-96451041D01*
X97772543Y-96405805D01*
X97806762Y-96389849D01*
X97806767Y-96389846D01*
X97811749Y-96387523D01*
X97954555Y-96287529D01*
X97994789Y-96259357D01*
X97994792Y-96259355D01*
X97999300Y-96256198D01*
X98161198Y-96094300D01*
X98174763Y-96074928D01*
X98264032Y-95947438D01*
X98292523Y-95906749D01*
X98294846Y-95901767D01*
X98294849Y-95901762D01*
X98386961Y-95704225D01*
X98386961Y-95704224D01*
X98389284Y-95699243D01*
X98399150Y-95662425D01*
X98447119Y-95483402D01*
X98447119Y-95483400D01*
X98448543Y-95478087D01*
X98468498Y-95250000D01*
X98448543Y-95021913D01*
X98442593Y-94999707D01*
X98390707Y-94806067D01*
X98390706Y-94806065D01*
X98389284Y-94800757D01*
X98377092Y-94774610D01*
X98294849Y-94598238D01*
X98294846Y-94598233D01*
X98292523Y-94593251D01*
X98219098Y-94488389D01*
X98164357Y-94410211D01*
X98164355Y-94410208D01*
X98161198Y-94405700D01*
X97999300Y-94243802D01*
X97994792Y-94240645D01*
X97994789Y-94240643D01*
X97859780Y-94146109D01*
X97811749Y-94112477D01*
X97806767Y-94110154D01*
X97806762Y-94110151D01*
X97772543Y-94094195D01*
X97719258Y-94047278D01*
X97699797Y-93979001D01*
X97720339Y-93911041D01*
X97772543Y-93865805D01*
X97806762Y-93849849D01*
X97806767Y-93849846D01*
X97811749Y-93847523D01*
X97954896Y-93747290D01*
X97994789Y-93719357D01*
X97994792Y-93719355D01*
X97999300Y-93716198D01*
X98161198Y-93554300D01*
X98185923Y-93518990D01*
X98231498Y-93453901D01*
X98292523Y-93366749D01*
X98294846Y-93361767D01*
X98294849Y-93361762D01*
X98386961Y-93164225D01*
X98386961Y-93164224D01*
X98389284Y-93159243D01*
X98399150Y-93122425D01*
X98447119Y-92943402D01*
X98447119Y-92943400D01*
X98448543Y-92938087D01*
X98468498Y-92710000D01*
X98448543Y-92481913D01*
X98442593Y-92459707D01*
X98390707Y-92266067D01*
X98390706Y-92266065D01*
X98389284Y-92260757D01*
X98377092Y-92234610D01*
X98294849Y-92058238D01*
X98294846Y-92058233D01*
X98292523Y-92053251D01*
X98219098Y-91948389D01*
X98164357Y-91870211D01*
X98164355Y-91870208D01*
X98161198Y-91865700D01*
X97999300Y-91703802D01*
X97994792Y-91700645D01*
X97994789Y-91700643D01*
X97859780Y-91606109D01*
X97811749Y-91572477D01*
X97806767Y-91570154D01*
X97806762Y-91570151D01*
X97772543Y-91554195D01*
X97719258Y-91507278D01*
X97699797Y-91439001D01*
X97720339Y-91371041D01*
X97772543Y-91325805D01*
X97806762Y-91309849D01*
X97806767Y-91309846D01*
X97811749Y-91307523D01*
X97954896Y-91207290D01*
X97994789Y-91179357D01*
X97994792Y-91179355D01*
X97999300Y-91176198D01*
X98161198Y-91014300D01*
X98185923Y-90978990D01*
X98231498Y-90913901D01*
X98292523Y-90826749D01*
X98294846Y-90821767D01*
X98294849Y-90821762D01*
X98386961Y-90624225D01*
X98386961Y-90624224D01*
X98389284Y-90619243D01*
X98399150Y-90582425D01*
X98447119Y-90403402D01*
X98447119Y-90403400D01*
X98448543Y-90398087D01*
X98468498Y-90170000D01*
X98448543Y-89941913D01*
X98442593Y-89919707D01*
X98390707Y-89726067D01*
X98390706Y-89726065D01*
X98389284Y-89720757D01*
X98377092Y-89694610D01*
X98294849Y-89518238D01*
X98294846Y-89518233D01*
X98292523Y-89513251D01*
X98219098Y-89408389D01*
X98164357Y-89330211D01*
X98164355Y-89330208D01*
X98161198Y-89325700D01*
X97999300Y-89163802D01*
X97994792Y-89160645D01*
X97994789Y-89160643D01*
X97859780Y-89066109D01*
X97811749Y-89032477D01*
X97806767Y-89030154D01*
X97806762Y-89030151D01*
X97772543Y-89014195D01*
X97719258Y-88967278D01*
X97699797Y-88899001D01*
X97720339Y-88831041D01*
X97772543Y-88785805D01*
X97806762Y-88769849D01*
X97806767Y-88769846D01*
X97811749Y-88767523D01*
X97954555Y-88667529D01*
X97994789Y-88639357D01*
X97994792Y-88639355D01*
X97999300Y-88636198D01*
X98161198Y-88474300D01*
X98185923Y-88438990D01*
X98264032Y-88327438D01*
X98292523Y-88286749D01*
X98294846Y-88281767D01*
X98294849Y-88281762D01*
X98386961Y-88084225D01*
X98386961Y-88084224D01*
X98389284Y-88079243D01*
X98399150Y-88042425D01*
X98447119Y-87863402D01*
X98447119Y-87863400D01*
X98448543Y-87858087D01*
X98468498Y-87630000D01*
X98448543Y-87401913D01*
X98442593Y-87379707D01*
X98390707Y-87186067D01*
X98390706Y-87186065D01*
X98389284Y-87180757D01*
X98377092Y-87154610D01*
X98294849Y-86978238D01*
X98294846Y-86978233D01*
X98292523Y-86973251D01*
X98219098Y-86868389D01*
X98164357Y-86790211D01*
X98164355Y-86790208D01*
X98161198Y-86785700D01*
X97999300Y-86623802D01*
X97994789Y-86620643D01*
X97990576Y-86617108D01*
X97991527Y-86615974D01*
X97951529Y-86565929D01*
X97944224Y-86495310D01*
X97976258Y-86431951D01*
X98037462Y-86395970D01*
X98054517Y-86392918D01*
X98065316Y-86391745D01*
X98201705Y-86340615D01*
X98318261Y-86253261D01*
X98405615Y-86136705D01*
X98456745Y-86000316D01*
X98463500Y-85938134D01*
X98463500Y-84241866D01*
X98456745Y-84179684D01*
X98405615Y-84043295D01*
X98318261Y-83926739D01*
X98201705Y-83839385D01*
X98065316Y-83788255D01*
X98003134Y-83781500D01*
X96306866Y-83781500D01*
X96244684Y-83788255D01*
X96108295Y-83839385D01*
X95991739Y-83926739D01*
X95904385Y-84043295D01*
X95853255Y-84179684D01*
X95846500Y-84241866D01*
X95846500Y-85938134D01*
X95853255Y-86000316D01*
X95904385Y-86136705D01*
X95991739Y-86253261D01*
X96108295Y-86340615D01*
X96244684Y-86391745D01*
X96255474Y-86392917D01*
X96257606Y-86393803D01*
X96260222Y-86394425D01*
X96260121Y-86394848D01*
X96321035Y-86420155D01*
X96361463Y-86478517D01*
X96363922Y-86549471D01*
X96327629Y-86610490D01*
X96318969Y-86617489D01*
X96315207Y-86620646D01*
X96310700Y-86623802D01*
X96148802Y-86785700D01*
X96145645Y-86790208D01*
X96145643Y-86790211D01*
X96090902Y-86868389D01*
X96017477Y-86973251D01*
X96015154Y-86978233D01*
X96015151Y-86978238D01*
X95932908Y-87154610D01*
X95920716Y-87180757D01*
X95919294Y-87186065D01*
X95919293Y-87186067D01*
X95867407Y-87379707D01*
X95861457Y-87401913D01*
X95841502Y-87630000D01*
X95861457Y-87858087D01*
X95862881Y-87863400D01*
X95862881Y-87863402D01*
X95910851Y-88042425D01*
X95920716Y-88079243D01*
X95923039Y-88084224D01*
X95923039Y-88084225D01*
X96015151Y-88281762D01*
X96015154Y-88281767D01*
X96017477Y-88286749D01*
X96045968Y-88327438D01*
X96124078Y-88438990D01*
X96148802Y-88474300D01*
X96310700Y-88636198D01*
X96315208Y-88639355D01*
X96315211Y-88639357D01*
X96355445Y-88667529D01*
X96498251Y-88767523D01*
X96503233Y-88769846D01*
X96503238Y-88769849D01*
X96537457Y-88785805D01*
X96590742Y-88832722D01*
X96610203Y-88900999D01*
X96589661Y-88968959D01*
X96537457Y-89014195D01*
X96503238Y-89030151D01*
X96503233Y-89030154D01*
X96498251Y-89032477D01*
X96450220Y-89066109D01*
X96315211Y-89160643D01*
X96315208Y-89160645D01*
X96310700Y-89163802D01*
X96148802Y-89325700D01*
X96145645Y-89330208D01*
X96145643Y-89330211D01*
X96090902Y-89408389D01*
X96017477Y-89513251D01*
X96015154Y-89518233D01*
X96015151Y-89518238D01*
X95932908Y-89694610D01*
X95920716Y-89720757D01*
X95919294Y-89726065D01*
X95919293Y-89726067D01*
X95867407Y-89919707D01*
X95861457Y-89941913D01*
X95841502Y-90170000D01*
X95861457Y-90398087D01*
X95862879Y-90403392D01*
X95862881Y-90403406D01*
X95878459Y-90461539D01*
X95876771Y-90532516D01*
X95845848Y-90583248D01*
X95660255Y-90768840D01*
X95637741Y-90791354D01*
X95629462Y-90798888D01*
X95622981Y-90803001D01*
X95576356Y-90852652D01*
X95573601Y-90855494D01*
X95553864Y-90875231D01*
X95551384Y-90878428D01*
X95543681Y-90887448D01*
X95513413Y-90919680D01*
X95509594Y-90926626D01*
X95509592Y-90926629D01*
X95503651Y-90937435D01*
X95492800Y-90953954D01*
X95480385Y-90969960D01*
X95477240Y-90977229D01*
X95477237Y-90977233D01*
X95462825Y-91010538D01*
X95457608Y-91021188D01*
X95436304Y-91059941D01*
X95434333Y-91067616D01*
X95434333Y-91067617D01*
X95431266Y-91079563D01*
X95424862Y-91098267D01*
X95416818Y-91116856D01*
X95415579Y-91124679D01*
X95415576Y-91124689D01*
X95409900Y-91160525D01*
X95407494Y-91172145D01*
X95398471Y-91207290D01*
X95396499Y-91214971D01*
X95396499Y-91235225D01*
X95394948Y-91254935D01*
X95391779Y-91274944D01*
X90960456Y-91274944D01*
X91049860Y-91211173D01*
X91081788Y-91179357D01*
X91193616Y-91067918D01*
X91208096Y-91053489D01*
X91239498Y-91009789D01*
X91335435Y-90876277D01*
X91338453Y-90872077D01*
X91348054Y-90852652D01*
X91435136Y-90676453D01*
X91435137Y-90676451D01*
X91437430Y-90671811D01*
X91502370Y-90458069D01*
X91531529Y-90236590D01*
X91533156Y-90170000D01*
X91514852Y-89947361D01*
X91460431Y-89730702D01*
X91371354Y-89525840D01*
X91250014Y-89338277D01*
X91099670Y-89173051D01*
X91095619Y-89169852D01*
X91095615Y-89169848D01*
X90928414Y-89037800D01*
X90928410Y-89037798D01*
X90924359Y-89034598D01*
X90883053Y-89011796D01*
X90833084Y-88961364D01*
X90818312Y-88891921D01*
X90843428Y-88825516D01*
X90870780Y-88798909D01*
X90919207Y-88764366D01*
X91049860Y-88671173D01*
X91081788Y-88639357D01*
X91193616Y-88527918D01*
X91208096Y-88513489D01*
X91239498Y-88469789D01*
X91335435Y-88336277D01*
X91338453Y-88332077D01*
X91358628Y-88291257D01*
X91435136Y-88136453D01*
X91435137Y-88136451D01*
X91437430Y-88131811D01*
X91502370Y-87918069D01*
X91531529Y-87696590D01*
X91533156Y-87630000D01*
X91514852Y-87407361D01*
X91460431Y-87190702D01*
X91371354Y-86985840D01*
X91250014Y-86798277D01*
X91235024Y-86781803D01*
X91102798Y-86636488D01*
X91071746Y-86572642D01*
X91080141Y-86502143D01*
X91125317Y-86447375D01*
X91151761Y-86433706D01*
X91258297Y-86393767D01*
X91266705Y-86390615D01*
X91383261Y-86303261D01*
X91470615Y-86186705D01*
X91521745Y-86050316D01*
X91528500Y-85988134D01*
X91528500Y-84191866D01*
X91521745Y-84129684D01*
X91470615Y-83993295D01*
X91383261Y-83876739D01*
X91266705Y-83789385D01*
X91130316Y-83738255D01*
X91068134Y-83731500D01*
X89271866Y-83731500D01*
X89209684Y-83738255D01*
X89073295Y-83789385D01*
X88956739Y-83876739D01*
X88869385Y-83993295D01*
X88818255Y-84129684D01*
X88811500Y-84191866D01*
X88811500Y-85988134D01*
X88818255Y-86050316D01*
X88869385Y-86186705D01*
X88956739Y-86303261D01*
X89073295Y-86390615D01*
X89081704Y-86393767D01*
X89081705Y-86393768D01*
X89190451Y-86434535D01*
X89247216Y-86477176D01*
X89271916Y-86543738D01*
X89256709Y-86613087D01*
X89237316Y-86639568D01*
X89153729Y-86727037D01*
X89110629Y-86772138D01*
X89107720Y-86776403D01*
X89107714Y-86776411D01*
X89098300Y-86790211D01*
X88984743Y-86956680D01*
X88890688Y-87159305D01*
X88830989Y-87374570D01*
X88807251Y-87596695D01*
X88807548Y-87601848D01*
X88807548Y-87601851D01*
X88813011Y-87696590D01*
X88820110Y-87819715D01*
X88821247Y-87824761D01*
X88821248Y-87824767D01*
X88829955Y-87863402D01*
X88869222Y-88037639D01*
X88953266Y-88244616D01*
X89004019Y-88327438D01*
X89067291Y-88430688D01*
X89069987Y-88435088D01*
X89216250Y-88603938D01*
X89388126Y-88746632D01*
X89455163Y-88785805D01*
X89461445Y-88789476D01*
X89510169Y-88841114D01*
X89523240Y-88910897D01*
X89496509Y-88976669D01*
X89456055Y-89010027D01*
X89443607Y-89016507D01*
X89439474Y-89019610D01*
X89439471Y-89019612D01*
X89269100Y-89147530D01*
X89264965Y-89150635D01*
X89261393Y-89154373D01*
X89153729Y-89267037D01*
X89110629Y-89312138D01*
X89107720Y-89316403D01*
X89107714Y-89316411D01*
X89098300Y-89330211D01*
X88984743Y-89496680D01*
X88890688Y-89699305D01*
X88830989Y-89914570D01*
X88807251Y-90136695D01*
X88807548Y-90141848D01*
X88807548Y-90141851D01*
X88813011Y-90236590D01*
X88820110Y-90359715D01*
X88821247Y-90364761D01*
X88821248Y-90364767D01*
X88829955Y-90403402D01*
X88869222Y-90577639D01*
X88953266Y-90784616D01*
X88994958Y-90852652D01*
X89067291Y-90970688D01*
X89069987Y-90975088D01*
X89216250Y-91143938D01*
X89388126Y-91286632D01*
X89453573Y-91324876D01*
X89461445Y-91329476D01*
X89510169Y-91381114D01*
X89523240Y-91450897D01*
X89496509Y-91516669D01*
X89456055Y-91550027D01*
X89443607Y-91556507D01*
X89439474Y-91559610D01*
X89439471Y-91559612D01*
X89269100Y-91687530D01*
X89264965Y-91690635D01*
X89261393Y-91694373D01*
X89153729Y-91807037D01*
X89110629Y-91852138D01*
X89107720Y-91856403D01*
X89107714Y-91856411D01*
X89098300Y-91870211D01*
X88984743Y-92036680D01*
X88890688Y-92239305D01*
X88830989Y-92454570D01*
X88807251Y-92676695D01*
X88807548Y-92681848D01*
X88807548Y-92681851D01*
X88813011Y-92776590D01*
X88820110Y-92899715D01*
X88821247Y-92904761D01*
X88821248Y-92904767D01*
X88829955Y-92943402D01*
X88869222Y-93117639D01*
X88953266Y-93324616D01*
X88994958Y-93392652D01*
X89067291Y-93510688D01*
X89069987Y-93515088D01*
X89216250Y-93683938D01*
X89388126Y-93826632D01*
X89453573Y-93864876D01*
X89461445Y-93869476D01*
X89510169Y-93921114D01*
X89523240Y-93990897D01*
X89496509Y-94056669D01*
X89456055Y-94090027D01*
X89443607Y-94096507D01*
X89439474Y-94099610D01*
X89439471Y-94099612D01*
X89269100Y-94227530D01*
X89264965Y-94230635D01*
X89261393Y-94234373D01*
X89153729Y-94347037D01*
X89110629Y-94392138D01*
X89107720Y-94396403D01*
X89107714Y-94396411D01*
X89098300Y-94410211D01*
X88984743Y-94576680D01*
X88890688Y-94779305D01*
X88830989Y-94994570D01*
X88807251Y-95216695D01*
X88807548Y-95221848D01*
X88807548Y-95221851D01*
X88813011Y-95316590D01*
X88820110Y-95439715D01*
X88821247Y-95444761D01*
X88821248Y-95444767D01*
X88829955Y-95483402D01*
X88869222Y-95657639D01*
X88953266Y-95864616D01*
X89004019Y-95947438D01*
X89067291Y-96050688D01*
X89069987Y-96055088D01*
X89216250Y-96223938D01*
X89388126Y-96366632D01*
X89455163Y-96405805D01*
X89461445Y-96409476D01*
X89510169Y-96461114D01*
X89523240Y-96530897D01*
X89496509Y-96596669D01*
X89456055Y-96630027D01*
X89443607Y-96636507D01*
X89439474Y-96639610D01*
X89439471Y-96639612D01*
X89269100Y-96767530D01*
X89264965Y-96770635D01*
X89261393Y-96774373D01*
X89153729Y-96887037D01*
X89110629Y-96932138D01*
X89107720Y-96936403D01*
X89107714Y-96936411D01*
X89098300Y-96950211D01*
X88984743Y-97116680D01*
X88969003Y-97150590D01*
X88896290Y-97307237D01*
X88890688Y-97319305D01*
X88830989Y-97534570D01*
X88807251Y-97756695D01*
X88807548Y-97761848D01*
X88807548Y-97761851D01*
X88813011Y-97856590D01*
X88820110Y-97979715D01*
X88821247Y-97984761D01*
X88821248Y-97984767D01*
X88829955Y-98023402D01*
X88869222Y-98197639D01*
X88953266Y-98404616D01*
X89004019Y-98487438D01*
X89067291Y-98590688D01*
X89069987Y-98595088D01*
X89216250Y-98763938D01*
X89388126Y-98906632D01*
X89455163Y-98945805D01*
X89461445Y-98949476D01*
X89510169Y-99001114D01*
X89523240Y-99070897D01*
X89496509Y-99136669D01*
X89456055Y-99170027D01*
X89443607Y-99176507D01*
X89439474Y-99179610D01*
X89439471Y-99179612D01*
X89269100Y-99307530D01*
X89264965Y-99310635D01*
X89261393Y-99314373D01*
X89153729Y-99427037D01*
X89110629Y-99472138D01*
X89107720Y-99476403D01*
X89107714Y-99476411D01*
X89098300Y-99490211D01*
X88984743Y-99656680D01*
X88890688Y-99859305D01*
X88830989Y-100074570D01*
X88807251Y-100296695D01*
X88807548Y-100301848D01*
X88807548Y-100301851D01*
X88813011Y-100396590D01*
X88820110Y-100519715D01*
X88821247Y-100524761D01*
X88821248Y-100524767D01*
X88841119Y-100612939D01*
X88869222Y-100737639D01*
X88953266Y-100944616D01*
X89004019Y-101027438D01*
X89067291Y-101130688D01*
X89069987Y-101135088D01*
X89216250Y-101303938D01*
X89388126Y-101446632D01*
X89426576Y-101469100D01*
X89461445Y-101489476D01*
X89510169Y-101541114D01*
X89523240Y-101610897D01*
X89496509Y-101676669D01*
X89456055Y-101710027D01*
X89443607Y-101716507D01*
X89439474Y-101719610D01*
X89439471Y-101719612D01*
X89341978Y-101792812D01*
X89264965Y-101850635D01*
X89261393Y-101854373D01*
X89153729Y-101967037D01*
X89110629Y-102012138D01*
X88984743Y-102196680D01*
X88890688Y-102399305D01*
X88830989Y-102614570D01*
X88807251Y-102836695D01*
X83910418Y-102836695D01*
X83894852Y-102647361D01*
X83840431Y-102430702D01*
X83751354Y-102225840D01*
X83630014Y-102038277D01*
X83479670Y-101873051D01*
X83475619Y-101869852D01*
X83475615Y-101869848D01*
X83308414Y-101737800D01*
X83308410Y-101737798D01*
X83304359Y-101734598D01*
X83263053Y-101711796D01*
X83213084Y-101661364D01*
X83198312Y-101591921D01*
X83223428Y-101525516D01*
X83250780Y-101498909D01*
X83303727Y-101461142D01*
X83429860Y-101371173D01*
X83454917Y-101346204D01*
X83576106Y-101225437D01*
X83588096Y-101213489D01*
X83647594Y-101130689D01*
X83715435Y-101036277D01*
X83718453Y-101032077D01*
X83739320Y-100989857D01*
X83815136Y-100836453D01*
X83815137Y-100836451D01*
X83817430Y-100831811D01*
X83882370Y-100618069D01*
X83911529Y-100396590D01*
X83911688Y-100390091D01*
X83913074Y-100333365D01*
X83913074Y-100333361D01*
X83913156Y-100330000D01*
X83894852Y-100107361D01*
X83840431Y-99890702D01*
X83751354Y-99685840D01*
X83630014Y-99498277D01*
X83479670Y-99333051D01*
X83475619Y-99329852D01*
X83475615Y-99329848D01*
X83308414Y-99197800D01*
X83308410Y-99197798D01*
X83304359Y-99194598D01*
X83263053Y-99171796D01*
X83213084Y-99121364D01*
X83198312Y-99051921D01*
X83223428Y-98985516D01*
X83250780Y-98958909D01*
X83299207Y-98924366D01*
X83429860Y-98831173D01*
X83461788Y-98799357D01*
X83573616Y-98687918D01*
X83588096Y-98673489D01*
X83619498Y-98629789D01*
X83715435Y-98496277D01*
X83718453Y-98492077D01*
X83738628Y-98451257D01*
X83815136Y-98296453D01*
X83815137Y-98296451D01*
X83817430Y-98291811D01*
X83882370Y-98078069D01*
X83911529Y-97856590D01*
X83913156Y-97790000D01*
X83894852Y-97567361D01*
X83840431Y-97350702D01*
X83751354Y-97145840D01*
X83630014Y-96958277D01*
X83479670Y-96793051D01*
X83475619Y-96789852D01*
X83475615Y-96789848D01*
X83308414Y-96657800D01*
X83308410Y-96657798D01*
X83304359Y-96654598D01*
X83263053Y-96631796D01*
X83213084Y-96581364D01*
X83198312Y-96511921D01*
X83223428Y-96445516D01*
X83250780Y-96418909D01*
X83299207Y-96384366D01*
X83429860Y-96291173D01*
X83461788Y-96259357D01*
X83558355Y-96163126D01*
X83588096Y-96133489D01*
X83619498Y-96089789D01*
X83715435Y-95956277D01*
X83718453Y-95952077D01*
X83738628Y-95911257D01*
X83815136Y-95756453D01*
X83815137Y-95756451D01*
X83817430Y-95751811D01*
X83882370Y-95538069D01*
X83911529Y-95316590D01*
X83913156Y-95250000D01*
X83894852Y-95027361D01*
X83840431Y-94810702D01*
X83751354Y-94605840D01*
X83630014Y-94418277D01*
X83479670Y-94253051D01*
X83475619Y-94249852D01*
X83475615Y-94249848D01*
X83308414Y-94117800D01*
X83308410Y-94117798D01*
X83304359Y-94114598D01*
X83263053Y-94091796D01*
X83213084Y-94041364D01*
X83198312Y-93971921D01*
X83223428Y-93905516D01*
X83250780Y-93878909D01*
X83299207Y-93844366D01*
X83429860Y-93751173D01*
X83461788Y-93719357D01*
X83573616Y-93607918D01*
X83588096Y-93593489D01*
X83619498Y-93549789D01*
X83715435Y-93416277D01*
X83718453Y-93412077D01*
X83728054Y-93392652D01*
X83815136Y-93216453D01*
X83815137Y-93216451D01*
X83817430Y-93211811D01*
X83882370Y-92998069D01*
X83911529Y-92776590D01*
X83913156Y-92710000D01*
X83894852Y-92487361D01*
X83840431Y-92270702D01*
X83751354Y-92065840D01*
X83630014Y-91878277D01*
X83479670Y-91713051D01*
X83475619Y-91709852D01*
X83475615Y-91709848D01*
X83308414Y-91577800D01*
X83308410Y-91577798D01*
X83304359Y-91574598D01*
X83263053Y-91551796D01*
X83213084Y-91501364D01*
X83198312Y-91431921D01*
X83223428Y-91365516D01*
X83250780Y-91338909D01*
X83299207Y-91304366D01*
X83429860Y-91211173D01*
X83461788Y-91179357D01*
X83573616Y-91067918D01*
X83588096Y-91053489D01*
X83619498Y-91009789D01*
X83715435Y-90876277D01*
X83718453Y-90872077D01*
X83728054Y-90852652D01*
X83815136Y-90676453D01*
X83815137Y-90676451D01*
X83817430Y-90671811D01*
X83882370Y-90458069D01*
X83911529Y-90236590D01*
X83913156Y-90170000D01*
X83894852Y-89947361D01*
X83840431Y-89730702D01*
X83751354Y-89525840D01*
X83630014Y-89338277D01*
X83479670Y-89173051D01*
X83475619Y-89169852D01*
X83475615Y-89169848D01*
X83308414Y-89037800D01*
X83308410Y-89037798D01*
X83304359Y-89034598D01*
X83263053Y-89011796D01*
X83213084Y-88961364D01*
X83198312Y-88891921D01*
X83223428Y-88825516D01*
X83250780Y-88798909D01*
X83299207Y-88764366D01*
X83429860Y-88671173D01*
X83461788Y-88639357D01*
X83573616Y-88527918D01*
X83588096Y-88513489D01*
X83619498Y-88469789D01*
X83715435Y-88336277D01*
X83718453Y-88332077D01*
X83738628Y-88291257D01*
X83815136Y-88136453D01*
X83815137Y-88136451D01*
X83817430Y-88131811D01*
X83882370Y-87918069D01*
X83911529Y-87696590D01*
X83913156Y-87630000D01*
X83894852Y-87407361D01*
X83840431Y-87190702D01*
X83751354Y-86985840D01*
X83630014Y-86798277D01*
X83479670Y-86633051D01*
X83475619Y-86629852D01*
X83475615Y-86629848D01*
X83308414Y-86497800D01*
X83308410Y-86497798D01*
X83304359Y-86494598D01*
X83263053Y-86471796D01*
X83213084Y-86421364D01*
X83198312Y-86351921D01*
X83223428Y-86285516D01*
X83250780Y-86258909D01*
X83299207Y-86224366D01*
X83429860Y-86131173D01*
X83461788Y-86099357D01*
X83561175Y-86000316D01*
X83588096Y-85973489D01*
X83619498Y-85929789D01*
X83715435Y-85796277D01*
X83718453Y-85792077D01*
X83738628Y-85751257D01*
X83815136Y-85596453D01*
X83815137Y-85596451D01*
X83817430Y-85591811D01*
X83882370Y-85378069D01*
X83911529Y-85156590D01*
X83913156Y-85090000D01*
X83894852Y-84867361D01*
X83840431Y-84650702D01*
X83751354Y-84445840D01*
X83630014Y-84258277D01*
X83479670Y-84093051D01*
X83475619Y-84089852D01*
X83475615Y-84089848D01*
X83308414Y-83957800D01*
X83308410Y-83957798D01*
X83304359Y-83954598D01*
X83296304Y-83950151D01*
X83218814Y-83907375D01*
X83108789Y-83846638D01*
X83103920Y-83844914D01*
X83103916Y-83844912D01*
X82903087Y-83773795D01*
X82903083Y-83773794D01*
X82898212Y-83772069D01*
X82893119Y-83771162D01*
X82893116Y-83771161D01*
X82683373Y-83733800D01*
X82683367Y-83733799D01*
X82678284Y-83732894D01*
X82604452Y-83731992D01*
X82460081Y-83730228D01*
X82460079Y-83730228D01*
X82454911Y-83730165D01*
X82234091Y-83763955D01*
X82021756Y-83833357D01*
X81823607Y-83936507D01*
X81819474Y-83939610D01*
X81819471Y-83939612D01*
X81670180Y-84051703D01*
X81644965Y-84070635D01*
X81641393Y-84074373D01*
X81533729Y-84187037D01*
X81490629Y-84232138D01*
X81383201Y-84389621D01*
X81328293Y-84434621D01*
X81257768Y-84442792D01*
X81194021Y-84411538D01*
X81173324Y-84387054D01*
X81092822Y-84262617D01*
X81092820Y-84262614D01*
X81090014Y-84258277D01*
X80939670Y-84093051D01*
X80935619Y-84089852D01*
X80935615Y-84089848D01*
X80768414Y-83957800D01*
X80768410Y-83957798D01*
X80764359Y-83954598D01*
X80756304Y-83950151D01*
X80678814Y-83907375D01*
X80568789Y-83846638D01*
X80563920Y-83844914D01*
X80563916Y-83844912D01*
X80363087Y-83773795D01*
X80363083Y-83773794D01*
X80358212Y-83772069D01*
X80353119Y-83771162D01*
X80353116Y-83771161D01*
X80143373Y-83733800D01*
X80143367Y-83733799D01*
X80138284Y-83732894D01*
X80064452Y-83731992D01*
X79920081Y-83730228D01*
X79920079Y-83730228D01*
X79914911Y-83730165D01*
X79694091Y-83763955D01*
X79481756Y-83833357D01*
X79283607Y-83936507D01*
X79279474Y-83939610D01*
X79279471Y-83939612D01*
X79130180Y-84051703D01*
X79104965Y-84070635D01*
X79048537Y-84129684D01*
X79024283Y-84155064D01*
X78962759Y-84190494D01*
X78891846Y-84187037D01*
X78834060Y-84145791D01*
X78815207Y-84112243D01*
X78773767Y-84001703D01*
X78770615Y-83993295D01*
X78683261Y-83876739D01*
X78566705Y-83789385D01*
X78430316Y-83738255D01*
X78368134Y-83731500D01*
X76571866Y-83731500D01*
X76509684Y-83738255D01*
X76373295Y-83789385D01*
X76256739Y-83876739D01*
X76169385Y-83993295D01*
X76118255Y-84129684D01*
X76111500Y-84191866D01*
X76111500Y-85988134D01*
X76118255Y-86050316D01*
X76169385Y-86186705D01*
X76219266Y-86253261D01*
X76242630Y-86284435D01*
X76267478Y-86350941D01*
X76252425Y-86420324D01*
X76242632Y-86435562D01*
X76169385Y-86533295D01*
X76118255Y-86669684D01*
X76111500Y-86731866D01*
X76111500Y-88528134D01*
X76118255Y-88590316D01*
X76169385Y-88726705D01*
X76223499Y-88798909D01*
X76242630Y-88824435D01*
X76267478Y-88890941D01*
X76252425Y-88960324D01*
X76242632Y-88975562D01*
X76169385Y-89073295D01*
X76118255Y-89209684D01*
X76111500Y-89271866D01*
X76111500Y-91068134D01*
X76118255Y-91130316D01*
X76169385Y-91266705D01*
X76217437Y-91330820D01*
X76242630Y-91364435D01*
X76267478Y-91430941D01*
X76252425Y-91500324D01*
X76242632Y-91515562D01*
X76169385Y-91613295D01*
X76118255Y-91749684D01*
X76111500Y-91811866D01*
X76111500Y-93608134D01*
X76118255Y-93670316D01*
X76169385Y-93806705D01*
X76217437Y-93870820D01*
X76242630Y-93904435D01*
X76267478Y-93970941D01*
X76252425Y-94040324D01*
X76242632Y-94055562D01*
X76169385Y-94153295D01*
X76118255Y-94289684D01*
X76111500Y-94351866D01*
X76111500Y-96148134D01*
X76118255Y-96210316D01*
X76169385Y-96346705D01*
X76242630Y-96444435D01*
X76267478Y-96510941D01*
X76252425Y-96580324D01*
X76242632Y-96595562D01*
X76169385Y-96693295D01*
X76118255Y-96829684D01*
X76111500Y-96891866D01*
X76111500Y-98688134D01*
X76118255Y-98750316D01*
X76169385Y-98886705D01*
X76223499Y-98958909D01*
X76242630Y-98984435D01*
X76267478Y-99050941D01*
X76252425Y-99120324D01*
X76242632Y-99135562D01*
X76169385Y-99233295D01*
X76118255Y-99369684D01*
X76111500Y-99431866D01*
X76111500Y-101228134D01*
X76118255Y-101290316D01*
X76169385Y-101426705D01*
X76220615Y-101495061D01*
X76242630Y-101524435D01*
X76267478Y-101590941D01*
X76252425Y-101660324D01*
X76242632Y-101675562D01*
X76169385Y-101773295D01*
X76118255Y-101909684D01*
X76111500Y-101971866D01*
X76111500Y-103768134D01*
X76118255Y-103830316D01*
X76169385Y-103966705D01*
X76222737Y-104037892D01*
X76242630Y-104064435D01*
X76267478Y-104130941D01*
X76252425Y-104200324D01*
X76242632Y-104215562D01*
X76169385Y-104313295D01*
X76118255Y-104449684D01*
X76111500Y-104511866D01*
X76111500Y-106308134D01*
X76118255Y-106370316D01*
X76169385Y-106506705D01*
X76223499Y-106578909D01*
X76242630Y-106604435D01*
X76267478Y-106670941D01*
X76252425Y-106740324D01*
X76242632Y-106755562D01*
X76169385Y-106853295D01*
X76118255Y-106989684D01*
X76111500Y-107051866D01*
X76111500Y-108848134D01*
X71508400Y-108848134D01*
X71523096Y-108833489D01*
X71582594Y-108750689D01*
X71650435Y-108656277D01*
X71653453Y-108652077D01*
X71674320Y-108609857D01*
X71750136Y-108456453D01*
X71750137Y-108456451D01*
X71752430Y-108451811D01*
X71817370Y-108238069D01*
X71846529Y-108016590D01*
X71847505Y-107976638D01*
X71848074Y-107953365D01*
X71848074Y-107953361D01*
X71848156Y-107950000D01*
X71829852Y-107727361D01*
X71775431Y-107510702D01*
X71686354Y-107305840D01*
X71565014Y-107118277D01*
X71414670Y-106953051D01*
X71410619Y-106949852D01*
X71410615Y-106949848D01*
X71243414Y-106817800D01*
X71243410Y-106817798D01*
X71239359Y-106814598D01*
X71198053Y-106791796D01*
X71148084Y-106741364D01*
X71133312Y-106671921D01*
X71158428Y-106605516D01*
X71185780Y-106578909D01*
X71229603Y-106547650D01*
X71364860Y-106451173D01*
X71523096Y-106293489D01*
X71582594Y-106210689D01*
X71650435Y-106116277D01*
X71653453Y-106112077D01*
X71674320Y-106069857D01*
X71750136Y-105916453D01*
X71750137Y-105916451D01*
X71752430Y-105911811D01*
X71817370Y-105698069D01*
X71846529Y-105476590D01*
X71848156Y-105410000D01*
X71829852Y-105187361D01*
X71775431Y-104970702D01*
X71686354Y-104765840D01*
X71565014Y-104578277D01*
X71414670Y-104413051D01*
X71410619Y-104409852D01*
X71410615Y-104409848D01*
X71243414Y-104277800D01*
X71243410Y-104277798D01*
X71239359Y-104274598D01*
X71198053Y-104251796D01*
X71148084Y-104201364D01*
X71133312Y-104131921D01*
X71158428Y-104065516D01*
X71185780Y-104038909D01*
X71229603Y-104007650D01*
X71364860Y-103911173D01*
X71523096Y-103753489D01*
X71582594Y-103670689D01*
X71650435Y-103576277D01*
X71653453Y-103572077D01*
X71674320Y-103529857D01*
X71750136Y-103376453D01*
X71750137Y-103376451D01*
X71752430Y-103371811D01*
X71817370Y-103158069D01*
X71846529Y-102936590D01*
X71848156Y-102870000D01*
X71829852Y-102647361D01*
X71775431Y-102430702D01*
X71686354Y-102225840D01*
X71565014Y-102038277D01*
X71414670Y-101873051D01*
X71410619Y-101869852D01*
X71410615Y-101869848D01*
X71243414Y-101737800D01*
X71243410Y-101737798D01*
X71239359Y-101734598D01*
X71198053Y-101711796D01*
X71148084Y-101661364D01*
X71133312Y-101591921D01*
X71158428Y-101525516D01*
X71185780Y-101498909D01*
X71238727Y-101461142D01*
X71364860Y-101371173D01*
X71389917Y-101346204D01*
X71511106Y-101225437D01*
X71523096Y-101213489D01*
X71582594Y-101130689D01*
X71650435Y-101036277D01*
X71653453Y-101032077D01*
X71674320Y-100989857D01*
X71750136Y-100836453D01*
X71750137Y-100836451D01*
X71752430Y-100831811D01*
X71817370Y-100618069D01*
X71846529Y-100396590D01*
X71846688Y-100390091D01*
X71848074Y-100333365D01*
X71848074Y-100333361D01*
X71848156Y-100330000D01*
X71829852Y-100107361D01*
X71775431Y-99890702D01*
X71686354Y-99685840D01*
X71565014Y-99498277D01*
X71414670Y-99333051D01*
X71410619Y-99329852D01*
X71410615Y-99329848D01*
X71243414Y-99197800D01*
X71243410Y-99197798D01*
X71239359Y-99194598D01*
X71198053Y-99171796D01*
X71148084Y-99121364D01*
X71133312Y-99051921D01*
X71158428Y-98985516D01*
X71185780Y-98958909D01*
X71234207Y-98924366D01*
X71364860Y-98831173D01*
X71396788Y-98799357D01*
X71508616Y-98687918D01*
X71523096Y-98673489D01*
X71554498Y-98629789D01*
X71650435Y-98496277D01*
X71653453Y-98492077D01*
X71673628Y-98451257D01*
X71750136Y-98296453D01*
X71750137Y-98296451D01*
X71752430Y-98291811D01*
X71817370Y-98078069D01*
X71846529Y-97856590D01*
X71848156Y-97790000D01*
X71829852Y-97567361D01*
X71775431Y-97350702D01*
X71686354Y-97145840D01*
X71565014Y-96958277D01*
X71414670Y-96793051D01*
X71410619Y-96789852D01*
X71410615Y-96789848D01*
X71243414Y-96657800D01*
X71243410Y-96657798D01*
X71239359Y-96654598D01*
X71198053Y-96631796D01*
X71148084Y-96581364D01*
X71133312Y-96511921D01*
X71158428Y-96445516D01*
X71185780Y-96418909D01*
X71234207Y-96384366D01*
X71364860Y-96291173D01*
X71396788Y-96259357D01*
X71493355Y-96163126D01*
X71523096Y-96133489D01*
X71554498Y-96089789D01*
X71650435Y-95956277D01*
X71653453Y-95952077D01*
X71673628Y-95911257D01*
X71750136Y-95756453D01*
X71750137Y-95756451D01*
X71752430Y-95751811D01*
X71817370Y-95538069D01*
X71846529Y-95316590D01*
X71848156Y-95250000D01*
X71829852Y-95027361D01*
X71775431Y-94810702D01*
X71686354Y-94605840D01*
X71565014Y-94418277D01*
X71414670Y-94253051D01*
X71410619Y-94249852D01*
X71410615Y-94249848D01*
X71243414Y-94117800D01*
X71243410Y-94117798D01*
X71239359Y-94114598D01*
X71198053Y-94091796D01*
X71148084Y-94041364D01*
X71133312Y-93971921D01*
X71158428Y-93905516D01*
X71185780Y-93878909D01*
X71234207Y-93844366D01*
X71364860Y-93751173D01*
X71396788Y-93719357D01*
X71508616Y-93607918D01*
X71523096Y-93593489D01*
X71554498Y-93549789D01*
X71650435Y-93416277D01*
X71653453Y-93412077D01*
X71663054Y-93392652D01*
X71750136Y-93216453D01*
X71750137Y-93216451D01*
X71752430Y-93211811D01*
X71817370Y-92998069D01*
X71846529Y-92776590D01*
X71848156Y-92710000D01*
X71829852Y-92487361D01*
X71775431Y-92270702D01*
X71686354Y-92065840D01*
X71565014Y-91878277D01*
X71414670Y-91713051D01*
X71410619Y-91709852D01*
X71410615Y-91709848D01*
X71243414Y-91577800D01*
X71243410Y-91577798D01*
X71239359Y-91574598D01*
X71198053Y-91551796D01*
X71148084Y-91501364D01*
X71133312Y-91431921D01*
X71158428Y-91365516D01*
X71185780Y-91338909D01*
X71234207Y-91304366D01*
X71364860Y-91211173D01*
X71396788Y-91179357D01*
X71508616Y-91067918D01*
X71523096Y-91053489D01*
X71554498Y-91009789D01*
X71650435Y-90876277D01*
X71653453Y-90872077D01*
X71663054Y-90852652D01*
X71750136Y-90676453D01*
X71750137Y-90676451D01*
X71752430Y-90671811D01*
X71817370Y-90458069D01*
X71846529Y-90236590D01*
X71848156Y-90170000D01*
X71829852Y-89947361D01*
X71775431Y-89730702D01*
X71686354Y-89525840D01*
X71565014Y-89338277D01*
X71414670Y-89173051D01*
X71410619Y-89169852D01*
X71410615Y-89169848D01*
X71243414Y-89037800D01*
X71243410Y-89037798D01*
X71239359Y-89034598D01*
X71198053Y-89011796D01*
X71148084Y-88961364D01*
X71133312Y-88891921D01*
X71158428Y-88825516D01*
X71185780Y-88798909D01*
X71234207Y-88764366D01*
X71364860Y-88671173D01*
X71396788Y-88639357D01*
X71508616Y-88527918D01*
X71523096Y-88513489D01*
X71554498Y-88469789D01*
X71650435Y-88336277D01*
X71653453Y-88332077D01*
X71673628Y-88291257D01*
X71750136Y-88136453D01*
X71750137Y-88136451D01*
X71752430Y-88131811D01*
X71817370Y-87918069D01*
X71846529Y-87696590D01*
X71848156Y-87630000D01*
X71829852Y-87407361D01*
X71775431Y-87190702D01*
X71686354Y-86985840D01*
X71565014Y-86798277D01*
X71414670Y-86633051D01*
X71410619Y-86629852D01*
X71410615Y-86629848D01*
X71243414Y-86497800D01*
X71243410Y-86497798D01*
X71239359Y-86494598D01*
X71198053Y-86471796D01*
X71148084Y-86421364D01*
X71133312Y-86351921D01*
X71158428Y-86285516D01*
X71185780Y-86258909D01*
X71234207Y-86224366D01*
X71364860Y-86131173D01*
X71396788Y-86099357D01*
X71496175Y-86000316D01*
X71523096Y-85973489D01*
X71554498Y-85929789D01*
X71650435Y-85796277D01*
X71653453Y-85792077D01*
X71673628Y-85751257D01*
X71750136Y-85596453D01*
X71750137Y-85596451D01*
X71752430Y-85591811D01*
X71817370Y-85378069D01*
X71846529Y-85156590D01*
X71848156Y-85090000D01*
X71829852Y-84867361D01*
X71775431Y-84650702D01*
X71686354Y-84445840D01*
X71565014Y-84258277D01*
X71553570Y-84245700D01*
X71417798Y-84096488D01*
X71386746Y-84032642D01*
X71395141Y-83962143D01*
X71440317Y-83907375D01*
X71466761Y-83893706D01*
X71573297Y-83853767D01*
X71581705Y-83850615D01*
X71698261Y-83763261D01*
X71785615Y-83646705D01*
X71836745Y-83510316D01*
X71843500Y-83448134D01*
X71843500Y-81651866D01*
X71836745Y-81589684D01*
X71785615Y-81453295D01*
X71698261Y-81336739D01*
X71581705Y-81249385D01*
X71445316Y-81198255D01*
X71383134Y-81191500D01*
X69586866Y-81191500D01*
X69524684Y-81198255D01*
X69388295Y-81249385D01*
X69271739Y-81336739D01*
X69184385Y-81453295D01*
X69133255Y-81589684D01*
X69126500Y-81651866D01*
X69126500Y-83448134D01*
X69133255Y-83510316D01*
X69184385Y-83646705D01*
X69271739Y-83763261D01*
X69388295Y-83850615D01*
X69396704Y-83853767D01*
X69396705Y-83853768D01*
X69505451Y-83894535D01*
X69562216Y-83937176D01*
X69586916Y-84003738D01*
X69571709Y-84073087D01*
X69552316Y-84099568D01*
X69468729Y-84187037D01*
X69425629Y-84232138D01*
X69422720Y-84236403D01*
X69422714Y-84236411D01*
X69413300Y-84250211D01*
X69299743Y-84416680D01*
X69205688Y-84619305D01*
X69145989Y-84834570D01*
X69122251Y-85056695D01*
X69122548Y-85061848D01*
X69122548Y-85061851D01*
X69128011Y-85156590D01*
X69135110Y-85279715D01*
X69136247Y-85284761D01*
X69136248Y-85284767D01*
X69144955Y-85323402D01*
X69184222Y-85497639D01*
X69268266Y-85704616D01*
X69319019Y-85787438D01*
X69382291Y-85890688D01*
X69384987Y-85895088D01*
X69531250Y-86063938D01*
X69703126Y-86206632D01*
X69770163Y-86245805D01*
X69776445Y-86249476D01*
X69825169Y-86301114D01*
X69838240Y-86370897D01*
X69811509Y-86436669D01*
X69771055Y-86470027D01*
X69758607Y-86476507D01*
X69754474Y-86479610D01*
X69754471Y-86479612D01*
X69630567Y-86572642D01*
X69579965Y-86610635D01*
X69576393Y-86614373D01*
X69468729Y-86727037D01*
X69425629Y-86772138D01*
X69422720Y-86776403D01*
X69422714Y-86776411D01*
X69413300Y-86790211D01*
X69299743Y-86956680D01*
X69205688Y-87159305D01*
X69145989Y-87374570D01*
X69122251Y-87596695D01*
X69122548Y-87601848D01*
X69122548Y-87601851D01*
X69128011Y-87696590D01*
X69135110Y-87819715D01*
X69136247Y-87824761D01*
X69136248Y-87824767D01*
X69144955Y-87863402D01*
X69184222Y-88037639D01*
X69268266Y-88244616D01*
X69319019Y-88327438D01*
X69382291Y-88430688D01*
X69384987Y-88435088D01*
X69531250Y-88603938D01*
X69703126Y-88746632D01*
X69770163Y-88785805D01*
X69776445Y-88789476D01*
X69825169Y-88841114D01*
X69838240Y-88910897D01*
X69811509Y-88976669D01*
X69771055Y-89010027D01*
X69758607Y-89016507D01*
X69754474Y-89019610D01*
X69754471Y-89019612D01*
X69584100Y-89147530D01*
X69579965Y-89150635D01*
X69576393Y-89154373D01*
X69468729Y-89267037D01*
X69425629Y-89312138D01*
X69422720Y-89316403D01*
X69422714Y-89316411D01*
X69413300Y-89330211D01*
X69299743Y-89496680D01*
X69205688Y-89699305D01*
X69145989Y-89914570D01*
X69122251Y-90136695D01*
X69122548Y-90141848D01*
X69122548Y-90141851D01*
X69128011Y-90236590D01*
X69135110Y-90359715D01*
X69136247Y-90364761D01*
X69136248Y-90364767D01*
X69144955Y-90403402D01*
X69184222Y-90577639D01*
X69268266Y-90784616D01*
X69309958Y-90852652D01*
X69382291Y-90970688D01*
X69384987Y-90975088D01*
X69531250Y-91143938D01*
X69703126Y-91286632D01*
X69768573Y-91324876D01*
X69776445Y-91329476D01*
X69825169Y-91381114D01*
X69838240Y-91450897D01*
X69811509Y-91516669D01*
X69771055Y-91550027D01*
X69758607Y-91556507D01*
X69754474Y-91559610D01*
X69754471Y-91559612D01*
X69584100Y-91687530D01*
X69579965Y-91690635D01*
X69576393Y-91694373D01*
X69468729Y-91807037D01*
X69425629Y-91852138D01*
X69422720Y-91856403D01*
X69422714Y-91856411D01*
X69413300Y-91870211D01*
X69299743Y-92036680D01*
X69205688Y-92239305D01*
X69145989Y-92454570D01*
X69122251Y-92676695D01*
X69122548Y-92681848D01*
X69122548Y-92681851D01*
X69128011Y-92776590D01*
X69135110Y-92899715D01*
X69136247Y-92904761D01*
X69136248Y-92904767D01*
X69144955Y-92943402D01*
X69184222Y-93117639D01*
X69268266Y-93324616D01*
X69309958Y-93392652D01*
X69382291Y-93510688D01*
X69384987Y-93515088D01*
X69531250Y-93683938D01*
X69703126Y-93826632D01*
X69768573Y-93864876D01*
X69776445Y-93869476D01*
X69825169Y-93921114D01*
X69838240Y-93990897D01*
X69811509Y-94056669D01*
X69771055Y-94090027D01*
X69758607Y-94096507D01*
X69754474Y-94099610D01*
X69754471Y-94099612D01*
X69584100Y-94227530D01*
X69579965Y-94230635D01*
X69576393Y-94234373D01*
X69468729Y-94347037D01*
X69425629Y-94392138D01*
X69422720Y-94396403D01*
X69422714Y-94396411D01*
X69413300Y-94410211D01*
X69299743Y-94576680D01*
X69205688Y-94779305D01*
X69145989Y-94994570D01*
X69122251Y-95216695D01*
X69122548Y-95221848D01*
X69122548Y-95221851D01*
X69128011Y-95316590D01*
X69135110Y-95439715D01*
X69136247Y-95444761D01*
X69136248Y-95444767D01*
X69144955Y-95483402D01*
X69184222Y-95657639D01*
X69268266Y-95864616D01*
X69319019Y-95947438D01*
X69382291Y-96050688D01*
X69384987Y-96055088D01*
X69531250Y-96223938D01*
X69703126Y-96366632D01*
X69770163Y-96405805D01*
X69776445Y-96409476D01*
X69825169Y-96461114D01*
X69838240Y-96530897D01*
X69811509Y-96596669D01*
X69771055Y-96630027D01*
X69758607Y-96636507D01*
X69754474Y-96639610D01*
X69754471Y-96639612D01*
X69584100Y-96767530D01*
X69579965Y-96770635D01*
X69576393Y-96774373D01*
X69468729Y-96887037D01*
X69425629Y-96932138D01*
X69422720Y-96936403D01*
X69422714Y-96936411D01*
X69413300Y-96950211D01*
X69299743Y-97116680D01*
X69284003Y-97150590D01*
X69211290Y-97307237D01*
X69205688Y-97319305D01*
X69145989Y-97534570D01*
X69122251Y-97756695D01*
X69122548Y-97761848D01*
X69122548Y-97761851D01*
X69128011Y-97856590D01*
X69135110Y-97979715D01*
X69136247Y-97984761D01*
X69136248Y-97984767D01*
X69144955Y-98023402D01*
X69184222Y-98197639D01*
X69268266Y-98404616D01*
X69319019Y-98487438D01*
X69382291Y-98590688D01*
X69384987Y-98595088D01*
X69531250Y-98763938D01*
X69703126Y-98906632D01*
X69770163Y-98945805D01*
X69776445Y-98949476D01*
X69825169Y-99001114D01*
X69838240Y-99070897D01*
X69811509Y-99136669D01*
X69771055Y-99170027D01*
X69758607Y-99176507D01*
X69754474Y-99179610D01*
X69754471Y-99179612D01*
X69584100Y-99307530D01*
X69579965Y-99310635D01*
X69576393Y-99314373D01*
X69468729Y-99427037D01*
X69425629Y-99472138D01*
X69422720Y-99476403D01*
X69422714Y-99476411D01*
X69413300Y-99490211D01*
X69299743Y-99656680D01*
X69205688Y-99859305D01*
X69145989Y-100074570D01*
X69122251Y-100296695D01*
X69122548Y-100301848D01*
X69122548Y-100301851D01*
X69128011Y-100396590D01*
X69135110Y-100519715D01*
X69136247Y-100524761D01*
X69136248Y-100524767D01*
X69156119Y-100612939D01*
X69184222Y-100737639D01*
X69268266Y-100944616D01*
X69319019Y-101027438D01*
X69382291Y-101130688D01*
X69384987Y-101135088D01*
X69531250Y-101303938D01*
X69703126Y-101446632D01*
X69741576Y-101469100D01*
X69776445Y-101489476D01*
X69825169Y-101541114D01*
X69838240Y-101610897D01*
X69811509Y-101676669D01*
X69771055Y-101710027D01*
X69758607Y-101716507D01*
X69754474Y-101719610D01*
X69754471Y-101719612D01*
X69656978Y-101792812D01*
X69579965Y-101850635D01*
X69576393Y-101854373D01*
X69468729Y-101967037D01*
X69425629Y-102012138D01*
X69299743Y-102196680D01*
X69205688Y-102399305D01*
X69145989Y-102614570D01*
X69122251Y-102836695D01*
X69122548Y-102841848D01*
X69122548Y-102841851D01*
X69128011Y-102936590D01*
X69135110Y-103059715D01*
X69136247Y-103064761D01*
X69136248Y-103064767D01*
X69156119Y-103152939D01*
X69184222Y-103277639D01*
X69268266Y-103484616D01*
X69319019Y-103567438D01*
X69382291Y-103670688D01*
X69384987Y-103675088D01*
X69531250Y-103843938D01*
X69703126Y-103986632D01*
X69773595Y-104027811D01*
X69776445Y-104029476D01*
X69825169Y-104081114D01*
X69838240Y-104150897D01*
X69811509Y-104216669D01*
X69771055Y-104250027D01*
X69758607Y-104256507D01*
X69754474Y-104259610D01*
X69754471Y-104259612D01*
X69584100Y-104387530D01*
X69579965Y-104390635D01*
X69576393Y-104394373D01*
X69468729Y-104507037D01*
X69425629Y-104552138D01*
X69299743Y-104736680D01*
X69205688Y-104939305D01*
X69145989Y-105154570D01*
X69122251Y-105376695D01*
X69122548Y-105381848D01*
X69122548Y-105381851D01*
X69128011Y-105476590D01*
X69135110Y-105599715D01*
X69136247Y-105604761D01*
X69136248Y-105604767D01*
X69156119Y-105692939D01*
X69184222Y-105817639D01*
X69268266Y-106024616D01*
X69319019Y-106107438D01*
X69382291Y-106210688D01*
X69384987Y-106215088D01*
X69531250Y-106383938D01*
X69703126Y-106526632D01*
X69773595Y-106567811D01*
X69776445Y-106569476D01*
X69825169Y-106621114D01*
X69838240Y-106690897D01*
X69811509Y-106756669D01*
X69771055Y-106790027D01*
X69758607Y-106796507D01*
X69754474Y-106799610D01*
X69754471Y-106799612D01*
X69584100Y-106927530D01*
X69579965Y-106930635D01*
X69576393Y-106934373D01*
X69468729Y-107047037D01*
X69425629Y-107092138D01*
X69299743Y-107276680D01*
X69205688Y-107479305D01*
X69145989Y-107694570D01*
X69122251Y-107916695D01*
X68453000Y-107916695D01*
X68453000Y-80644000D01*
X68473002Y-80575879D01*
X68526658Y-80529386D01*
X68579000Y-80518000D01*
X129277390Y-80518000D01*
X129345511Y-80538002D01*
G37*
G04 #@! TD.AperFunction*
G04 #@! TA.AperFunction,Conductor*
G36*
X120795238Y-100101142D02*
G01*
X121249595Y-100555499D01*
X121283621Y-100617811D01*
X121286500Y-100644594D01*
X121286500Y-107941692D01*
X121266498Y-108009813D01*
X121218683Y-108053453D01*
X121193607Y-108066507D01*
X121189474Y-108069610D01*
X121189471Y-108069612D01*
X121033166Y-108186969D01*
X121014965Y-108200635D01*
X120957118Y-108261169D01*
X120934283Y-108285064D01*
X120872759Y-108320494D01*
X120801846Y-108317037D01*
X120744060Y-108275791D01*
X120725207Y-108242243D01*
X120683767Y-108131703D01*
X120680615Y-108123295D01*
X120593261Y-108006739D01*
X120476705Y-107919385D01*
X120340316Y-107868255D01*
X120278134Y-107861500D01*
X119014499Y-107861500D01*
X118946378Y-107841498D01*
X118899885Y-107787842D01*
X118888499Y-107735500D01*
X118888499Y-101716651D01*
X118908501Y-101648530D01*
X118962157Y-101602037D01*
X119032431Y-101591933D01*
X119047109Y-101594944D01*
X119108502Y-101611394D01*
X119122599Y-101611058D01*
X119126000Y-101603116D01*
X119126000Y-101597967D01*
X119634000Y-101597967D01*
X119637973Y-101611498D01*
X119646522Y-101612727D01*
X119823761Y-101565236D01*
X119834053Y-101561490D01*
X120031511Y-101469414D01*
X120041007Y-101463931D01*
X120219467Y-101338972D01*
X120227875Y-101331916D01*
X120381916Y-101177875D01*
X120388972Y-101169467D01*
X120513931Y-100991007D01*
X120519414Y-100981511D01*
X120611490Y-100784053D01*
X120615236Y-100773761D01*
X120661394Y-100601497D01*
X120661058Y-100587401D01*
X120653116Y-100584000D01*
X119652115Y-100584000D01*
X119636876Y-100588475D01*
X119635671Y-100589865D01*
X119634000Y-100597548D01*
X119634000Y-101597967D01*
X119126000Y-101597967D01*
X119126000Y-100202000D01*
X119146002Y-100133879D01*
X119199658Y-100087386D01*
X119252000Y-100076000D01*
X120647967Y-100076000D01*
X120670645Y-100069341D01*
X120741641Y-100069341D01*
X120795238Y-100101142D01*
G37*
G04 #@! TD.AperFunction*
G04 #@! TA.AperFunction,Conductor*
G36*
X98570238Y-100101142D02*
G01*
X99024595Y-100555499D01*
X99058621Y-100617811D01*
X99061500Y-100644594D01*
X99061500Y-107941692D01*
X99041498Y-108009813D01*
X98993683Y-108053453D01*
X98968607Y-108066507D01*
X98964474Y-108069610D01*
X98964471Y-108069612D01*
X98808166Y-108186969D01*
X98789965Y-108200635D01*
X98732118Y-108261169D01*
X98709283Y-108285064D01*
X98647759Y-108320494D01*
X98576846Y-108317037D01*
X98519060Y-108275791D01*
X98500207Y-108242243D01*
X98458767Y-108131703D01*
X98455615Y-108123295D01*
X98368261Y-108006739D01*
X98251705Y-107919385D01*
X98115316Y-107868255D01*
X98053134Y-107861500D01*
X96789499Y-107861500D01*
X96721378Y-107841498D01*
X96674885Y-107787842D01*
X96663499Y-107735500D01*
X96663499Y-101716651D01*
X96683501Y-101648530D01*
X96737157Y-101602037D01*
X96807431Y-101591933D01*
X96822109Y-101594944D01*
X96883502Y-101611394D01*
X96897599Y-101611058D01*
X96901000Y-101603116D01*
X96901000Y-101597967D01*
X97409000Y-101597967D01*
X97412973Y-101611498D01*
X97421522Y-101612727D01*
X97598761Y-101565236D01*
X97609053Y-101561490D01*
X97806511Y-101469414D01*
X97816007Y-101463931D01*
X97994467Y-101338972D01*
X98002875Y-101331916D01*
X98156916Y-101177875D01*
X98163972Y-101169467D01*
X98288931Y-100991007D01*
X98294414Y-100981511D01*
X98386490Y-100784053D01*
X98390236Y-100773761D01*
X98436394Y-100601497D01*
X98436058Y-100587401D01*
X98428116Y-100584000D01*
X97427115Y-100584000D01*
X97411876Y-100588475D01*
X97410671Y-100589865D01*
X97409000Y-100597548D01*
X97409000Y-101597967D01*
X96901000Y-101597967D01*
X96901000Y-100202000D01*
X96921002Y-100133879D01*
X96974658Y-100087386D01*
X97027000Y-100076000D01*
X98422967Y-100076000D01*
X98445645Y-100069341D01*
X98516641Y-100069341D01*
X98570238Y-100101142D01*
G37*
G04 #@! TD.AperFunction*
M02*
