G04 #@! TF.GenerationSoftware,KiCad,Pcbnew,6.0.1-79c1e3a40b~116~ubuntu21.04.1*
G04 #@! TF.CreationDate,2022-02-15T17:06:26-05:00*
G04 #@! TF.ProjectId,reset_modules,72657365-745f-46d6-9f64-756c65732e6b,rev?*
G04 #@! TF.SameCoordinates,Original*
G04 #@! TF.FileFunction,Copper,L1,Top*
G04 #@! TF.FilePolarity,Positive*
%FSLAX46Y46*%
G04 Gerber Fmt 4.6, Leading zero omitted, Abs format (unit mm)*
G04 Created by KiCad (PCBNEW 6.0.1-79c1e3a40b~116~ubuntu21.04.1) date 2022-02-15 17:06:26*
%MOMM*%
%LPD*%
G01*
G04 APERTURE LIST*
G04 #@! TA.AperFunction,ComponentPad*
%ADD10R,1.700000X1.700000*%
G04 #@! TD*
G04 #@! TA.AperFunction,ComponentPad*
%ADD11O,1.700000X1.700000*%
G04 #@! TD*
G04 #@! TA.AperFunction,ComponentPad*
%ADD12R,1.600000X1.600000*%
G04 #@! TD*
G04 #@! TA.AperFunction,ComponentPad*
%ADD13O,1.600000X1.600000*%
G04 #@! TD*
G04 #@! TA.AperFunction,ViaPad*
%ADD14C,0.800000*%
G04 #@! TD*
G04 #@! TA.AperFunction,Conductor*
%ADD15C,0.250000*%
G04 #@! TD*
G04 APERTURE END LIST*
D10*
X112395000Y-85090000D03*
D11*
X112395000Y-87630000D03*
X112395000Y-90170000D03*
X112395000Y-92710000D03*
X112395000Y-95250000D03*
X112395000Y-97790000D03*
X112395000Y-100330000D03*
X112395000Y-102870000D03*
D10*
X90170000Y-85090000D03*
D11*
X90170000Y-87630000D03*
X90170000Y-90170000D03*
X90170000Y-92710000D03*
X90170000Y-95250000D03*
X90170000Y-97790000D03*
X90170000Y-100330000D03*
X90170000Y-102870000D03*
D10*
X97155000Y-109220000D03*
D11*
X99695000Y-109220000D03*
X102235000Y-109220000D03*
X104775000Y-109220000D03*
D10*
X119380000Y-109220000D03*
D11*
X121920000Y-109220000D03*
X124460000Y-109220000D03*
X127000000Y-109220000D03*
D10*
X77470000Y-85090000D03*
D11*
X80010000Y-85090000D03*
X82550000Y-85090000D03*
D10*
X77470000Y-87630000D03*
D11*
X80010000Y-87630000D03*
X82550000Y-87630000D03*
D10*
X77470000Y-90170000D03*
D11*
X80010000Y-90170000D03*
X82550000Y-90170000D03*
D10*
X77470000Y-92710000D03*
D11*
X80010000Y-92710000D03*
X82550000Y-92710000D03*
D10*
X77470000Y-95250000D03*
D11*
X80010000Y-95250000D03*
X82550000Y-95250000D03*
D10*
X77470000Y-97790000D03*
D11*
X80010000Y-97790000D03*
X82550000Y-97790000D03*
D10*
X70485000Y-82550000D03*
D11*
X70485000Y-85090000D03*
X70485000Y-87630000D03*
X70485000Y-90170000D03*
X70485000Y-92710000D03*
X70485000Y-95250000D03*
X70485000Y-97790000D03*
X70485000Y-100330000D03*
X70485000Y-102870000D03*
X70485000Y-105410000D03*
X70485000Y-107950000D03*
X70485000Y-110490000D03*
D10*
X77470000Y-100330000D03*
D11*
X80010000Y-100330000D03*
X82550000Y-100330000D03*
D10*
X77470000Y-102870000D03*
D11*
X80010000Y-102870000D03*
X82550000Y-102870000D03*
D10*
X77470000Y-105410000D03*
D11*
X80010000Y-105410000D03*
X82550000Y-105410000D03*
D10*
X77470000Y-107950000D03*
D11*
X80010000Y-107950000D03*
X82550000Y-107950000D03*
D12*
X119380000Y-85090000D03*
D13*
X119380000Y-87630000D03*
X119380000Y-90170000D03*
X119380000Y-92710000D03*
X119380000Y-95250000D03*
X119380000Y-97790000D03*
X119380000Y-100330000D03*
X127000000Y-100330000D03*
X127000000Y-97790000D03*
X127000000Y-95250000D03*
X127000000Y-92710000D03*
X127000000Y-90170000D03*
X127000000Y-87630000D03*
X127000000Y-85090000D03*
D12*
X97155000Y-85090000D03*
D13*
X97155000Y-87630000D03*
X97155000Y-90170000D03*
X97155000Y-92710000D03*
X97155000Y-95250000D03*
X97155000Y-97790000D03*
X97155000Y-100330000D03*
X104775000Y-100330000D03*
X104775000Y-97790000D03*
X104775000Y-95250000D03*
X104775000Y-92710000D03*
X104775000Y-90170000D03*
X104775000Y-87630000D03*
X104775000Y-85090000D03*
D14*
X123190000Y-98425000D03*
X123190000Y-95885000D03*
X100330000Y-98425000D03*
X102235000Y-96520000D03*
X120650000Y-104140000D03*
X98425000Y-104140000D03*
D15*
X126761412Y-102870000D02*
X112395000Y-102870000D01*
X127000000Y-87630000D02*
X128575010Y-89205010D01*
X128575010Y-89205010D02*
X128575010Y-101056402D01*
X128575010Y-101056402D02*
X126761412Y-102870000D01*
X113520001Y-101455001D02*
X127540001Y-101455001D01*
X128125001Y-100870001D02*
X128125001Y-91295001D01*
X128125001Y-91295001D02*
X127000000Y-90170000D01*
X112395000Y-100330000D02*
X113520001Y-101455001D01*
X127540001Y-101455001D02*
X128125001Y-100870001D01*
X122699999Y-98915001D02*
X123190000Y-98425000D01*
X112395000Y-97790000D02*
X113520001Y-98915001D01*
X123190000Y-95885000D02*
X126365000Y-95885000D01*
X113520001Y-98915001D02*
X122699999Y-98915001D01*
X126365000Y-95885000D02*
X127000000Y-95250000D01*
X125874999Y-96664999D02*
X127000000Y-97790000D01*
X112395000Y-95250000D02*
X113809999Y-96664999D01*
X113809999Y-96664999D02*
X125874999Y-96664999D01*
X112395000Y-92710000D02*
X116840000Y-92710000D01*
X116840000Y-92710000D02*
X119380000Y-95250000D01*
X116840000Y-90170000D02*
X119380000Y-92710000D01*
X112395000Y-90170000D02*
X116840000Y-90170000D01*
X119380000Y-87630000D02*
X112395000Y-87630000D01*
X112395000Y-85090000D02*
X119380000Y-85090000D01*
X106350010Y-100419992D02*
X106350010Y-89205010D01*
X103900002Y-102870000D02*
X106350010Y-100419992D01*
X90170000Y-102870000D02*
X103900002Y-102870000D01*
X106350010Y-89205010D02*
X104775000Y-87630000D01*
X90170000Y-100330000D02*
X91295001Y-101455001D01*
X105900001Y-91295001D02*
X104775000Y-90170000D01*
X101984997Y-101455001D02*
X104524997Y-98915001D01*
X105315001Y-98915001D02*
X105900001Y-98330001D01*
X104524997Y-98915001D02*
X105315001Y-98915001D01*
X105900001Y-98330001D02*
X105900001Y-91295001D01*
X91295001Y-101455001D02*
X101984997Y-101455001D01*
X91295001Y-98915001D02*
X99839999Y-98915001D01*
X103505000Y-95250000D02*
X104775000Y-95250000D01*
X99839999Y-98915001D02*
X100330000Y-98425000D01*
X90170000Y-97790000D02*
X91295001Y-98915001D01*
X102235000Y-96520000D02*
X103505000Y-95250000D01*
X91295001Y-96375001D02*
X90170000Y-95250000D01*
X104775000Y-97790000D02*
X100768002Y-97790000D01*
X99353003Y-96375001D02*
X91295001Y-96375001D01*
X100768002Y-97790000D02*
X99353003Y-96375001D01*
X90170000Y-92710000D02*
X94615000Y-92710000D01*
X94615000Y-92710000D02*
X97155000Y-95250000D01*
X90170000Y-90170000D02*
X94615000Y-90170000D01*
X94615000Y-90170000D02*
X97155000Y-92710000D01*
X90170000Y-87630000D02*
X97155000Y-87630000D01*
X90170000Y-85090000D02*
X97155000Y-85090000D01*
X98425000Y-104140000D02*
X92075000Y-110490000D01*
X92075000Y-110490000D02*
X70485000Y-110490000D01*
X98425000Y-104140000D02*
X120650000Y-104140000D01*
X124460000Y-82550000D02*
X101600000Y-82550000D01*
X102235000Y-82550000D02*
X104775000Y-85090000D01*
X127000000Y-85090000D02*
X124460000Y-82550000D01*
X70485000Y-82550000D02*
X101600000Y-82550000D01*
X101600000Y-82550000D02*
X102235000Y-82550000D01*
X80010000Y-85090000D02*
X82550000Y-85090000D01*
X77215002Y-85090000D02*
X77470000Y-85090000D01*
X77470000Y-85090000D02*
X80010000Y-85090000D01*
X70485000Y-85090000D02*
X77215002Y-85090000D01*
X70485000Y-87630000D02*
X77470000Y-87630000D01*
X82550000Y-87630000D02*
X80010000Y-87630000D01*
X77470000Y-87630000D02*
X80010000Y-87630000D01*
X77470000Y-90170000D02*
X80010000Y-90170000D01*
X80010000Y-90170000D02*
X82550000Y-90170000D01*
X77470000Y-90170000D02*
X70485000Y-90170000D01*
X70485000Y-92710000D02*
X77470000Y-92710000D01*
X82550000Y-92710000D02*
X80010000Y-92710000D01*
X80010000Y-92710000D02*
X77470000Y-92710000D01*
X77470000Y-95250000D02*
X70485000Y-95250000D01*
X77470000Y-95250000D02*
X80010000Y-95250000D01*
X82550000Y-95250000D02*
X80010000Y-95250000D01*
X70485000Y-97790000D02*
X77470000Y-97790000D01*
X80010000Y-97790000D02*
X82550000Y-97790000D01*
X77470000Y-97790000D02*
X80010000Y-97790000D01*
X77470000Y-107950000D02*
X80010000Y-107950000D01*
X82550000Y-107950000D02*
X80010000Y-107950000D01*
X70485000Y-107950000D02*
X77470000Y-107950000D01*
X80010000Y-105410000D02*
X82550000Y-105410000D01*
X77470000Y-105410000D02*
X70485000Y-105410000D01*
X80010000Y-105410000D02*
X77470000Y-105410000D01*
X70485000Y-102870000D02*
X77470000Y-102870000D01*
X77470000Y-102870000D02*
X80010000Y-102870000D01*
X82550000Y-102870000D02*
X80010000Y-102870000D01*
X82550000Y-100330000D02*
X80010000Y-100330000D01*
X77470000Y-100330000D02*
X80010000Y-100330000D01*
X77470000Y-100330000D02*
X70485000Y-100330000D01*
G04 #@! TA.AperFunction,Conductor*
G36*
X129345511Y-80538002D02*
G01*
X129366485Y-80554905D01*
X132170095Y-83358515D01*
X132204121Y-83420827D01*
X132207000Y-83447610D01*
X132207000Y-109592390D01*
X132186998Y-109660511D01*
X132170095Y-109681485D01*
X129366485Y-112485095D01*
X129304173Y-112519121D01*
X129277390Y-112522000D01*
X68579000Y-112522000D01*
X68510879Y-112501998D01*
X68464386Y-112448342D01*
X68453000Y-112396000D01*
X68453000Y-110456695D01*
X69122251Y-110456695D01*
X69122548Y-110461848D01*
X69122548Y-110461851D01*
X69129253Y-110578131D01*
X69135110Y-110679715D01*
X69136247Y-110684761D01*
X69136248Y-110684767D01*
X69160304Y-110791508D01*
X69184222Y-110897639D01*
X69244014Y-111044890D01*
X69261662Y-111088351D01*
X69268266Y-111104616D01*
X69384987Y-111295088D01*
X69531250Y-111463938D01*
X69703126Y-111606632D01*
X69896000Y-111719338D01*
X70104692Y-111799030D01*
X70109760Y-111800061D01*
X70109763Y-111800062D01*
X70217017Y-111821883D01*
X70323597Y-111843567D01*
X70328772Y-111843757D01*
X70328774Y-111843757D01*
X70541673Y-111851564D01*
X70541677Y-111851564D01*
X70546837Y-111851753D01*
X70551957Y-111851097D01*
X70551959Y-111851097D01*
X70763288Y-111824025D01*
X70763289Y-111824025D01*
X70768416Y-111823368D01*
X70773366Y-111821883D01*
X70977429Y-111760661D01*
X70977434Y-111760659D01*
X70982384Y-111759174D01*
X71182994Y-111660896D01*
X71364860Y-111531173D01*
X71523096Y-111373489D01*
X71582594Y-111290689D01*
X71650435Y-111196277D01*
X71653453Y-111192077D01*
X71655746Y-111187437D01*
X71657446Y-111184608D01*
X71709674Y-111136518D01*
X71765451Y-111123500D01*
X91996233Y-111123500D01*
X92007416Y-111124027D01*
X92014909Y-111125702D01*
X92022835Y-111125453D01*
X92022836Y-111125453D01*
X92082986Y-111123562D01*
X92086945Y-111123500D01*
X92114856Y-111123500D01*
X92118791Y-111123003D01*
X92118856Y-111122995D01*
X92130693Y-111122062D01*
X92162951Y-111121048D01*
X92166970Y-111120922D01*
X92174889Y-111120673D01*
X92194343Y-111115021D01*
X92213700Y-111111013D01*
X92225930Y-111109468D01*
X92225931Y-111109468D01*
X92233797Y-111108474D01*
X92241168Y-111105555D01*
X92241170Y-111105555D01*
X92274912Y-111092196D01*
X92286142Y-111088351D01*
X92320983Y-111078229D01*
X92320984Y-111078229D01*
X92328593Y-111076018D01*
X92335412Y-111071985D01*
X92335417Y-111071983D01*
X92346028Y-111065707D01*
X92363776Y-111057012D01*
X92382617Y-111049552D01*
X92418387Y-111023564D01*
X92428307Y-111017048D01*
X92459535Y-110998580D01*
X92459538Y-110998578D01*
X92466362Y-110994542D01*
X92480683Y-110980221D01*
X92495717Y-110967380D01*
X92505694Y-110960131D01*
X92512107Y-110955472D01*
X92540298Y-110921395D01*
X92548288Y-110912616D01*
X93342770Y-110118134D01*
X95796500Y-110118134D01*
X95803255Y-110180316D01*
X95854385Y-110316705D01*
X95941739Y-110433261D01*
X96058295Y-110520615D01*
X96194684Y-110571745D01*
X96256866Y-110578500D01*
X98053134Y-110578500D01*
X98115316Y-110571745D01*
X98251705Y-110520615D01*
X98368261Y-110433261D01*
X98455615Y-110316705D01*
X98482181Y-110245840D01*
X98499598Y-110199382D01*
X98542240Y-110142618D01*
X98608802Y-110117918D01*
X98678150Y-110133126D01*
X98712817Y-110161114D01*
X98741250Y-110193938D01*
X98913126Y-110336632D01*
X99106000Y-110449338D01*
X99314692Y-110529030D01*
X99319760Y-110530061D01*
X99319763Y-110530062D01*
X99427017Y-110551883D01*
X99533597Y-110573567D01*
X99538772Y-110573757D01*
X99538774Y-110573757D01*
X99751673Y-110581564D01*
X99751677Y-110581564D01*
X99756837Y-110581753D01*
X99761957Y-110581097D01*
X99761959Y-110581097D01*
X99973288Y-110554025D01*
X99973289Y-110554025D01*
X99978416Y-110553368D01*
X99983366Y-110551883D01*
X100187429Y-110490661D01*
X100187434Y-110490659D01*
X100192384Y-110489174D01*
X100392994Y-110390896D01*
X100574860Y-110261173D01*
X100581582Y-110254475D01*
X100718616Y-110117918D01*
X100733096Y-110103489D01*
X100863453Y-109922077D01*
X100864776Y-109923028D01*
X100911645Y-109879857D01*
X100981580Y-109867625D01*
X101047026Y-109895144D01*
X101074875Y-109926994D01*
X101134987Y-110025088D01*
X101281250Y-110193938D01*
X101453126Y-110336632D01*
X101646000Y-110449338D01*
X101854692Y-110529030D01*
X101859760Y-110530061D01*
X101859763Y-110530062D01*
X101967017Y-110551883D01*
X102073597Y-110573567D01*
X102078772Y-110573757D01*
X102078774Y-110573757D01*
X102291673Y-110581564D01*
X102291677Y-110581564D01*
X102296837Y-110581753D01*
X102301957Y-110581097D01*
X102301959Y-110581097D01*
X102513288Y-110554025D01*
X102513289Y-110554025D01*
X102518416Y-110553368D01*
X102523366Y-110551883D01*
X102727429Y-110490661D01*
X102727434Y-110490659D01*
X102732384Y-110489174D01*
X102932994Y-110390896D01*
X103114860Y-110261173D01*
X103121582Y-110254475D01*
X103258616Y-110117918D01*
X103273096Y-110103489D01*
X103403453Y-109922077D01*
X103404776Y-109923028D01*
X103451645Y-109879857D01*
X103521580Y-109867625D01*
X103587026Y-109895144D01*
X103614875Y-109926994D01*
X103674987Y-110025088D01*
X103821250Y-110193938D01*
X103993126Y-110336632D01*
X104186000Y-110449338D01*
X104394692Y-110529030D01*
X104399760Y-110530061D01*
X104399763Y-110530062D01*
X104507017Y-110551883D01*
X104613597Y-110573567D01*
X104618772Y-110573757D01*
X104618774Y-110573757D01*
X104831673Y-110581564D01*
X104831677Y-110581564D01*
X104836837Y-110581753D01*
X104841957Y-110581097D01*
X104841959Y-110581097D01*
X105053288Y-110554025D01*
X105053289Y-110554025D01*
X105058416Y-110553368D01*
X105063366Y-110551883D01*
X105267429Y-110490661D01*
X105267434Y-110490659D01*
X105272384Y-110489174D01*
X105472994Y-110390896D01*
X105654860Y-110261173D01*
X105661582Y-110254475D01*
X105798399Y-110118134D01*
X118021500Y-110118134D01*
X118028255Y-110180316D01*
X118079385Y-110316705D01*
X118166739Y-110433261D01*
X118283295Y-110520615D01*
X118419684Y-110571745D01*
X118481866Y-110578500D01*
X120278134Y-110578500D01*
X120340316Y-110571745D01*
X120476705Y-110520615D01*
X120593261Y-110433261D01*
X120680615Y-110316705D01*
X120707181Y-110245840D01*
X120724598Y-110199382D01*
X120767240Y-110142618D01*
X120833802Y-110117918D01*
X120903150Y-110133126D01*
X120937817Y-110161114D01*
X120966250Y-110193938D01*
X121138126Y-110336632D01*
X121331000Y-110449338D01*
X121539692Y-110529030D01*
X121544760Y-110530061D01*
X121544763Y-110530062D01*
X121652017Y-110551883D01*
X121758597Y-110573567D01*
X121763772Y-110573757D01*
X121763774Y-110573757D01*
X121976673Y-110581564D01*
X121976677Y-110581564D01*
X121981837Y-110581753D01*
X121986957Y-110581097D01*
X121986959Y-110581097D01*
X122198288Y-110554025D01*
X122198289Y-110554025D01*
X122203416Y-110553368D01*
X122208366Y-110551883D01*
X122412429Y-110490661D01*
X122412434Y-110490659D01*
X122417384Y-110489174D01*
X122617994Y-110390896D01*
X122799860Y-110261173D01*
X122806582Y-110254475D01*
X122943616Y-110117918D01*
X122958096Y-110103489D01*
X123088453Y-109922077D01*
X123089776Y-109923028D01*
X123136645Y-109879857D01*
X123206580Y-109867625D01*
X123272026Y-109895144D01*
X123299875Y-109926994D01*
X123359987Y-110025088D01*
X123506250Y-110193938D01*
X123678126Y-110336632D01*
X123871000Y-110449338D01*
X124079692Y-110529030D01*
X124084760Y-110530061D01*
X124084763Y-110530062D01*
X124192017Y-110551883D01*
X124298597Y-110573567D01*
X124303772Y-110573757D01*
X124303774Y-110573757D01*
X124516673Y-110581564D01*
X124516677Y-110581564D01*
X124521837Y-110581753D01*
X124526957Y-110581097D01*
X124526959Y-110581097D01*
X124738288Y-110554025D01*
X124738289Y-110554025D01*
X124743416Y-110553368D01*
X124748366Y-110551883D01*
X124952429Y-110490661D01*
X124952434Y-110490659D01*
X124957384Y-110489174D01*
X125157994Y-110390896D01*
X125339860Y-110261173D01*
X125346582Y-110254475D01*
X125483616Y-110117918D01*
X125498096Y-110103489D01*
X125628453Y-109922077D01*
X125629776Y-109923028D01*
X125676645Y-109879857D01*
X125746580Y-109867625D01*
X125812026Y-109895144D01*
X125839875Y-109926994D01*
X125899987Y-110025088D01*
X126046250Y-110193938D01*
X126218126Y-110336632D01*
X126411000Y-110449338D01*
X126619692Y-110529030D01*
X126624760Y-110530061D01*
X126624763Y-110530062D01*
X126732017Y-110551883D01*
X126838597Y-110573567D01*
X126843772Y-110573757D01*
X126843774Y-110573757D01*
X127056673Y-110581564D01*
X127056677Y-110581564D01*
X127061837Y-110581753D01*
X127066957Y-110581097D01*
X127066959Y-110581097D01*
X127278288Y-110554025D01*
X127278289Y-110554025D01*
X127283416Y-110553368D01*
X127288366Y-110551883D01*
X127492429Y-110490661D01*
X127492434Y-110490659D01*
X127497384Y-110489174D01*
X127697994Y-110390896D01*
X127879860Y-110261173D01*
X127886582Y-110254475D01*
X128023616Y-110117918D01*
X128038096Y-110103489D01*
X128168453Y-109922077D01*
X128182045Y-109894577D01*
X128265136Y-109726453D01*
X128265137Y-109726451D01*
X128267430Y-109721811D01*
X128332370Y-109508069D01*
X128361529Y-109286590D01*
X128362177Y-109260062D01*
X128363074Y-109223365D01*
X128363074Y-109223361D01*
X128363156Y-109220000D01*
X128344852Y-108997361D01*
X128290431Y-108780702D01*
X128201354Y-108575840D01*
X128080014Y-108388277D01*
X127929670Y-108223051D01*
X127925619Y-108219852D01*
X127925615Y-108219848D01*
X127758414Y-108087800D01*
X127758410Y-108087798D01*
X127754359Y-108084598D01*
X127558789Y-107976638D01*
X127553920Y-107974914D01*
X127553916Y-107974912D01*
X127353087Y-107903795D01*
X127353083Y-107903794D01*
X127348212Y-107902069D01*
X127343119Y-107901162D01*
X127343116Y-107901161D01*
X127133373Y-107863800D01*
X127133367Y-107863799D01*
X127128284Y-107862894D01*
X127054452Y-107861992D01*
X126910081Y-107860228D01*
X126910079Y-107860228D01*
X126904911Y-107860165D01*
X126684091Y-107893955D01*
X126471756Y-107963357D01*
X126441443Y-107979137D01*
X126369497Y-108016590D01*
X126273607Y-108066507D01*
X126269474Y-108069610D01*
X126269471Y-108069612D01*
X126169374Y-108144767D01*
X126094965Y-108200635D01*
X126091393Y-108204373D01*
X125949748Y-108352596D01*
X125940629Y-108362138D01*
X125833201Y-108519621D01*
X125778293Y-108564621D01*
X125707768Y-108572792D01*
X125644021Y-108541538D01*
X125623324Y-108517054D01*
X125542822Y-108392617D01*
X125542820Y-108392614D01*
X125540014Y-108388277D01*
X125389670Y-108223051D01*
X125385619Y-108219852D01*
X125385615Y-108219848D01*
X125218414Y-108087800D01*
X125218410Y-108087798D01*
X125214359Y-108084598D01*
X125018789Y-107976638D01*
X125013920Y-107974914D01*
X125013916Y-107974912D01*
X124813087Y-107903795D01*
X124813083Y-107903794D01*
X124808212Y-107902069D01*
X124803119Y-107901162D01*
X124803116Y-107901161D01*
X124593373Y-107863800D01*
X124593367Y-107863799D01*
X124588284Y-107862894D01*
X124514452Y-107861992D01*
X124370081Y-107860228D01*
X124370079Y-107860228D01*
X124364911Y-107860165D01*
X124144091Y-107893955D01*
X123931756Y-107963357D01*
X123901443Y-107979137D01*
X123829497Y-108016590D01*
X123733607Y-108066507D01*
X123729474Y-108069610D01*
X123729471Y-108069612D01*
X123629374Y-108144767D01*
X123554965Y-108200635D01*
X123551393Y-108204373D01*
X123409748Y-108352596D01*
X123400629Y-108362138D01*
X123293201Y-108519621D01*
X123238293Y-108564621D01*
X123167768Y-108572792D01*
X123104021Y-108541538D01*
X123083324Y-108517054D01*
X123002822Y-108392617D01*
X123002820Y-108392614D01*
X123000014Y-108388277D01*
X122849670Y-108223051D01*
X122845619Y-108219852D01*
X122845615Y-108219848D01*
X122678414Y-108087800D01*
X122678410Y-108087798D01*
X122674359Y-108084598D01*
X122478789Y-107976638D01*
X122473920Y-107974914D01*
X122473916Y-107974912D01*
X122273087Y-107903795D01*
X122273083Y-107903794D01*
X122268212Y-107902069D01*
X122263119Y-107901162D01*
X122263116Y-107901161D01*
X122053373Y-107863800D01*
X122053367Y-107863799D01*
X122048284Y-107862894D01*
X121974452Y-107861992D01*
X121830081Y-107860228D01*
X121830079Y-107860228D01*
X121824911Y-107860165D01*
X121604091Y-107893955D01*
X121391756Y-107963357D01*
X121361443Y-107979137D01*
X121289497Y-108016590D01*
X121193607Y-108066507D01*
X121189474Y-108069610D01*
X121189471Y-108069612D01*
X121089374Y-108144767D01*
X121014965Y-108200635D01*
X120958537Y-108259684D01*
X120934283Y-108285064D01*
X120872759Y-108320494D01*
X120801846Y-108317037D01*
X120744060Y-108275791D01*
X120725207Y-108242243D01*
X120683767Y-108131703D01*
X120680615Y-108123295D01*
X120593261Y-108006739D01*
X120476705Y-107919385D01*
X120340316Y-107868255D01*
X120278134Y-107861500D01*
X118481866Y-107861500D01*
X118419684Y-107868255D01*
X118283295Y-107919385D01*
X118166739Y-108006739D01*
X118079385Y-108123295D01*
X118028255Y-108259684D01*
X118021500Y-108321866D01*
X118021500Y-110118134D01*
X105798399Y-110118134D01*
X105798616Y-110117918D01*
X105813096Y-110103489D01*
X105943453Y-109922077D01*
X105957045Y-109894577D01*
X106040136Y-109726453D01*
X106040137Y-109726451D01*
X106042430Y-109721811D01*
X106107370Y-109508069D01*
X106136529Y-109286590D01*
X106137177Y-109260062D01*
X106138074Y-109223365D01*
X106138074Y-109223361D01*
X106138156Y-109220000D01*
X106119852Y-108997361D01*
X106065431Y-108780702D01*
X105976354Y-108575840D01*
X105855014Y-108388277D01*
X105704670Y-108223051D01*
X105700619Y-108219852D01*
X105700615Y-108219848D01*
X105533414Y-108087800D01*
X105533410Y-108087798D01*
X105529359Y-108084598D01*
X105333789Y-107976638D01*
X105328920Y-107974914D01*
X105328916Y-107974912D01*
X105128087Y-107903795D01*
X105128083Y-107903794D01*
X105123212Y-107902069D01*
X105118119Y-107901162D01*
X105118116Y-107901161D01*
X104908373Y-107863800D01*
X104908367Y-107863799D01*
X104903284Y-107862894D01*
X104829452Y-107861992D01*
X104685081Y-107860228D01*
X104685079Y-107860228D01*
X104679911Y-107860165D01*
X104459091Y-107893955D01*
X104246756Y-107963357D01*
X104216443Y-107979137D01*
X104144497Y-108016590D01*
X104048607Y-108066507D01*
X104044474Y-108069610D01*
X104044471Y-108069612D01*
X103944374Y-108144767D01*
X103869965Y-108200635D01*
X103866393Y-108204373D01*
X103724748Y-108352596D01*
X103715629Y-108362138D01*
X103608201Y-108519621D01*
X103553293Y-108564621D01*
X103482768Y-108572792D01*
X103419021Y-108541538D01*
X103398324Y-108517054D01*
X103317822Y-108392617D01*
X103317820Y-108392614D01*
X103315014Y-108388277D01*
X103164670Y-108223051D01*
X103160619Y-108219852D01*
X103160615Y-108219848D01*
X102993414Y-108087800D01*
X102993410Y-108087798D01*
X102989359Y-108084598D01*
X102793789Y-107976638D01*
X102788920Y-107974914D01*
X102788916Y-107974912D01*
X102588087Y-107903795D01*
X102588083Y-107903794D01*
X102583212Y-107902069D01*
X102578119Y-107901162D01*
X102578116Y-107901161D01*
X102368373Y-107863800D01*
X102368367Y-107863799D01*
X102363284Y-107862894D01*
X102289452Y-107861992D01*
X102145081Y-107860228D01*
X102145079Y-107860228D01*
X102139911Y-107860165D01*
X101919091Y-107893955D01*
X101706756Y-107963357D01*
X101676443Y-107979137D01*
X101604497Y-108016590D01*
X101508607Y-108066507D01*
X101504474Y-108069610D01*
X101504471Y-108069612D01*
X101404374Y-108144767D01*
X101329965Y-108200635D01*
X101326393Y-108204373D01*
X101184748Y-108352596D01*
X101175629Y-108362138D01*
X101068201Y-108519621D01*
X101013293Y-108564621D01*
X100942768Y-108572792D01*
X100879021Y-108541538D01*
X100858324Y-108517054D01*
X100777822Y-108392617D01*
X100777820Y-108392614D01*
X100775014Y-108388277D01*
X100624670Y-108223051D01*
X100620619Y-108219852D01*
X100620615Y-108219848D01*
X100453414Y-108087800D01*
X100453410Y-108087798D01*
X100449359Y-108084598D01*
X100253789Y-107976638D01*
X100248920Y-107974914D01*
X100248916Y-107974912D01*
X100048087Y-107903795D01*
X100048083Y-107903794D01*
X100043212Y-107902069D01*
X100038119Y-107901162D01*
X100038116Y-107901161D01*
X99828373Y-107863800D01*
X99828367Y-107863799D01*
X99823284Y-107862894D01*
X99749452Y-107861992D01*
X99605081Y-107860228D01*
X99605079Y-107860228D01*
X99599911Y-107860165D01*
X99379091Y-107893955D01*
X99166756Y-107963357D01*
X99136443Y-107979137D01*
X99064497Y-108016590D01*
X98968607Y-108066507D01*
X98964474Y-108069610D01*
X98964471Y-108069612D01*
X98864374Y-108144767D01*
X98789965Y-108200635D01*
X98733537Y-108259684D01*
X98709283Y-108285064D01*
X98647759Y-108320494D01*
X98576846Y-108317037D01*
X98519060Y-108275791D01*
X98500207Y-108242243D01*
X98458767Y-108131703D01*
X98455615Y-108123295D01*
X98368261Y-108006739D01*
X98251705Y-107919385D01*
X98115316Y-107868255D01*
X98053134Y-107861500D01*
X96256866Y-107861500D01*
X96194684Y-107868255D01*
X96058295Y-107919385D01*
X95941739Y-108006739D01*
X95854385Y-108123295D01*
X95803255Y-108259684D01*
X95796500Y-108321866D01*
X95796500Y-110118134D01*
X93342770Y-110118134D01*
X98375500Y-105085405D01*
X98437812Y-105051379D01*
X98464595Y-105048500D01*
X98520487Y-105048500D01*
X98526939Y-105047128D01*
X98526944Y-105047128D01*
X98613888Y-105028647D01*
X98707288Y-105008794D01*
X98781574Y-104975720D01*
X98875722Y-104933803D01*
X98875724Y-104933802D01*
X98881752Y-104931118D01*
X99036253Y-104818866D01*
X99040668Y-104813963D01*
X99045580Y-104809540D01*
X99046705Y-104810789D01*
X99100014Y-104777949D01*
X99133200Y-104773500D01*
X119941800Y-104773500D01*
X120009921Y-104793502D01*
X120029147Y-104809843D01*
X120029420Y-104809540D01*
X120034332Y-104813963D01*
X120038747Y-104818866D01*
X120193248Y-104931118D01*
X120199276Y-104933802D01*
X120199278Y-104933803D01*
X120293426Y-104975720D01*
X120367712Y-105008794D01*
X120461113Y-105028647D01*
X120548056Y-105047128D01*
X120548061Y-105047128D01*
X120554513Y-105048500D01*
X120745487Y-105048500D01*
X120751939Y-105047128D01*
X120751944Y-105047128D01*
X120838888Y-105028647D01*
X120932288Y-105008794D01*
X121006574Y-104975720D01*
X121100722Y-104933803D01*
X121100724Y-104933802D01*
X121106752Y-104931118D01*
X121261253Y-104818866D01*
X121298095Y-104777949D01*
X121384621Y-104681852D01*
X121384622Y-104681851D01*
X121389040Y-104676944D01*
X121461097Y-104552138D01*
X121481223Y-104517279D01*
X121481224Y-104517278D01*
X121484527Y-104511556D01*
X121543542Y-104329928D01*
X121544407Y-104321703D01*
X121562814Y-104146565D01*
X121563504Y-104140000D01*
X121547037Y-103983327D01*
X121544232Y-103956635D01*
X121544232Y-103956633D01*
X121543542Y-103950072D01*
X121484527Y-103768444D01*
X121440681Y-103692500D01*
X121423943Y-103623504D01*
X121447164Y-103556413D01*
X121502971Y-103512526D01*
X121549800Y-103503500D01*
X126682645Y-103503500D01*
X126693828Y-103504027D01*
X126701321Y-103505702D01*
X126709247Y-103505453D01*
X126709248Y-103505453D01*
X126769398Y-103503562D01*
X126773357Y-103503500D01*
X126801268Y-103503500D01*
X126805203Y-103503003D01*
X126805268Y-103502995D01*
X126817105Y-103502062D01*
X126849363Y-103501048D01*
X126853382Y-103500922D01*
X126861301Y-103500673D01*
X126880755Y-103495021D01*
X126900112Y-103491013D01*
X126912342Y-103489468D01*
X126912343Y-103489468D01*
X126920209Y-103488474D01*
X126927580Y-103485555D01*
X126927582Y-103485555D01*
X126961324Y-103472196D01*
X126972554Y-103468351D01*
X127007395Y-103458229D01*
X127007396Y-103458229D01*
X127015005Y-103456018D01*
X127021824Y-103451985D01*
X127021829Y-103451983D01*
X127032440Y-103445707D01*
X127050188Y-103437012D01*
X127069029Y-103429552D01*
X127104799Y-103403564D01*
X127114719Y-103397048D01*
X127145947Y-103378580D01*
X127145950Y-103378578D01*
X127152774Y-103374542D01*
X127167095Y-103360221D01*
X127182129Y-103347380D01*
X127192106Y-103340131D01*
X127198519Y-103335472D01*
X127226710Y-103301395D01*
X127234700Y-103292616D01*
X128967263Y-101560054D01*
X128975549Y-101552514D01*
X128982028Y-101548402D01*
X128999232Y-101530082D01*
X129028653Y-101498751D01*
X129031408Y-101495909D01*
X129051145Y-101476172D01*
X129053625Y-101472975D01*
X129061330Y-101463953D01*
X129091596Y-101431723D01*
X129095415Y-101424777D01*
X129095417Y-101424774D01*
X129101358Y-101413968D01*
X129112209Y-101397449D01*
X129119768Y-101387703D01*
X129124624Y-101381443D01*
X129127771Y-101374171D01*
X129127772Y-101374170D01*
X129142184Y-101340865D01*
X129147401Y-101330215D01*
X129168705Y-101291462D01*
X129173743Y-101271839D01*
X129180147Y-101253136D01*
X129185043Y-101241822D01*
X129185043Y-101241821D01*
X129188191Y-101234547D01*
X129189430Y-101226724D01*
X129189433Y-101226714D01*
X129195109Y-101190878D01*
X129197515Y-101179258D01*
X129206538Y-101144113D01*
X129206538Y-101144112D01*
X129208510Y-101136432D01*
X129208510Y-101116178D01*
X129210061Y-101096467D01*
X129211165Y-101089500D01*
X129213230Y-101076459D01*
X129209069Y-101032440D01*
X129208510Y-101020583D01*
X129208510Y-89283778D01*
X129209037Y-89272595D01*
X129210712Y-89265102D01*
X129208572Y-89197011D01*
X129208510Y-89193054D01*
X129208510Y-89165154D01*
X129208006Y-89161163D01*
X129207073Y-89149321D01*
X129205933Y-89113046D01*
X129205684Y-89105121D01*
X129200031Y-89085662D01*
X129196022Y-89066303D01*
X129195856Y-89064993D01*
X129193484Y-89046213D01*
X129190568Y-89038847D01*
X129190566Y-89038841D01*
X129177210Y-89005108D01*
X129173365Y-88993878D01*
X129163240Y-88959027D01*
X129163240Y-88959026D01*
X129161029Y-88951417D01*
X129150715Y-88933976D01*
X129142018Y-88916223D01*
X129137482Y-88904768D01*
X129134562Y-88897393D01*
X129108573Y-88861622D01*
X129102057Y-88851702D01*
X129089838Y-88831041D01*
X129079552Y-88813648D01*
X129065231Y-88799327D01*
X129052390Y-88784293D01*
X129045141Y-88774316D01*
X129040482Y-88767903D01*
X129006405Y-88739712D01*
X128997626Y-88731722D01*
X128309152Y-88043248D01*
X128275126Y-87980936D01*
X128276541Y-87921541D01*
X128292118Y-87863409D01*
X128292120Y-87863398D01*
X128293543Y-87858087D01*
X128313498Y-87630000D01*
X128293543Y-87401913D01*
X128287593Y-87379707D01*
X128235707Y-87186067D01*
X128235706Y-87186065D01*
X128234284Y-87180757D01*
X128222092Y-87154610D01*
X128139849Y-86978238D01*
X128139846Y-86978233D01*
X128137523Y-86973251D01*
X128064098Y-86868389D01*
X128009357Y-86790211D01*
X128009355Y-86790208D01*
X128006198Y-86785700D01*
X127844300Y-86623802D01*
X127839792Y-86620645D01*
X127839789Y-86620643D01*
X127761611Y-86565902D01*
X127656749Y-86492477D01*
X127651767Y-86490154D01*
X127651762Y-86490151D01*
X127616951Y-86473919D01*
X127563666Y-86427002D01*
X127544205Y-86358725D01*
X127564747Y-86290765D01*
X127616951Y-86245529D01*
X127651511Y-86229414D01*
X127661007Y-86223931D01*
X127839467Y-86098972D01*
X127847875Y-86091916D01*
X128001916Y-85937875D01*
X128008972Y-85929467D01*
X128133931Y-85751007D01*
X128139414Y-85741511D01*
X128231490Y-85544053D01*
X128235236Y-85533761D01*
X128281394Y-85361497D01*
X128281058Y-85347401D01*
X128273116Y-85344000D01*
X125732033Y-85344000D01*
X125718502Y-85347973D01*
X125717273Y-85356522D01*
X125764764Y-85533761D01*
X125768510Y-85544053D01*
X125860586Y-85741511D01*
X125866069Y-85751007D01*
X125991028Y-85929467D01*
X125998084Y-85937875D01*
X126152125Y-86091916D01*
X126160533Y-86098972D01*
X126338993Y-86223931D01*
X126348489Y-86229414D01*
X126383049Y-86245529D01*
X126436334Y-86292446D01*
X126455795Y-86360723D01*
X126435253Y-86428683D01*
X126383049Y-86473919D01*
X126348238Y-86490151D01*
X126348233Y-86490154D01*
X126343251Y-86492477D01*
X126238389Y-86565902D01*
X126160211Y-86620643D01*
X126160208Y-86620645D01*
X126155700Y-86623802D01*
X125993802Y-86785700D01*
X125990645Y-86790208D01*
X125990643Y-86790211D01*
X125935902Y-86868389D01*
X125862477Y-86973251D01*
X125860154Y-86978233D01*
X125860151Y-86978238D01*
X125777908Y-87154610D01*
X125765716Y-87180757D01*
X125764294Y-87186065D01*
X125764293Y-87186067D01*
X125712407Y-87379707D01*
X125706457Y-87401913D01*
X125686502Y-87630000D01*
X125706457Y-87858087D01*
X125707881Y-87863400D01*
X125707881Y-87863402D01*
X125755851Y-88042425D01*
X125765716Y-88079243D01*
X125768039Y-88084224D01*
X125768039Y-88084225D01*
X125860151Y-88281762D01*
X125860154Y-88281767D01*
X125862477Y-88286749D01*
X125890968Y-88327438D01*
X125969078Y-88438990D01*
X125993802Y-88474300D01*
X126155700Y-88636198D01*
X126160208Y-88639355D01*
X126160211Y-88639357D01*
X126200445Y-88667529D01*
X126343251Y-88767523D01*
X126348233Y-88769846D01*
X126348238Y-88769849D01*
X126382457Y-88785805D01*
X126435742Y-88832722D01*
X126455203Y-88900999D01*
X126434661Y-88968959D01*
X126382457Y-89014195D01*
X126348238Y-89030151D01*
X126348233Y-89030154D01*
X126343251Y-89032477D01*
X126312402Y-89054078D01*
X126160211Y-89160643D01*
X126160208Y-89160645D01*
X126155700Y-89163802D01*
X125993802Y-89325700D01*
X125990645Y-89330208D01*
X125990643Y-89330211D01*
X125935902Y-89408389D01*
X125862477Y-89513251D01*
X125860154Y-89518233D01*
X125860151Y-89518238D01*
X125779409Y-89691392D01*
X125765716Y-89720757D01*
X125764294Y-89726065D01*
X125764293Y-89726067D01*
X125712407Y-89919707D01*
X125706457Y-89941913D01*
X125686502Y-90170000D01*
X125706457Y-90398087D01*
X125707881Y-90403400D01*
X125707881Y-90403402D01*
X125755851Y-90582425D01*
X125765716Y-90619243D01*
X125768039Y-90624224D01*
X125768039Y-90624225D01*
X125860151Y-90821762D01*
X125860154Y-90821767D01*
X125862477Y-90826749D01*
X125890968Y-90867438D01*
X125969078Y-90978990D01*
X125993802Y-91014300D01*
X126155700Y-91176198D01*
X126160208Y-91179355D01*
X126160211Y-91179357D01*
X126200445Y-91207529D01*
X126343251Y-91307523D01*
X126348233Y-91309846D01*
X126348238Y-91309849D01*
X126382457Y-91325805D01*
X126435742Y-91372722D01*
X126455203Y-91440999D01*
X126434661Y-91508959D01*
X126382457Y-91554195D01*
X126348238Y-91570151D01*
X126348233Y-91570154D01*
X126343251Y-91572477D01*
X126295220Y-91606109D01*
X126160211Y-91700643D01*
X126160208Y-91700645D01*
X126155700Y-91703802D01*
X125993802Y-91865700D01*
X125990645Y-91870208D01*
X125990643Y-91870211D01*
X125935902Y-91948389D01*
X125862477Y-92053251D01*
X125860154Y-92058233D01*
X125860151Y-92058238D01*
X125779409Y-92231392D01*
X125765716Y-92260757D01*
X125764294Y-92266065D01*
X125764293Y-92266067D01*
X125712407Y-92459707D01*
X125706457Y-92481913D01*
X125686502Y-92710000D01*
X125706457Y-92938087D01*
X125707881Y-92943400D01*
X125707881Y-92943402D01*
X125755851Y-93122425D01*
X125765716Y-93159243D01*
X125768039Y-93164224D01*
X125768039Y-93164225D01*
X125860151Y-93361762D01*
X125860154Y-93361767D01*
X125862477Y-93366749D01*
X125890968Y-93407438D01*
X125969078Y-93518990D01*
X125993802Y-93554300D01*
X126155700Y-93716198D01*
X126160208Y-93719355D01*
X126160211Y-93719357D01*
X126200445Y-93747529D01*
X126343251Y-93847523D01*
X126348233Y-93849846D01*
X126348238Y-93849849D01*
X126382457Y-93865805D01*
X126435742Y-93912722D01*
X126455203Y-93980999D01*
X126434661Y-94048959D01*
X126382457Y-94094195D01*
X126348238Y-94110151D01*
X126348233Y-94110154D01*
X126343251Y-94112477D01*
X126295220Y-94146109D01*
X126160211Y-94240643D01*
X126160208Y-94240645D01*
X126155700Y-94243802D01*
X125993802Y-94405700D01*
X125990645Y-94410208D01*
X125990643Y-94410211D01*
X125935902Y-94488389D01*
X125862477Y-94593251D01*
X125860154Y-94598233D01*
X125860151Y-94598238D01*
X125777908Y-94774610D01*
X125765716Y-94800757D01*
X125764294Y-94806065D01*
X125764293Y-94806067D01*
X125712407Y-94999707D01*
X125706457Y-95021913D01*
X125705978Y-95027389D01*
X125705977Y-95027394D01*
X125696434Y-95136481D01*
X125670571Y-95202599D01*
X125613067Y-95244239D01*
X125570913Y-95251500D01*
X123898200Y-95251500D01*
X123830079Y-95231498D01*
X123810853Y-95215157D01*
X123810580Y-95215460D01*
X123805668Y-95211037D01*
X123801253Y-95206134D01*
X123646752Y-95093882D01*
X123640724Y-95091198D01*
X123640722Y-95091197D01*
X123478319Y-95018891D01*
X123478318Y-95018891D01*
X123472288Y-95016206D01*
X123370499Y-94994570D01*
X123291944Y-94977872D01*
X123291939Y-94977872D01*
X123285487Y-94976500D01*
X123094513Y-94976500D01*
X123088061Y-94977872D01*
X123088056Y-94977872D01*
X123009501Y-94994570D01*
X122907712Y-95016206D01*
X122901682Y-95018891D01*
X122901681Y-95018891D01*
X122739278Y-95091197D01*
X122739276Y-95091198D01*
X122733248Y-95093882D01*
X122578747Y-95206134D01*
X122574326Y-95211044D01*
X122574325Y-95211045D01*
X122476305Y-95319908D01*
X122450960Y-95348056D01*
X122355473Y-95513444D01*
X122296458Y-95695072D01*
X122295768Y-95701633D01*
X122295768Y-95701635D01*
X122282251Y-95830243D01*
X122276496Y-95885000D01*
X122277186Y-95891565D01*
X122277186Y-95891573D01*
X122277266Y-95892334D01*
X122277186Y-95892771D01*
X122277186Y-95898170D01*
X122276198Y-95898170D01*
X122264491Y-95962171D01*
X122215987Y-96014016D01*
X122151956Y-96031499D01*
X120657132Y-96031499D01*
X120589011Y-96011497D01*
X120542518Y-95957841D01*
X120532414Y-95887567D01*
X120542937Y-95852250D01*
X120611959Y-95704230D01*
X120611961Y-95704225D01*
X120614284Y-95699243D01*
X120624150Y-95662425D01*
X120672119Y-95483402D01*
X120672119Y-95483400D01*
X120673543Y-95478087D01*
X120693498Y-95250000D01*
X120673543Y-95021913D01*
X120667593Y-94999707D01*
X120615707Y-94806067D01*
X120615706Y-94806065D01*
X120614284Y-94800757D01*
X120602092Y-94774610D01*
X120519849Y-94598238D01*
X120519846Y-94598233D01*
X120517523Y-94593251D01*
X120444098Y-94488389D01*
X120389357Y-94410211D01*
X120389355Y-94410208D01*
X120386198Y-94405700D01*
X120224300Y-94243802D01*
X120219792Y-94240645D01*
X120219789Y-94240643D01*
X120084780Y-94146109D01*
X120036749Y-94112477D01*
X120031767Y-94110154D01*
X120031762Y-94110151D01*
X119997543Y-94094195D01*
X119944258Y-94047278D01*
X119924797Y-93979001D01*
X119945339Y-93911041D01*
X119997543Y-93865805D01*
X120031762Y-93849849D01*
X120031767Y-93849846D01*
X120036749Y-93847523D01*
X120179555Y-93747529D01*
X120219789Y-93719357D01*
X120219792Y-93719355D01*
X120224300Y-93716198D01*
X120386198Y-93554300D01*
X120410923Y-93518990D01*
X120489032Y-93407438D01*
X120517523Y-93366749D01*
X120519846Y-93361767D01*
X120519849Y-93361762D01*
X120611961Y-93164225D01*
X120611961Y-93164224D01*
X120614284Y-93159243D01*
X120624150Y-93122425D01*
X120672119Y-92943402D01*
X120672119Y-92943400D01*
X120673543Y-92938087D01*
X120693498Y-92710000D01*
X120673543Y-92481913D01*
X120667593Y-92459707D01*
X120615707Y-92266067D01*
X120615706Y-92266065D01*
X120614284Y-92260757D01*
X120600591Y-92231392D01*
X120519849Y-92058238D01*
X120519846Y-92058233D01*
X120517523Y-92053251D01*
X120444098Y-91948389D01*
X120389357Y-91870211D01*
X120389355Y-91870208D01*
X120386198Y-91865700D01*
X120224300Y-91703802D01*
X120219792Y-91700645D01*
X120219789Y-91700643D01*
X120084780Y-91606109D01*
X120036749Y-91572477D01*
X120031767Y-91570154D01*
X120031762Y-91570151D01*
X119997543Y-91554195D01*
X119944258Y-91507278D01*
X119924797Y-91439001D01*
X119945339Y-91371041D01*
X119997543Y-91325805D01*
X120031762Y-91309849D01*
X120031767Y-91309846D01*
X120036749Y-91307523D01*
X120179555Y-91207529D01*
X120219789Y-91179357D01*
X120219792Y-91179355D01*
X120224300Y-91176198D01*
X120386198Y-91014300D01*
X120410923Y-90978990D01*
X120489032Y-90867438D01*
X120517523Y-90826749D01*
X120519846Y-90821767D01*
X120519849Y-90821762D01*
X120611961Y-90624225D01*
X120611961Y-90624224D01*
X120614284Y-90619243D01*
X120624150Y-90582425D01*
X120672119Y-90403402D01*
X120672119Y-90403400D01*
X120673543Y-90398087D01*
X120693498Y-90170000D01*
X120673543Y-89941913D01*
X120667593Y-89919707D01*
X120615707Y-89726067D01*
X120615706Y-89726065D01*
X120614284Y-89720757D01*
X120600591Y-89691392D01*
X120519849Y-89518238D01*
X120519846Y-89518233D01*
X120517523Y-89513251D01*
X120444098Y-89408389D01*
X120389357Y-89330211D01*
X120389355Y-89330208D01*
X120386198Y-89325700D01*
X120224300Y-89163802D01*
X120219792Y-89160645D01*
X120219789Y-89160643D01*
X120067598Y-89054078D01*
X120036749Y-89032477D01*
X120031767Y-89030154D01*
X120031762Y-89030151D01*
X119997543Y-89014195D01*
X119944258Y-88967278D01*
X119924797Y-88899001D01*
X119945339Y-88831041D01*
X119997543Y-88785805D01*
X120031762Y-88769849D01*
X120031767Y-88769846D01*
X120036749Y-88767523D01*
X120179555Y-88667529D01*
X120219789Y-88639357D01*
X120219792Y-88639355D01*
X120224300Y-88636198D01*
X120386198Y-88474300D01*
X120410923Y-88438990D01*
X120489032Y-88327438D01*
X120517523Y-88286749D01*
X120519846Y-88281767D01*
X120519849Y-88281762D01*
X120611961Y-88084225D01*
X120611961Y-88084224D01*
X120614284Y-88079243D01*
X120624150Y-88042425D01*
X120672119Y-87863402D01*
X120672119Y-87863400D01*
X120673543Y-87858087D01*
X120693498Y-87630000D01*
X120673543Y-87401913D01*
X120667593Y-87379707D01*
X120615707Y-87186067D01*
X120615706Y-87186065D01*
X120614284Y-87180757D01*
X120602092Y-87154610D01*
X120519849Y-86978238D01*
X120519846Y-86978233D01*
X120517523Y-86973251D01*
X120444098Y-86868389D01*
X120389357Y-86790211D01*
X120389355Y-86790208D01*
X120386198Y-86785700D01*
X120224300Y-86623802D01*
X120219789Y-86620643D01*
X120215576Y-86617108D01*
X120216527Y-86615974D01*
X120176529Y-86565929D01*
X120169224Y-86495310D01*
X120201258Y-86431951D01*
X120262462Y-86395970D01*
X120279517Y-86392918D01*
X120290316Y-86391745D01*
X120426705Y-86340615D01*
X120543261Y-86253261D01*
X120630615Y-86136705D01*
X120681745Y-86000316D01*
X120688500Y-85938134D01*
X120688500Y-84818503D01*
X125718606Y-84818503D01*
X125718942Y-84832599D01*
X125726884Y-84836000D01*
X126727885Y-84836000D01*
X126743124Y-84831525D01*
X126744329Y-84830135D01*
X126746000Y-84822452D01*
X126746000Y-84817885D01*
X127254000Y-84817885D01*
X127258475Y-84833124D01*
X127259865Y-84834329D01*
X127267548Y-84836000D01*
X128267967Y-84836000D01*
X128281498Y-84832027D01*
X128282727Y-84823478D01*
X128235236Y-84646239D01*
X128231490Y-84635947D01*
X128139414Y-84438489D01*
X128133931Y-84428993D01*
X128008972Y-84250533D01*
X128001916Y-84242125D01*
X127847875Y-84088084D01*
X127839467Y-84081028D01*
X127661007Y-83956069D01*
X127651511Y-83950586D01*
X127454053Y-83858510D01*
X127443761Y-83854764D01*
X127271497Y-83808606D01*
X127257401Y-83808942D01*
X127254000Y-83816884D01*
X127254000Y-84817885D01*
X126746000Y-84817885D01*
X126746000Y-83822033D01*
X126742027Y-83808502D01*
X126733478Y-83807273D01*
X126556239Y-83854764D01*
X126545947Y-83858510D01*
X126348489Y-83950586D01*
X126338993Y-83956069D01*
X126160533Y-84081028D01*
X126152125Y-84088084D01*
X125998084Y-84242125D01*
X125991028Y-84250533D01*
X125866069Y-84428993D01*
X125860586Y-84438489D01*
X125768510Y-84635947D01*
X125764764Y-84646239D01*
X125718606Y-84818503D01*
X120688500Y-84818503D01*
X120688500Y-84241866D01*
X120681745Y-84179684D01*
X120630615Y-84043295D01*
X120543261Y-83926739D01*
X120426705Y-83839385D01*
X120290316Y-83788255D01*
X120228134Y-83781500D01*
X118531866Y-83781500D01*
X118469684Y-83788255D01*
X118333295Y-83839385D01*
X118216739Y-83926739D01*
X118129385Y-84043295D01*
X118078255Y-84179684D01*
X118071500Y-84241866D01*
X118071500Y-84330500D01*
X118051498Y-84398621D01*
X117997842Y-84445114D01*
X117945500Y-84456500D01*
X113879500Y-84456500D01*
X113811379Y-84436498D01*
X113764886Y-84382842D01*
X113753500Y-84330500D01*
X113753500Y-84191866D01*
X113746745Y-84129684D01*
X113695615Y-83993295D01*
X113608261Y-83876739D01*
X113491705Y-83789385D01*
X113355316Y-83738255D01*
X113293134Y-83731500D01*
X111496866Y-83731500D01*
X111434684Y-83738255D01*
X111298295Y-83789385D01*
X111181739Y-83876739D01*
X111094385Y-83993295D01*
X111043255Y-84129684D01*
X111036500Y-84191866D01*
X111036500Y-85988134D01*
X111043255Y-86050316D01*
X111094385Y-86186705D01*
X111181739Y-86303261D01*
X111298295Y-86390615D01*
X111306704Y-86393767D01*
X111306705Y-86393768D01*
X111415451Y-86434535D01*
X111472216Y-86477176D01*
X111496916Y-86543738D01*
X111481709Y-86613087D01*
X111462316Y-86639568D01*
X111378729Y-86727037D01*
X111335629Y-86772138D01*
X111332720Y-86776403D01*
X111332714Y-86776411D01*
X111323300Y-86790211D01*
X111209743Y-86956680D01*
X111115688Y-87159305D01*
X111055989Y-87374570D01*
X111032251Y-87596695D01*
X111032548Y-87601848D01*
X111032548Y-87601851D01*
X111038011Y-87696590D01*
X111045110Y-87819715D01*
X111046247Y-87824761D01*
X111046248Y-87824767D01*
X111054955Y-87863402D01*
X111094222Y-88037639D01*
X111178266Y-88244616D01*
X111180965Y-88249020D01*
X111292286Y-88430680D01*
X111294987Y-88435088D01*
X111441250Y-88603938D01*
X111613126Y-88746632D01*
X111660502Y-88774316D01*
X111686445Y-88789476D01*
X111735169Y-88841114D01*
X111748240Y-88910897D01*
X111721509Y-88976669D01*
X111681055Y-89010027D01*
X111668607Y-89016507D01*
X111664474Y-89019610D01*
X111664471Y-89019612D01*
X111494100Y-89147530D01*
X111489965Y-89150635D01*
X111486393Y-89154373D01*
X111378729Y-89267037D01*
X111335629Y-89312138D01*
X111332720Y-89316403D01*
X111332714Y-89316411D01*
X111323300Y-89330211D01*
X111209743Y-89496680D01*
X111171011Y-89580121D01*
X111134471Y-89658841D01*
X111115688Y-89699305D01*
X111055989Y-89914570D01*
X111032251Y-90136695D01*
X111032548Y-90141848D01*
X111032548Y-90141851D01*
X111041694Y-90300465D01*
X111045110Y-90359715D01*
X111046247Y-90364761D01*
X111046248Y-90364767D01*
X111054955Y-90403402D01*
X111094222Y-90577639D01*
X111178266Y-90784616D01*
X111213500Y-90842113D01*
X111292286Y-90970680D01*
X111294987Y-90975088D01*
X111441250Y-91143938D01*
X111613126Y-91286632D01*
X111680163Y-91325805D01*
X111686445Y-91329476D01*
X111735169Y-91381114D01*
X111748240Y-91450897D01*
X111721509Y-91516669D01*
X111681055Y-91550027D01*
X111668607Y-91556507D01*
X111664474Y-91559610D01*
X111664471Y-91559612D01*
X111494100Y-91687530D01*
X111489965Y-91690635D01*
X111486393Y-91694373D01*
X111378729Y-91807037D01*
X111335629Y-91852138D01*
X111332720Y-91856403D01*
X111332714Y-91856411D01*
X111323300Y-91870211D01*
X111209743Y-92036680D01*
X111171011Y-92120121D01*
X111134471Y-92198841D01*
X111115688Y-92239305D01*
X111055989Y-92454570D01*
X111032251Y-92676695D01*
X111032548Y-92681848D01*
X111032548Y-92681851D01*
X111041694Y-92840465D01*
X111045110Y-92899715D01*
X111046247Y-92904761D01*
X111046248Y-92904767D01*
X111054955Y-92943402D01*
X111094222Y-93117639D01*
X111178266Y-93324616D01*
X111213500Y-93382113D01*
X111292286Y-93510680D01*
X111294987Y-93515088D01*
X111441250Y-93683938D01*
X111613126Y-93826632D01*
X111680163Y-93865805D01*
X111686445Y-93869476D01*
X111735169Y-93921114D01*
X111748240Y-93990897D01*
X111721509Y-94056669D01*
X111681055Y-94090027D01*
X111668607Y-94096507D01*
X111664474Y-94099610D01*
X111664471Y-94099612D01*
X111494100Y-94227530D01*
X111489965Y-94230635D01*
X111486393Y-94234373D01*
X111378729Y-94347037D01*
X111335629Y-94392138D01*
X111332720Y-94396403D01*
X111332714Y-94396411D01*
X111323300Y-94410211D01*
X111209743Y-94576680D01*
X111115688Y-94779305D01*
X111055989Y-94994570D01*
X111032251Y-95216695D01*
X111032548Y-95221848D01*
X111032548Y-95221851D01*
X111038011Y-95316590D01*
X111045110Y-95439715D01*
X111046247Y-95444761D01*
X111046248Y-95444767D01*
X111054955Y-95483402D01*
X111094222Y-95657639D01*
X111141391Y-95773802D01*
X111174197Y-95854594D01*
X111178266Y-95864616D01*
X111213500Y-95922113D01*
X111292286Y-96050680D01*
X111294987Y-96055088D01*
X111441250Y-96223938D01*
X111613126Y-96366632D01*
X111680163Y-96405805D01*
X111686445Y-96409476D01*
X111735169Y-96461114D01*
X111748240Y-96530897D01*
X111721509Y-96596669D01*
X111681055Y-96630027D01*
X111668607Y-96636507D01*
X111664474Y-96639610D01*
X111664471Y-96639612D01*
X111494100Y-96767530D01*
X111489965Y-96770635D01*
X111486393Y-96774373D01*
X111378729Y-96887037D01*
X111335629Y-96932138D01*
X111332720Y-96936403D01*
X111332714Y-96936411D01*
X111323300Y-96950211D01*
X111209743Y-97116680D01*
X111195623Y-97147099D01*
X111124575Y-97300160D01*
X111115688Y-97319305D01*
X111055989Y-97534570D01*
X111032251Y-97756695D01*
X111032548Y-97761848D01*
X111032548Y-97761851D01*
X111038011Y-97856590D01*
X111045110Y-97979715D01*
X111046247Y-97984761D01*
X111046248Y-97984767D01*
X111063142Y-98059729D01*
X111094222Y-98197639D01*
X111178266Y-98404616D01*
X111180965Y-98409020D01*
X111292286Y-98590680D01*
X111294987Y-98595088D01*
X111441250Y-98763938D01*
X111613126Y-98906632D01*
X111680163Y-98945805D01*
X111686445Y-98949476D01*
X111735169Y-99001114D01*
X111748240Y-99070897D01*
X111721509Y-99136669D01*
X111681055Y-99170027D01*
X111668607Y-99176507D01*
X111664474Y-99179610D01*
X111664471Y-99179612D01*
X111494100Y-99307530D01*
X111489965Y-99310635D01*
X111486393Y-99314373D01*
X111378729Y-99427037D01*
X111335629Y-99472138D01*
X111332720Y-99476403D01*
X111332714Y-99476411D01*
X111323300Y-99490211D01*
X111209743Y-99656680D01*
X111115688Y-99859305D01*
X111055989Y-100074570D01*
X111032251Y-100296695D01*
X111032548Y-100301848D01*
X111032548Y-100301851D01*
X111044417Y-100507703D01*
X111045110Y-100519715D01*
X111046247Y-100524761D01*
X111046248Y-100524767D01*
X111054955Y-100563402D01*
X111094222Y-100737639D01*
X111178266Y-100944616D01*
X111227285Y-101024608D01*
X111292286Y-101130680D01*
X111294987Y-101135088D01*
X111441250Y-101303938D01*
X111613126Y-101446632D01*
X111663678Y-101476172D01*
X111686445Y-101489476D01*
X111735169Y-101541114D01*
X111748240Y-101610897D01*
X111721509Y-101676669D01*
X111681055Y-101710027D01*
X111668607Y-101716507D01*
X111664474Y-101719610D01*
X111664471Y-101719612D01*
X111494100Y-101847530D01*
X111489965Y-101850635D01*
X111486393Y-101854373D01*
X111378729Y-101967037D01*
X111335629Y-102012138D01*
X111209743Y-102196680D01*
X111115688Y-102399305D01*
X111055989Y-102614570D01*
X111032251Y-102836695D01*
X111032548Y-102841848D01*
X111032548Y-102841851D01*
X111038011Y-102936590D01*
X111045110Y-103059715D01*
X111046247Y-103064761D01*
X111046248Y-103064767D01*
X111066119Y-103152939D01*
X111094222Y-103277639D01*
X111096164Y-103282422D01*
X111096167Y-103282431D01*
X111116740Y-103333095D01*
X111123837Y-103403736D01*
X111091615Y-103467000D01*
X111030306Y-103502801D01*
X110999998Y-103506500D01*
X104463596Y-103506500D01*
X104395475Y-103486498D01*
X104348982Y-103432842D01*
X104338878Y-103362568D01*
X104368372Y-103297988D01*
X104374501Y-103291405D01*
X106742257Y-100923649D01*
X106750547Y-100916105D01*
X106757028Y-100911992D01*
X106803669Y-100862324D01*
X106806423Y-100859483D01*
X106826145Y-100839761D01*
X106828622Y-100836568D01*
X106836327Y-100827547D01*
X106861169Y-100801092D01*
X106866596Y-100795313D01*
X106870417Y-100788363D01*
X106876356Y-100777560D01*
X106887212Y-100761033D01*
X106894767Y-100751294D01*
X106894768Y-100751292D01*
X106899624Y-100745032D01*
X106917184Y-100704452D01*
X106922401Y-100693804D01*
X106939885Y-100662001D01*
X106939886Y-100661999D01*
X106943705Y-100655052D01*
X106948743Y-100635429D01*
X106955147Y-100616726D01*
X106960043Y-100605412D01*
X106960043Y-100605411D01*
X106963191Y-100598137D01*
X106964430Y-100590314D01*
X106964433Y-100590304D01*
X106970109Y-100554468D01*
X106972515Y-100542848D01*
X106981538Y-100507703D01*
X106981538Y-100507702D01*
X106983510Y-100500022D01*
X106983510Y-100479768D01*
X106985061Y-100460057D01*
X106986990Y-100447878D01*
X106988230Y-100440049D01*
X106984069Y-100396030D01*
X106983510Y-100384173D01*
X106983510Y-89283778D01*
X106984037Y-89272595D01*
X106985712Y-89265102D01*
X106983572Y-89197011D01*
X106983510Y-89193054D01*
X106983510Y-89165154D01*
X106983006Y-89161163D01*
X106982073Y-89149321D01*
X106980933Y-89113046D01*
X106980684Y-89105121D01*
X106975031Y-89085662D01*
X106971022Y-89066303D01*
X106970856Y-89064993D01*
X106968484Y-89046213D01*
X106965568Y-89038847D01*
X106965566Y-89038841D01*
X106952210Y-89005108D01*
X106948365Y-88993878D01*
X106938240Y-88959027D01*
X106938240Y-88959026D01*
X106936029Y-88951417D01*
X106925715Y-88933976D01*
X106917018Y-88916223D01*
X106912482Y-88904768D01*
X106909562Y-88897393D01*
X106883573Y-88861622D01*
X106877057Y-88851702D01*
X106864838Y-88831041D01*
X106854552Y-88813648D01*
X106840231Y-88799327D01*
X106827390Y-88784293D01*
X106820141Y-88774316D01*
X106815482Y-88767903D01*
X106781405Y-88739712D01*
X106772626Y-88731722D01*
X106084152Y-88043248D01*
X106050126Y-87980936D01*
X106051541Y-87921541D01*
X106067118Y-87863409D01*
X106067120Y-87863398D01*
X106068543Y-87858087D01*
X106088498Y-87630000D01*
X106068543Y-87401913D01*
X106062593Y-87379707D01*
X106010707Y-87186067D01*
X106010706Y-87186065D01*
X106009284Y-87180757D01*
X105997092Y-87154610D01*
X105914849Y-86978238D01*
X105914846Y-86978233D01*
X105912523Y-86973251D01*
X105839098Y-86868389D01*
X105784357Y-86790211D01*
X105784355Y-86790208D01*
X105781198Y-86785700D01*
X105619300Y-86623802D01*
X105614792Y-86620645D01*
X105614789Y-86620643D01*
X105536611Y-86565902D01*
X105431749Y-86492477D01*
X105426767Y-86490154D01*
X105426762Y-86490151D01*
X105391951Y-86473919D01*
X105338666Y-86427002D01*
X105319205Y-86358725D01*
X105339747Y-86290765D01*
X105391951Y-86245529D01*
X105426511Y-86229414D01*
X105436007Y-86223931D01*
X105614467Y-86098972D01*
X105622875Y-86091916D01*
X105776916Y-85937875D01*
X105783972Y-85929467D01*
X105908931Y-85751007D01*
X105914414Y-85741511D01*
X106006490Y-85544053D01*
X106010236Y-85533761D01*
X106056394Y-85361497D01*
X106056058Y-85347401D01*
X106048116Y-85344000D01*
X103507033Y-85344000D01*
X103493502Y-85347973D01*
X103492273Y-85356522D01*
X103539764Y-85533761D01*
X103543510Y-85544053D01*
X103635586Y-85741511D01*
X103641069Y-85751007D01*
X103766028Y-85929467D01*
X103773084Y-85937875D01*
X103927125Y-86091916D01*
X103935533Y-86098972D01*
X104113993Y-86223931D01*
X104123489Y-86229414D01*
X104158049Y-86245529D01*
X104211334Y-86292446D01*
X104230795Y-86360723D01*
X104210253Y-86428683D01*
X104158049Y-86473919D01*
X104123238Y-86490151D01*
X104123233Y-86490154D01*
X104118251Y-86492477D01*
X104013389Y-86565902D01*
X103935211Y-86620643D01*
X103935208Y-86620645D01*
X103930700Y-86623802D01*
X103768802Y-86785700D01*
X103765645Y-86790208D01*
X103765643Y-86790211D01*
X103710902Y-86868389D01*
X103637477Y-86973251D01*
X103635154Y-86978233D01*
X103635151Y-86978238D01*
X103552908Y-87154610D01*
X103540716Y-87180757D01*
X103539294Y-87186065D01*
X103539293Y-87186067D01*
X103487407Y-87379707D01*
X103481457Y-87401913D01*
X103461502Y-87630000D01*
X103481457Y-87858087D01*
X103482881Y-87863400D01*
X103482881Y-87863402D01*
X103530851Y-88042425D01*
X103540716Y-88079243D01*
X103543039Y-88084224D01*
X103543039Y-88084225D01*
X103635151Y-88281762D01*
X103635154Y-88281767D01*
X103637477Y-88286749D01*
X103665968Y-88327438D01*
X103744078Y-88438990D01*
X103768802Y-88474300D01*
X103930700Y-88636198D01*
X103935208Y-88639355D01*
X103935211Y-88639357D01*
X103975445Y-88667529D01*
X104118251Y-88767523D01*
X104123233Y-88769846D01*
X104123238Y-88769849D01*
X104157457Y-88785805D01*
X104210742Y-88832722D01*
X104230203Y-88900999D01*
X104209661Y-88968959D01*
X104157457Y-89014195D01*
X104123238Y-89030151D01*
X104123233Y-89030154D01*
X104118251Y-89032477D01*
X104087402Y-89054078D01*
X103935211Y-89160643D01*
X103935208Y-89160645D01*
X103930700Y-89163802D01*
X103768802Y-89325700D01*
X103765645Y-89330208D01*
X103765643Y-89330211D01*
X103710902Y-89408389D01*
X103637477Y-89513251D01*
X103635154Y-89518233D01*
X103635151Y-89518238D01*
X103554409Y-89691392D01*
X103540716Y-89720757D01*
X103539294Y-89726065D01*
X103539293Y-89726067D01*
X103487407Y-89919707D01*
X103481457Y-89941913D01*
X103461502Y-90170000D01*
X103481457Y-90398087D01*
X103482881Y-90403400D01*
X103482881Y-90403402D01*
X103530851Y-90582425D01*
X103540716Y-90619243D01*
X103543039Y-90624224D01*
X103543039Y-90624225D01*
X103635151Y-90821762D01*
X103635154Y-90821767D01*
X103637477Y-90826749D01*
X103665968Y-90867438D01*
X103744078Y-90978990D01*
X103768802Y-91014300D01*
X103930700Y-91176198D01*
X103935208Y-91179355D01*
X103935211Y-91179357D01*
X103975445Y-91207529D01*
X104118251Y-91307523D01*
X104123233Y-91309846D01*
X104123238Y-91309849D01*
X104157457Y-91325805D01*
X104210742Y-91372722D01*
X104230203Y-91440999D01*
X104209661Y-91508959D01*
X104157457Y-91554195D01*
X104123238Y-91570151D01*
X104123233Y-91570154D01*
X104118251Y-91572477D01*
X104070220Y-91606109D01*
X103935211Y-91700643D01*
X103935208Y-91700645D01*
X103930700Y-91703802D01*
X103768802Y-91865700D01*
X103765645Y-91870208D01*
X103765643Y-91870211D01*
X103710902Y-91948389D01*
X103637477Y-92053251D01*
X103635154Y-92058233D01*
X103635151Y-92058238D01*
X103554409Y-92231392D01*
X103540716Y-92260757D01*
X103539294Y-92266065D01*
X103539293Y-92266067D01*
X103487407Y-92459707D01*
X103481457Y-92481913D01*
X103461502Y-92710000D01*
X103481457Y-92938087D01*
X103482881Y-92943400D01*
X103482881Y-92943402D01*
X103530851Y-93122425D01*
X103540716Y-93159243D01*
X103543039Y-93164224D01*
X103543039Y-93164225D01*
X103635151Y-93361762D01*
X103635154Y-93361767D01*
X103637477Y-93366749D01*
X103665968Y-93407438D01*
X103744078Y-93518990D01*
X103768802Y-93554300D01*
X103930700Y-93716198D01*
X103935208Y-93719355D01*
X103935211Y-93719357D01*
X103975445Y-93747529D01*
X104118251Y-93847523D01*
X104123233Y-93849846D01*
X104123238Y-93849849D01*
X104157457Y-93865805D01*
X104210742Y-93912722D01*
X104230203Y-93980999D01*
X104209661Y-94048959D01*
X104157457Y-94094195D01*
X104123238Y-94110151D01*
X104123233Y-94110154D01*
X104118251Y-94112477D01*
X104070220Y-94146109D01*
X103935211Y-94240643D01*
X103935208Y-94240645D01*
X103930700Y-94243802D01*
X103768802Y-94405700D01*
X103765645Y-94410208D01*
X103765643Y-94410211D01*
X103660227Y-94560760D01*
X103604770Y-94605088D01*
X103560974Y-94614427D01*
X103500144Y-94616340D01*
X103497014Y-94616438D01*
X103493055Y-94616500D01*
X103465144Y-94616500D01*
X103461210Y-94616997D01*
X103461209Y-94616997D01*
X103461144Y-94617005D01*
X103449307Y-94617938D01*
X103417490Y-94618938D01*
X103413029Y-94619078D01*
X103405110Y-94619327D01*
X103387454Y-94624456D01*
X103385658Y-94624978D01*
X103366306Y-94628986D01*
X103359235Y-94629880D01*
X103346203Y-94631526D01*
X103338834Y-94634443D01*
X103338832Y-94634444D01*
X103305097Y-94647800D01*
X103293869Y-94651645D01*
X103251407Y-94663982D01*
X103244585Y-94668016D01*
X103244579Y-94668019D01*
X103233968Y-94674294D01*
X103216218Y-94682990D01*
X103204756Y-94687528D01*
X103204751Y-94687531D01*
X103197383Y-94690448D01*
X103190968Y-94695109D01*
X103161625Y-94716427D01*
X103151707Y-94722943D01*
X103133019Y-94733995D01*
X103113637Y-94745458D01*
X103099313Y-94759782D01*
X103084281Y-94772621D01*
X103067893Y-94784528D01*
X103046240Y-94810702D01*
X103039712Y-94818593D01*
X103031722Y-94827373D01*
X102284500Y-95574595D01*
X102222188Y-95608621D01*
X102195405Y-95611500D01*
X102139513Y-95611500D01*
X102133061Y-95612872D01*
X102133056Y-95612872D01*
X102046112Y-95631353D01*
X101952712Y-95651206D01*
X101946682Y-95653891D01*
X101946681Y-95653891D01*
X101784278Y-95726197D01*
X101784276Y-95726198D01*
X101778248Y-95728882D01*
X101772907Y-95732762D01*
X101772906Y-95732763D01*
X101746689Y-95751811D01*
X101623747Y-95841134D01*
X101619326Y-95846044D01*
X101619325Y-95846045D01*
X101518664Y-95957841D01*
X101495960Y-95983056D01*
X101400473Y-96148444D01*
X101341458Y-96330072D01*
X101340768Y-96336633D01*
X101340768Y-96336635D01*
X101335420Y-96387523D01*
X101321496Y-96520000D01*
X101322186Y-96526565D01*
X101340594Y-96701703D01*
X101341458Y-96709928D01*
X101400473Y-96891556D01*
X101403776Y-96897278D01*
X101403777Y-96897279D01*
X101444319Y-96967500D01*
X101461057Y-97036496D01*
X101437836Y-97103587D01*
X101382029Y-97147474D01*
X101335200Y-97156500D01*
X101082596Y-97156500D01*
X101014475Y-97136498D01*
X100993501Y-97119595D01*
X100429623Y-96555716D01*
X99856655Y-95982748D01*
X99849115Y-95974462D01*
X99845003Y-95967983D01*
X99833476Y-95957158D01*
X99795352Y-95921358D01*
X99792510Y-95918603D01*
X99772773Y-95898866D01*
X99769576Y-95896386D01*
X99760554Y-95888681D01*
X99734103Y-95863842D01*
X99728324Y-95858415D01*
X99721378Y-95854596D01*
X99721375Y-95854594D01*
X99710569Y-95848653D01*
X99694050Y-95837802D01*
X99693340Y-95837251D01*
X99678044Y-95825387D01*
X99670775Y-95822242D01*
X99670771Y-95822239D01*
X99637466Y-95807827D01*
X99626816Y-95802610D01*
X99588063Y-95781306D01*
X99568440Y-95776268D01*
X99549737Y-95769864D01*
X99538423Y-95764968D01*
X99538422Y-95764968D01*
X99531148Y-95761820D01*
X99523325Y-95760581D01*
X99523315Y-95760578D01*
X99487479Y-95754902D01*
X99475859Y-95752496D01*
X99440714Y-95743473D01*
X99440713Y-95743473D01*
X99433033Y-95741501D01*
X99412779Y-95741501D01*
X99393068Y-95739950D01*
X99380889Y-95738021D01*
X99373060Y-95736781D01*
X99365168Y-95737527D01*
X99329042Y-95740942D01*
X99317184Y-95741501D01*
X98542168Y-95741501D01*
X98474047Y-95721499D01*
X98427554Y-95667843D01*
X98417450Y-95597569D01*
X98420461Y-95582890D01*
X98447119Y-95483402D01*
X98447119Y-95483400D01*
X98448543Y-95478087D01*
X98468498Y-95250000D01*
X98448543Y-95021913D01*
X98442593Y-94999707D01*
X98390707Y-94806067D01*
X98390706Y-94806065D01*
X98389284Y-94800757D01*
X98377092Y-94774610D01*
X98294849Y-94598238D01*
X98294846Y-94598233D01*
X98292523Y-94593251D01*
X98219098Y-94488389D01*
X98164357Y-94410211D01*
X98164355Y-94410208D01*
X98161198Y-94405700D01*
X97999300Y-94243802D01*
X97994792Y-94240645D01*
X97994789Y-94240643D01*
X97859780Y-94146109D01*
X97811749Y-94112477D01*
X97806767Y-94110154D01*
X97806762Y-94110151D01*
X97772543Y-94094195D01*
X97719258Y-94047278D01*
X97699797Y-93979001D01*
X97720339Y-93911041D01*
X97772543Y-93865805D01*
X97806762Y-93849849D01*
X97806767Y-93849846D01*
X97811749Y-93847523D01*
X97954555Y-93747529D01*
X97994789Y-93719357D01*
X97994792Y-93719355D01*
X97999300Y-93716198D01*
X98161198Y-93554300D01*
X98185923Y-93518990D01*
X98264032Y-93407438D01*
X98292523Y-93366749D01*
X98294846Y-93361767D01*
X98294849Y-93361762D01*
X98386961Y-93164225D01*
X98386961Y-93164224D01*
X98389284Y-93159243D01*
X98399150Y-93122425D01*
X98447119Y-92943402D01*
X98447119Y-92943400D01*
X98448543Y-92938087D01*
X98468498Y-92710000D01*
X98448543Y-92481913D01*
X98442593Y-92459707D01*
X98390707Y-92266067D01*
X98390706Y-92266065D01*
X98389284Y-92260757D01*
X98375591Y-92231392D01*
X98294849Y-92058238D01*
X98294846Y-92058233D01*
X98292523Y-92053251D01*
X98219098Y-91948389D01*
X98164357Y-91870211D01*
X98164355Y-91870208D01*
X98161198Y-91865700D01*
X97999300Y-91703802D01*
X97994792Y-91700645D01*
X97994789Y-91700643D01*
X97859780Y-91606109D01*
X97811749Y-91572477D01*
X97806767Y-91570154D01*
X97806762Y-91570151D01*
X97772543Y-91554195D01*
X97719258Y-91507278D01*
X97699797Y-91439001D01*
X97720339Y-91371041D01*
X97772543Y-91325805D01*
X97806762Y-91309849D01*
X97806767Y-91309846D01*
X97811749Y-91307523D01*
X97954555Y-91207529D01*
X97994789Y-91179357D01*
X97994792Y-91179355D01*
X97999300Y-91176198D01*
X98161198Y-91014300D01*
X98185923Y-90978990D01*
X98264032Y-90867438D01*
X98292523Y-90826749D01*
X98294846Y-90821767D01*
X98294849Y-90821762D01*
X98386961Y-90624225D01*
X98386961Y-90624224D01*
X98389284Y-90619243D01*
X98399150Y-90582425D01*
X98447119Y-90403402D01*
X98447119Y-90403400D01*
X98448543Y-90398087D01*
X98468498Y-90170000D01*
X98448543Y-89941913D01*
X98442593Y-89919707D01*
X98390707Y-89726067D01*
X98390706Y-89726065D01*
X98389284Y-89720757D01*
X98375591Y-89691392D01*
X98294849Y-89518238D01*
X98294846Y-89518233D01*
X98292523Y-89513251D01*
X98219098Y-89408389D01*
X98164357Y-89330211D01*
X98164355Y-89330208D01*
X98161198Y-89325700D01*
X97999300Y-89163802D01*
X97994792Y-89160645D01*
X97994789Y-89160643D01*
X97842598Y-89054078D01*
X97811749Y-89032477D01*
X97806767Y-89030154D01*
X97806762Y-89030151D01*
X97772543Y-89014195D01*
X97719258Y-88967278D01*
X97699797Y-88899001D01*
X97720339Y-88831041D01*
X97772543Y-88785805D01*
X97806762Y-88769849D01*
X97806767Y-88769846D01*
X97811749Y-88767523D01*
X97954555Y-88667529D01*
X97994789Y-88639357D01*
X97994792Y-88639355D01*
X97999300Y-88636198D01*
X98161198Y-88474300D01*
X98185923Y-88438990D01*
X98264032Y-88327438D01*
X98292523Y-88286749D01*
X98294846Y-88281767D01*
X98294849Y-88281762D01*
X98386961Y-88084225D01*
X98386961Y-88084224D01*
X98389284Y-88079243D01*
X98399150Y-88042425D01*
X98447119Y-87863402D01*
X98447119Y-87863400D01*
X98448543Y-87858087D01*
X98468498Y-87630000D01*
X98448543Y-87401913D01*
X98442593Y-87379707D01*
X98390707Y-87186067D01*
X98390706Y-87186065D01*
X98389284Y-87180757D01*
X98377092Y-87154610D01*
X98294849Y-86978238D01*
X98294846Y-86978233D01*
X98292523Y-86973251D01*
X98219098Y-86868389D01*
X98164357Y-86790211D01*
X98164355Y-86790208D01*
X98161198Y-86785700D01*
X97999300Y-86623802D01*
X97994789Y-86620643D01*
X97990576Y-86617108D01*
X97991527Y-86615974D01*
X97951529Y-86565929D01*
X97944224Y-86495310D01*
X97976258Y-86431951D01*
X98037462Y-86395970D01*
X98054517Y-86392918D01*
X98065316Y-86391745D01*
X98201705Y-86340615D01*
X98318261Y-86253261D01*
X98405615Y-86136705D01*
X98456745Y-86000316D01*
X98463500Y-85938134D01*
X98463500Y-84818503D01*
X103493606Y-84818503D01*
X103493942Y-84832599D01*
X103501884Y-84836000D01*
X104502885Y-84836000D01*
X104518124Y-84831525D01*
X104519329Y-84830135D01*
X104521000Y-84822452D01*
X104521000Y-84817885D01*
X105029000Y-84817885D01*
X105033475Y-84833124D01*
X105034865Y-84834329D01*
X105042548Y-84836000D01*
X106042967Y-84836000D01*
X106056498Y-84832027D01*
X106057727Y-84823478D01*
X106010236Y-84646239D01*
X106006490Y-84635947D01*
X105914414Y-84438489D01*
X105908931Y-84428993D01*
X105783972Y-84250533D01*
X105776916Y-84242125D01*
X105622875Y-84088084D01*
X105614467Y-84081028D01*
X105436007Y-83956069D01*
X105426511Y-83950586D01*
X105229053Y-83858510D01*
X105218761Y-83854764D01*
X105046497Y-83808606D01*
X105032401Y-83808942D01*
X105029000Y-83816884D01*
X105029000Y-84817885D01*
X104521000Y-84817885D01*
X104521000Y-83822033D01*
X104517027Y-83808502D01*
X104508478Y-83807273D01*
X104331239Y-83854764D01*
X104320947Y-83858510D01*
X104123489Y-83950586D01*
X104113993Y-83956069D01*
X103935533Y-84081028D01*
X103927125Y-84088084D01*
X103773084Y-84242125D01*
X103766028Y-84250533D01*
X103641069Y-84428993D01*
X103635586Y-84438489D01*
X103543510Y-84635947D01*
X103539764Y-84646239D01*
X103493606Y-84818503D01*
X98463500Y-84818503D01*
X98463500Y-84241866D01*
X98456745Y-84179684D01*
X98405615Y-84043295D01*
X98318261Y-83926739D01*
X98201705Y-83839385D01*
X98065316Y-83788255D01*
X98003134Y-83781500D01*
X96306866Y-83781500D01*
X96244684Y-83788255D01*
X96108295Y-83839385D01*
X95991739Y-83926739D01*
X95904385Y-84043295D01*
X95853255Y-84179684D01*
X95846500Y-84241866D01*
X95846500Y-84330500D01*
X95826498Y-84398621D01*
X95772842Y-84445114D01*
X95720500Y-84456500D01*
X91654500Y-84456500D01*
X91586379Y-84436498D01*
X91539886Y-84382842D01*
X91528500Y-84330500D01*
X91528500Y-84191866D01*
X91521745Y-84129684D01*
X91470615Y-83993295D01*
X91383261Y-83876739D01*
X91266705Y-83789385D01*
X91130316Y-83738255D01*
X91068134Y-83731500D01*
X89271866Y-83731500D01*
X89209684Y-83738255D01*
X89073295Y-83789385D01*
X88956739Y-83876739D01*
X88869385Y-83993295D01*
X88818255Y-84129684D01*
X88811500Y-84191866D01*
X88811500Y-85988134D01*
X88818255Y-86050316D01*
X88869385Y-86186705D01*
X88956739Y-86303261D01*
X89073295Y-86390615D01*
X89081704Y-86393767D01*
X89081705Y-86393768D01*
X89190451Y-86434535D01*
X89247216Y-86477176D01*
X89271916Y-86543738D01*
X89256709Y-86613087D01*
X89237316Y-86639568D01*
X89153729Y-86727037D01*
X89110629Y-86772138D01*
X89107720Y-86776403D01*
X89107714Y-86776411D01*
X89098300Y-86790211D01*
X88984743Y-86956680D01*
X88890688Y-87159305D01*
X88830989Y-87374570D01*
X88807251Y-87596695D01*
X88807548Y-87601848D01*
X88807548Y-87601851D01*
X88813011Y-87696590D01*
X88820110Y-87819715D01*
X88821247Y-87824761D01*
X88821248Y-87824767D01*
X88829955Y-87863402D01*
X88869222Y-88037639D01*
X88953266Y-88244616D01*
X88955965Y-88249020D01*
X89067286Y-88430680D01*
X89069987Y-88435088D01*
X89216250Y-88603938D01*
X89388126Y-88746632D01*
X89435502Y-88774316D01*
X89461445Y-88789476D01*
X89510169Y-88841114D01*
X89523240Y-88910897D01*
X89496509Y-88976669D01*
X89456055Y-89010027D01*
X89443607Y-89016507D01*
X89439474Y-89019610D01*
X89439471Y-89019612D01*
X89269100Y-89147530D01*
X89264965Y-89150635D01*
X89261393Y-89154373D01*
X89153729Y-89267037D01*
X89110629Y-89312138D01*
X89107720Y-89316403D01*
X89107714Y-89316411D01*
X89098300Y-89330211D01*
X88984743Y-89496680D01*
X88946011Y-89580121D01*
X88909471Y-89658841D01*
X88890688Y-89699305D01*
X88830989Y-89914570D01*
X88807251Y-90136695D01*
X88807548Y-90141848D01*
X88807548Y-90141851D01*
X88816694Y-90300465D01*
X88820110Y-90359715D01*
X88821247Y-90364761D01*
X88821248Y-90364767D01*
X88829955Y-90403402D01*
X88869222Y-90577639D01*
X88953266Y-90784616D01*
X88988500Y-90842113D01*
X89067286Y-90970680D01*
X89069987Y-90975088D01*
X89216250Y-91143938D01*
X89388126Y-91286632D01*
X89455163Y-91325805D01*
X89461445Y-91329476D01*
X89510169Y-91381114D01*
X89523240Y-91450897D01*
X89496509Y-91516669D01*
X89456055Y-91550027D01*
X89443607Y-91556507D01*
X89439474Y-91559610D01*
X89439471Y-91559612D01*
X89269100Y-91687530D01*
X89264965Y-91690635D01*
X89261393Y-91694373D01*
X89153729Y-91807037D01*
X89110629Y-91852138D01*
X89107720Y-91856403D01*
X89107714Y-91856411D01*
X89098300Y-91870211D01*
X88984743Y-92036680D01*
X88946011Y-92120121D01*
X88909471Y-92198841D01*
X88890688Y-92239305D01*
X88830989Y-92454570D01*
X88807251Y-92676695D01*
X88807548Y-92681848D01*
X88807548Y-92681851D01*
X88816694Y-92840465D01*
X88820110Y-92899715D01*
X88821247Y-92904761D01*
X88821248Y-92904767D01*
X88829955Y-92943402D01*
X88869222Y-93117639D01*
X88953266Y-93324616D01*
X88988500Y-93382113D01*
X89067286Y-93510680D01*
X89069987Y-93515088D01*
X89216250Y-93683938D01*
X89388126Y-93826632D01*
X89455163Y-93865805D01*
X89461445Y-93869476D01*
X89510169Y-93921114D01*
X89523240Y-93990897D01*
X89496509Y-94056669D01*
X89456055Y-94090027D01*
X89443607Y-94096507D01*
X89439474Y-94099610D01*
X89439471Y-94099612D01*
X89269100Y-94227530D01*
X89264965Y-94230635D01*
X89261393Y-94234373D01*
X89153729Y-94347037D01*
X89110629Y-94392138D01*
X89107720Y-94396403D01*
X89107714Y-94396411D01*
X89098300Y-94410211D01*
X88984743Y-94576680D01*
X88890688Y-94779305D01*
X88830989Y-94994570D01*
X88807251Y-95216695D01*
X88807548Y-95221848D01*
X88807548Y-95221851D01*
X88813011Y-95316590D01*
X88820110Y-95439715D01*
X88821247Y-95444761D01*
X88821248Y-95444767D01*
X88829955Y-95483402D01*
X88869222Y-95657639D01*
X88916391Y-95773802D01*
X88949197Y-95854594D01*
X88953266Y-95864616D01*
X88988500Y-95922113D01*
X89067286Y-96050680D01*
X89069987Y-96055088D01*
X89216250Y-96223938D01*
X89388126Y-96366632D01*
X89455163Y-96405805D01*
X89461445Y-96409476D01*
X89510169Y-96461114D01*
X89523240Y-96530897D01*
X89496509Y-96596669D01*
X89456055Y-96630027D01*
X89443607Y-96636507D01*
X89439474Y-96639610D01*
X89439471Y-96639612D01*
X89269100Y-96767530D01*
X89264965Y-96770635D01*
X89261393Y-96774373D01*
X89153729Y-96887037D01*
X89110629Y-96932138D01*
X89107720Y-96936403D01*
X89107714Y-96936411D01*
X89098300Y-96950211D01*
X88984743Y-97116680D01*
X88970623Y-97147099D01*
X88899575Y-97300160D01*
X88890688Y-97319305D01*
X88830989Y-97534570D01*
X88807251Y-97756695D01*
X88807548Y-97761848D01*
X88807548Y-97761851D01*
X88813011Y-97856590D01*
X88820110Y-97979715D01*
X88821247Y-97984761D01*
X88821248Y-97984767D01*
X88838142Y-98059729D01*
X88869222Y-98197639D01*
X88953266Y-98404616D01*
X88955965Y-98409020D01*
X89067286Y-98590680D01*
X89069987Y-98595088D01*
X89216250Y-98763938D01*
X89388126Y-98906632D01*
X89455163Y-98945805D01*
X89461445Y-98949476D01*
X89510169Y-99001114D01*
X89523240Y-99070897D01*
X89496509Y-99136669D01*
X89456055Y-99170027D01*
X89443607Y-99176507D01*
X89439474Y-99179610D01*
X89439471Y-99179612D01*
X89269100Y-99307530D01*
X89264965Y-99310635D01*
X89261393Y-99314373D01*
X89153729Y-99427037D01*
X89110629Y-99472138D01*
X89107720Y-99476403D01*
X89107714Y-99476411D01*
X89098300Y-99490211D01*
X88984743Y-99656680D01*
X88890688Y-99859305D01*
X88830989Y-100074570D01*
X88807251Y-100296695D01*
X88807548Y-100301848D01*
X88807548Y-100301851D01*
X88819417Y-100507703D01*
X88820110Y-100519715D01*
X88821247Y-100524761D01*
X88821248Y-100524767D01*
X88829955Y-100563402D01*
X88869222Y-100737639D01*
X88953266Y-100944616D01*
X89002285Y-101024608D01*
X89067286Y-101130680D01*
X89069987Y-101135088D01*
X89216250Y-101303938D01*
X89388126Y-101446632D01*
X89438678Y-101476172D01*
X89461445Y-101489476D01*
X89510169Y-101541114D01*
X89523240Y-101610897D01*
X89496509Y-101676669D01*
X89456055Y-101710027D01*
X89443607Y-101716507D01*
X89439474Y-101719610D01*
X89439471Y-101719612D01*
X89269100Y-101847530D01*
X89264965Y-101850635D01*
X89261393Y-101854373D01*
X89153729Y-101967037D01*
X89110629Y-102012138D01*
X88984743Y-102196680D01*
X88890688Y-102399305D01*
X88830989Y-102614570D01*
X88807251Y-102836695D01*
X88807548Y-102841848D01*
X88807548Y-102841851D01*
X88813011Y-102936590D01*
X88820110Y-103059715D01*
X88821247Y-103064761D01*
X88821248Y-103064767D01*
X88841119Y-103152939D01*
X88869222Y-103277639D01*
X88920424Y-103403736D01*
X88946662Y-103468351D01*
X88953266Y-103484616D01*
X88970369Y-103512526D01*
X89067286Y-103670680D01*
X89069987Y-103675088D01*
X89216250Y-103843938D01*
X89388126Y-103986632D01*
X89581000Y-104099338D01*
X89789692Y-104179030D01*
X89794760Y-104180061D01*
X89794763Y-104180062D01*
X89876734Y-104196739D01*
X90008597Y-104223567D01*
X90013772Y-104223757D01*
X90013774Y-104223757D01*
X90226673Y-104231564D01*
X90226677Y-104231564D01*
X90231837Y-104231753D01*
X90236957Y-104231097D01*
X90236959Y-104231097D01*
X90448288Y-104204025D01*
X90448289Y-104204025D01*
X90453416Y-104203368D01*
X90463562Y-104200324D01*
X90662429Y-104140661D01*
X90662434Y-104140659D01*
X90667384Y-104139174D01*
X90867994Y-104040896D01*
X91049860Y-103911173D01*
X91208096Y-103753489D01*
X91267594Y-103670689D01*
X91335435Y-103576277D01*
X91338453Y-103572077D01*
X91340746Y-103567437D01*
X91342446Y-103564608D01*
X91394674Y-103516518D01*
X91450451Y-103503500D01*
X97525200Y-103503500D01*
X97593321Y-103523502D01*
X97639814Y-103577158D01*
X97649918Y-103647432D01*
X97634319Y-103692500D01*
X97590473Y-103768444D01*
X97531458Y-103950072D01*
X97530768Y-103956633D01*
X97530768Y-103956635D01*
X97527963Y-103983327D01*
X97517460Y-104083261D01*
X97514093Y-104115293D01*
X97487080Y-104180950D01*
X97477878Y-104191218D01*
X91849500Y-109819595D01*
X91787188Y-109853621D01*
X91760405Y-109856500D01*
X71761805Y-109856500D01*
X71693684Y-109836498D01*
X71656013Y-109798940D01*
X71567822Y-109662617D01*
X71567820Y-109662614D01*
X71565014Y-109658277D01*
X71414670Y-109493051D01*
X71410619Y-109489852D01*
X71410615Y-109489848D01*
X71243414Y-109357800D01*
X71243410Y-109357798D01*
X71239359Y-109354598D01*
X71198053Y-109331796D01*
X71148084Y-109281364D01*
X71133312Y-109211921D01*
X71158428Y-109145516D01*
X71185780Y-109118909D01*
X71229603Y-109087650D01*
X71364860Y-108991173D01*
X71523096Y-108833489D01*
X71582594Y-108750689D01*
X71650435Y-108656277D01*
X71653453Y-108652077D01*
X71655746Y-108647437D01*
X71657446Y-108644608D01*
X71709674Y-108596518D01*
X71765451Y-108583500D01*
X75985500Y-108583500D01*
X76053621Y-108603502D01*
X76100114Y-108657158D01*
X76111500Y-108709500D01*
X76111500Y-108848134D01*
X76118255Y-108910316D01*
X76169385Y-109046705D01*
X76256739Y-109163261D01*
X76373295Y-109250615D01*
X76509684Y-109301745D01*
X76571866Y-109308500D01*
X78368134Y-109308500D01*
X78430316Y-109301745D01*
X78566705Y-109250615D01*
X78683261Y-109163261D01*
X78770615Y-109046705D01*
X78775346Y-109034086D01*
X78814598Y-108929382D01*
X78857240Y-108872618D01*
X78923802Y-108847918D01*
X78993150Y-108863126D01*
X79027817Y-108891114D01*
X79056250Y-108923938D01*
X79228126Y-109066632D01*
X79421000Y-109179338D01*
X79629692Y-109259030D01*
X79634760Y-109260061D01*
X79634763Y-109260062D01*
X79739466Y-109281364D01*
X79848597Y-109303567D01*
X79853772Y-109303757D01*
X79853774Y-109303757D01*
X80066673Y-109311564D01*
X80066677Y-109311564D01*
X80071837Y-109311753D01*
X80076957Y-109311097D01*
X80076959Y-109311097D01*
X80288288Y-109284025D01*
X80288289Y-109284025D01*
X80293416Y-109283368D01*
X80300096Y-109281364D01*
X80502429Y-109220661D01*
X80502434Y-109220659D01*
X80507384Y-109219174D01*
X80707994Y-109120896D01*
X80889860Y-108991173D01*
X81048096Y-108833489D01*
X81107594Y-108750689D01*
X81178453Y-108652077D01*
X81179774Y-108653026D01*
X81226663Y-108609849D01*
X81296600Y-108597628D01*
X81362042Y-108625158D01*
X81389874Y-108656995D01*
X81447285Y-108750680D01*
X81447290Y-108750687D01*
X81449987Y-108755088D01*
X81596250Y-108923938D01*
X81768126Y-109066632D01*
X81961000Y-109179338D01*
X82169692Y-109259030D01*
X82174760Y-109260061D01*
X82174763Y-109260062D01*
X82279466Y-109281364D01*
X82388597Y-109303567D01*
X82393772Y-109303757D01*
X82393774Y-109303757D01*
X82606673Y-109311564D01*
X82606677Y-109311564D01*
X82611837Y-109311753D01*
X82616957Y-109311097D01*
X82616959Y-109311097D01*
X82828288Y-109284025D01*
X82828289Y-109284025D01*
X82833416Y-109283368D01*
X82840096Y-109281364D01*
X83042429Y-109220661D01*
X83042434Y-109220659D01*
X83047384Y-109219174D01*
X83247994Y-109120896D01*
X83429860Y-108991173D01*
X83588096Y-108833489D01*
X83647594Y-108750689D01*
X83715435Y-108656277D01*
X83718453Y-108652077D01*
X83722145Y-108644608D01*
X83815136Y-108456453D01*
X83815137Y-108456451D01*
X83817430Y-108451811D01*
X83882370Y-108238069D01*
X83911529Y-108016590D01*
X83912505Y-107976638D01*
X83913074Y-107953365D01*
X83913074Y-107953361D01*
X83913156Y-107950000D01*
X83894852Y-107727361D01*
X83840431Y-107510702D01*
X83751354Y-107305840D01*
X83630014Y-107118277D01*
X83479670Y-106953051D01*
X83475619Y-106949852D01*
X83475615Y-106949848D01*
X83308414Y-106817800D01*
X83308410Y-106817798D01*
X83304359Y-106814598D01*
X83263053Y-106791796D01*
X83213084Y-106741364D01*
X83198312Y-106671921D01*
X83223428Y-106605516D01*
X83250780Y-106578909D01*
X83294603Y-106547650D01*
X83429860Y-106451173D01*
X83588096Y-106293489D01*
X83647594Y-106210689D01*
X83715435Y-106116277D01*
X83718453Y-106112077D01*
X83722145Y-106104608D01*
X83815136Y-105916453D01*
X83815137Y-105916451D01*
X83817430Y-105911811D01*
X83882370Y-105698069D01*
X83911529Y-105476590D01*
X83913156Y-105410000D01*
X83894852Y-105187361D01*
X83840431Y-104970702D01*
X83751354Y-104765840D01*
X83693845Y-104676944D01*
X83632822Y-104582617D01*
X83632820Y-104582614D01*
X83630014Y-104578277D01*
X83479670Y-104413051D01*
X83475619Y-104409852D01*
X83475615Y-104409848D01*
X83308414Y-104277800D01*
X83308410Y-104277798D01*
X83304359Y-104274598D01*
X83263053Y-104251796D01*
X83213084Y-104201364D01*
X83198312Y-104131921D01*
X83223428Y-104065516D01*
X83250780Y-104038909D01*
X83294603Y-104007650D01*
X83429860Y-103911173D01*
X83588096Y-103753489D01*
X83647594Y-103670689D01*
X83715435Y-103576277D01*
X83718453Y-103572077D01*
X83722145Y-103564608D01*
X83815136Y-103376453D01*
X83815137Y-103376451D01*
X83817430Y-103371811D01*
X83882370Y-103158069D01*
X83911529Y-102936590D01*
X83913156Y-102870000D01*
X83894852Y-102647361D01*
X83840431Y-102430702D01*
X83751354Y-102225840D01*
X83676737Y-102110500D01*
X83632822Y-102042617D01*
X83632820Y-102042614D01*
X83630014Y-102038277D01*
X83479670Y-101873051D01*
X83475619Y-101869852D01*
X83475615Y-101869848D01*
X83308414Y-101737800D01*
X83308410Y-101737798D01*
X83304359Y-101734598D01*
X83263053Y-101711796D01*
X83213084Y-101661364D01*
X83198312Y-101591921D01*
X83223428Y-101525516D01*
X83250780Y-101498909D01*
X83299786Y-101463953D01*
X83429860Y-101371173D01*
X83461788Y-101339357D01*
X83574825Y-101226714D01*
X83588096Y-101213489D01*
X83619498Y-101169789D01*
X83715435Y-101036277D01*
X83718453Y-101032077D01*
X83722145Y-101024608D01*
X83815136Y-100836453D01*
X83815137Y-100836451D01*
X83817430Y-100831811D01*
X83859360Y-100693804D01*
X83880865Y-100623023D01*
X83880867Y-100623015D01*
X83882370Y-100618069D01*
X83911529Y-100396590D01*
X83911687Y-100390117D01*
X83913074Y-100333365D01*
X83913074Y-100333361D01*
X83913156Y-100330000D01*
X83894852Y-100107361D01*
X83840431Y-99890702D01*
X83751354Y-99685840D01*
X83662867Y-99549060D01*
X83632822Y-99502617D01*
X83632820Y-99502614D01*
X83630014Y-99498277D01*
X83479670Y-99333051D01*
X83475619Y-99329852D01*
X83475615Y-99329848D01*
X83308414Y-99197800D01*
X83308410Y-99197798D01*
X83304359Y-99194598D01*
X83263053Y-99171796D01*
X83213084Y-99121364D01*
X83198312Y-99051921D01*
X83223428Y-98985516D01*
X83250780Y-98958909D01*
X83299207Y-98924366D01*
X83429860Y-98831173D01*
X83461788Y-98799357D01*
X83558355Y-98703126D01*
X83588096Y-98673489D01*
X83619498Y-98629789D01*
X83715435Y-98496277D01*
X83718453Y-98492077D01*
X83722145Y-98484608D01*
X83815136Y-98296453D01*
X83815137Y-98296451D01*
X83817430Y-98291811D01*
X83849900Y-98184940D01*
X83880865Y-98083023D01*
X83880867Y-98083015D01*
X83882370Y-98078069D01*
X83911529Y-97856590D01*
X83913156Y-97790000D01*
X83894852Y-97567361D01*
X83840431Y-97350702D01*
X83751354Y-97145840D01*
X83665401Y-97012977D01*
X83632822Y-96962617D01*
X83632820Y-96962614D01*
X83630014Y-96958277D01*
X83479670Y-96793051D01*
X83475619Y-96789852D01*
X83475615Y-96789848D01*
X83308414Y-96657800D01*
X83308410Y-96657798D01*
X83304359Y-96654598D01*
X83263053Y-96631796D01*
X83213084Y-96581364D01*
X83198312Y-96511921D01*
X83223428Y-96445516D01*
X83250780Y-96418909D01*
X83299207Y-96384366D01*
X83429860Y-96291173D01*
X83461788Y-96259357D01*
X83558355Y-96163126D01*
X83588096Y-96133489D01*
X83647594Y-96050689D01*
X83715435Y-95956277D01*
X83718453Y-95952077D01*
X83722145Y-95944608D01*
X83815136Y-95756453D01*
X83815137Y-95756451D01*
X83817430Y-95751811D01*
X83860935Y-95608621D01*
X83880865Y-95543023D01*
X83880867Y-95543015D01*
X83882370Y-95538069D01*
X83911529Y-95316590D01*
X83913156Y-95250000D01*
X83894852Y-95027361D01*
X83840431Y-94810702D01*
X83751354Y-94605840D01*
X83630014Y-94418277D01*
X83479670Y-94253051D01*
X83475619Y-94249852D01*
X83475615Y-94249848D01*
X83308414Y-94117800D01*
X83308410Y-94117798D01*
X83304359Y-94114598D01*
X83263053Y-94091796D01*
X83213084Y-94041364D01*
X83198312Y-93971921D01*
X83223428Y-93905516D01*
X83250780Y-93878909D01*
X83299207Y-93844366D01*
X83429860Y-93751173D01*
X83461788Y-93719357D01*
X83573616Y-93607918D01*
X83588096Y-93593489D01*
X83619498Y-93549789D01*
X83715435Y-93416277D01*
X83718453Y-93412077D01*
X83722145Y-93404608D01*
X83815136Y-93216453D01*
X83815137Y-93216451D01*
X83817430Y-93211811D01*
X83882370Y-92998069D01*
X83911529Y-92776590D01*
X83913156Y-92710000D01*
X83894852Y-92487361D01*
X83840431Y-92270702D01*
X83751354Y-92065840D01*
X83630014Y-91878277D01*
X83479670Y-91713051D01*
X83475619Y-91709852D01*
X83475615Y-91709848D01*
X83308414Y-91577800D01*
X83308410Y-91577798D01*
X83304359Y-91574598D01*
X83263053Y-91551796D01*
X83213084Y-91501364D01*
X83198312Y-91431921D01*
X83223428Y-91365516D01*
X83250780Y-91338909D01*
X83299207Y-91304366D01*
X83429860Y-91211173D01*
X83461788Y-91179357D01*
X83573616Y-91067918D01*
X83588096Y-91053489D01*
X83619498Y-91009789D01*
X83715435Y-90876277D01*
X83718453Y-90872077D01*
X83722145Y-90864608D01*
X83815136Y-90676453D01*
X83815137Y-90676451D01*
X83817430Y-90671811D01*
X83882370Y-90458069D01*
X83911529Y-90236590D01*
X83913156Y-90170000D01*
X83894852Y-89947361D01*
X83840431Y-89730702D01*
X83751354Y-89525840D01*
X83630014Y-89338277D01*
X83479670Y-89173051D01*
X83475619Y-89169852D01*
X83475615Y-89169848D01*
X83308414Y-89037800D01*
X83308410Y-89037798D01*
X83304359Y-89034598D01*
X83263053Y-89011796D01*
X83213084Y-88961364D01*
X83198312Y-88891921D01*
X83223428Y-88825516D01*
X83250780Y-88798909D01*
X83301330Y-88762852D01*
X83429860Y-88671173D01*
X83461788Y-88639357D01*
X83573616Y-88527918D01*
X83588096Y-88513489D01*
X83619498Y-88469789D01*
X83715435Y-88336277D01*
X83718453Y-88332077D01*
X83722145Y-88324608D01*
X83815136Y-88136453D01*
X83815137Y-88136451D01*
X83817430Y-88131811D01*
X83859966Y-87991808D01*
X83880865Y-87923023D01*
X83880865Y-87923021D01*
X83882370Y-87918069D01*
X83911529Y-87696590D01*
X83913156Y-87630000D01*
X83894852Y-87407361D01*
X83840431Y-87190702D01*
X83751354Y-86985840D01*
X83630014Y-86798277D01*
X83479670Y-86633051D01*
X83475619Y-86629852D01*
X83475615Y-86629848D01*
X83308414Y-86497800D01*
X83308410Y-86497798D01*
X83304359Y-86494598D01*
X83263053Y-86471796D01*
X83213084Y-86421364D01*
X83198312Y-86351921D01*
X83223428Y-86285516D01*
X83250780Y-86258909D01*
X83299817Y-86223931D01*
X83429860Y-86131173D01*
X83469255Y-86091916D01*
X83561175Y-86000316D01*
X83588096Y-85973489D01*
X83647594Y-85890689D01*
X83715435Y-85796277D01*
X83718453Y-85792077D01*
X83722145Y-85784608D01*
X83815136Y-85596453D01*
X83815137Y-85596451D01*
X83817430Y-85591811D01*
X83882370Y-85378069D01*
X83911529Y-85156590D01*
X83913156Y-85090000D01*
X83894852Y-84867361D01*
X83840431Y-84650702D01*
X83751354Y-84445840D01*
X83630014Y-84258277D01*
X83479670Y-84093051D01*
X83475619Y-84089852D01*
X83475615Y-84089848D01*
X83308414Y-83957800D01*
X83308410Y-83957798D01*
X83304359Y-83954598D01*
X83297092Y-83950586D01*
X83244145Y-83921358D01*
X83108789Y-83846638D01*
X83103920Y-83844914D01*
X83103916Y-83844912D01*
X82903087Y-83773795D01*
X82903083Y-83773794D01*
X82898212Y-83772069D01*
X82893119Y-83771162D01*
X82893116Y-83771161D01*
X82683373Y-83733800D01*
X82683367Y-83733799D01*
X82678284Y-83732894D01*
X82604452Y-83731992D01*
X82460081Y-83730228D01*
X82460079Y-83730228D01*
X82454911Y-83730165D01*
X82234091Y-83763955D01*
X82021756Y-83833357D01*
X81823607Y-83936507D01*
X81819474Y-83939610D01*
X81819471Y-83939612D01*
X81670180Y-84051703D01*
X81644965Y-84070635D01*
X81641393Y-84074373D01*
X81533729Y-84187037D01*
X81490629Y-84232138D01*
X81383201Y-84389621D01*
X81328293Y-84434621D01*
X81257768Y-84442792D01*
X81194021Y-84411538D01*
X81173324Y-84387054D01*
X81092822Y-84262617D01*
X81092820Y-84262614D01*
X81090014Y-84258277D01*
X80939670Y-84093051D01*
X80935619Y-84089852D01*
X80935615Y-84089848D01*
X80768414Y-83957800D01*
X80768410Y-83957798D01*
X80764359Y-83954598D01*
X80757092Y-83950586D01*
X80704145Y-83921358D01*
X80568789Y-83846638D01*
X80563920Y-83844914D01*
X80563916Y-83844912D01*
X80363087Y-83773795D01*
X80363083Y-83773794D01*
X80358212Y-83772069D01*
X80353119Y-83771162D01*
X80353116Y-83771161D01*
X80143373Y-83733800D01*
X80143367Y-83733799D01*
X80138284Y-83732894D01*
X80064452Y-83731992D01*
X79920081Y-83730228D01*
X79920079Y-83730228D01*
X79914911Y-83730165D01*
X79694091Y-83763955D01*
X79481756Y-83833357D01*
X79283607Y-83936507D01*
X79279474Y-83939610D01*
X79279471Y-83939612D01*
X79130180Y-84051703D01*
X79104965Y-84070635D01*
X79048537Y-84129684D01*
X79024283Y-84155064D01*
X78962759Y-84190494D01*
X78891846Y-84187037D01*
X78834060Y-84145791D01*
X78815207Y-84112243D01*
X78773767Y-84001703D01*
X78770615Y-83993295D01*
X78683261Y-83876739D01*
X78566705Y-83789385D01*
X78430316Y-83738255D01*
X78368134Y-83731500D01*
X76571866Y-83731500D01*
X76509684Y-83738255D01*
X76373295Y-83789385D01*
X76256739Y-83876739D01*
X76169385Y-83993295D01*
X76118255Y-84129684D01*
X76111500Y-84191866D01*
X76111500Y-84330500D01*
X76091498Y-84398621D01*
X76037842Y-84445114D01*
X75985500Y-84456500D01*
X71761805Y-84456500D01*
X71693684Y-84436498D01*
X71656013Y-84398940D01*
X71567822Y-84262617D01*
X71567820Y-84262614D01*
X71565014Y-84258277D01*
X71561538Y-84254457D01*
X71561533Y-84254450D01*
X71417435Y-84096088D01*
X71386383Y-84032242D01*
X71394779Y-83961744D01*
X71439956Y-83906976D01*
X71466400Y-83893307D01*
X71573052Y-83853325D01*
X71588649Y-83844786D01*
X71690724Y-83768285D01*
X71703285Y-83755724D01*
X71779786Y-83653649D01*
X71788324Y-83638054D01*
X71833478Y-83517606D01*
X71837105Y-83502351D01*
X71842631Y-83451486D01*
X71843000Y-83444672D01*
X71843000Y-82822115D01*
X71838525Y-82806876D01*
X71837135Y-82805671D01*
X71829452Y-82804000D01*
X69145116Y-82804000D01*
X69129877Y-82808475D01*
X69128672Y-82809865D01*
X69127001Y-82817548D01*
X69127001Y-83444669D01*
X69127371Y-83451490D01*
X69132895Y-83502352D01*
X69136521Y-83517604D01*
X69181676Y-83638054D01*
X69190214Y-83653649D01*
X69266715Y-83755724D01*
X69279276Y-83768285D01*
X69381351Y-83844786D01*
X69396946Y-83853324D01*
X69505827Y-83894142D01*
X69562591Y-83936784D01*
X69587291Y-84003345D01*
X69572083Y-84072694D01*
X69552691Y-84099175D01*
X69468248Y-84187540D01*
X69425629Y-84232138D01*
X69299743Y-84416680D01*
X69205688Y-84619305D01*
X69145989Y-84834570D01*
X69122251Y-85056695D01*
X69122548Y-85061848D01*
X69122548Y-85061851D01*
X69128011Y-85156590D01*
X69135110Y-85279715D01*
X69136247Y-85284761D01*
X69136248Y-85284767D01*
X69156119Y-85372939D01*
X69184222Y-85497639D01*
X69268266Y-85704616D01*
X69287816Y-85736518D01*
X69382286Y-85890680D01*
X69384987Y-85895088D01*
X69531250Y-86063938D01*
X69703126Y-86206632D01*
X69732730Y-86223931D01*
X69776445Y-86249476D01*
X69825169Y-86301114D01*
X69838240Y-86370897D01*
X69811509Y-86436669D01*
X69771055Y-86470027D01*
X69758607Y-86476507D01*
X69754474Y-86479610D01*
X69754471Y-86479612D01*
X69630567Y-86572642D01*
X69579965Y-86610635D01*
X69576393Y-86614373D01*
X69468729Y-86727037D01*
X69425629Y-86772138D01*
X69422720Y-86776403D01*
X69422714Y-86776411D01*
X69413300Y-86790211D01*
X69299743Y-86956680D01*
X69205688Y-87159305D01*
X69145989Y-87374570D01*
X69122251Y-87596695D01*
X69122548Y-87601848D01*
X69122548Y-87601851D01*
X69128011Y-87696590D01*
X69135110Y-87819715D01*
X69136247Y-87824761D01*
X69136248Y-87824767D01*
X69144955Y-87863402D01*
X69184222Y-88037639D01*
X69268266Y-88244616D01*
X69270965Y-88249020D01*
X69382286Y-88430680D01*
X69384987Y-88435088D01*
X69531250Y-88603938D01*
X69703126Y-88746632D01*
X69750502Y-88774316D01*
X69776445Y-88789476D01*
X69825169Y-88841114D01*
X69838240Y-88910897D01*
X69811509Y-88976669D01*
X69771055Y-89010027D01*
X69758607Y-89016507D01*
X69754474Y-89019610D01*
X69754471Y-89019612D01*
X69584100Y-89147530D01*
X69579965Y-89150635D01*
X69576393Y-89154373D01*
X69468729Y-89267037D01*
X69425629Y-89312138D01*
X69422720Y-89316403D01*
X69422714Y-89316411D01*
X69413300Y-89330211D01*
X69299743Y-89496680D01*
X69261011Y-89580121D01*
X69224471Y-89658841D01*
X69205688Y-89699305D01*
X69145989Y-89914570D01*
X69122251Y-90136695D01*
X69122548Y-90141848D01*
X69122548Y-90141851D01*
X69131694Y-90300465D01*
X69135110Y-90359715D01*
X69136247Y-90364761D01*
X69136248Y-90364767D01*
X69144955Y-90403402D01*
X69184222Y-90577639D01*
X69268266Y-90784616D01*
X69303500Y-90842113D01*
X69382286Y-90970680D01*
X69384987Y-90975088D01*
X69531250Y-91143938D01*
X69703126Y-91286632D01*
X69770163Y-91325805D01*
X69776445Y-91329476D01*
X69825169Y-91381114D01*
X69838240Y-91450897D01*
X69811509Y-91516669D01*
X69771055Y-91550027D01*
X69758607Y-91556507D01*
X69754474Y-91559610D01*
X69754471Y-91559612D01*
X69584100Y-91687530D01*
X69579965Y-91690635D01*
X69576393Y-91694373D01*
X69468729Y-91807037D01*
X69425629Y-91852138D01*
X69422720Y-91856403D01*
X69422714Y-91856411D01*
X69413300Y-91870211D01*
X69299743Y-92036680D01*
X69261011Y-92120121D01*
X69224471Y-92198841D01*
X69205688Y-92239305D01*
X69145989Y-92454570D01*
X69122251Y-92676695D01*
X69122548Y-92681848D01*
X69122548Y-92681851D01*
X69131694Y-92840465D01*
X69135110Y-92899715D01*
X69136247Y-92904761D01*
X69136248Y-92904767D01*
X69144955Y-92943402D01*
X69184222Y-93117639D01*
X69268266Y-93324616D01*
X69303500Y-93382113D01*
X69382286Y-93510680D01*
X69384987Y-93515088D01*
X69531250Y-93683938D01*
X69703126Y-93826632D01*
X69770163Y-93865805D01*
X69776445Y-93869476D01*
X69825169Y-93921114D01*
X69838240Y-93990897D01*
X69811509Y-94056669D01*
X69771055Y-94090027D01*
X69758607Y-94096507D01*
X69754474Y-94099610D01*
X69754471Y-94099612D01*
X69584100Y-94227530D01*
X69579965Y-94230635D01*
X69576393Y-94234373D01*
X69468729Y-94347037D01*
X69425629Y-94392138D01*
X69422720Y-94396403D01*
X69422714Y-94396411D01*
X69413300Y-94410211D01*
X69299743Y-94576680D01*
X69205688Y-94779305D01*
X69145989Y-94994570D01*
X69122251Y-95216695D01*
X69122548Y-95221848D01*
X69122548Y-95221851D01*
X69128011Y-95316590D01*
X69135110Y-95439715D01*
X69136247Y-95444761D01*
X69136248Y-95444767D01*
X69144955Y-95483402D01*
X69184222Y-95657639D01*
X69231391Y-95773802D01*
X69264197Y-95854594D01*
X69268266Y-95864616D01*
X69303500Y-95922113D01*
X69382286Y-96050680D01*
X69384987Y-96055088D01*
X69531250Y-96223938D01*
X69703126Y-96366632D01*
X69770163Y-96405805D01*
X69776445Y-96409476D01*
X69825169Y-96461114D01*
X69838240Y-96530897D01*
X69811509Y-96596669D01*
X69771055Y-96630027D01*
X69758607Y-96636507D01*
X69754474Y-96639610D01*
X69754471Y-96639612D01*
X69584100Y-96767530D01*
X69579965Y-96770635D01*
X69576393Y-96774373D01*
X69468729Y-96887037D01*
X69425629Y-96932138D01*
X69422720Y-96936403D01*
X69422714Y-96936411D01*
X69413300Y-96950211D01*
X69299743Y-97116680D01*
X69285623Y-97147099D01*
X69214575Y-97300160D01*
X69205688Y-97319305D01*
X69145989Y-97534570D01*
X69122251Y-97756695D01*
X69122548Y-97761848D01*
X69122548Y-97761851D01*
X69128011Y-97856590D01*
X69135110Y-97979715D01*
X69136247Y-97984761D01*
X69136248Y-97984767D01*
X69153142Y-98059729D01*
X69184222Y-98197639D01*
X69268266Y-98404616D01*
X69270965Y-98409020D01*
X69382286Y-98590680D01*
X69384987Y-98595088D01*
X69531250Y-98763938D01*
X69703126Y-98906632D01*
X69770163Y-98945805D01*
X69776445Y-98949476D01*
X69825169Y-99001114D01*
X69838240Y-99070897D01*
X69811509Y-99136669D01*
X69771055Y-99170027D01*
X69758607Y-99176507D01*
X69754474Y-99179610D01*
X69754471Y-99179612D01*
X69584100Y-99307530D01*
X69579965Y-99310635D01*
X69576393Y-99314373D01*
X69468729Y-99427037D01*
X69425629Y-99472138D01*
X69422720Y-99476403D01*
X69422714Y-99476411D01*
X69413300Y-99490211D01*
X69299743Y-99656680D01*
X69205688Y-99859305D01*
X69145989Y-100074570D01*
X69122251Y-100296695D01*
X69122548Y-100301848D01*
X69122548Y-100301851D01*
X69134417Y-100507703D01*
X69135110Y-100519715D01*
X69136247Y-100524761D01*
X69136248Y-100524767D01*
X69144955Y-100563402D01*
X69184222Y-100737639D01*
X69268266Y-100944616D01*
X69317285Y-101024608D01*
X69382286Y-101130680D01*
X69384987Y-101135088D01*
X69531250Y-101303938D01*
X69703126Y-101446632D01*
X69753678Y-101476172D01*
X69776445Y-101489476D01*
X69825169Y-101541114D01*
X69838240Y-101610897D01*
X69811509Y-101676669D01*
X69771055Y-101710027D01*
X69758607Y-101716507D01*
X69754474Y-101719610D01*
X69754471Y-101719612D01*
X69584100Y-101847530D01*
X69579965Y-101850635D01*
X69576393Y-101854373D01*
X69468729Y-101967037D01*
X69425629Y-102012138D01*
X69299743Y-102196680D01*
X69205688Y-102399305D01*
X69145989Y-102614570D01*
X69122251Y-102836695D01*
X69122548Y-102841848D01*
X69122548Y-102841851D01*
X69128011Y-102936590D01*
X69135110Y-103059715D01*
X69136247Y-103064761D01*
X69136248Y-103064767D01*
X69156119Y-103152939D01*
X69184222Y-103277639D01*
X69235424Y-103403736D01*
X69261662Y-103468351D01*
X69268266Y-103484616D01*
X69285369Y-103512526D01*
X69382286Y-103670680D01*
X69384987Y-103675088D01*
X69531250Y-103843938D01*
X69703126Y-103986632D01*
X69773595Y-104027811D01*
X69776445Y-104029476D01*
X69825169Y-104081114D01*
X69838240Y-104150897D01*
X69811509Y-104216669D01*
X69771055Y-104250027D01*
X69758607Y-104256507D01*
X69754474Y-104259610D01*
X69754471Y-104259612D01*
X69584100Y-104387530D01*
X69579965Y-104390635D01*
X69576393Y-104394373D01*
X69468729Y-104507037D01*
X69425629Y-104552138D01*
X69299743Y-104736680D01*
X69284003Y-104770590D01*
X69211290Y-104927237D01*
X69205688Y-104939305D01*
X69145989Y-105154570D01*
X69122251Y-105376695D01*
X69122548Y-105381848D01*
X69122548Y-105381851D01*
X69128011Y-105476590D01*
X69135110Y-105599715D01*
X69136247Y-105604761D01*
X69136248Y-105604767D01*
X69156119Y-105692939D01*
X69184222Y-105817639D01*
X69268266Y-106024616D01*
X69270965Y-106029020D01*
X69382286Y-106210680D01*
X69384987Y-106215088D01*
X69531250Y-106383938D01*
X69703126Y-106526632D01*
X69773595Y-106567811D01*
X69776445Y-106569476D01*
X69825169Y-106621114D01*
X69838240Y-106690897D01*
X69811509Y-106756669D01*
X69771055Y-106790027D01*
X69758607Y-106796507D01*
X69754474Y-106799610D01*
X69754471Y-106799612D01*
X69584100Y-106927530D01*
X69579965Y-106930635D01*
X69576393Y-106934373D01*
X69468729Y-107047037D01*
X69425629Y-107092138D01*
X69299743Y-107276680D01*
X69205688Y-107479305D01*
X69145989Y-107694570D01*
X69122251Y-107916695D01*
X69122548Y-107921848D01*
X69122548Y-107921851D01*
X69127857Y-108013919D01*
X69135110Y-108139715D01*
X69136247Y-108144761D01*
X69136248Y-108144767D01*
X69156119Y-108232939D01*
X69184222Y-108357639D01*
X69268266Y-108564616D01*
X69270965Y-108569020D01*
X69382286Y-108750680D01*
X69384987Y-108755088D01*
X69531250Y-108923938D01*
X69703126Y-109066632D01*
X69773595Y-109107811D01*
X69776445Y-109109476D01*
X69825169Y-109161114D01*
X69838240Y-109230897D01*
X69811509Y-109296669D01*
X69771055Y-109330027D01*
X69758607Y-109336507D01*
X69754474Y-109339610D01*
X69754471Y-109339612D01*
X69730247Y-109357800D01*
X69579965Y-109470635D01*
X69425629Y-109632138D01*
X69422715Y-109636410D01*
X69422714Y-109636411D01*
X69410404Y-109654457D01*
X69299743Y-109816680D01*
X69205688Y-110019305D01*
X69145989Y-110234570D01*
X69122251Y-110456695D01*
X68453000Y-110456695D01*
X68453000Y-82277885D01*
X69127000Y-82277885D01*
X69131475Y-82293124D01*
X69132865Y-82294329D01*
X69140548Y-82296000D01*
X70212885Y-82296000D01*
X70228124Y-82291525D01*
X70229329Y-82290135D01*
X70231000Y-82282452D01*
X70231000Y-82277885D01*
X70739000Y-82277885D01*
X70743475Y-82293124D01*
X70744865Y-82294329D01*
X70752548Y-82296000D01*
X71824884Y-82296000D01*
X71840123Y-82291525D01*
X71841328Y-82290135D01*
X71842999Y-82282452D01*
X71842999Y-81655331D01*
X71842629Y-81648510D01*
X71837105Y-81597648D01*
X71833479Y-81582396D01*
X71788324Y-81461946D01*
X71779786Y-81446351D01*
X71703285Y-81344276D01*
X71690724Y-81331715D01*
X71588649Y-81255214D01*
X71573054Y-81246676D01*
X71452606Y-81201522D01*
X71437351Y-81197895D01*
X71386486Y-81192369D01*
X71379672Y-81192000D01*
X70757115Y-81192000D01*
X70741876Y-81196475D01*
X70740671Y-81197865D01*
X70739000Y-81205548D01*
X70739000Y-82277885D01*
X70231000Y-82277885D01*
X70231000Y-81210116D01*
X70226525Y-81194877D01*
X70225135Y-81193672D01*
X70217452Y-81192001D01*
X69590331Y-81192001D01*
X69583510Y-81192371D01*
X69532648Y-81197895D01*
X69517396Y-81201521D01*
X69396946Y-81246676D01*
X69381351Y-81255214D01*
X69279276Y-81331715D01*
X69266715Y-81344276D01*
X69190214Y-81446351D01*
X69181676Y-81461946D01*
X69136522Y-81582394D01*
X69132895Y-81597649D01*
X69127369Y-81648514D01*
X69127000Y-81655328D01*
X69127000Y-82277885D01*
X68453000Y-82277885D01*
X68453000Y-80644000D01*
X68473002Y-80575879D01*
X68526658Y-80529386D01*
X68579000Y-80518000D01*
X129277390Y-80518000D01*
X129345511Y-80538002D01*
G37*
G04 #@! TD.AperFunction*
M02*
