M48
; DRILL file {KiCad 6.0.1-79c1e3a40b~116~ubuntu21.04.1} date Tue 15 Feb 2022 05:06:41 PM
; FORMAT={-:-/ absolute / metric / decimal}
; #@! TF.CreationDate,2022-02-15T17:06:41-05:00
; #@! TF.GenerationSoftware,Kicad,Pcbnew,6.0.1-79c1e3a40b~116~ubuntu21.04.1
; #@! TF.FileFunction,Plated,1,2,PTH
FMAT,2
METRIC
; #@! TA.AperFunction,Plated,PTH,ViaDrill
T1C0.400
; #@! TA.AperFunction,Plated,PTH,ComponentDrill
T2C0.800
; #@! TA.AperFunction,Plated,PTH,ComponentDrill
T3C1.000
%
G90
G05
T1
X98.425Y-104.14
X100.33Y-98.425
X102.235Y-96.52
X120.65Y-104.14
X123.19Y-95.885
X123.19Y-98.425
T2
X97.155Y-85.09
X97.155Y-87.63
X97.155Y-90.17
X97.155Y-92.71
X97.155Y-95.25
X97.155Y-97.79
X97.155Y-100.33
X104.775Y-85.09
X104.775Y-87.63
X104.775Y-90.17
X104.775Y-92.71
X104.775Y-95.25
X104.775Y-97.79
X104.775Y-100.33
X119.38Y-85.09
X119.38Y-87.63
X119.38Y-90.17
X119.38Y-92.71
X119.38Y-95.25
X119.38Y-97.79
X119.38Y-100.33
X127.0Y-85.09
X127.0Y-87.63
X127.0Y-90.17
X127.0Y-92.71
X127.0Y-95.25
X127.0Y-97.79
X127.0Y-100.33
T3
X70.485Y-82.55
X70.485Y-85.09
X70.485Y-87.63
X70.485Y-90.17
X70.485Y-92.71
X70.485Y-95.25
X70.485Y-97.79
X70.485Y-100.33
X70.485Y-102.87
X70.485Y-105.41
X70.485Y-107.95
X70.485Y-110.49
X77.47Y-85.09
X77.47Y-87.63
X77.47Y-90.17
X77.47Y-92.71
X77.47Y-95.25
X77.47Y-97.79
X77.47Y-100.33
X77.47Y-102.87
X77.47Y-105.41
X77.47Y-107.95
X80.01Y-85.09
X80.01Y-87.63
X80.01Y-90.17
X80.01Y-92.71
X80.01Y-95.25
X80.01Y-97.79
X80.01Y-100.33
X80.01Y-102.87
X80.01Y-105.41
X80.01Y-107.95
X82.55Y-85.09
X82.55Y-87.63
X82.55Y-90.17
X82.55Y-92.71
X82.55Y-95.25
X82.55Y-97.79
X82.55Y-100.33
X82.55Y-102.87
X82.55Y-105.41
X82.55Y-107.95
X90.17Y-85.09
X90.17Y-87.63
X90.17Y-90.17
X90.17Y-92.71
X90.17Y-95.25
X90.17Y-97.79
X90.17Y-100.33
X90.17Y-102.87
X97.155Y-109.22
X99.695Y-109.22
X102.235Y-109.22
X104.775Y-109.22
X112.395Y-85.09
X112.395Y-87.63
X112.395Y-90.17
X112.395Y-92.71
X112.395Y-95.25
X112.395Y-97.79
X112.395Y-100.33
X112.395Y-102.87
X119.38Y-109.22
X121.92Y-109.22
X124.46Y-109.22
X127.0Y-109.22
T0
M30
