G04 #@! TF.GenerationSoftware,KiCad,Pcbnew,6.0.1-79c1e3a40b~116~ubuntu21.04.1*
G04 #@! TF.CreationDate,2022-02-15T17:04:31-05:00*
G04 #@! TF.ProjectId,display_module,64697370-6c61-4795-9f6d-6f64756c652e,rev?*
G04 #@! TF.SameCoordinates,Original*
G04 #@! TF.FileFunction,Legend,Top*
G04 #@! TF.FilePolarity,Positive*
%FSLAX46Y46*%
G04 Gerber Fmt 4.6, Leading zero omitted, Abs format (unit mm)*
G04 Created by KiCad (PCBNEW 6.0.1-79c1e3a40b~116~ubuntu21.04.1) date 2022-02-15 17:04:31*
%MOMM*%
%LPD*%
G01*
G04 APERTURE LIST*
%ADD10C,0.225000*%
%ADD11C,0.300000*%
%ADD12C,0.150000*%
%ADD13C,0.120000*%
%ADD14R,1.700000X1.700000*%
%ADD15O,1.700000X1.700000*%
%ADD16R,1.500000X1.500000*%
%ADD17C,1.500000*%
%ADD18R,1.600000X1.600000*%
%ADD19O,1.600000X1.600000*%
%ADD20C,1.600000*%
%ADD21C,2.000000*%
G04 APERTURE END LIST*
D10*
X102321428Y-124928571D02*
X102607142Y-124928571D01*
X102750000Y-125000000D01*
X102892857Y-125142857D01*
X102964285Y-125428571D01*
X102964285Y-125928571D01*
X102892857Y-126214285D01*
X102750000Y-126357142D01*
X102607142Y-126428571D01*
X102321428Y-126428571D01*
X102178571Y-126357142D01*
X102035714Y-126214285D01*
X101964285Y-125928571D01*
X101964285Y-125428571D01*
X102035714Y-125142857D01*
X102178571Y-125000000D01*
X102321428Y-124928571D01*
X104107142Y-125642857D02*
X103607142Y-125642857D01*
X103607142Y-126428571D02*
X103607142Y-124928571D01*
X104321428Y-124928571D01*
X105392857Y-125642857D02*
X104892857Y-125642857D01*
X104892857Y-126428571D02*
X104892857Y-124928571D01*
X105607142Y-124928571D01*
D11*
X117404761Y-127166666D02*
X116452380Y-127833333D01*
X117404761Y-128309523D02*
X115404761Y-128309523D01*
X115404761Y-127547619D01*
X115500000Y-127357142D01*
X115595238Y-127261904D01*
X115785714Y-127166666D01*
X116071428Y-127166666D01*
X116261904Y-127261904D01*
X116357142Y-127357142D01*
X116452380Y-127547619D01*
X116452380Y-128309523D01*
X117404761Y-126309523D02*
X115404761Y-126309523D01*
X115500000Y-124309523D02*
X115404761Y-124500000D01*
X115404761Y-124785714D01*
X115500000Y-125071428D01*
X115690476Y-125261904D01*
X115880952Y-125357142D01*
X116261904Y-125452380D01*
X116547619Y-125452380D01*
X116928571Y-125357142D01*
X117119047Y-125261904D01*
X117309523Y-125071428D01*
X117404761Y-124785714D01*
X117404761Y-124595238D01*
X117309523Y-124309523D01*
X117214285Y-124214285D01*
X116547619Y-124214285D01*
X116547619Y-124595238D01*
X117404761Y-123357142D02*
X115404761Y-123357142D01*
X116357142Y-123357142D02*
X116357142Y-122214285D01*
X117404761Y-122214285D02*
X115404761Y-122214285D01*
X115404761Y-121547619D02*
X115404761Y-120404761D01*
X117404761Y-120976190D02*
X115404761Y-120976190D01*
X96678571Y-118345238D02*
X96773809Y-118250000D01*
X96964285Y-118154761D01*
X97440476Y-118154761D01*
X97630952Y-118250000D01*
X97726190Y-118345238D01*
X97821428Y-118535714D01*
X97821428Y-118726190D01*
X97726190Y-119011904D01*
X96583333Y-120154761D01*
X97821428Y-120154761D01*
D12*
X92000000Y-130952380D02*
X91666666Y-130476190D01*
X91428571Y-130952380D02*
X91428571Y-129952380D01*
X91809523Y-129952380D01*
X91904761Y-130000000D01*
X91952380Y-130047619D01*
X92000000Y-130142857D01*
X92000000Y-130285714D01*
X91952380Y-130380952D01*
X91904761Y-130428571D01*
X91809523Y-130476190D01*
X91428571Y-130476190D01*
X92428571Y-130428571D02*
X92761904Y-130428571D01*
X92904761Y-130952380D02*
X92428571Y-130952380D01*
X92428571Y-129952380D01*
X92904761Y-129952380D01*
X93285714Y-130904761D02*
X93428571Y-130952380D01*
X93666666Y-130952380D01*
X93761904Y-130904761D01*
X93809523Y-130857142D01*
X93857142Y-130761904D01*
X93857142Y-130666666D01*
X93809523Y-130571428D01*
X93761904Y-130523809D01*
X93666666Y-130476190D01*
X93476190Y-130428571D01*
X93380952Y-130380952D01*
X93333333Y-130333333D01*
X93285714Y-130238095D01*
X93285714Y-130142857D01*
X93333333Y-130047619D01*
X93380952Y-130000000D01*
X93476190Y-129952380D01*
X93714285Y-129952380D01*
X93857142Y-130000000D01*
X94285714Y-130428571D02*
X94619047Y-130428571D01*
X94761904Y-130952380D02*
X94285714Y-130952380D01*
X94285714Y-129952380D01*
X94761904Y-129952380D01*
X95047619Y-129952380D02*
X95619047Y-129952380D01*
X95333333Y-130952380D02*
X95333333Y-129952380D01*
X97190476Y-130952380D02*
X96714285Y-130952380D01*
X96714285Y-129952380D01*
X97714285Y-129952380D02*
X97904761Y-129952380D01*
X98000000Y-130000000D01*
X98095238Y-130095238D01*
X98142857Y-130285714D01*
X98142857Y-130619047D01*
X98095238Y-130809523D01*
X98000000Y-130904761D01*
X97904761Y-130952380D01*
X97714285Y-130952380D01*
X97619047Y-130904761D01*
X97523809Y-130809523D01*
X97476190Y-130619047D01*
X97476190Y-130285714D01*
X97523809Y-130095238D01*
X97619047Y-130000000D01*
X97714285Y-129952380D01*
X99095238Y-130000000D02*
X99000000Y-129952380D01*
X98857142Y-129952380D01*
X98714285Y-130000000D01*
X98619047Y-130095238D01*
X98571428Y-130190476D01*
X98523809Y-130380952D01*
X98523809Y-130523809D01*
X98571428Y-130714285D01*
X98619047Y-130809523D01*
X98714285Y-130904761D01*
X98857142Y-130952380D01*
X98952380Y-130952380D01*
X99095238Y-130904761D01*
X99142857Y-130857142D01*
X99142857Y-130523809D01*
X98952380Y-130523809D01*
X99571428Y-130952380D02*
X99571428Y-129952380D01*
X100619047Y-130857142D02*
X100571428Y-130904761D01*
X100428571Y-130952380D01*
X100333333Y-130952380D01*
X100190476Y-130904761D01*
X100095238Y-130809523D01*
X100047619Y-130714285D01*
X100000000Y-130523809D01*
X100000000Y-130380952D01*
X100047619Y-130190476D01*
X100095238Y-130095238D01*
X100190476Y-130000000D01*
X100333333Y-129952380D01*
X100428571Y-129952380D01*
X100571428Y-130000000D01*
X100619047Y-130047619D01*
D11*
X95130952Y-118821428D02*
X95130952Y-120154761D01*
X94654761Y-118059523D02*
X94178571Y-119488095D01*
X95416666Y-119488095D01*
D10*
X102571428Y-122178571D02*
X102857142Y-122178571D01*
X103000000Y-122250000D01*
X103142857Y-122392857D01*
X103214285Y-122678571D01*
X103214285Y-123178571D01*
X103142857Y-123464285D01*
X103000000Y-123607142D01*
X102857142Y-123678571D01*
X102571428Y-123678571D01*
X102428571Y-123607142D01*
X102285714Y-123464285D01*
X102214285Y-123178571D01*
X102214285Y-122678571D01*
X102285714Y-122392857D01*
X102428571Y-122250000D01*
X102571428Y-122178571D01*
X103857142Y-123678571D02*
X103857142Y-122178571D01*
X104714285Y-123678571D01*
X104714285Y-122178571D01*
D11*
X100321428Y-120154761D02*
X99178571Y-120154761D01*
X99750000Y-120154761D02*
X99750000Y-118154761D01*
X99559523Y-118440476D01*
X99369047Y-118630952D01*
X99178571Y-118726190D01*
X76904761Y-126404761D02*
X76904761Y-127357142D01*
X74904761Y-127357142D01*
X75857142Y-125738095D02*
X75857142Y-125071428D01*
X76904761Y-124785714D02*
X76904761Y-125738095D01*
X74904761Y-125738095D01*
X74904761Y-124785714D01*
X75857142Y-123261904D02*
X75857142Y-123928571D01*
X76904761Y-123928571D02*
X74904761Y-123928571D01*
X74904761Y-122976190D01*
X74904761Y-122500000D02*
X74904761Y-121357142D01*
X76904761Y-121928571D02*
X74904761Y-121928571D01*
X92059523Y-119011904D02*
X91869047Y-118916666D01*
X91773809Y-118821428D01*
X91678571Y-118630952D01*
X91678571Y-118535714D01*
X91773809Y-118345238D01*
X91869047Y-118250000D01*
X92059523Y-118154761D01*
X92440476Y-118154761D01*
X92630952Y-118250000D01*
X92726190Y-118345238D01*
X92821428Y-118535714D01*
X92821428Y-118630952D01*
X92726190Y-118821428D01*
X92630952Y-118916666D01*
X92440476Y-119011904D01*
X92059523Y-119011904D01*
X91869047Y-119107142D01*
X91773809Y-119202380D01*
X91678571Y-119392857D01*
X91678571Y-119773809D01*
X91773809Y-119964285D01*
X91869047Y-120059523D01*
X92059523Y-120154761D01*
X92440476Y-120154761D01*
X92630952Y-120059523D01*
X92726190Y-119964285D01*
X92821428Y-119773809D01*
X92821428Y-119392857D01*
X92726190Y-119202380D01*
X92630952Y-119107142D01*
X92440476Y-119011904D01*
X89809523Y-130023809D02*
X89904761Y-129738095D01*
X89904761Y-129261904D01*
X89809523Y-129071428D01*
X89714285Y-128976190D01*
X89523809Y-128880952D01*
X89333333Y-128880952D01*
X89142857Y-128976190D01*
X89047619Y-129071428D01*
X88952380Y-129261904D01*
X88857142Y-129642857D01*
X88761904Y-129833333D01*
X88666666Y-129928571D01*
X88476190Y-130023809D01*
X88285714Y-130023809D01*
X88095238Y-129928571D01*
X88000000Y-129833333D01*
X87904761Y-129642857D01*
X87904761Y-129166666D01*
X88000000Y-128880952D01*
X88857142Y-128023809D02*
X88857142Y-127357142D01*
X89904761Y-127071428D02*
X89904761Y-128023809D01*
X87904761Y-128023809D01*
X87904761Y-127071428D01*
X87904761Y-126500000D02*
X87904761Y-125357142D01*
X89904761Y-125928571D02*
X87904761Y-125928571D01*
X87904761Y-123452380D02*
X89904761Y-122785714D01*
X87904761Y-122119047D01*
X89333333Y-121547619D02*
X89333333Y-120595238D01*
X89904761Y-121738095D02*
X87904761Y-121071428D01*
X89904761Y-120404761D01*
X89904761Y-118785714D02*
X89904761Y-119738095D01*
X87904761Y-119738095D01*
D10*
X92892857Y-100328214D02*
X92821428Y-100399642D01*
X92607142Y-100471071D01*
X92464285Y-100471071D01*
X92250000Y-100399642D01*
X92107142Y-100256785D01*
X92035714Y-100113928D01*
X91964285Y-99828214D01*
X91964285Y-99613928D01*
X92035714Y-99328214D01*
X92107142Y-99185357D01*
X92250000Y-99042500D01*
X92464285Y-98971071D01*
X92607142Y-98971071D01*
X92821428Y-99042500D01*
X92892857Y-99113928D01*
X93750000Y-100471071D02*
X93607142Y-100399642D01*
X93535714Y-100328214D01*
X93464285Y-100185357D01*
X93464285Y-99756785D01*
X93535714Y-99613928D01*
X93607142Y-99542500D01*
X93750000Y-99471071D01*
X93964285Y-99471071D01*
X94107142Y-99542500D01*
X94178571Y-99613928D01*
X94250000Y-99756785D01*
X94250000Y-100185357D01*
X94178571Y-100328214D01*
X94107142Y-100399642D01*
X93964285Y-100471071D01*
X93750000Y-100471071D01*
X95535714Y-99471071D02*
X95535714Y-100471071D01*
X94892857Y-99471071D02*
X94892857Y-100256785D01*
X94964285Y-100399642D01*
X95107142Y-100471071D01*
X95321428Y-100471071D01*
X95464285Y-100399642D01*
X95535714Y-100328214D01*
X96250000Y-99471071D02*
X96250000Y-100471071D01*
X96250000Y-99613928D02*
X96321428Y-99542500D01*
X96464285Y-99471071D01*
X96678571Y-99471071D01*
X96821428Y-99542500D01*
X96892857Y-99685357D01*
X96892857Y-100471071D01*
X97392857Y-99471071D02*
X97964285Y-99471071D01*
X97607142Y-98971071D02*
X97607142Y-100256785D01*
X97678571Y-100399642D01*
X97821428Y-100471071D01*
X97964285Y-100471071D01*
X99035714Y-100399642D02*
X98892857Y-100471071D01*
X98607142Y-100471071D01*
X98464285Y-100399642D01*
X98392857Y-100256785D01*
X98392857Y-99685357D01*
X98464285Y-99542500D01*
X98607142Y-99471071D01*
X98892857Y-99471071D01*
X99035714Y-99542500D01*
X99107142Y-99685357D01*
X99107142Y-99828214D01*
X98392857Y-99971071D01*
X99750000Y-100471071D02*
X99750000Y-99471071D01*
X99750000Y-99756785D02*
X99821428Y-99613928D01*
X99892857Y-99542500D01*
X100035714Y-99471071D01*
X100178571Y-99471071D01*
X90821428Y-102314642D02*
X91964285Y-102314642D01*
X91392857Y-102886071D02*
X91392857Y-101743214D01*
X93821428Y-102886071D02*
X93821428Y-101386071D01*
X94178571Y-101386071D01*
X94392857Y-101457500D01*
X94535714Y-101600357D01*
X94607142Y-101743214D01*
X94678571Y-102028928D01*
X94678571Y-102243214D01*
X94607142Y-102528928D01*
X94535714Y-102671785D01*
X94392857Y-102814642D01*
X94178571Y-102886071D01*
X93821428Y-102886071D01*
X95321428Y-102886071D02*
X95321428Y-101886071D01*
X95321428Y-101386071D02*
X95250000Y-101457500D01*
X95321428Y-101528928D01*
X95392857Y-101457500D01*
X95321428Y-101386071D01*
X95321428Y-101528928D01*
X95964285Y-102814642D02*
X96107142Y-102886071D01*
X96392857Y-102886071D01*
X96535714Y-102814642D01*
X96607142Y-102671785D01*
X96607142Y-102600357D01*
X96535714Y-102457500D01*
X96392857Y-102386071D01*
X96178571Y-102386071D01*
X96035714Y-102314642D01*
X95964285Y-102171785D01*
X95964285Y-102100357D01*
X96035714Y-101957500D01*
X96178571Y-101886071D01*
X96392857Y-101886071D01*
X96535714Y-101957500D01*
X97250000Y-101886071D02*
X97250000Y-103386071D01*
X97250000Y-101957500D02*
X97392857Y-101886071D01*
X97678571Y-101886071D01*
X97821428Y-101957500D01*
X97892857Y-102028928D01*
X97964285Y-102171785D01*
X97964285Y-102600357D01*
X97892857Y-102743214D01*
X97821428Y-102814642D01*
X97678571Y-102886071D01*
X97392857Y-102886071D01*
X97250000Y-102814642D01*
X98821428Y-102886071D02*
X98678571Y-102814642D01*
X98607142Y-102671785D01*
X98607142Y-101386071D01*
X100035714Y-102886071D02*
X100035714Y-102100357D01*
X99964285Y-101957500D01*
X99821428Y-101886071D01*
X99535714Y-101886071D01*
X99392857Y-101957500D01*
X100035714Y-102814642D02*
X99892857Y-102886071D01*
X99535714Y-102886071D01*
X99392857Y-102814642D01*
X99321428Y-102671785D01*
X99321428Y-102528928D01*
X99392857Y-102386071D01*
X99535714Y-102314642D01*
X99892857Y-102314642D01*
X100035714Y-102243214D01*
X100607142Y-101886071D02*
X100964285Y-102886071D01*
X101321428Y-101886071D02*
X100964285Y-102886071D01*
X100821428Y-103243214D01*
X100750000Y-103314642D01*
X100607142Y-103386071D01*
D12*
X123551666Y-54142380D02*
X123551666Y-54856666D01*
X123504047Y-54999523D01*
X123408809Y-55094761D01*
X123265952Y-55142380D01*
X123170714Y-55142380D01*
X123980238Y-54237619D02*
X124027857Y-54190000D01*
X124123095Y-54142380D01*
X124361190Y-54142380D01*
X124456428Y-54190000D01*
X124504047Y-54237619D01*
X124551666Y-54332857D01*
X124551666Y-54428095D01*
X124504047Y-54570952D01*
X123932619Y-55142380D01*
X124551666Y-55142380D01*
X67786666Y-53642380D02*
X67786666Y-54356666D01*
X67739047Y-54499523D01*
X67643809Y-54594761D01*
X67500952Y-54642380D01*
X67405714Y-54642380D01*
X68167619Y-53642380D02*
X68786666Y-53642380D01*
X68453333Y-54023333D01*
X68596190Y-54023333D01*
X68691428Y-54070952D01*
X68739047Y-54118571D01*
X68786666Y-54213809D01*
X68786666Y-54451904D01*
X68739047Y-54547142D01*
X68691428Y-54594761D01*
X68596190Y-54642380D01*
X68310476Y-54642380D01*
X68215238Y-54594761D01*
X68167619Y-54547142D01*
X123551666Y-104142380D02*
X123551666Y-104856666D01*
X123504047Y-104999523D01*
X123408809Y-105094761D01*
X123265952Y-105142380D01*
X123170714Y-105142380D01*
X124456428Y-104475714D02*
X124456428Y-105142380D01*
X124218333Y-104094761D02*
X123980238Y-104809047D01*
X124599285Y-104809047D01*
X111720380Y-137468333D02*
X112434666Y-137468333D01*
X112577523Y-137515952D01*
X112672761Y-137611190D01*
X112720380Y-137754047D01*
X112720380Y-137849285D01*
X111720380Y-136515952D02*
X111720380Y-136992142D01*
X112196571Y-137039761D01*
X112148952Y-136992142D01*
X112101333Y-136896904D01*
X112101333Y-136658809D01*
X112148952Y-136563571D01*
X112196571Y-136515952D01*
X112291809Y-136468333D01*
X112529904Y-136468333D01*
X112625142Y-136515952D01*
X112672761Y-136563571D01*
X112720380Y-136658809D01*
X112720380Y-136896904D01*
X112672761Y-136992142D01*
X112625142Y-137039761D01*
X103538095Y-45152380D02*
X103538095Y-45961904D01*
X103585714Y-46057142D01*
X103633333Y-46104761D01*
X103728571Y-46152380D01*
X103919047Y-46152380D01*
X104014285Y-46104761D01*
X104061904Y-46057142D01*
X104109523Y-45961904D01*
X104109523Y-45152380D01*
X105014285Y-45152380D02*
X104823809Y-45152380D01*
X104728571Y-45200000D01*
X104680952Y-45247619D01*
X104585714Y-45390476D01*
X104538095Y-45580952D01*
X104538095Y-45961904D01*
X104585714Y-46057142D01*
X104633333Y-46104761D01*
X104728571Y-46152380D01*
X104919047Y-46152380D01*
X105014285Y-46104761D01*
X105061904Y-46057142D01*
X105109523Y-45961904D01*
X105109523Y-45723809D01*
X105061904Y-45628571D01*
X105014285Y-45580952D01*
X104919047Y-45533333D01*
X104728571Y-45533333D01*
X104633333Y-45580952D01*
X104585714Y-45628571D01*
X104538095Y-45723809D01*
X106548095Y-72122380D02*
X106548095Y-72931904D01*
X106595714Y-73027142D01*
X106643333Y-73074761D01*
X106738571Y-73122380D01*
X106929047Y-73122380D01*
X107024285Y-73074761D01*
X107071904Y-73027142D01*
X107119523Y-72931904D01*
X107119523Y-72122380D01*
X108024285Y-72455714D02*
X108024285Y-73122380D01*
X107786190Y-72074761D02*
X107548095Y-72789047D01*
X108167142Y-72789047D01*
X106548095Y-95622380D02*
X106548095Y-96431904D01*
X106595714Y-96527142D01*
X106643333Y-96574761D01*
X106738571Y-96622380D01*
X106929047Y-96622380D01*
X107024285Y-96574761D01*
X107071904Y-96527142D01*
X107119523Y-96431904D01*
X107119523Y-95622380D01*
X108071904Y-95622380D02*
X107595714Y-95622380D01*
X107548095Y-96098571D01*
X107595714Y-96050952D01*
X107690952Y-96003333D01*
X107929047Y-96003333D01*
X108024285Y-96050952D01*
X108071904Y-96098571D01*
X108119523Y-96193809D01*
X108119523Y-96431904D01*
X108071904Y-96527142D01*
X108024285Y-96574761D01*
X107929047Y-96622380D01*
X107690952Y-96622380D01*
X107595714Y-96574761D01*
X107548095Y-96527142D01*
X97452380Y-53246666D02*
X96976190Y-53580000D01*
X97452380Y-53818095D02*
X96452380Y-53818095D01*
X96452380Y-53437142D01*
X96500000Y-53341904D01*
X96547619Y-53294285D01*
X96642857Y-53246666D01*
X96785714Y-53246666D01*
X96880952Y-53294285D01*
X96928571Y-53341904D01*
X96976190Y-53437142D01*
X96976190Y-53818095D01*
X97452380Y-52770476D02*
X97452380Y-52580000D01*
X97404761Y-52484761D01*
X97357142Y-52437142D01*
X97214285Y-52341904D01*
X97023809Y-52294285D01*
X96642857Y-52294285D01*
X96547619Y-52341904D01*
X96500000Y-52389523D01*
X96452380Y-52484761D01*
X96452380Y-52675238D01*
X96500000Y-52770476D01*
X96547619Y-52818095D01*
X96642857Y-52865714D01*
X96880952Y-52865714D01*
X96976190Y-52818095D01*
X97023809Y-52770476D01*
X97071428Y-52675238D01*
X97071428Y-52484761D01*
X97023809Y-52389523D01*
X96976190Y-52341904D01*
X96880952Y-52294285D01*
X117952380Y-53722857D02*
X117476190Y-54056190D01*
X117952380Y-54294285D02*
X116952380Y-54294285D01*
X116952380Y-53913333D01*
X117000000Y-53818095D01*
X117047619Y-53770476D01*
X117142857Y-53722857D01*
X117285714Y-53722857D01*
X117380952Y-53770476D01*
X117428571Y-53818095D01*
X117476190Y-53913333D01*
X117476190Y-54294285D01*
X117952380Y-52770476D02*
X117952380Y-53341904D01*
X117952380Y-53056190D02*
X116952380Y-53056190D01*
X117095238Y-53151428D01*
X117190476Y-53246666D01*
X117238095Y-53341904D01*
X116952380Y-52151428D02*
X116952380Y-52056190D01*
X117000000Y-51960952D01*
X117047619Y-51913333D01*
X117142857Y-51865714D01*
X117333333Y-51818095D01*
X117571428Y-51818095D01*
X117761904Y-51865714D01*
X117857142Y-51913333D01*
X117904761Y-51960952D01*
X117952380Y-52056190D01*
X117952380Y-52151428D01*
X117904761Y-52246666D01*
X117857142Y-52294285D01*
X117761904Y-52341904D01*
X117571428Y-52389523D01*
X117333333Y-52389523D01*
X117142857Y-52341904D01*
X117047619Y-52294285D01*
X117000000Y-52246666D01*
X116952380Y-52151428D01*
X117952380Y-66222857D02*
X117476190Y-66556190D01*
X117952380Y-66794285D02*
X116952380Y-66794285D01*
X116952380Y-66413333D01*
X117000000Y-66318095D01*
X117047619Y-66270476D01*
X117142857Y-66222857D01*
X117285714Y-66222857D01*
X117380952Y-66270476D01*
X117428571Y-66318095D01*
X117476190Y-66413333D01*
X117476190Y-66794285D01*
X117952380Y-65270476D02*
X117952380Y-65841904D01*
X117952380Y-65556190D02*
X116952380Y-65556190D01*
X117095238Y-65651428D01*
X117190476Y-65746666D01*
X117238095Y-65841904D01*
X117952380Y-64318095D02*
X117952380Y-64889523D01*
X117952380Y-64603809D02*
X116952380Y-64603809D01*
X117095238Y-64699047D01*
X117190476Y-64794285D01*
X117238095Y-64889523D01*
X117952380Y-91222857D02*
X117476190Y-91556190D01*
X117952380Y-91794285D02*
X116952380Y-91794285D01*
X116952380Y-91413333D01*
X117000000Y-91318095D01*
X117047619Y-91270476D01*
X117142857Y-91222857D01*
X117285714Y-91222857D01*
X117380952Y-91270476D01*
X117428571Y-91318095D01*
X117476190Y-91413333D01*
X117476190Y-91794285D01*
X117952380Y-90270476D02*
X117952380Y-90841904D01*
X117952380Y-90556190D02*
X116952380Y-90556190D01*
X117095238Y-90651428D01*
X117190476Y-90746666D01*
X117238095Y-90841904D01*
X117047619Y-89889523D02*
X117000000Y-89841904D01*
X116952380Y-89746666D01*
X116952380Y-89508571D01*
X117000000Y-89413333D01*
X117047619Y-89365714D01*
X117142857Y-89318095D01*
X117238095Y-89318095D01*
X117380952Y-89365714D01*
X117952380Y-89937142D01*
X117952380Y-89318095D01*
X97452380Y-91222857D02*
X96976190Y-91556190D01*
X97452380Y-91794285D02*
X96452380Y-91794285D01*
X96452380Y-91413333D01*
X96500000Y-91318095D01*
X96547619Y-91270476D01*
X96642857Y-91222857D01*
X96785714Y-91222857D01*
X96880952Y-91270476D01*
X96928571Y-91318095D01*
X96976190Y-91413333D01*
X96976190Y-91794285D01*
X97452380Y-90270476D02*
X97452380Y-90841904D01*
X97452380Y-90556190D02*
X96452380Y-90556190D01*
X96595238Y-90651428D01*
X96690476Y-90746666D01*
X96738095Y-90841904D01*
X96452380Y-89937142D02*
X96452380Y-89318095D01*
X96833333Y-89651428D01*
X96833333Y-89508571D01*
X96880952Y-89413333D01*
X96928571Y-89365714D01*
X97023809Y-89318095D01*
X97261904Y-89318095D01*
X97357142Y-89365714D01*
X97404761Y-89413333D01*
X97452380Y-89508571D01*
X97452380Y-89794285D01*
X97404761Y-89889523D01*
X97357142Y-89937142D01*
X97452380Y-66222857D02*
X96976190Y-66556190D01*
X97452380Y-66794285D02*
X96452380Y-66794285D01*
X96452380Y-66413333D01*
X96500000Y-66318095D01*
X96547619Y-66270476D01*
X96642857Y-66222857D01*
X96785714Y-66222857D01*
X96880952Y-66270476D01*
X96928571Y-66318095D01*
X96976190Y-66413333D01*
X96976190Y-66794285D01*
X97452380Y-65270476D02*
X97452380Y-65841904D01*
X97452380Y-65556190D02*
X96452380Y-65556190D01*
X96595238Y-65651428D01*
X96690476Y-65746666D01*
X96738095Y-65841904D01*
X96452380Y-64365714D02*
X96452380Y-64841904D01*
X96928571Y-64889523D01*
X96880952Y-64841904D01*
X96833333Y-64746666D01*
X96833333Y-64508571D01*
X96880952Y-64413333D01*
X96928571Y-64365714D01*
X97023809Y-64318095D01*
X97261904Y-64318095D01*
X97357142Y-64365714D01*
X97404761Y-64413333D01*
X97452380Y-64508571D01*
X97452380Y-64746666D01*
X97404761Y-64841904D01*
X97357142Y-64889523D01*
X74952380Y-53246666D02*
X74476190Y-53580000D01*
X74952380Y-53818095D02*
X73952380Y-53818095D01*
X73952380Y-53437142D01*
X74000000Y-53341904D01*
X74047619Y-53294285D01*
X74142857Y-53246666D01*
X74285714Y-53246666D01*
X74380952Y-53294285D01*
X74428571Y-53341904D01*
X74476190Y-53437142D01*
X74476190Y-53818095D01*
X74952380Y-52294285D02*
X74952380Y-52865714D01*
X74952380Y-52580000D02*
X73952380Y-52580000D01*
X74095238Y-52675238D01*
X74190476Y-52770476D01*
X74238095Y-52865714D01*
X95452380Y-53246666D02*
X94976190Y-53580000D01*
X95452380Y-53818095D02*
X94452380Y-53818095D01*
X94452380Y-53437142D01*
X94500000Y-53341904D01*
X94547619Y-53294285D01*
X94642857Y-53246666D01*
X94785714Y-53246666D01*
X94880952Y-53294285D01*
X94928571Y-53341904D01*
X94976190Y-53437142D01*
X94976190Y-53818095D01*
X94547619Y-52865714D02*
X94500000Y-52818095D01*
X94452380Y-52722857D01*
X94452380Y-52484761D01*
X94500000Y-52389523D01*
X94547619Y-52341904D01*
X94642857Y-52294285D01*
X94738095Y-52294285D01*
X94880952Y-52341904D01*
X95452380Y-52913333D01*
X95452380Y-52294285D01*
X95452380Y-65746666D02*
X94976190Y-66080000D01*
X95452380Y-66318095D02*
X94452380Y-66318095D01*
X94452380Y-65937142D01*
X94500000Y-65841904D01*
X94547619Y-65794285D01*
X94642857Y-65746666D01*
X94785714Y-65746666D01*
X94880952Y-65794285D01*
X94928571Y-65841904D01*
X94976190Y-65937142D01*
X94976190Y-66318095D01*
X94452380Y-65413333D02*
X94452380Y-64794285D01*
X94833333Y-65127619D01*
X94833333Y-64984761D01*
X94880952Y-64889523D01*
X94928571Y-64841904D01*
X95023809Y-64794285D01*
X95261904Y-64794285D01*
X95357142Y-64841904D01*
X95404761Y-64889523D01*
X95452380Y-64984761D01*
X95452380Y-65270476D01*
X95404761Y-65365714D01*
X95357142Y-65413333D01*
X95452380Y-90746666D02*
X94976190Y-91080000D01*
X95452380Y-91318095D02*
X94452380Y-91318095D01*
X94452380Y-90937142D01*
X94500000Y-90841904D01*
X94547619Y-90794285D01*
X94642857Y-90746666D01*
X94785714Y-90746666D01*
X94880952Y-90794285D01*
X94928571Y-90841904D01*
X94976190Y-90937142D01*
X94976190Y-91318095D01*
X94785714Y-89889523D02*
X95452380Y-89889523D01*
X94404761Y-90127619D02*
X95119047Y-90365714D01*
X95119047Y-89746666D01*
X74952380Y-90746666D02*
X74476190Y-91080000D01*
X74952380Y-91318095D02*
X73952380Y-91318095D01*
X73952380Y-90937142D01*
X74000000Y-90841904D01*
X74047619Y-90794285D01*
X74142857Y-90746666D01*
X74285714Y-90746666D01*
X74380952Y-90794285D01*
X74428571Y-90841904D01*
X74476190Y-90937142D01*
X74476190Y-91318095D01*
X73952380Y-89841904D02*
X73952380Y-90318095D01*
X74428571Y-90365714D01*
X74380952Y-90318095D01*
X74333333Y-90222857D01*
X74333333Y-89984761D01*
X74380952Y-89889523D01*
X74428571Y-89841904D01*
X74523809Y-89794285D01*
X74761904Y-89794285D01*
X74857142Y-89841904D01*
X74904761Y-89889523D01*
X74952380Y-89984761D01*
X74952380Y-90222857D01*
X74904761Y-90318095D01*
X74857142Y-90365714D01*
X74952380Y-78246666D02*
X74476190Y-78580000D01*
X74952380Y-78818095D02*
X73952380Y-78818095D01*
X73952380Y-78437142D01*
X74000000Y-78341904D01*
X74047619Y-78294285D01*
X74142857Y-78246666D01*
X74285714Y-78246666D01*
X74380952Y-78294285D01*
X74428571Y-78341904D01*
X74476190Y-78437142D01*
X74476190Y-78818095D01*
X73952380Y-77913333D02*
X73952380Y-77246666D01*
X74952380Y-77675238D01*
X74952380Y-65746666D02*
X74476190Y-66080000D01*
X74952380Y-66318095D02*
X73952380Y-66318095D01*
X73952380Y-65937142D01*
X74000000Y-65841904D01*
X74047619Y-65794285D01*
X74142857Y-65746666D01*
X74285714Y-65746666D01*
X74380952Y-65794285D01*
X74428571Y-65841904D01*
X74476190Y-65937142D01*
X74476190Y-66318095D01*
X74380952Y-65175238D02*
X74333333Y-65270476D01*
X74285714Y-65318095D01*
X74190476Y-65365714D01*
X74142857Y-65365714D01*
X74047619Y-65318095D01*
X74000000Y-65270476D01*
X73952380Y-65175238D01*
X73952380Y-64984761D01*
X74000000Y-64889523D01*
X74047619Y-64841904D01*
X74142857Y-64794285D01*
X74190476Y-64794285D01*
X74285714Y-64841904D01*
X74333333Y-64889523D01*
X74380952Y-64984761D01*
X74380952Y-65175238D01*
X74428571Y-65270476D01*
X74476190Y-65318095D01*
X74571428Y-65365714D01*
X74761904Y-65365714D01*
X74857142Y-65318095D01*
X74904761Y-65270476D01*
X74952380Y-65175238D01*
X74952380Y-64984761D01*
X74904761Y-64889523D01*
X74857142Y-64841904D01*
X74761904Y-64794285D01*
X74571428Y-64794285D01*
X74476190Y-64841904D01*
X74428571Y-64889523D01*
X74380952Y-64984761D01*
X80916666Y-129404761D02*
X81059523Y-129452380D01*
X81297619Y-129452380D01*
X81392857Y-129404761D01*
X81440476Y-129357142D01*
X81488095Y-129261904D01*
X81488095Y-129166666D01*
X81440476Y-129071428D01*
X81392857Y-129023809D01*
X81297619Y-128976190D01*
X81107142Y-128928571D01*
X81011904Y-128880952D01*
X80964285Y-128833333D01*
X80916666Y-128738095D01*
X80916666Y-128642857D01*
X80964285Y-128547619D01*
X81011904Y-128500000D01*
X81107142Y-128452380D01*
X81345238Y-128452380D01*
X81488095Y-128500000D01*
X81821428Y-128452380D02*
X82059523Y-129452380D01*
X82250000Y-128738095D01*
X82440476Y-129452380D01*
X82678571Y-128452380D01*
X83583333Y-129452380D02*
X83011904Y-129452380D01*
X83297619Y-129452380D02*
X83297619Y-128452380D01*
X83202380Y-128595238D01*
X83107142Y-128690476D01*
X83011904Y-128738095D01*
X108416666Y-129404761D02*
X108559523Y-129452380D01*
X108797619Y-129452380D01*
X108892857Y-129404761D01*
X108940476Y-129357142D01*
X108988095Y-129261904D01*
X108988095Y-129166666D01*
X108940476Y-129071428D01*
X108892857Y-129023809D01*
X108797619Y-128976190D01*
X108607142Y-128928571D01*
X108511904Y-128880952D01*
X108464285Y-128833333D01*
X108416666Y-128738095D01*
X108416666Y-128642857D01*
X108464285Y-128547619D01*
X108511904Y-128500000D01*
X108607142Y-128452380D01*
X108845238Y-128452380D01*
X108988095Y-128500000D01*
X109321428Y-128452380D02*
X109559523Y-129452380D01*
X109750000Y-128738095D01*
X109940476Y-129452380D01*
X110178571Y-128452380D01*
X110511904Y-128547619D02*
X110559523Y-128500000D01*
X110654761Y-128452380D01*
X110892857Y-128452380D01*
X110988095Y-128500000D01*
X111035714Y-128547619D01*
X111083333Y-128642857D01*
X111083333Y-128738095D01*
X111035714Y-128880952D01*
X110464285Y-129452380D01*
X111083333Y-129452380D01*
X84048095Y-72122380D02*
X84048095Y-72931904D01*
X84095714Y-73027142D01*
X84143333Y-73074761D01*
X84238571Y-73122380D01*
X84429047Y-73122380D01*
X84524285Y-73074761D01*
X84571904Y-73027142D01*
X84619523Y-72931904D01*
X84619523Y-72122380D01*
X85619523Y-73122380D02*
X85048095Y-73122380D01*
X85333809Y-73122380D02*
X85333809Y-72122380D01*
X85238571Y-72265238D01*
X85143333Y-72360476D01*
X85048095Y-72408095D01*
X84048095Y-95622380D02*
X84048095Y-96431904D01*
X84095714Y-96527142D01*
X84143333Y-96574761D01*
X84238571Y-96622380D01*
X84429047Y-96622380D01*
X84524285Y-96574761D01*
X84571904Y-96527142D01*
X84619523Y-96431904D01*
X84619523Y-95622380D01*
X85048095Y-95717619D02*
X85095714Y-95670000D01*
X85190952Y-95622380D01*
X85429047Y-95622380D01*
X85524285Y-95670000D01*
X85571904Y-95717619D01*
X85619523Y-95812857D01*
X85619523Y-95908095D01*
X85571904Y-96050952D01*
X85000476Y-96622380D01*
X85619523Y-96622380D01*
X81038095Y-45152380D02*
X81038095Y-45961904D01*
X81085714Y-46057142D01*
X81133333Y-46104761D01*
X81228571Y-46152380D01*
X81419047Y-46152380D01*
X81514285Y-46104761D01*
X81561904Y-46057142D01*
X81609523Y-45961904D01*
X81609523Y-45152380D01*
X81990476Y-45152380D02*
X82609523Y-45152380D01*
X82276190Y-45533333D01*
X82419047Y-45533333D01*
X82514285Y-45580952D01*
X82561904Y-45628571D01*
X82609523Y-45723809D01*
X82609523Y-45961904D01*
X82561904Y-46057142D01*
X82514285Y-46104761D01*
X82419047Y-46152380D01*
X82133333Y-46152380D01*
X82038095Y-46104761D01*
X81990476Y-46057142D01*
X92857142Y-80166666D02*
X92904761Y-80214285D01*
X92952380Y-80357142D01*
X92952380Y-80452380D01*
X92904761Y-80595238D01*
X92809523Y-80690476D01*
X92714285Y-80738095D01*
X92523809Y-80785714D01*
X92380952Y-80785714D01*
X92190476Y-80738095D01*
X92095238Y-80690476D01*
X92000000Y-80595238D01*
X91952380Y-80452380D01*
X91952380Y-80357142D01*
X92000000Y-80214285D01*
X92047619Y-80166666D01*
X92952380Y-79214285D02*
X92952380Y-79785714D01*
X92952380Y-79500000D02*
X91952380Y-79500000D01*
X92095238Y-79595238D01*
X92190476Y-79690476D01*
X92238095Y-79785714D01*
X99857142Y-80166666D02*
X99904761Y-80214285D01*
X99952380Y-80357142D01*
X99952380Y-80452380D01*
X99904761Y-80595238D01*
X99809523Y-80690476D01*
X99714285Y-80738095D01*
X99523809Y-80785714D01*
X99380952Y-80785714D01*
X99190476Y-80738095D01*
X99095238Y-80690476D01*
X99000000Y-80595238D01*
X98952380Y-80452380D01*
X98952380Y-80357142D01*
X99000000Y-80214285D01*
X99047619Y-80166666D01*
X99047619Y-79785714D02*
X99000000Y-79738095D01*
X98952380Y-79642857D01*
X98952380Y-79404761D01*
X99000000Y-79309523D01*
X99047619Y-79261904D01*
X99142857Y-79214285D01*
X99238095Y-79214285D01*
X99380952Y-79261904D01*
X99952380Y-79833333D01*
X99952380Y-79214285D01*
X95452380Y-111746666D02*
X94976190Y-112080000D01*
X95452380Y-112318095D02*
X94452380Y-112318095D01*
X94452380Y-111937142D01*
X94500000Y-111841904D01*
X94547619Y-111794285D01*
X94642857Y-111746666D01*
X94785714Y-111746666D01*
X94880952Y-111794285D01*
X94928571Y-111841904D01*
X94976190Y-111937142D01*
X94976190Y-112318095D01*
X94452380Y-110889523D02*
X94452380Y-111080000D01*
X94500000Y-111175238D01*
X94547619Y-111222857D01*
X94690476Y-111318095D01*
X94880952Y-111365714D01*
X95261904Y-111365714D01*
X95357142Y-111318095D01*
X95404761Y-111270476D01*
X95452380Y-111175238D01*
X95452380Y-110984761D01*
X95404761Y-110889523D01*
X95357142Y-110841904D01*
X95261904Y-110794285D01*
X95023809Y-110794285D01*
X94928571Y-110841904D01*
X94880952Y-110889523D01*
X94833333Y-110984761D01*
X94833333Y-111175238D01*
X94880952Y-111270476D01*
X94928571Y-111318095D01*
X95023809Y-111365714D01*
X97452380Y-112222857D02*
X96976190Y-112556190D01*
X97452380Y-112794285D02*
X96452380Y-112794285D01*
X96452380Y-112413333D01*
X96500000Y-112318095D01*
X96547619Y-112270476D01*
X96642857Y-112222857D01*
X96785714Y-112222857D01*
X96880952Y-112270476D01*
X96928571Y-112318095D01*
X96976190Y-112413333D01*
X96976190Y-112794285D01*
X97452380Y-111270476D02*
X97452380Y-111841904D01*
X97452380Y-111556190D02*
X96452380Y-111556190D01*
X96595238Y-111651428D01*
X96690476Y-111746666D01*
X96738095Y-111841904D01*
X96785714Y-110413333D02*
X97452380Y-110413333D01*
X96404761Y-110651428D02*
X97119047Y-110889523D01*
X97119047Y-110270476D01*
X67786666Y-103642380D02*
X67786666Y-104356666D01*
X67739047Y-104499523D01*
X67643809Y-104594761D01*
X67500952Y-104642380D01*
X67405714Y-104642380D01*
X68786666Y-104642380D02*
X68215238Y-104642380D01*
X68500952Y-104642380D02*
X68500952Y-103642380D01*
X68405714Y-103785238D01*
X68310476Y-103880476D01*
X68215238Y-103928095D01*
X117952380Y-78722857D02*
X117476190Y-79056190D01*
X117952380Y-79294285D02*
X116952380Y-79294285D01*
X116952380Y-78913333D01*
X117000000Y-78818095D01*
X117047619Y-78770476D01*
X117142857Y-78722857D01*
X117285714Y-78722857D01*
X117380952Y-78770476D01*
X117428571Y-78818095D01*
X117476190Y-78913333D01*
X117476190Y-79294285D01*
X117952380Y-77770476D02*
X117952380Y-78341904D01*
X117952380Y-78056190D02*
X116952380Y-78056190D01*
X117095238Y-78151428D01*
X117190476Y-78246666D01*
X117238095Y-78341904D01*
X116952380Y-76913333D02*
X116952380Y-77103809D01*
X117000000Y-77199047D01*
X117047619Y-77246666D01*
X117190476Y-77341904D01*
X117380952Y-77389523D01*
X117761904Y-77389523D01*
X117857142Y-77341904D01*
X117904761Y-77294285D01*
X117952380Y-77199047D01*
X117952380Y-77008571D01*
X117904761Y-76913333D01*
X117857142Y-76865714D01*
X117761904Y-76818095D01*
X117523809Y-76818095D01*
X117428571Y-76865714D01*
X117380952Y-76913333D01*
X117333333Y-77008571D01*
X117333333Y-77199047D01*
X117380952Y-77294285D01*
X117428571Y-77341904D01*
X117523809Y-77389523D01*
D13*
X123600000Y-57240000D02*
X129600000Y-57240000D01*
X123600000Y-61660000D02*
X129600000Y-61660000D01*
X123600000Y-56580000D02*
X129600000Y-56580000D01*
X129600000Y-59120000D02*
X129600000Y-59880000D01*
X123600000Y-56640000D02*
X129600000Y-56640000D01*
X123600000Y-59120000D02*
X129600000Y-59120000D01*
X129600000Y-61660000D02*
X129600000Y-62420000D01*
X123600000Y-57120000D02*
X129600000Y-57120000D01*
X120940000Y-63370000D02*
X123600000Y-63370000D01*
X120542929Y-59880000D02*
X120940000Y-59880000D01*
X129600000Y-59880000D02*
X123600000Y-59880000D01*
X120940000Y-55630000D02*
X120940000Y-63370000D01*
X120610000Y-57340000D02*
X120940000Y-57340000D01*
X123600000Y-56760000D02*
X129600000Y-56760000D01*
X129600000Y-62420000D02*
X123600000Y-62420000D01*
X120940000Y-58230000D02*
X123600000Y-58230000D01*
X120940000Y-60770000D02*
X123600000Y-60770000D01*
X129600000Y-56580000D02*
X129600000Y-57340000D01*
X123600000Y-63370000D02*
X123600000Y-55630000D01*
X123600000Y-55630000D02*
X120940000Y-55630000D01*
X123600000Y-56880000D02*
X129600000Y-56880000D01*
X129600000Y-57340000D02*
X123600000Y-57340000D01*
X118230000Y-56960000D02*
X118230000Y-55690000D01*
X120610000Y-56580000D02*
X120940000Y-56580000D01*
X120542929Y-62420000D02*
X120940000Y-62420000D01*
X120542929Y-61660000D02*
X120940000Y-61660000D01*
X123600000Y-57000000D02*
X129600000Y-57000000D01*
X118230000Y-55690000D02*
X119500000Y-55690000D01*
X120542929Y-59120000D02*
X120940000Y-59120000D01*
X72500000Y-55630000D02*
X73610000Y-55630000D01*
X71040000Y-59860000D02*
X71450000Y-59860000D01*
X62410000Y-55630000D02*
X71040000Y-55630000D01*
X62410000Y-55986190D02*
X71040000Y-55986190D01*
X62410000Y-57757615D02*
X71040000Y-57757615D01*
X62410000Y-63370000D02*
X71040000Y-63370000D01*
X71040000Y-59140000D02*
X71450000Y-59140000D01*
X62410000Y-57639520D02*
X71040000Y-57639520D01*
X62410000Y-57403330D02*
X71040000Y-57403330D01*
X62410000Y-56222380D02*
X71040000Y-56222380D01*
X62410000Y-57049045D02*
X71040000Y-57049045D01*
X62410000Y-56576665D02*
X71040000Y-56576665D01*
X62410000Y-58111900D02*
X71040000Y-58111900D01*
X62410000Y-57521425D02*
X71040000Y-57521425D01*
X62410000Y-56694760D02*
X71040000Y-56694760D01*
X62410000Y-58230000D02*
X71040000Y-58230000D01*
X62410000Y-56340475D02*
X71040000Y-56340475D01*
X62410000Y-56930950D02*
X71040000Y-56930950D01*
X62410000Y-55630000D02*
X62410000Y-63370000D01*
X62410000Y-57167140D02*
X71040000Y-57167140D01*
X62410000Y-56104285D02*
X71040000Y-56104285D01*
X62410000Y-55750000D02*
X71040000Y-55750000D01*
X62410000Y-55868095D02*
X71040000Y-55868095D01*
X62410000Y-57875710D02*
X71040000Y-57875710D01*
X71040000Y-55630000D02*
X71040000Y-63370000D01*
X71040000Y-61680000D02*
X71450000Y-61680000D01*
X62410000Y-57285235D02*
X71040000Y-57285235D01*
X62410000Y-57993805D02*
X71040000Y-57993805D01*
X71040000Y-62400000D02*
X71450000Y-62400000D01*
X62410000Y-56458570D02*
X71040000Y-56458570D01*
X62410000Y-60770000D02*
X71040000Y-60770000D01*
X71040000Y-56600000D02*
X71390000Y-56600000D01*
X71040000Y-57320000D02*
X71390000Y-57320000D01*
X73610000Y-55630000D02*
X73610000Y-56960000D01*
X62410000Y-56812855D02*
X71040000Y-56812855D01*
X123600000Y-107120000D02*
X129600000Y-107120000D01*
X120940000Y-105630000D02*
X120940000Y-113370000D01*
X120610000Y-107340000D02*
X120940000Y-107340000D01*
X120542929Y-109120000D02*
X120940000Y-109120000D01*
X123600000Y-109120000D02*
X129600000Y-109120000D01*
X123600000Y-111660000D02*
X129600000Y-111660000D01*
X129600000Y-106580000D02*
X129600000Y-107340000D01*
X118230000Y-105690000D02*
X119500000Y-105690000D01*
X123600000Y-105630000D02*
X120940000Y-105630000D01*
X123600000Y-106760000D02*
X129600000Y-106760000D01*
X120940000Y-108230000D02*
X123600000Y-108230000D01*
X120610000Y-106580000D02*
X120940000Y-106580000D01*
X120542929Y-112420000D02*
X120940000Y-112420000D01*
X123600000Y-106580000D02*
X129600000Y-106580000D01*
X120940000Y-113370000D02*
X123600000Y-113370000D01*
X129600000Y-109880000D02*
X123600000Y-109880000D01*
X120940000Y-110770000D02*
X123600000Y-110770000D01*
X129600000Y-109120000D02*
X129600000Y-109880000D01*
X123600000Y-107240000D02*
X129600000Y-107240000D01*
X129600000Y-112420000D02*
X123600000Y-112420000D01*
X118230000Y-106960000D02*
X118230000Y-105690000D01*
X120542929Y-109880000D02*
X120940000Y-109880000D01*
X123600000Y-106880000D02*
X129600000Y-106880000D01*
X123600000Y-113370000D02*
X123600000Y-105630000D01*
X123600000Y-106640000D02*
X129600000Y-106640000D01*
X129600000Y-111660000D02*
X129600000Y-112420000D01*
X123600000Y-107000000D02*
X129600000Y-107000000D01*
X120542929Y-111660000D02*
X120940000Y-111660000D01*
X129600000Y-107340000D02*
X123600000Y-107340000D01*
X80728000Y-136850000D02*
X111328000Y-136850000D01*
X86758000Y-133792929D02*
X86758000Y-134190000D01*
X92598000Y-133792929D02*
X92598000Y-134190000D01*
X87518000Y-142850000D02*
X86758000Y-142850000D01*
X81678000Y-142850000D02*
X81678000Y-136850000D01*
X104538000Y-133792929D02*
X104538000Y-134190000D01*
X96918000Y-133792929D02*
X96918000Y-134190000D01*
X111328000Y-136850000D02*
X111328000Y-134190000D01*
X84978000Y-136850000D02*
X84978000Y-142850000D01*
X100218000Y-136850000D02*
X100218000Y-142850000D01*
X88408000Y-134190000D02*
X88408000Y-136850000D01*
X82438000Y-142850000D02*
X81678000Y-142850000D01*
X87518000Y-136850000D02*
X87518000Y-142850000D01*
X99458000Y-142850000D02*
X99458000Y-136850000D01*
X100218000Y-142850000D02*
X99458000Y-142850000D01*
X90058000Y-133792929D02*
X90058000Y-134190000D01*
X107078000Y-133792929D02*
X107078000Y-134190000D01*
X83328000Y-134190000D02*
X83328000Y-136850000D01*
X86758000Y-142850000D02*
X86758000Y-136850000D01*
X109958000Y-136850000D02*
X109958000Y-142850000D01*
X97678000Y-133792929D02*
X97678000Y-134190000D01*
X110318000Y-136850000D02*
X110318000Y-142850000D01*
X80728000Y-134190000D02*
X80728000Y-136850000D01*
X87518000Y-133792929D02*
X87518000Y-134190000D01*
X94378000Y-142850000D02*
X94378000Y-136850000D01*
X95138000Y-136850000D02*
X95138000Y-142850000D01*
X107838000Y-136850000D02*
X107838000Y-142850000D01*
X96028000Y-134190000D02*
X96028000Y-136850000D01*
X89298000Y-133792929D02*
X89298000Y-134190000D01*
X102758000Y-142850000D02*
X101998000Y-142850000D01*
X100218000Y-133792929D02*
X100218000Y-134190000D01*
X91838000Y-142850000D02*
X91838000Y-136850000D01*
X85868000Y-134190000D02*
X85868000Y-136850000D01*
X102758000Y-136850000D02*
X102758000Y-142850000D01*
X110378000Y-133860000D02*
X110378000Y-134190000D01*
X90058000Y-142850000D02*
X89298000Y-142850000D01*
X105298000Y-142850000D02*
X104538000Y-142850000D01*
X92598000Y-142850000D02*
X91838000Y-142850000D01*
X110198000Y-136850000D02*
X110198000Y-142850000D01*
X105298000Y-133792929D02*
X105298000Y-134190000D01*
X109618000Y-142850000D02*
X109618000Y-136850000D01*
X93488000Y-134190000D02*
X93488000Y-136850000D01*
X110078000Y-136850000D02*
X110078000Y-142850000D01*
X89298000Y-142850000D02*
X89298000Y-136850000D01*
X109718000Y-136850000D02*
X109718000Y-142850000D01*
X107838000Y-142850000D02*
X107078000Y-142850000D01*
X111328000Y-134190000D02*
X80728000Y-134190000D01*
X95138000Y-142850000D02*
X94378000Y-142850000D01*
X84218000Y-142850000D02*
X84218000Y-136850000D01*
X99458000Y-133792929D02*
X99458000Y-134190000D01*
X82438000Y-136850000D02*
X82438000Y-142850000D01*
X84978000Y-133792929D02*
X84978000Y-134190000D01*
X81678000Y-133792929D02*
X81678000Y-134190000D01*
X84218000Y-133792929D02*
X84218000Y-134190000D01*
X102758000Y-133792929D02*
X102758000Y-134190000D01*
X96918000Y-142850000D02*
X96918000Y-136850000D01*
X94378000Y-133792929D02*
X94378000Y-134190000D01*
X91838000Y-133792929D02*
X91838000Y-134190000D01*
X110378000Y-136850000D02*
X110378000Y-142850000D01*
X109838000Y-136850000D02*
X109838000Y-142850000D01*
X98568000Y-134190000D02*
X98568000Y-136850000D01*
X90948000Y-134190000D02*
X90948000Y-136850000D01*
X110378000Y-142850000D02*
X109618000Y-142850000D01*
X97678000Y-142850000D02*
X96918000Y-142850000D01*
X104538000Y-142850000D02*
X104538000Y-136850000D01*
X108728000Y-134190000D02*
X108728000Y-136850000D01*
X101998000Y-142850000D02*
X101998000Y-136850000D01*
X106188000Y-134190000D02*
X106188000Y-136850000D01*
X107078000Y-142850000D02*
X107078000Y-136850000D01*
X103648000Y-134190000D02*
X103648000Y-136850000D01*
X97678000Y-136850000D02*
X97678000Y-142850000D01*
X84978000Y-142850000D02*
X84218000Y-142850000D01*
X82438000Y-133792929D02*
X82438000Y-134190000D01*
X92598000Y-136850000D02*
X92598000Y-142850000D01*
X107838000Y-133792929D02*
X107838000Y-134190000D01*
X109998000Y-131480000D02*
X111268000Y-131480000D01*
X109618000Y-133860000D02*
X109618000Y-134190000D01*
X105298000Y-136850000D02*
X105298000Y-142850000D01*
X101998000Y-133792929D02*
X101998000Y-134190000D01*
X90058000Y-136850000D02*
X90058000Y-142850000D01*
X101108000Y-134190000D02*
X101108000Y-136850000D01*
X95138000Y-133792929D02*
X95138000Y-134190000D01*
X111268000Y-131480000D02*
X111268000Y-132750000D01*
X102290000Y-65615000D02*
X102290000Y-46625000D01*
X102290000Y-46625000D02*
X112330000Y-46625000D01*
X101910000Y-47000000D02*
X101910000Y-50500000D01*
X112330000Y-65615000D02*
X102290000Y-65615000D01*
X112330000Y-46625000D02*
X112330000Y-65615000D01*
X104660000Y-73670000D02*
X104660000Y-94110000D01*
X109960000Y-73670000D02*
X108310000Y-73670000D01*
X104660000Y-94110000D02*
X109960000Y-94110000D01*
X106310000Y-73670000D02*
X104660000Y-73670000D01*
X109960000Y-94110000D02*
X109960000Y-73670000D01*
X106310000Y-73670000D02*
G75*
G03*
X108310000Y-73670000I1000000J0D01*
G01*
X109960000Y-117610000D02*
X109960000Y-97170000D01*
X104660000Y-117610000D02*
X109960000Y-117610000D01*
X104660000Y-97170000D02*
X104660000Y-117610000D01*
X109960000Y-97170000D02*
X108310000Y-97170000D01*
X106310000Y-97170000D02*
X104660000Y-97170000D01*
X106310000Y-97170000D02*
G75*
G03*
X108310000Y-97170000I1000000J0D01*
G01*
X98130000Y-49810000D02*
X98130000Y-56350000D01*
X98130000Y-56350000D02*
X100870000Y-56350000D01*
X100870000Y-49810000D02*
X98130000Y-49810000D01*
X99500000Y-49040000D02*
X99500000Y-49810000D01*
X99500000Y-57120000D02*
X99500000Y-56350000D01*
X100870000Y-56350000D02*
X100870000Y-49810000D01*
X113630000Y-49810000D02*
X113630000Y-56350000D01*
X115000000Y-57120000D02*
X115000000Y-56350000D01*
X116370000Y-49810000D02*
X113630000Y-49810000D01*
X115000000Y-49040000D02*
X115000000Y-49810000D01*
X113630000Y-56350000D02*
X116370000Y-56350000D01*
X116370000Y-56350000D02*
X116370000Y-49810000D01*
X116370000Y-62310000D02*
X113630000Y-62310000D01*
X113630000Y-62310000D02*
X113630000Y-68850000D01*
X115000000Y-69620000D02*
X115000000Y-68850000D01*
X113630000Y-68850000D02*
X116370000Y-68850000D01*
X115000000Y-61540000D02*
X115000000Y-62310000D01*
X116370000Y-68850000D02*
X116370000Y-62310000D01*
X115000000Y-86540000D02*
X115000000Y-87310000D01*
X115000000Y-94620000D02*
X115000000Y-93850000D01*
X113630000Y-93850000D02*
X116370000Y-93850000D01*
X113630000Y-87310000D02*
X113630000Y-93850000D01*
X116370000Y-93850000D02*
X116370000Y-87310000D01*
X116370000Y-87310000D02*
X113630000Y-87310000D01*
X98130000Y-93850000D02*
X100870000Y-93850000D01*
X100870000Y-87310000D02*
X98130000Y-87310000D01*
X99500000Y-86540000D02*
X99500000Y-87310000D01*
X98130000Y-87310000D02*
X98130000Y-93850000D01*
X100870000Y-93850000D02*
X100870000Y-87310000D01*
X99500000Y-94620000D02*
X99500000Y-93850000D01*
X99500000Y-61540000D02*
X99500000Y-62310000D01*
X98130000Y-62310000D02*
X98130000Y-68850000D01*
X98130000Y-68850000D02*
X100870000Y-68850000D01*
X99500000Y-69620000D02*
X99500000Y-68850000D01*
X100870000Y-62310000D02*
X98130000Y-62310000D01*
X100870000Y-68850000D02*
X100870000Y-62310000D01*
X77000000Y-49040000D02*
X77000000Y-49810000D01*
X77000000Y-57120000D02*
X77000000Y-56350000D01*
X75630000Y-49810000D02*
X75630000Y-56350000D01*
X75630000Y-56350000D02*
X78370000Y-56350000D01*
X78370000Y-49810000D02*
X75630000Y-49810000D01*
X78370000Y-56350000D02*
X78370000Y-49810000D01*
X92500000Y-57120000D02*
X92500000Y-56350000D01*
X92500000Y-49040000D02*
X92500000Y-49810000D01*
X91130000Y-49810000D02*
X91130000Y-56350000D01*
X93870000Y-56350000D02*
X93870000Y-49810000D01*
X91130000Y-56350000D02*
X93870000Y-56350000D01*
X93870000Y-49810000D02*
X91130000Y-49810000D01*
X93870000Y-62310000D02*
X91130000Y-62310000D01*
X92500000Y-69620000D02*
X92500000Y-68850000D01*
X91130000Y-68850000D02*
X93870000Y-68850000D01*
X93870000Y-68850000D02*
X93870000Y-62310000D01*
X91130000Y-62310000D02*
X91130000Y-68850000D01*
X92500000Y-61540000D02*
X92500000Y-62310000D01*
X93870000Y-87310000D02*
X91130000Y-87310000D01*
X93870000Y-93850000D02*
X93870000Y-87310000D01*
X91130000Y-87310000D02*
X91130000Y-93850000D01*
X92500000Y-86540000D02*
X92500000Y-87310000D01*
X91130000Y-93850000D02*
X93870000Y-93850000D01*
X92500000Y-94620000D02*
X92500000Y-93850000D01*
X75630000Y-93850000D02*
X78370000Y-93850000D01*
X77000000Y-86540000D02*
X77000000Y-87310000D01*
X77000000Y-94620000D02*
X77000000Y-93850000D01*
X75630000Y-87310000D02*
X75630000Y-93850000D01*
X78370000Y-87310000D02*
X75630000Y-87310000D01*
X78370000Y-93850000D02*
X78370000Y-87310000D01*
X77000000Y-82120000D02*
X77000000Y-81350000D01*
X75630000Y-74810000D02*
X75630000Y-81350000D01*
X77000000Y-74040000D02*
X77000000Y-74810000D01*
X78370000Y-74810000D02*
X75630000Y-74810000D01*
X78370000Y-81350000D02*
X78370000Y-74810000D01*
X75630000Y-81350000D02*
X78370000Y-81350000D01*
X77000000Y-61540000D02*
X77000000Y-62310000D01*
X78370000Y-68850000D02*
X78370000Y-62310000D01*
X75630000Y-62310000D02*
X75630000Y-68850000D01*
X75630000Y-68850000D02*
X78370000Y-68850000D01*
X78370000Y-62310000D02*
X75630000Y-62310000D01*
X77000000Y-69620000D02*
X77000000Y-68850000D01*
X85750000Y-125500000D02*
X85750000Y-124000000D01*
X80000000Y-128000000D02*
X84500000Y-128000000D01*
X78750000Y-124000000D02*
X78750000Y-125500000D01*
X84500000Y-121500000D02*
X80000000Y-121500000D01*
X113250000Y-125500000D02*
X113250000Y-124000000D01*
X106250000Y-124000000D02*
X106250000Y-125500000D01*
X107500000Y-128000000D02*
X112000000Y-128000000D01*
X112000000Y-121500000D02*
X107500000Y-121500000D01*
X87460000Y-94110000D02*
X87460000Y-73670000D01*
X82160000Y-73670000D02*
X82160000Y-94110000D01*
X82160000Y-94110000D02*
X87460000Y-94110000D01*
X83810000Y-73670000D02*
X82160000Y-73670000D01*
X87460000Y-73670000D02*
X85810000Y-73670000D01*
X83810000Y-73670000D02*
G75*
G03*
X85810000Y-73670000I1000000J0D01*
G01*
X83810000Y-97170000D02*
X82160000Y-97170000D01*
X82160000Y-97170000D02*
X82160000Y-117610000D01*
X87460000Y-117610000D02*
X87460000Y-97170000D01*
X87460000Y-97170000D02*
X85810000Y-97170000D01*
X82160000Y-117610000D02*
X87460000Y-117610000D01*
X83810000Y-97170000D02*
G75*
G03*
X85810000Y-97170000I1000000J0D01*
G01*
X89830000Y-65615000D02*
X79790000Y-65615000D01*
X79790000Y-65615000D02*
X79790000Y-46625000D01*
X79790000Y-46625000D02*
X89830000Y-46625000D01*
X79410000Y-47000000D02*
X79410000Y-50500000D01*
X89830000Y-46625000D02*
X89830000Y-65615000D01*
X93920000Y-74230000D02*
X93920000Y-78270000D01*
X91705000Y-78270000D02*
X91080000Y-78270000D01*
X93920000Y-78270000D02*
X93295000Y-78270000D01*
X91705000Y-74230000D02*
X91080000Y-74230000D01*
X91080000Y-74230000D02*
X91080000Y-78270000D01*
X93920000Y-74230000D02*
X93295000Y-74230000D01*
X98705000Y-78270000D02*
X98080000Y-78270000D01*
X100920000Y-74230000D02*
X100295000Y-74230000D01*
X100920000Y-74230000D02*
X100920000Y-78270000D01*
X100920000Y-78270000D02*
X100295000Y-78270000D01*
X98705000Y-74230000D02*
X98080000Y-74230000D01*
X98080000Y-74230000D02*
X98080000Y-78270000D01*
X98553000Y-123310000D02*
X90873000Y-123310000D01*
X99823000Y-120650000D02*
X101153000Y-120650000D01*
X98553000Y-120650000D02*
X98553000Y-123310000D01*
X90873000Y-120650000D02*
X90873000Y-123310000D01*
X98553000Y-120650000D02*
X90873000Y-120650000D01*
X101153000Y-120650000D02*
X101153000Y-121980000D01*
X98553000Y-125850000D02*
X90873000Y-125850000D01*
X101153000Y-123190000D02*
X101153000Y-124520000D01*
X98553000Y-123190000D02*
X90873000Y-123190000D01*
X98553000Y-123190000D02*
X98553000Y-125850000D01*
X90873000Y-123190000D02*
X90873000Y-125850000D01*
X99823000Y-123190000D02*
X101153000Y-123190000D01*
X98553000Y-125730000D02*
X98553000Y-128390000D01*
X98553000Y-128390000D02*
X90873000Y-128390000D01*
X99823000Y-125730000D02*
X101153000Y-125730000D01*
X90873000Y-125730000D02*
X90873000Y-128390000D01*
X98553000Y-125730000D02*
X90873000Y-125730000D01*
X101153000Y-125730000D02*
X101153000Y-127060000D01*
X92500000Y-115620000D02*
X92500000Y-114850000D01*
X92500000Y-107540000D02*
X92500000Y-108310000D01*
X93870000Y-108310000D02*
X91130000Y-108310000D01*
X91130000Y-114850000D02*
X93870000Y-114850000D01*
X91130000Y-108310000D02*
X91130000Y-114850000D01*
X93870000Y-114850000D02*
X93870000Y-108310000D01*
X100870000Y-114850000D02*
X100870000Y-108310000D01*
X100870000Y-108310000D02*
X98130000Y-108310000D01*
X98130000Y-114850000D02*
X100870000Y-114850000D01*
X98130000Y-108310000D02*
X98130000Y-114850000D01*
X99500000Y-107540000D02*
X99500000Y-108310000D01*
X99500000Y-115620000D02*
X99500000Y-114850000D01*
X62410000Y-106222380D02*
X71040000Y-106222380D01*
X62410000Y-105986190D02*
X71040000Y-105986190D01*
X71040000Y-107320000D02*
X71390000Y-107320000D01*
X62410000Y-105868095D02*
X71040000Y-105868095D01*
X62410000Y-108230000D02*
X71040000Y-108230000D01*
X62410000Y-107993805D02*
X71040000Y-107993805D01*
X62410000Y-106812855D02*
X71040000Y-106812855D01*
X62410000Y-108111900D02*
X71040000Y-108111900D01*
X62410000Y-107167140D02*
X71040000Y-107167140D01*
X62410000Y-105630000D02*
X71040000Y-105630000D01*
X62410000Y-106930950D02*
X71040000Y-106930950D01*
X62410000Y-105750000D02*
X71040000Y-105750000D01*
X62410000Y-106104285D02*
X71040000Y-106104285D01*
X72500000Y-105630000D02*
X73610000Y-105630000D01*
X71040000Y-109140000D02*
X71450000Y-109140000D01*
X62410000Y-107403330D02*
X71040000Y-107403330D01*
X71040000Y-111680000D02*
X71450000Y-111680000D01*
X62410000Y-107639520D02*
X71040000Y-107639520D01*
X62410000Y-106694760D02*
X71040000Y-106694760D01*
X62410000Y-107049045D02*
X71040000Y-107049045D01*
X62410000Y-107757615D02*
X71040000Y-107757615D01*
X62410000Y-107521425D02*
X71040000Y-107521425D01*
X62410000Y-106458570D02*
X71040000Y-106458570D01*
X62410000Y-110770000D02*
X71040000Y-110770000D01*
X62410000Y-107285235D02*
X71040000Y-107285235D01*
X62410000Y-106340475D02*
X71040000Y-106340475D01*
X71040000Y-109860000D02*
X71450000Y-109860000D01*
X62410000Y-113370000D02*
X71040000Y-113370000D01*
X71040000Y-105630000D02*
X71040000Y-113370000D01*
X71040000Y-112400000D02*
X71450000Y-112400000D01*
X62410000Y-105630000D02*
X62410000Y-113370000D01*
X71040000Y-106600000D02*
X71390000Y-106600000D01*
X62410000Y-107875710D02*
X71040000Y-107875710D01*
X73610000Y-105630000D02*
X73610000Y-106960000D01*
X62410000Y-106576665D02*
X71040000Y-106576665D01*
X115000000Y-74040000D02*
X115000000Y-74810000D01*
X113630000Y-74810000D02*
X113630000Y-81350000D01*
X113630000Y-81350000D02*
X116370000Y-81350000D01*
X116370000Y-81350000D02*
X116370000Y-74810000D01*
X115000000Y-82120000D02*
X115000000Y-81350000D01*
X116370000Y-74810000D02*
X113630000Y-74810000D01*
%LPC*%
D14*
X119500000Y-56960000D03*
D15*
X119500000Y-59500000D03*
X119500000Y-62040000D03*
D14*
X72500000Y-56960000D03*
D15*
X72500000Y-59500000D03*
X72500000Y-62040000D03*
D14*
X119500000Y-106960000D03*
D15*
X119500000Y-109500000D03*
X119500000Y-112040000D03*
D14*
X109998000Y-132750000D03*
D15*
X107458000Y-132750000D03*
X104918000Y-132750000D03*
X102378000Y-132750000D03*
X99838000Y-132750000D03*
X97298000Y-132750000D03*
X94758000Y-132750000D03*
X92218000Y-132750000D03*
X89678000Y-132750000D03*
X87138000Y-132750000D03*
X84598000Y-132750000D03*
X82058000Y-132750000D03*
D16*
X103500000Y-48500000D03*
D17*
X103500000Y-51040000D03*
X103500000Y-53580000D03*
X103500000Y-56120000D03*
X103500000Y-58660000D03*
X103500000Y-61200000D03*
X103500000Y-63740000D03*
X111120000Y-63740000D03*
X111120000Y-61200000D03*
X111120000Y-58660000D03*
X111120000Y-56120000D03*
X111120000Y-53580000D03*
X111120000Y-51040000D03*
X111120000Y-48500000D03*
D18*
X103500000Y-75000000D03*
D19*
X103500000Y-77540000D03*
X103500000Y-80080000D03*
X103500000Y-82620000D03*
X103500000Y-85160000D03*
X103500000Y-87700000D03*
X103500000Y-90240000D03*
X103500000Y-92780000D03*
X111120000Y-92780000D03*
X111120000Y-90240000D03*
X111120000Y-87700000D03*
X111120000Y-85160000D03*
X111120000Y-82620000D03*
X111120000Y-80080000D03*
X111120000Y-77540000D03*
X111120000Y-75000000D03*
D18*
X103500000Y-98500000D03*
D19*
X103500000Y-101040000D03*
X103500000Y-103580000D03*
X103500000Y-106120000D03*
X103500000Y-108660000D03*
X103500000Y-111200000D03*
X103500000Y-113740000D03*
X103500000Y-116280000D03*
X111120000Y-116280000D03*
X111120000Y-113740000D03*
X111120000Y-111200000D03*
X111120000Y-108660000D03*
X111120000Y-106120000D03*
X111120000Y-103580000D03*
X111120000Y-101040000D03*
X111120000Y-98500000D03*
D20*
X99500000Y-48000000D03*
D19*
X99500000Y-58160000D03*
D20*
X115000000Y-48000000D03*
D19*
X115000000Y-58160000D03*
D20*
X115000000Y-60500000D03*
D19*
X115000000Y-70660000D03*
D20*
X115000000Y-85500000D03*
D19*
X115000000Y-95660000D03*
D20*
X99500000Y-85500000D03*
D19*
X99500000Y-95660000D03*
D20*
X99500000Y-60500000D03*
D19*
X99500000Y-70660000D03*
D20*
X77000000Y-48000000D03*
D19*
X77000000Y-58160000D03*
D20*
X92500000Y-48000000D03*
D19*
X92500000Y-58160000D03*
D20*
X92500000Y-60500000D03*
D19*
X92500000Y-70660000D03*
D20*
X92500000Y-85500000D03*
D19*
X92500000Y-95660000D03*
D20*
X77000000Y-85500000D03*
D19*
X77000000Y-95660000D03*
D20*
X77000000Y-73000000D03*
D19*
X77000000Y-83160000D03*
D20*
X77000000Y-60500000D03*
D19*
X77000000Y-70660000D03*
D21*
X85500000Y-127000000D03*
X79000000Y-127000000D03*
X85500000Y-122500000D03*
X79000000Y-122500000D03*
X113000000Y-127000000D03*
X106500000Y-127000000D03*
X106500000Y-122500000D03*
X113000000Y-122500000D03*
D18*
X81000000Y-75000000D03*
D19*
X81000000Y-77540000D03*
X81000000Y-80080000D03*
X81000000Y-82620000D03*
X81000000Y-85160000D03*
X81000000Y-87700000D03*
X81000000Y-90240000D03*
X81000000Y-92780000D03*
X88620000Y-92780000D03*
X88620000Y-90240000D03*
X88620000Y-87700000D03*
X88620000Y-85160000D03*
X88620000Y-82620000D03*
X88620000Y-80080000D03*
X88620000Y-77540000D03*
X88620000Y-75000000D03*
D18*
X81000000Y-98500000D03*
D19*
X81000000Y-101040000D03*
X81000000Y-103580000D03*
X81000000Y-106120000D03*
X81000000Y-108660000D03*
X81000000Y-111200000D03*
X81000000Y-113740000D03*
X81000000Y-116280000D03*
X88620000Y-116280000D03*
X88620000Y-113740000D03*
X88620000Y-111200000D03*
X88620000Y-108660000D03*
X88620000Y-106120000D03*
X88620000Y-103580000D03*
X88620000Y-101040000D03*
X88620000Y-98500000D03*
D16*
X81000000Y-48500000D03*
D17*
X81000000Y-51040000D03*
X81000000Y-53580000D03*
X81000000Y-56120000D03*
X81000000Y-58660000D03*
X81000000Y-61200000D03*
X81000000Y-63740000D03*
X88620000Y-63740000D03*
X88620000Y-61200000D03*
X88620000Y-58660000D03*
X88620000Y-56120000D03*
X88620000Y-53580000D03*
X88620000Y-51040000D03*
X88620000Y-48500000D03*
D20*
X92500000Y-75000000D03*
X92500000Y-77500000D03*
X99500000Y-75000000D03*
X99500000Y-77500000D03*
D14*
X99823000Y-121980000D03*
D15*
X97283000Y-121980000D03*
X94743000Y-121980000D03*
X92203000Y-121980000D03*
D14*
X99823000Y-124520000D03*
D15*
X97283000Y-124520000D03*
X94743000Y-124520000D03*
X92203000Y-124520000D03*
D14*
X99823000Y-127060000D03*
D15*
X97283000Y-127060000D03*
X94743000Y-127060000D03*
X92203000Y-127060000D03*
D20*
X92500000Y-106500000D03*
D19*
X92500000Y-116660000D03*
D20*
X99500000Y-116660000D03*
D19*
X99500000Y-106500000D03*
D14*
X72500000Y-106960000D03*
D15*
X72500000Y-109500000D03*
X72500000Y-112040000D03*
D20*
X115000000Y-73000000D03*
D19*
X115000000Y-83160000D03*
M02*
