%FSLAX45Y45*%
G04 Gerber Fmt 4.5, Leading zero omitted, Abs format (unit mm)*
G04 Created by KiCad (PCBNEW 6.0.1-79c1e3a40b~116~ubuntu21.04.1) date 2022-02-15 17:04:38*
%MOMM*%
%LPD*%
G01*
G04 APERTURE LIST*
%TA.AperFunction,Profile*%
%ADD10C,0.100000*%
%TD*%
%ADD11C,0.200000*%
G04 APERTURE END LIST*
D10*
X11900000Y-13425000D02*
X7325000Y-13425000D01*
X11875000Y-4425000D02*
X12200000Y-4750000D01*
X7250000Y-4500000D02*
X7300000Y-4450000D01*
X7325000Y-13425000D02*
X7050000Y-13150000D01*
X7325000Y-4425000D02*
X9600000Y-4425000D01*
X7025000Y-13125000D02*
X7000000Y-4750000D01*
X12200000Y-13125000D02*
X11900000Y-13425000D01*
X7300000Y-4450000D02*
X7325000Y-4425000D01*
X12200000Y-4750000D02*
X12200000Y-13125000D01*
X7000000Y-4750000D02*
X7250000Y-4500000D01*
X7050000Y-13150000D02*
X7025000Y-13125000D01*
X9600000Y-4425000D02*
X11875000Y-4425000D01*
D11*
X7252619Y-13740476D02*
X7252619Y-13540476D01*
X7300238Y-13540476D01*
X7328809Y-13550000D01*
X7347857Y-13569048D01*
X7357381Y-13588095D01*
X7366905Y-13626190D01*
X7366905Y-13654762D01*
X7357381Y-13692857D01*
X7347857Y-13711905D01*
X7328809Y-13730952D01*
X7300238Y-13740476D01*
X7252619Y-13740476D01*
X7452619Y-13740476D02*
X7452619Y-13607143D01*
X7452619Y-13645238D02*
X7462143Y-13626190D01*
X7471667Y-13616667D01*
X7490714Y-13607143D01*
X7509762Y-13607143D01*
X7576428Y-13740476D02*
X7576428Y-13607143D01*
X7576428Y-13540476D02*
X7566905Y-13550000D01*
X7576428Y-13559524D01*
X7585952Y-13550000D01*
X7576428Y-13540476D01*
X7576428Y-13559524D01*
X7700238Y-13740476D02*
X7681190Y-13730952D01*
X7671667Y-13711905D01*
X7671667Y-13540476D01*
X7805000Y-13740476D02*
X7785952Y-13730952D01*
X7776428Y-13711905D01*
X7776428Y-13540476D01*
X8033571Y-13740476D02*
X8033571Y-13540476D01*
X8100238Y-13683333D01*
X8166905Y-13540476D01*
X8166905Y-13740476D01*
X8347857Y-13740476D02*
X8347857Y-13635714D01*
X8338333Y-13616667D01*
X8319286Y-13607143D01*
X8281190Y-13607143D01*
X8262143Y-13616667D01*
X8347857Y-13730952D02*
X8328809Y-13740476D01*
X8281190Y-13740476D01*
X8262143Y-13730952D01*
X8252619Y-13711905D01*
X8252619Y-13692857D01*
X8262143Y-13673809D01*
X8281190Y-13664286D01*
X8328809Y-13664286D01*
X8347857Y-13654762D01*
X8443095Y-13607143D02*
X8443095Y-13807143D01*
X8443095Y-13616667D02*
X8462143Y-13607143D01*
X8500238Y-13607143D01*
X8519286Y-13616667D01*
X8528810Y-13626190D01*
X8538333Y-13645238D01*
X8538333Y-13702381D01*
X8528810Y-13721428D01*
X8519286Y-13730952D01*
X8500238Y-13740476D01*
X8462143Y-13740476D01*
X8443095Y-13730952D01*
X8624048Y-13721428D02*
X8633571Y-13730952D01*
X8624048Y-13740476D01*
X8614524Y-13730952D01*
X8624048Y-13721428D01*
X8624048Y-13740476D01*
X8624048Y-13616667D02*
X8633571Y-13626190D01*
X8624048Y-13635714D01*
X8614524Y-13626190D01*
X8624048Y-13616667D01*
X8624048Y-13635714D01*
M02*
