G04 #@! TF.GenerationSoftware,KiCad,Pcbnew,6.0.1-79c1e3a40b~116~ubuntu21.04.1*
G04 #@! TF.CreationDate,2022-02-15T17:04:32-05:00*
G04 #@! TF.ProjectId,display_module,64697370-6c61-4795-9f6d-6f64756c652e,rev?*
G04 #@! TF.SameCoordinates,Original*
G04 #@! TF.FileFunction,Soldermask,Bot*
G04 #@! TF.FilePolarity,Negative*
%FSLAX46Y46*%
G04 Gerber Fmt 4.6, Leading zero omitted, Abs format (unit mm)*
G04 Created by KiCad (PCBNEW 6.0.1-79c1e3a40b~116~ubuntu21.04.1) date 2022-02-15 17:04:32*
%MOMM*%
%LPD*%
G01*
G04 APERTURE LIST*
G04 Aperture macros list*
%AMFreePoly0*
4,1,22,0.550000,-0.750000,0.000000,-0.750000,0.000000,-0.745033,-0.079941,-0.743568,-0.215256,-0.701293,-0.333266,-0.622738,-0.424486,-0.514219,-0.481581,-0.384460,-0.499164,-0.250000,-0.500000,-0.250000,-0.500000,0.250000,-0.499164,0.250000,-0.499963,0.256109,-0.478152,0.396186,-0.417904,0.524511,-0.324060,0.630769,-0.204165,0.706417,-0.067858,0.745374,0.000000,0.744959,0.000000,0.750000,
0.550000,0.750000,0.550000,-0.750000,0.550000,-0.750000,$1*%
%AMFreePoly1*
4,1,20,0.000000,0.744959,0.073905,0.744508,0.209726,0.703889,0.328688,0.626782,0.421226,0.519385,0.479903,0.390333,0.500000,0.250000,0.500000,-0.250000,0.499851,-0.262216,0.476331,-0.402017,0.414519,-0.529596,0.319384,-0.634700,0.198574,-0.708877,0.061801,-0.746166,0.000000,-0.745033,0.000000,-0.750000,-0.550000,-0.750000,-0.550000,0.750000,0.000000,0.750000,0.000000,0.744959,
0.000000,0.744959,$1*%
G04 Aperture macros list end*
%ADD10R,1.700000X1.700000*%
%ADD11O,1.700000X1.700000*%
%ADD12R,1.500000X1.500000*%
%ADD13C,1.500000*%
%ADD14R,1.600000X1.600000*%
%ADD15O,1.600000X1.600000*%
%ADD16C,1.600000*%
%ADD17C,2.000000*%
%ADD18FreePoly0,0.000000*%
%ADD19R,1.000000X1.500000*%
%ADD20FreePoly1,0.000000*%
G04 APERTURE END LIST*
D10*
X119500000Y-56960000D03*
D11*
X119500000Y-59500000D03*
X119500000Y-62040000D03*
D10*
X72500000Y-56960000D03*
D11*
X72500000Y-59500000D03*
X72500000Y-62040000D03*
D10*
X119500000Y-106960000D03*
D11*
X119500000Y-109500000D03*
X119500000Y-112040000D03*
D10*
X109998000Y-132750000D03*
D11*
X107458000Y-132750000D03*
X104918000Y-132750000D03*
X102378000Y-132750000D03*
X99838000Y-132750000D03*
X97298000Y-132750000D03*
X94758000Y-132750000D03*
X92218000Y-132750000D03*
X89678000Y-132750000D03*
X87138000Y-132750000D03*
X84598000Y-132750000D03*
X82058000Y-132750000D03*
D12*
X103500000Y-48500000D03*
D13*
X103500000Y-51040000D03*
X103500000Y-53580000D03*
X103500000Y-56120000D03*
X103500000Y-58660000D03*
X103500000Y-61200000D03*
X103500000Y-63740000D03*
X111120000Y-63740000D03*
X111120000Y-61200000D03*
X111120000Y-58660000D03*
X111120000Y-56120000D03*
X111120000Y-53580000D03*
X111120000Y-51040000D03*
X111120000Y-48500000D03*
D14*
X103500000Y-75000000D03*
D15*
X103500000Y-77540000D03*
X103500000Y-80080000D03*
X103500000Y-82620000D03*
X103500000Y-85160000D03*
X103500000Y-87700000D03*
X103500000Y-90240000D03*
X103500000Y-92780000D03*
X111120000Y-92780000D03*
X111120000Y-90240000D03*
X111120000Y-87700000D03*
X111120000Y-85160000D03*
X111120000Y-82620000D03*
X111120000Y-80080000D03*
X111120000Y-77540000D03*
X111120000Y-75000000D03*
D14*
X103500000Y-98500000D03*
D15*
X103500000Y-101040000D03*
X103500000Y-103580000D03*
X103500000Y-106120000D03*
X103500000Y-108660000D03*
X103500000Y-111200000D03*
X103500000Y-113740000D03*
X103500000Y-116280000D03*
X111120000Y-116280000D03*
X111120000Y-113740000D03*
X111120000Y-111200000D03*
X111120000Y-108660000D03*
X111120000Y-106120000D03*
X111120000Y-103580000D03*
X111120000Y-101040000D03*
X111120000Y-98500000D03*
D16*
X99500000Y-48000000D03*
D15*
X99500000Y-58160000D03*
D16*
X115000000Y-48000000D03*
D15*
X115000000Y-58160000D03*
D16*
X115000000Y-60500000D03*
D15*
X115000000Y-70660000D03*
D16*
X115000000Y-85500000D03*
D15*
X115000000Y-95660000D03*
D16*
X99500000Y-85500000D03*
D15*
X99500000Y-95660000D03*
D16*
X99500000Y-60500000D03*
D15*
X99500000Y-70660000D03*
D16*
X77000000Y-48000000D03*
D15*
X77000000Y-58160000D03*
D16*
X92500000Y-48000000D03*
D15*
X92500000Y-58160000D03*
D16*
X92500000Y-60500000D03*
D15*
X92500000Y-70660000D03*
D16*
X92500000Y-85500000D03*
D15*
X92500000Y-95660000D03*
D16*
X77000000Y-85500000D03*
D15*
X77000000Y-95660000D03*
D16*
X77000000Y-73000000D03*
D15*
X77000000Y-83160000D03*
D16*
X77000000Y-60500000D03*
D15*
X77000000Y-70660000D03*
D17*
X85500000Y-127000000D03*
X79000000Y-127000000D03*
X85500000Y-122500000D03*
X79000000Y-122500000D03*
X113000000Y-127000000D03*
X106500000Y-127000000D03*
X106500000Y-122500000D03*
X113000000Y-122500000D03*
D14*
X81000000Y-75000000D03*
D15*
X81000000Y-77540000D03*
X81000000Y-80080000D03*
X81000000Y-82620000D03*
X81000000Y-85160000D03*
X81000000Y-87700000D03*
X81000000Y-90240000D03*
X81000000Y-92780000D03*
X88620000Y-92780000D03*
X88620000Y-90240000D03*
X88620000Y-87700000D03*
X88620000Y-85160000D03*
X88620000Y-82620000D03*
X88620000Y-80080000D03*
X88620000Y-77540000D03*
X88620000Y-75000000D03*
D14*
X81000000Y-98500000D03*
D15*
X81000000Y-101040000D03*
X81000000Y-103580000D03*
X81000000Y-106120000D03*
X81000000Y-108660000D03*
X81000000Y-111200000D03*
X81000000Y-113740000D03*
X81000000Y-116280000D03*
X88620000Y-116280000D03*
X88620000Y-113740000D03*
X88620000Y-111200000D03*
X88620000Y-108660000D03*
X88620000Y-106120000D03*
X88620000Y-103580000D03*
X88620000Y-101040000D03*
X88620000Y-98500000D03*
D12*
X81000000Y-48500000D03*
D13*
X81000000Y-51040000D03*
X81000000Y-53580000D03*
X81000000Y-56120000D03*
X81000000Y-58660000D03*
X81000000Y-61200000D03*
X81000000Y-63740000D03*
X88620000Y-63740000D03*
X88620000Y-61200000D03*
X88620000Y-58660000D03*
X88620000Y-56120000D03*
X88620000Y-53580000D03*
X88620000Y-51040000D03*
X88620000Y-48500000D03*
D16*
X92500000Y-75000000D03*
X92500000Y-77500000D03*
X99500000Y-75000000D03*
X99500000Y-77500000D03*
D10*
X99823000Y-121980000D03*
D11*
X97283000Y-121980000D03*
X94743000Y-121980000D03*
X92203000Y-121980000D03*
D10*
X99823000Y-124520000D03*
D11*
X97283000Y-124520000D03*
X94743000Y-124520000D03*
X92203000Y-124520000D03*
D10*
X99823000Y-127060000D03*
D11*
X97283000Y-127060000D03*
X94743000Y-127060000D03*
X92203000Y-127060000D03*
D16*
X92500000Y-106500000D03*
D15*
X92500000Y-116660000D03*
D16*
X99500000Y-116660000D03*
D15*
X99500000Y-106500000D03*
D10*
X72500000Y-106960000D03*
D11*
X72500000Y-109500000D03*
X72500000Y-112040000D03*
D16*
X115000000Y-73000000D03*
D15*
X115000000Y-83160000D03*
D18*
X83700000Y-69500000D03*
D19*
X85000000Y-69500000D03*
D20*
X86300000Y-69500000D03*
D18*
X105700000Y-69500000D03*
D19*
X107000000Y-69500000D03*
D20*
X108300000Y-69500000D03*
M02*
