G04 #@! TF.GenerationSoftware,KiCad,Pcbnew,6.0.1-79c1e3a40b~116~ubuntu21.04.1*
G04 #@! TF.CreationDate,2022-02-15T17:04:31-05:00*
G04 #@! TF.ProjectId,display_module,64697370-6c61-4795-9f6d-6f64756c652e,rev?*
G04 #@! TF.SameCoordinates,Original*
G04 #@! TF.FileFunction,Legend,Bot*
G04 #@! TF.FilePolarity,Positive*
%FSLAX46Y46*%
G04 Gerber Fmt 4.6, Leading zero omitted, Abs format (unit mm)*
G04 Created by KiCad (PCBNEW 6.0.1-79c1e3a40b~116~ubuntu21.04.1) date 2022-02-15 17:04:31*
%MOMM*%
%LPD*%
G01*
G04 APERTURE LIST*
G04 Aperture macros list*
%AMFreePoly0*
4,1,22,0.550000,-0.750000,0.000000,-0.750000,0.000000,-0.745033,-0.079941,-0.743568,-0.215256,-0.701293,-0.333266,-0.622738,-0.424486,-0.514219,-0.481581,-0.384460,-0.499164,-0.250000,-0.500000,-0.250000,-0.500000,0.250000,-0.499164,0.250000,-0.499963,0.256109,-0.478152,0.396186,-0.417904,0.524511,-0.324060,0.630769,-0.204165,0.706417,-0.067858,0.745374,0.000000,0.744959,0.000000,0.750000,
0.550000,0.750000,0.550000,-0.750000,0.550000,-0.750000,$1*%
%AMFreePoly1*
4,1,20,0.000000,0.744959,0.073905,0.744508,0.209726,0.703889,0.328688,0.626782,0.421226,0.519385,0.479903,0.390333,0.500000,0.250000,0.500000,-0.250000,0.499851,-0.262216,0.476331,-0.402017,0.414519,-0.529596,0.319384,-0.634700,0.198574,-0.708877,0.061801,-0.746166,0.000000,-0.745033,0.000000,-0.750000,-0.550000,-0.750000,-0.550000,0.750000,0.000000,0.750000,0.000000,0.744959,
0.000000,0.744959,$1*%
G04 Aperture macros list end*
%ADD10C,0.150000*%
%ADD11C,0.120000*%
%ADD12R,1.700000X1.700000*%
%ADD13O,1.700000X1.700000*%
%ADD14R,1.500000X1.500000*%
%ADD15C,1.500000*%
%ADD16R,1.600000X1.600000*%
%ADD17O,1.600000X1.600000*%
%ADD18C,1.600000*%
%ADD19C,2.000000*%
%ADD20FreePoly0,0.000000*%
%ADD21R,1.000000X1.500000*%
%ADD22FreePoly1,0.000000*%
G04 APERTURE END LIST*
D10*
X120244715Y-125327704D02*
X120181580Y-125458182D01*
X120013221Y-125626541D01*
X119907997Y-125664422D01*
X119836445Y-125668631D01*
X119727012Y-125643377D01*
X119651250Y-125584451D01*
X119609160Y-125491854D01*
X119604951Y-125428719D01*
X119634414Y-125331913D01*
X119731220Y-125167763D01*
X119760683Y-125070957D01*
X119756474Y-125007822D01*
X119714385Y-124915225D01*
X119638623Y-124856300D01*
X119529190Y-124831046D01*
X119457638Y-124835255D01*
X119352413Y-124873135D01*
X119184055Y-125041494D01*
X119120920Y-125171972D01*
X119381876Y-125853825D02*
X119045159Y-126190543D01*
X119676504Y-125963258D02*
X118645307Y-125580242D01*
X119205099Y-126434663D01*
X118274917Y-125950631D02*
X118834710Y-126805052D01*
X117803513Y-126422036D01*
X117433123Y-126792425D02*
X117298436Y-126927112D01*
X117268974Y-127023919D01*
X117277392Y-127150188D01*
X117395243Y-127301711D01*
X117660408Y-127507950D01*
X117845602Y-127592129D01*
X117988707Y-127583711D01*
X118093932Y-127545831D01*
X118228619Y-127411144D01*
X118258081Y-127314337D01*
X118249663Y-127188068D01*
X118131812Y-127036545D01*
X117866647Y-126830306D01*
X117681453Y-126746127D01*
X117538348Y-126754545D01*
X117433123Y-126792425D01*
X116431389Y-128467595D02*
X116368254Y-128598073D01*
X116372463Y-128661207D01*
X116414553Y-128753805D01*
X116528195Y-128842193D01*
X116637628Y-128867447D01*
X116709181Y-128863238D01*
X116814405Y-128825357D01*
X117083779Y-128555983D01*
X116288284Y-127937265D01*
X116052582Y-128172967D01*
X116023119Y-128269773D01*
X116027328Y-128332908D01*
X116069418Y-128425505D01*
X116145179Y-128484431D01*
X116254612Y-128509685D01*
X116326165Y-128505476D01*
X116431389Y-128467595D01*
X116667091Y-128231893D01*
X116183060Y-129052642D02*
X115846342Y-129389359D01*
X116477687Y-129162075D02*
X115446490Y-128779059D01*
X116006283Y-129633479D01*
X114773055Y-129452494D02*
X115341266Y-129894435D01*
X115488580Y-129949152D01*
X115631685Y-129940734D01*
X115770581Y-129869182D01*
X115837924Y-129801838D01*
X115231833Y-130407930D02*
X114436338Y-129789211D01*
X114415293Y-131089783D02*
X114486845Y-131085574D01*
X114625741Y-131014021D01*
X114693085Y-130946678D01*
X114756219Y-130816200D01*
X114747801Y-130689931D01*
X114705712Y-130597333D01*
X114587860Y-130445810D01*
X114474218Y-130357422D01*
X114289024Y-130273243D01*
X114179590Y-130247989D01*
X114036486Y-130256407D01*
X113897590Y-130327959D01*
X113830246Y-130395303D01*
X113767112Y-130525781D01*
X113771320Y-130588915D01*
X108095238Y-65623571D02*
X107952380Y-65671190D01*
X107904761Y-65718809D01*
X107857142Y-65814047D01*
X107857142Y-65956904D01*
X107904761Y-66052142D01*
X107952380Y-66099761D01*
X108047619Y-66147380D01*
X108428571Y-66147380D01*
X108428571Y-65147380D01*
X108095238Y-65147380D01*
X108000000Y-65195000D01*
X107952380Y-65242619D01*
X107904761Y-65337857D01*
X107904761Y-65433095D01*
X107952380Y-65528333D01*
X108000000Y-65575952D01*
X108095238Y-65623571D01*
X108428571Y-65623571D01*
X106857142Y-66147380D02*
X107190476Y-65671190D01*
X107428571Y-66147380D02*
X107428571Y-65147380D01*
X107047619Y-65147380D01*
X106952380Y-65195000D01*
X106904761Y-65242619D01*
X106857142Y-65337857D01*
X106857142Y-65480714D01*
X106904761Y-65575952D01*
X106952380Y-65623571D01*
X107047619Y-65671190D01*
X107428571Y-65671190D01*
X106428571Y-66147380D02*
X106428571Y-65147380D01*
X105952380Y-66147380D02*
X105952380Y-65147380D01*
X105714285Y-65147380D01*
X105571428Y-65195000D01*
X105476190Y-65290238D01*
X105428571Y-65385476D01*
X105380952Y-65575952D01*
X105380952Y-65718809D01*
X105428571Y-65909285D01*
X105476190Y-66004523D01*
X105571428Y-66099761D01*
X105714285Y-66147380D01*
X105952380Y-66147380D01*
X104428571Y-65195000D02*
X104523809Y-65147380D01*
X104666666Y-65147380D01*
X104809523Y-65195000D01*
X104904761Y-65290238D01*
X104952380Y-65385476D01*
X105000000Y-65575952D01*
X105000000Y-65718809D01*
X104952380Y-65909285D01*
X104904761Y-66004523D01*
X104809523Y-66099761D01*
X104666666Y-66147380D01*
X104571428Y-66147380D01*
X104428571Y-66099761D01*
X104380952Y-66052142D01*
X104380952Y-65718809D01*
X104571428Y-65718809D01*
X103952380Y-65623571D02*
X103619047Y-65623571D01*
X103476190Y-66147380D02*
X103952380Y-66147380D01*
X103952380Y-65147380D01*
X103476190Y-65147380D01*
X102428571Y-65147380D02*
X101857142Y-65147380D01*
X102142857Y-66147380D02*
X102142857Y-65147380D01*
X101333333Y-65147380D02*
X101142857Y-65147380D01*
X101047619Y-65195000D01*
X100952380Y-65290238D01*
X100904761Y-65480714D01*
X100904761Y-65814047D01*
X100952380Y-66004523D01*
X101047619Y-66099761D01*
X101142857Y-66147380D01*
X101333333Y-66147380D01*
X101428571Y-66099761D01*
X101523809Y-66004523D01*
X101571428Y-65814047D01*
X101571428Y-65480714D01*
X101523809Y-65290238D01*
X101428571Y-65195000D01*
X101333333Y-65147380D01*
X99761904Y-65861666D02*
X99285714Y-65861666D01*
X99857142Y-66147380D02*
X99523809Y-65147380D01*
X99190476Y-66147380D01*
X98285714Y-66147380D02*
X98619047Y-65671190D01*
X98857142Y-66147380D02*
X98857142Y-65147380D01*
X98476190Y-65147380D01*
X98380952Y-65195000D01*
X98333333Y-65242619D01*
X98285714Y-65337857D01*
X98285714Y-65480714D01*
X98333333Y-65575952D01*
X98380952Y-65623571D01*
X98476190Y-65671190D01*
X98857142Y-65671190D01*
X97285714Y-66147380D02*
X97619047Y-65671190D01*
X97857142Y-66147380D02*
X97857142Y-65147380D01*
X97476190Y-65147380D01*
X97380952Y-65195000D01*
X97333333Y-65242619D01*
X97285714Y-65337857D01*
X97285714Y-65480714D01*
X97333333Y-65575952D01*
X97380952Y-65623571D01*
X97476190Y-65671190D01*
X97857142Y-65671190D01*
X96666666Y-65147380D02*
X96476190Y-65147380D01*
X96380952Y-65195000D01*
X96285714Y-65290238D01*
X96238095Y-65480714D01*
X96238095Y-65814047D01*
X96285714Y-66004523D01*
X96380952Y-66099761D01*
X96476190Y-66147380D01*
X96666666Y-66147380D01*
X96761904Y-66099761D01*
X96857142Y-66004523D01*
X96904761Y-65814047D01*
X96904761Y-65480714D01*
X96857142Y-65290238D01*
X96761904Y-65195000D01*
X96666666Y-65147380D01*
X95904761Y-65147380D02*
X95666666Y-66147380D01*
X95476190Y-65433095D01*
X95285714Y-66147380D01*
X95047619Y-65147380D01*
X93571428Y-65623571D02*
X93904761Y-65623571D01*
X93904761Y-66147380D02*
X93904761Y-65147380D01*
X93428571Y-65147380D01*
X92857142Y-65147380D02*
X92666666Y-65147380D01*
X92571428Y-65195000D01*
X92476190Y-65290238D01*
X92428571Y-65480714D01*
X92428571Y-65814047D01*
X92476190Y-66004523D01*
X92571428Y-66099761D01*
X92666666Y-66147380D01*
X92857142Y-66147380D01*
X92952380Y-66099761D01*
X93047619Y-66004523D01*
X93095238Y-65814047D01*
X93095238Y-65480714D01*
X93047619Y-65290238D01*
X92952380Y-65195000D01*
X92857142Y-65147380D01*
X91428571Y-66147380D02*
X91761904Y-65671190D01*
X92000000Y-66147380D02*
X92000000Y-65147380D01*
X91619047Y-65147380D01*
X91523809Y-65195000D01*
X91476190Y-65242619D01*
X91428571Y-65337857D01*
X91428571Y-65480714D01*
X91476190Y-65575952D01*
X91523809Y-65623571D01*
X91619047Y-65671190D01*
X92000000Y-65671190D01*
X89666666Y-66052142D02*
X89714285Y-66099761D01*
X89857142Y-66147380D01*
X89952380Y-66147380D01*
X90095238Y-66099761D01*
X90190476Y-66004523D01*
X90238095Y-65909285D01*
X90285714Y-65718809D01*
X90285714Y-65575952D01*
X90238095Y-65385476D01*
X90190476Y-65290238D01*
X90095238Y-65195000D01*
X89952380Y-65147380D01*
X89857142Y-65147380D01*
X89714285Y-65195000D01*
X89666666Y-65242619D01*
X88666666Y-66052142D02*
X88714285Y-66099761D01*
X88857142Y-66147380D01*
X88952380Y-66147380D01*
X89095238Y-66099761D01*
X89190476Y-66004523D01*
X89238095Y-65909285D01*
X89285714Y-65718809D01*
X89285714Y-65575952D01*
X89238095Y-65385476D01*
X89190476Y-65290238D01*
X89095238Y-65195000D01*
X88952380Y-65147380D01*
X88857142Y-65147380D01*
X88714285Y-65195000D01*
X88666666Y-65242619D01*
X87190476Y-66528333D02*
X87238095Y-66480714D01*
X87333333Y-66337857D01*
X87380952Y-66242619D01*
X87428571Y-66099761D01*
X87476190Y-65861666D01*
X87476190Y-65671190D01*
X87428571Y-65433095D01*
X87380952Y-65290238D01*
X87333333Y-65195000D01*
X87238095Y-65052142D01*
X87190476Y-65004523D01*
X86285714Y-65195000D02*
X86380952Y-65147380D01*
X86523809Y-65147380D01*
X86666666Y-65195000D01*
X86761904Y-65290238D01*
X86809523Y-65385476D01*
X86857142Y-65575952D01*
X86857142Y-65718809D01*
X86809523Y-65909285D01*
X86761904Y-66004523D01*
X86666666Y-66099761D01*
X86523809Y-66147380D01*
X86428571Y-66147380D01*
X86285714Y-66099761D01*
X86238095Y-66052142D01*
X86238095Y-65718809D01*
X86428571Y-65718809D01*
X85809523Y-66147380D02*
X85809523Y-65147380D01*
X85238095Y-66147380D01*
X85238095Y-65147380D01*
X84761904Y-66147380D02*
X84761904Y-65147380D01*
X84523809Y-65147380D01*
X84380952Y-65195000D01*
X84285714Y-65290238D01*
X84238095Y-65385476D01*
X84190476Y-65575952D01*
X84190476Y-65718809D01*
X84238095Y-65909285D01*
X84285714Y-66004523D01*
X84380952Y-66099761D01*
X84523809Y-66147380D01*
X84761904Y-66147380D01*
X83857142Y-66528333D02*
X83809523Y-66480714D01*
X83714285Y-66337857D01*
X83666666Y-66242619D01*
X83619047Y-66099761D01*
X83571428Y-65861666D01*
X83571428Y-65671190D01*
X83619047Y-65433095D01*
X83666666Y-65290238D01*
X83714285Y-65195000D01*
X83809523Y-65052142D01*
X83857142Y-65004523D01*
X105619047Y-66757380D02*
X105428571Y-66757380D01*
X105333333Y-66805000D01*
X105238095Y-66900238D01*
X105190476Y-67090714D01*
X105190476Y-67424047D01*
X105238095Y-67614523D01*
X105333333Y-67709761D01*
X105428571Y-67757380D01*
X105619047Y-67757380D01*
X105714285Y-67709761D01*
X105809523Y-67614523D01*
X105857142Y-67424047D01*
X105857142Y-67090714D01*
X105809523Y-66900238D01*
X105714285Y-66805000D01*
X105619047Y-66757380D01*
X104904761Y-66757380D02*
X104333333Y-66757380D01*
X104619047Y-67757380D02*
X104619047Y-66757380D01*
X104000000Y-67757380D02*
X104000000Y-66757380D01*
X104000000Y-67233571D02*
X103428571Y-67233571D01*
X103428571Y-67757380D02*
X103428571Y-66757380D01*
X102952380Y-67233571D02*
X102619047Y-67233571D01*
X102476190Y-67757380D02*
X102952380Y-67757380D01*
X102952380Y-66757380D01*
X102476190Y-66757380D01*
X101476190Y-67757380D02*
X101809523Y-67281190D01*
X102047619Y-67757380D02*
X102047619Y-66757380D01*
X101666666Y-66757380D01*
X101571428Y-66805000D01*
X101523809Y-66852619D01*
X101476190Y-66947857D01*
X101476190Y-67090714D01*
X101523809Y-67185952D01*
X101571428Y-67233571D01*
X101666666Y-67281190D01*
X102047619Y-67281190D01*
X100333333Y-67709761D02*
X100190476Y-67757380D01*
X99952380Y-67757380D01*
X99857142Y-67709761D01*
X99809523Y-67662142D01*
X99761904Y-67566904D01*
X99761904Y-67471666D01*
X99809523Y-67376428D01*
X99857142Y-67328809D01*
X99952380Y-67281190D01*
X100142857Y-67233571D01*
X100238095Y-67185952D01*
X100285714Y-67138333D01*
X100333333Y-67043095D01*
X100333333Y-66947857D01*
X100285714Y-66852619D01*
X100238095Y-66805000D01*
X100142857Y-66757380D01*
X99904761Y-66757380D01*
X99761904Y-66805000D01*
X99333333Y-67757380D02*
X99333333Y-66757380D01*
X98857142Y-67757380D02*
X98857142Y-66757380D01*
X98619047Y-66757380D01*
X98476190Y-66805000D01*
X98380952Y-66900238D01*
X98333333Y-66995476D01*
X98285714Y-67185952D01*
X98285714Y-67328809D01*
X98333333Y-67519285D01*
X98380952Y-67614523D01*
X98476190Y-67709761D01*
X98619047Y-67757380D01*
X98857142Y-67757380D01*
X97857142Y-67233571D02*
X97523809Y-67233571D01*
X97380952Y-67757380D02*
X97857142Y-67757380D01*
X97857142Y-66757380D01*
X97380952Y-66757380D01*
X95857142Y-67233571D02*
X96190476Y-67233571D01*
X96190476Y-67757380D02*
X96190476Y-66757380D01*
X95714285Y-66757380D01*
X95142857Y-66757380D02*
X94952380Y-66757380D01*
X94857142Y-66805000D01*
X94761904Y-66900238D01*
X94714285Y-67090714D01*
X94714285Y-67424047D01*
X94761904Y-67614523D01*
X94857142Y-67709761D01*
X94952380Y-67757380D01*
X95142857Y-67757380D01*
X95238095Y-67709761D01*
X95333333Y-67614523D01*
X95380952Y-67424047D01*
X95380952Y-67090714D01*
X95333333Y-66900238D01*
X95238095Y-66805000D01*
X95142857Y-66757380D01*
X93714285Y-67757380D02*
X94047619Y-67281190D01*
X94285714Y-67757380D02*
X94285714Y-66757380D01*
X93904761Y-66757380D01*
X93809523Y-66805000D01*
X93761904Y-66852619D01*
X93714285Y-66947857D01*
X93714285Y-67090714D01*
X93761904Y-67185952D01*
X93809523Y-67233571D01*
X93904761Y-67281190D01*
X94285714Y-67281190D01*
X91952380Y-67662142D02*
X92000000Y-67709761D01*
X92142857Y-67757380D01*
X92238095Y-67757380D01*
X92380952Y-67709761D01*
X92476190Y-67614523D01*
X92523809Y-67519285D01*
X92571428Y-67328809D01*
X92571428Y-67185952D01*
X92523809Y-66995476D01*
X92476190Y-66900238D01*
X92380952Y-66805000D01*
X92238095Y-66757380D01*
X92142857Y-66757380D01*
X92000000Y-66805000D01*
X91952380Y-66852619D01*
X91571428Y-67471666D02*
X91095238Y-67471666D01*
X91666666Y-67757380D02*
X91333333Y-66757380D01*
X91000000Y-67757380D01*
X89619047Y-68138333D02*
X89666666Y-68090714D01*
X89761904Y-67947857D01*
X89809523Y-67852619D01*
X89857142Y-67709761D01*
X89904761Y-67471666D01*
X89904761Y-67281190D01*
X89857142Y-67043095D01*
X89809523Y-66900238D01*
X89761904Y-66805000D01*
X89666666Y-66662142D01*
X89619047Y-66614523D01*
X89380952Y-66757380D02*
X89047619Y-67757380D01*
X88714285Y-66757380D01*
X87809523Y-67662142D02*
X87857142Y-67709761D01*
X88000000Y-67757380D01*
X88095238Y-67757380D01*
X88238095Y-67709761D01*
X88333333Y-67614523D01*
X88380952Y-67519285D01*
X88428571Y-67328809D01*
X88428571Y-67185952D01*
X88380952Y-66995476D01*
X88333333Y-66900238D01*
X88238095Y-66805000D01*
X88095238Y-66757380D01*
X88000000Y-66757380D01*
X87857142Y-66805000D01*
X87809523Y-66852619D01*
X86809523Y-67662142D02*
X86857142Y-67709761D01*
X87000000Y-67757380D01*
X87095238Y-67757380D01*
X87238095Y-67709761D01*
X87333333Y-67614523D01*
X87380952Y-67519285D01*
X87428571Y-67328809D01*
X87428571Y-67185952D01*
X87380952Y-66995476D01*
X87333333Y-66900238D01*
X87238095Y-66805000D01*
X87095238Y-66757380D01*
X87000000Y-66757380D01*
X86857142Y-66805000D01*
X86809523Y-66852619D01*
X86476190Y-68138333D02*
X86428571Y-68090714D01*
X86333333Y-67947857D01*
X86285714Y-67852619D01*
X86238095Y-67709761D01*
X86190476Y-67471666D01*
X86190476Y-67281190D01*
X86238095Y-67043095D01*
X86285714Y-66900238D01*
X86333333Y-66805000D01*
X86428571Y-66662142D01*
X86476190Y-66614523D01*
X85833333Y-70752380D02*
X85833333Y-71466666D01*
X85880952Y-71609523D01*
X85976190Y-71704761D01*
X86119047Y-71752380D01*
X86214285Y-71752380D01*
X85357142Y-71752380D02*
X85357142Y-70752380D01*
X84976190Y-70752380D01*
X84880952Y-70800000D01*
X84833333Y-70847619D01*
X84785714Y-70942857D01*
X84785714Y-71085714D01*
X84833333Y-71180952D01*
X84880952Y-71228571D01*
X84976190Y-71276190D01*
X85357142Y-71276190D01*
X83833333Y-71752380D02*
X84404761Y-71752380D01*
X84119047Y-71752380D02*
X84119047Y-70752380D01*
X84214285Y-70895238D01*
X84309523Y-70990476D01*
X84404761Y-71038095D01*
X107833333Y-70752380D02*
X107833333Y-71466666D01*
X107880952Y-71609523D01*
X107976190Y-71704761D01*
X108119047Y-71752380D01*
X108214285Y-71752380D01*
X107357142Y-71752380D02*
X107357142Y-70752380D01*
X106976190Y-70752380D01*
X106880952Y-70800000D01*
X106833333Y-70847619D01*
X106785714Y-70942857D01*
X106785714Y-71085714D01*
X106833333Y-71180952D01*
X106880952Y-71228571D01*
X106976190Y-71276190D01*
X107357142Y-71276190D01*
X106404761Y-70847619D02*
X106357142Y-70800000D01*
X106261904Y-70752380D01*
X106023809Y-70752380D01*
X105928571Y-70800000D01*
X105880952Y-70847619D01*
X105833333Y-70942857D01*
X105833333Y-71038095D01*
X105880952Y-71180952D01*
X106452380Y-71752380D01*
X105833333Y-71752380D01*
D11*
X86400000Y-68500000D02*
X83600000Y-68500000D01*
X83800000Y-68300000D02*
X83500000Y-68000000D01*
X82950000Y-69200000D02*
X82950000Y-69800000D01*
X87050000Y-69800000D02*
X87050000Y-69200000D01*
X83600000Y-70500000D02*
X86400000Y-70500000D01*
X83500000Y-68000000D02*
X84100000Y-68000000D01*
X83800000Y-68300000D02*
X84100000Y-68000000D01*
X86350000Y-70500000D02*
G75*
G03*
X87050000Y-69800000I1J699999D01*
G01*
X83650000Y-68500000D02*
G75*
G03*
X82950000Y-69200000I-1J-699999D01*
G01*
X82950000Y-69800000D02*
G75*
G03*
X83650000Y-70500000I699999J-1D01*
G01*
X87050000Y-69200000D02*
G75*
G03*
X86350000Y-68500000I-699999J1D01*
G01*
X105800000Y-68300000D02*
X105500000Y-68000000D01*
X104950000Y-69200000D02*
X104950000Y-69800000D01*
X109050000Y-69800000D02*
X109050000Y-69200000D01*
X105600000Y-70500000D02*
X108400000Y-70500000D01*
X105800000Y-68300000D02*
X106100000Y-68000000D01*
X105500000Y-68000000D02*
X106100000Y-68000000D01*
X108400000Y-68500000D02*
X105600000Y-68500000D01*
X104950000Y-69800000D02*
G75*
G03*
X105650000Y-70500000I699999J-1D01*
G01*
X108350000Y-70500000D02*
G75*
G03*
X109050000Y-69800000I1J699999D01*
G01*
X105650000Y-68500000D02*
G75*
G03*
X104950000Y-69200000I-1J-699999D01*
G01*
X109050000Y-69200000D02*
G75*
G03*
X108350000Y-68500000I-699999J1D01*
G01*
%LPC*%
D12*
X119500000Y-56960000D03*
D13*
X119500000Y-59500000D03*
X119500000Y-62040000D03*
D12*
X72500000Y-56960000D03*
D13*
X72500000Y-59500000D03*
X72500000Y-62040000D03*
D12*
X119500000Y-106960000D03*
D13*
X119500000Y-109500000D03*
X119500000Y-112040000D03*
D12*
X109998000Y-132750000D03*
D13*
X107458000Y-132750000D03*
X104918000Y-132750000D03*
X102378000Y-132750000D03*
X99838000Y-132750000D03*
X97298000Y-132750000D03*
X94758000Y-132750000D03*
X92218000Y-132750000D03*
X89678000Y-132750000D03*
X87138000Y-132750000D03*
X84598000Y-132750000D03*
X82058000Y-132750000D03*
D14*
X103500000Y-48500000D03*
D15*
X103500000Y-51040000D03*
X103500000Y-53580000D03*
X103500000Y-56120000D03*
X103500000Y-58660000D03*
X103500000Y-61200000D03*
X103500000Y-63740000D03*
X111120000Y-63740000D03*
X111120000Y-61200000D03*
X111120000Y-58660000D03*
X111120000Y-56120000D03*
X111120000Y-53580000D03*
X111120000Y-51040000D03*
X111120000Y-48500000D03*
D16*
X103500000Y-75000000D03*
D17*
X103500000Y-77540000D03*
X103500000Y-80080000D03*
X103500000Y-82620000D03*
X103500000Y-85160000D03*
X103500000Y-87700000D03*
X103500000Y-90240000D03*
X103500000Y-92780000D03*
X111120000Y-92780000D03*
X111120000Y-90240000D03*
X111120000Y-87700000D03*
X111120000Y-85160000D03*
X111120000Y-82620000D03*
X111120000Y-80080000D03*
X111120000Y-77540000D03*
X111120000Y-75000000D03*
D16*
X103500000Y-98500000D03*
D17*
X103500000Y-101040000D03*
X103500000Y-103580000D03*
X103500000Y-106120000D03*
X103500000Y-108660000D03*
X103500000Y-111200000D03*
X103500000Y-113740000D03*
X103500000Y-116280000D03*
X111120000Y-116280000D03*
X111120000Y-113740000D03*
X111120000Y-111200000D03*
X111120000Y-108660000D03*
X111120000Y-106120000D03*
X111120000Y-103580000D03*
X111120000Y-101040000D03*
X111120000Y-98500000D03*
D18*
X99500000Y-48000000D03*
D17*
X99500000Y-58160000D03*
D18*
X115000000Y-48000000D03*
D17*
X115000000Y-58160000D03*
D18*
X115000000Y-60500000D03*
D17*
X115000000Y-70660000D03*
D18*
X115000000Y-85500000D03*
D17*
X115000000Y-95660000D03*
D18*
X99500000Y-85500000D03*
D17*
X99500000Y-95660000D03*
D18*
X99500000Y-60500000D03*
D17*
X99500000Y-70660000D03*
D18*
X77000000Y-48000000D03*
D17*
X77000000Y-58160000D03*
D18*
X92500000Y-48000000D03*
D17*
X92500000Y-58160000D03*
D18*
X92500000Y-60500000D03*
D17*
X92500000Y-70660000D03*
D18*
X92500000Y-85500000D03*
D17*
X92500000Y-95660000D03*
D18*
X77000000Y-85500000D03*
D17*
X77000000Y-95660000D03*
D18*
X77000000Y-73000000D03*
D17*
X77000000Y-83160000D03*
D18*
X77000000Y-60500000D03*
D17*
X77000000Y-70660000D03*
D19*
X85500000Y-127000000D03*
X79000000Y-127000000D03*
X85500000Y-122500000D03*
X79000000Y-122500000D03*
X113000000Y-127000000D03*
X106500000Y-127000000D03*
X106500000Y-122500000D03*
X113000000Y-122500000D03*
D16*
X81000000Y-75000000D03*
D17*
X81000000Y-77540000D03*
X81000000Y-80080000D03*
X81000000Y-82620000D03*
X81000000Y-85160000D03*
X81000000Y-87700000D03*
X81000000Y-90240000D03*
X81000000Y-92780000D03*
X88620000Y-92780000D03*
X88620000Y-90240000D03*
X88620000Y-87700000D03*
X88620000Y-85160000D03*
X88620000Y-82620000D03*
X88620000Y-80080000D03*
X88620000Y-77540000D03*
X88620000Y-75000000D03*
D16*
X81000000Y-98500000D03*
D17*
X81000000Y-101040000D03*
X81000000Y-103580000D03*
X81000000Y-106120000D03*
X81000000Y-108660000D03*
X81000000Y-111200000D03*
X81000000Y-113740000D03*
X81000000Y-116280000D03*
X88620000Y-116280000D03*
X88620000Y-113740000D03*
X88620000Y-111200000D03*
X88620000Y-108660000D03*
X88620000Y-106120000D03*
X88620000Y-103580000D03*
X88620000Y-101040000D03*
X88620000Y-98500000D03*
D14*
X81000000Y-48500000D03*
D15*
X81000000Y-51040000D03*
X81000000Y-53580000D03*
X81000000Y-56120000D03*
X81000000Y-58660000D03*
X81000000Y-61200000D03*
X81000000Y-63740000D03*
X88620000Y-63740000D03*
X88620000Y-61200000D03*
X88620000Y-58660000D03*
X88620000Y-56120000D03*
X88620000Y-53580000D03*
X88620000Y-51040000D03*
X88620000Y-48500000D03*
D18*
X92500000Y-75000000D03*
X92500000Y-77500000D03*
X99500000Y-75000000D03*
X99500000Y-77500000D03*
D12*
X99823000Y-121980000D03*
D13*
X97283000Y-121980000D03*
X94743000Y-121980000D03*
X92203000Y-121980000D03*
D12*
X99823000Y-124520000D03*
D13*
X97283000Y-124520000D03*
X94743000Y-124520000D03*
X92203000Y-124520000D03*
D12*
X99823000Y-127060000D03*
D13*
X97283000Y-127060000D03*
X94743000Y-127060000D03*
X92203000Y-127060000D03*
D18*
X92500000Y-106500000D03*
D17*
X92500000Y-116660000D03*
D18*
X99500000Y-116660000D03*
D17*
X99500000Y-106500000D03*
D12*
X72500000Y-106960000D03*
D13*
X72500000Y-109500000D03*
X72500000Y-112040000D03*
D18*
X115000000Y-73000000D03*
D17*
X115000000Y-83160000D03*
D20*
X83700000Y-69500000D03*
D21*
X85000000Y-69500000D03*
D22*
X86300000Y-69500000D03*
D20*
X105700000Y-69500000D03*
D21*
X107000000Y-69500000D03*
D22*
X108300000Y-69500000D03*
M02*
