M48
; DRILL file {KiCad 6.0.1-79c1e3a40b~116~ubuntu21.04.1} date Tue 15 Feb 2022 05:04:37 PM
; FORMAT={-:-/ absolute / metric / decimal}
; #@! TF.CreationDate,2022-02-15T17:04:37-05:00
; #@! TF.GenerationSoftware,Kicad,Pcbnew,6.0.1-79c1e3a40b~116~ubuntu21.04.1
; #@! TF.FileFunction,Plated,1,2,PTH
FMAT,2
METRIC
; #@! TA.AperFunction,Plated,PTH,ViaDrill
T1C0.400
; #@! TA.AperFunction,Plated,PTH,ComponentDrill
T2C0.700
; #@! TA.AperFunction,Plated,PTH,ComponentDrill
T3C0.800
; #@! TA.AperFunction,Plated,PTH,ComponentDrill
T4C1.000
; #@! TA.AperFunction,Plated,PTH,ComponentDrill
T5C1.100
%
G90
G05
T1
X74.5Y-112.0
X74.75Y-95.0
X75.0Y-106.0
X75.25Y-114.0
X75.75Y-107.5
X76.25Y-112.25
X79.5Y-68.5
X79.5Y-73.0
X83.25Y-57.75
X83.5Y-90.5
X83.54Y-80.08
X84.25Y-107.5
X86.66Y-49.84
X90.75Y-112.0
X97.16Y-49.84
X97.25Y-56.75
X105.25Y-113.25
X105.8Y-90.25
X106.525Y-104.25
X107.25Y-100.0
X107.5Y-105.0
X107.75Y-125.0
X109.5Y-119.25
X113.25Y-131.25
T2
X81.0Y-48.5
X81.0Y-51.04
X81.0Y-53.58
X81.0Y-56.12
X81.0Y-58.66
X81.0Y-61.2
X81.0Y-63.74
X88.62Y-48.5
X88.62Y-51.04
X88.62Y-53.58
X88.62Y-56.12
X88.62Y-58.66
X88.62Y-61.2
X88.62Y-63.74
X103.5Y-48.5
X103.5Y-51.04
X103.5Y-53.58
X103.5Y-56.12
X103.5Y-58.66
X103.5Y-61.2
X103.5Y-63.74
X111.12Y-48.5
X111.12Y-51.04
X111.12Y-53.58
X111.12Y-56.12
X111.12Y-58.66
X111.12Y-61.2
X111.12Y-63.74
T3
X77.0Y-48.0
X77.0Y-58.16
X77.0Y-60.5
X77.0Y-70.66
X77.0Y-73.0
X77.0Y-83.16
X77.0Y-85.5
X77.0Y-95.66
X81.0Y-75.0
X81.0Y-77.54
X81.0Y-80.08
X81.0Y-82.62
X81.0Y-85.16
X81.0Y-87.7
X81.0Y-90.24
X81.0Y-92.78
X81.0Y-98.5
X81.0Y-101.04
X81.0Y-103.58
X81.0Y-106.12
X81.0Y-108.66
X81.0Y-111.2
X81.0Y-113.74
X81.0Y-116.28
X88.62Y-75.0
X88.62Y-77.54
X88.62Y-80.08
X88.62Y-82.62
X88.62Y-85.16
X88.62Y-87.7
X88.62Y-90.24
X88.62Y-92.78
X88.62Y-98.5
X88.62Y-101.04
X88.62Y-103.58
X88.62Y-106.12
X88.62Y-108.66
X88.62Y-111.2
X88.62Y-113.74
X88.62Y-116.28
X92.5Y-48.0
X92.5Y-58.16
X92.5Y-60.5
X92.5Y-70.66
X92.5Y-75.0
X92.5Y-77.5
X92.5Y-85.5
X92.5Y-95.66
X92.5Y-106.5
X92.5Y-116.66
X99.5Y-48.0
X99.5Y-58.16
X99.5Y-60.5
X99.5Y-70.66
X99.5Y-75.0
X99.5Y-77.5
X99.5Y-85.5
X99.5Y-95.66
X99.5Y-106.5
X99.5Y-116.66
X103.5Y-75.0
X103.5Y-77.54
X103.5Y-80.08
X103.5Y-82.62
X103.5Y-85.16
X103.5Y-87.7
X103.5Y-90.24
X103.5Y-92.78
X103.5Y-98.5
X103.5Y-101.04
X103.5Y-103.58
X103.5Y-106.12
X103.5Y-108.66
X103.5Y-111.2
X103.5Y-113.74
X103.5Y-116.28
X111.12Y-75.0
X111.12Y-77.54
X111.12Y-80.08
X111.12Y-82.62
X111.12Y-85.16
X111.12Y-87.7
X111.12Y-90.24
X111.12Y-92.78
X111.12Y-98.5
X111.12Y-101.04
X111.12Y-103.58
X111.12Y-106.12
X111.12Y-108.66
X111.12Y-111.2
X111.12Y-113.74
X111.12Y-116.28
X115.0Y-48.0
X115.0Y-58.16
X115.0Y-60.5
X115.0Y-70.66
X115.0Y-73.0
X115.0Y-83.16
X115.0Y-85.5
X115.0Y-95.66
T4
X72.5Y-56.96
X72.5Y-59.5
X72.5Y-62.04
X72.5Y-106.96
X72.5Y-109.5
X72.5Y-112.04
X82.058Y-132.75
X84.598Y-132.75
X87.138Y-132.75
X89.678Y-132.75
X92.203Y-121.98
X92.203Y-124.52
X92.203Y-127.06
X92.218Y-132.75
X94.743Y-121.98
X94.743Y-124.52
X94.743Y-127.06
X94.758Y-132.75
X97.283Y-121.98
X97.283Y-124.52
X97.283Y-127.06
X97.298Y-132.75
X99.823Y-121.98
X99.823Y-124.52
X99.823Y-127.06
X99.838Y-132.75
X102.378Y-132.75
X104.918Y-132.75
X107.458Y-132.75
X109.998Y-132.75
X119.5Y-56.96
X119.5Y-59.5
X119.5Y-62.04
X119.5Y-106.96
X119.5Y-109.5
X119.5Y-112.04
T5
X79.0Y-122.5
X79.0Y-127.0
X85.5Y-122.5
X85.5Y-127.0
X106.5Y-122.5
X106.5Y-127.0
X113.0Y-122.5
X113.0Y-127.0
T0
M30
