G04 #@! TF.GenerationSoftware,KiCad,Pcbnew,6.0.1-79c1e3a40b~116~ubuntu21.04.1*
G04 #@! TF.CreationDate,2022-02-15T17:09:18-05:00*
G04 #@! TF.ProjectId,signal_generator,7369676e-616c-45f6-9765-6e657261746f,rev?*
G04 #@! TF.SameCoordinates,Original*
G04 #@! TF.FileFunction,Legend,Bot*
G04 #@! TF.FilePolarity,Positive*
%FSLAX46Y46*%
G04 Gerber Fmt 4.6, Leading zero omitted, Abs format (unit mm)*
G04 Created by KiCad (PCBNEW 6.0.1-79c1e3a40b~116~ubuntu21.04.1) date 2022-02-15 17:09:18*
%MOMM*%
%LPD*%
G01*
G04 APERTURE LIST*
%ADD10C,0.150000*%
%ADD11C,1.600000*%
%ADD12R,1.700000X1.700000*%
%ADD13O,1.700000X1.700000*%
%ADD14C,1.208000*%
%ADD15O,1.700000X2.900000*%
%ADD16O,1.700000X2.980000*%
%ADD17O,1.600000X1.600000*%
%ADD18R,1.600000X1.600000*%
%ADD19C,1.000000*%
%ADD20R,1.200000X1.200000*%
%ADD21C,1.200000*%
G04 APERTURE END LIST*
D10*
X114644715Y-125927704D02*
X114581580Y-126058182D01*
X114413221Y-126226541D01*
X114307997Y-126264422D01*
X114236445Y-126268631D01*
X114127012Y-126243377D01*
X114051250Y-126184451D01*
X114009160Y-126091854D01*
X114004951Y-126028719D01*
X114034414Y-125931913D01*
X114131220Y-125767763D01*
X114160683Y-125670957D01*
X114156474Y-125607822D01*
X114114385Y-125515225D01*
X114038623Y-125456300D01*
X113929190Y-125431046D01*
X113857638Y-125435255D01*
X113752413Y-125473135D01*
X113584055Y-125641494D01*
X113520920Y-125771972D01*
X113781876Y-126453825D02*
X113445159Y-126790543D01*
X114076504Y-126563258D02*
X113045307Y-126180242D01*
X113605099Y-127034663D01*
X112674917Y-126550631D02*
X113234710Y-127405052D01*
X112203513Y-127022036D01*
X111833123Y-127392425D02*
X111698436Y-127527112D01*
X111668974Y-127623919D01*
X111677392Y-127750188D01*
X111795243Y-127901711D01*
X112060408Y-128107950D01*
X112245602Y-128192129D01*
X112388707Y-128183711D01*
X112493932Y-128145831D01*
X112628619Y-128011144D01*
X112658081Y-127914337D01*
X112649663Y-127788068D01*
X112531812Y-127636545D01*
X112266647Y-127430306D01*
X112081453Y-127346127D01*
X111938348Y-127354545D01*
X111833123Y-127392425D01*
X110831389Y-129067595D02*
X110768254Y-129198073D01*
X110772463Y-129261207D01*
X110814553Y-129353805D01*
X110928195Y-129442193D01*
X111037628Y-129467447D01*
X111109181Y-129463238D01*
X111214405Y-129425357D01*
X111483779Y-129155983D01*
X110688284Y-128537265D01*
X110452582Y-128772967D01*
X110423119Y-128869773D01*
X110427328Y-128932908D01*
X110469418Y-129025505D01*
X110545179Y-129084431D01*
X110654612Y-129109685D01*
X110726165Y-129105476D01*
X110831389Y-129067595D01*
X111067091Y-128831893D01*
X110583060Y-129652642D02*
X110246342Y-129989359D01*
X110877687Y-129762075D02*
X109846490Y-129379059D01*
X110406283Y-130233479D01*
X109173055Y-130052494D02*
X109741266Y-130494435D01*
X109888580Y-130549152D01*
X110031685Y-130540734D01*
X110170581Y-130469182D01*
X110237924Y-130401838D01*
X109631833Y-131007930D02*
X108836338Y-130389211D01*
X108815293Y-131689783D02*
X108886845Y-131685574D01*
X109025741Y-131614021D01*
X109093085Y-131546678D01*
X109156219Y-131416200D01*
X109147801Y-131289931D01*
X109105712Y-131197333D01*
X108987860Y-131045810D01*
X108874218Y-130957422D01*
X108689024Y-130873243D01*
X108579590Y-130847989D01*
X108436486Y-130856407D01*
X108297590Y-130927959D01*
X108230246Y-130995303D01*
X108167112Y-131125781D01*
X108171320Y-131188915D01*
%LPC*%
D11*
X104300000Y-110200000D03*
X106800000Y-110200000D03*
X104500000Y-116600000D03*
X107000000Y-116600000D03*
X111700000Y-110200000D03*
X109200000Y-110200000D03*
X108100000Y-95200000D03*
X110600000Y-95200000D03*
D12*
X87500000Y-72460000D03*
D13*
X87500000Y-75000000D03*
X87500000Y-77540000D03*
D12*
X87500000Y-122460000D03*
D13*
X87500000Y-125000000D03*
X87500000Y-127540000D03*
D14*
X99600000Y-125750000D03*
X100400000Y-126950000D03*
X101200000Y-125750000D03*
X102000000Y-126950000D03*
X102800000Y-125750000D03*
D15*
X104850000Y-130800000D03*
D16*
X97550000Y-130800000D03*
D11*
X91400000Y-110200000D03*
D17*
X101560000Y-110200000D03*
D11*
X101560000Y-113600000D03*
D17*
X91400000Y-113600000D03*
D18*
X110630000Y-98130000D03*
D17*
X108090000Y-98130000D03*
X105550000Y-98130000D03*
X103010000Y-98130000D03*
X100470000Y-98130000D03*
X97930000Y-98130000D03*
X95390000Y-98130000D03*
X92850000Y-98130000D03*
X92850000Y-105750000D03*
X95390000Y-105750000D03*
X97930000Y-105750000D03*
X100470000Y-105750000D03*
X103010000Y-105750000D03*
X105550000Y-105750000D03*
X108090000Y-105750000D03*
X110630000Y-105750000D03*
D18*
X110600000Y-84800000D03*
D17*
X108060000Y-84800000D03*
X105520000Y-84800000D03*
X102980000Y-84800000D03*
X100440000Y-84800000D03*
X97900000Y-84800000D03*
X95360000Y-84800000D03*
X92820000Y-84800000D03*
X92820000Y-92420000D03*
X95360000Y-92420000D03*
X97900000Y-92420000D03*
X100440000Y-92420000D03*
X102980000Y-92420000D03*
X105520000Y-92420000D03*
X108060000Y-92420000D03*
X110600000Y-92420000D03*
D19*
X104200000Y-114250000D03*
X104200000Y-112550000D03*
D20*
X92600000Y-120200000D03*
D21*
X94600000Y-120200000D03*
D20*
X98200000Y-120200000D03*
D21*
X100200000Y-120200000D03*
M02*
