G04 #@! TF.GenerationSoftware,KiCad,Pcbnew,6.0.1-79c1e3a40b~116~ubuntu21.04.1*
G04 #@! TF.CreationDate,2022-02-15T17:09:17-05:00*
G04 #@! TF.ProjectId,signal_generator,7369676e-616c-45f6-9765-6e657261746f,rev?*
G04 #@! TF.SameCoordinates,Original*
G04 #@! TF.FileFunction,Copper,L2,Bot*
G04 #@! TF.FilePolarity,Positive*
%FSLAX46Y46*%
G04 Gerber Fmt 4.6, Leading zero omitted, Abs format (unit mm)*
G04 Created by KiCad (PCBNEW 6.0.1-79c1e3a40b~116~ubuntu21.04.1) date 2022-02-15 17:09:17*
%MOMM*%
%LPD*%
G01*
G04 APERTURE LIST*
G04 #@! TA.AperFunction,ComponentPad*
%ADD10C,1.600000*%
G04 #@! TD*
G04 #@! TA.AperFunction,ComponentPad*
%ADD11R,1.700000X1.700000*%
G04 #@! TD*
G04 #@! TA.AperFunction,ComponentPad*
%ADD12O,1.700000X1.700000*%
G04 #@! TD*
G04 #@! TA.AperFunction,ComponentPad*
%ADD13C,1.208000*%
G04 #@! TD*
G04 #@! TA.AperFunction,ComponentPad*
%ADD14O,1.700000X2.900000*%
G04 #@! TD*
G04 #@! TA.AperFunction,ComponentPad*
%ADD15O,1.700000X2.980000*%
G04 #@! TD*
G04 #@! TA.AperFunction,ComponentPad*
%ADD16O,1.600000X1.600000*%
G04 #@! TD*
G04 #@! TA.AperFunction,ComponentPad*
%ADD17R,1.600000X1.600000*%
G04 #@! TD*
G04 #@! TA.AperFunction,ComponentPad*
%ADD18C,1.000000*%
G04 #@! TD*
G04 #@! TA.AperFunction,ComponentPad*
%ADD19R,1.200000X1.200000*%
G04 #@! TD*
G04 #@! TA.AperFunction,ComponentPad*
%ADD20C,1.200000*%
G04 #@! TD*
G04 #@! TA.AperFunction,Conductor*
%ADD21C,0.500000*%
G04 #@! TD*
G04 #@! TA.AperFunction,Conductor*
%ADD22C,0.250000*%
G04 #@! TD*
G04 APERTURE END LIST*
D10*
X104300000Y-110200000D03*
X106800000Y-110200000D03*
X104500000Y-116600000D03*
X107000000Y-116600000D03*
X111700000Y-110200000D03*
X109200000Y-110200000D03*
X108100000Y-95200000D03*
X110600000Y-95200000D03*
D11*
X87500000Y-72460000D03*
D12*
X87500000Y-75000000D03*
X87500000Y-77540000D03*
D11*
X87500000Y-122460000D03*
D12*
X87500000Y-125000000D03*
X87500000Y-127540000D03*
D13*
X99600000Y-125750000D03*
X100400000Y-126950000D03*
X101200000Y-125750000D03*
X102000000Y-126950000D03*
X102800000Y-125750000D03*
D14*
X104850000Y-130800000D03*
D15*
X97550000Y-130800000D03*
D10*
X91400000Y-110200000D03*
D16*
X101560000Y-110200000D03*
D10*
X101560000Y-113600000D03*
D16*
X91400000Y-113600000D03*
D17*
X110630000Y-98130000D03*
D16*
X108090000Y-98130000D03*
X105550000Y-98130000D03*
X103010000Y-98130000D03*
X100470000Y-98130000D03*
X97930000Y-98130000D03*
X95390000Y-98130000D03*
X92850000Y-98130000D03*
X92850000Y-105750000D03*
X95390000Y-105750000D03*
X97930000Y-105750000D03*
X100470000Y-105750000D03*
X103010000Y-105750000D03*
X105550000Y-105750000D03*
X108090000Y-105750000D03*
X110630000Y-105750000D03*
D17*
X110600000Y-84800000D03*
D16*
X108060000Y-84800000D03*
X105520000Y-84800000D03*
X102980000Y-84800000D03*
X100440000Y-84800000D03*
X97900000Y-84800000D03*
X95360000Y-84800000D03*
X92820000Y-84800000D03*
X92820000Y-92420000D03*
X95360000Y-92420000D03*
X97900000Y-92420000D03*
X100440000Y-92420000D03*
X102980000Y-92420000D03*
X105520000Y-92420000D03*
X108060000Y-92420000D03*
X110600000Y-92420000D03*
D18*
X104200000Y-114250000D03*
X104200000Y-112550000D03*
D19*
X92600000Y-120200000D03*
D20*
X94600000Y-120200000D03*
D19*
X98200000Y-120200000D03*
D20*
X100200000Y-120200000D03*
D21*
X92340000Y-122460000D02*
X94600000Y-120200000D01*
X87500000Y-122460000D02*
X92340000Y-122460000D01*
X100200000Y-120200000D02*
X100200000Y-123150000D01*
X100200000Y-123150000D02*
X102800000Y-125750000D01*
D22*
X87500000Y-75000000D02*
X86324999Y-76175001D01*
X86324999Y-123824999D02*
X87500000Y-125000000D01*
X86324999Y-76175001D02*
X86324999Y-123824999D01*
M02*
