%FSLAX45Y45*%
G04 Gerber Fmt 4.5, Leading zero omitted, Abs format (unit mm)*
G04 Created by KiCad (PCBNEW 6.0.1-79c1e3a40b~116~ubuntu21.04.1) date 2022-02-15 17:09:27*
%MOMM*%
%LPD*%
G01*
G04 APERTURE LIST*
%TA.AperFunction,Profile*%
%ADD10C,0.100000*%
%TD*%
%ADD11C,0.200000*%
%ADD12C,0.050000*%
%ADD13C,0.060000*%
%ADD14C,0.070000*%
%ADD15C,0.080000*%
%ADD16C,0.100000*%
G04 APERTURE END LIST*
D10*
X11540000Y-13060000D02*
X11540000Y-6940000D01*
X8740000Y-13260000D02*
X8540000Y-13060000D01*
X8740000Y-13260000D02*
X11340000Y-13260000D01*
X11340000Y-6740000D02*
X11540000Y-6940000D01*
X8540000Y-6940000D02*
X8740000Y-6740000D01*
X8740000Y-6740000D02*
X11340000Y-6740000D01*
X11340000Y-13260000D02*
X11540000Y-13060000D01*
X8540000Y-13060000D02*
X8540000Y-6940000D01*
D11*
D12*
X10395000Y-11230000D02*
X10445000Y-11280000D01*
X10445000Y-11230000D02*
X10395000Y-11280000D01*
X10395000Y-11400000D02*
X10445000Y-11450000D01*
X10445000Y-11400000D02*
X10395000Y-11450000D01*
D13*
X9290000Y-12020000D02*
G75*
G03*
X9290000Y-12020000I-30000J0D01*
G01*
X9490000Y-12020000D02*
G75*
G03*
X9490000Y-12020000I-30000J0D01*
G01*
X9850000Y-12020000D02*
G75*
G03*
X9850000Y-12020000I-30000J0D01*
G01*
X10050000Y-12020000D02*
G75*
G03*
X10050000Y-12020000I-30000J0D01*
G01*
D14*
X9960000Y-12540000D02*
X9960000Y-12610000D01*
X9925000Y-12575000D02*
X9995000Y-12575000D01*
X10040000Y-12660000D02*
X10040000Y-12730000D01*
X10005000Y-12695000D02*
X10075000Y-12695000D01*
X10120000Y-12540000D02*
X10120000Y-12610000D01*
X10085000Y-12575000D02*
X10155000Y-12575000D01*
X10200000Y-12660000D02*
X10200000Y-12730000D01*
X10165000Y-12695000D02*
X10235000Y-12695000D01*
X10280000Y-12540000D02*
X10280000Y-12610000D01*
X10245000Y-12575000D02*
X10315000Y-12575000D01*
D15*
X9168285Y-11048285D02*
X9168285Y-10991716D01*
X9111716Y-10991716D01*
X9111716Y-11048285D01*
X9168285Y-11048285D01*
X9168285Y-11388284D02*
X9168285Y-11331715D01*
X9111716Y-11331715D01*
X9111716Y-11388284D01*
X9168285Y-11388284D01*
X9310285Y-8508285D02*
X9310285Y-8451716D01*
X9253716Y-8451716D01*
X9253716Y-8508285D01*
X9310285Y-8508285D01*
X9310285Y-9270285D02*
X9310285Y-9213716D01*
X9253716Y-9213716D01*
X9253716Y-9270285D01*
X9310285Y-9270285D01*
X9313285Y-9841285D02*
X9313285Y-9784716D01*
X9256716Y-9784716D01*
X9256716Y-9841285D01*
X9313285Y-9841285D01*
X9313285Y-10603285D02*
X9313285Y-10546716D01*
X9256716Y-10546716D01*
X9256716Y-10603285D01*
X9313285Y-10603285D01*
X9564285Y-8508285D02*
X9564285Y-8451716D01*
X9507716Y-8451716D01*
X9507716Y-8508285D01*
X9564285Y-8508285D01*
X9564285Y-9270285D02*
X9564285Y-9213716D01*
X9507716Y-9213716D01*
X9507716Y-9270285D01*
X9564285Y-9270285D01*
X9567285Y-9841285D02*
X9567285Y-9784716D01*
X9510716Y-9784716D01*
X9510716Y-9841285D01*
X9567285Y-9841285D01*
X9567285Y-10603285D02*
X9567285Y-10546716D01*
X9510716Y-10546716D01*
X9510716Y-10603285D01*
X9567285Y-10603285D01*
X9783285Y-13108284D02*
X9783285Y-13051715D01*
X9726716Y-13051715D01*
X9726716Y-13108284D01*
X9783285Y-13108284D01*
D11*
X9725000Y-13025000D02*
X9725000Y-13135000D01*
X9785000Y-13025000D02*
X9785000Y-13135000D01*
X9725000Y-13135000D02*
G75*
G03*
X9785000Y-13135000I30000J0D01*
G01*
X9785000Y-13025000D02*
G75*
G03*
X9725000Y-13025000I-30000J0D01*
G01*
D15*
X9818285Y-8508285D02*
X9818285Y-8451716D01*
X9761716Y-8451716D01*
X9761716Y-8508285D01*
X9818285Y-8508285D01*
X9818285Y-9270285D02*
X9818285Y-9213716D01*
X9761716Y-9213716D01*
X9761716Y-9270285D01*
X9818285Y-9270285D01*
X9821285Y-9841285D02*
X9821285Y-9784716D01*
X9764716Y-9784716D01*
X9764716Y-9841285D01*
X9821285Y-9841285D01*
X9821285Y-10603285D02*
X9821285Y-10546716D01*
X9764716Y-10546716D01*
X9764716Y-10603285D01*
X9821285Y-10603285D01*
X10072285Y-8508285D02*
X10072285Y-8451716D01*
X10015716Y-8451716D01*
X10015716Y-8508285D01*
X10072285Y-8508285D01*
X10072285Y-9270285D02*
X10072285Y-9213716D01*
X10015716Y-9213716D01*
X10015716Y-9270285D01*
X10072285Y-9270285D01*
X10075285Y-9841285D02*
X10075285Y-9784716D01*
X10018716Y-9784716D01*
X10018716Y-9841285D01*
X10075285Y-9841285D01*
X10075285Y-10603285D02*
X10075285Y-10546716D01*
X10018716Y-10546716D01*
X10018716Y-10603285D01*
X10075285Y-10603285D01*
X10184285Y-11048285D02*
X10184285Y-10991716D01*
X10127716Y-10991716D01*
X10127716Y-11048285D01*
X10184285Y-11048285D01*
X10184285Y-11388284D02*
X10184285Y-11331715D01*
X10127716Y-11331715D01*
X10127716Y-11388284D01*
X10184285Y-11388284D01*
X10326285Y-8508285D02*
X10326285Y-8451716D01*
X10269716Y-8451716D01*
X10269716Y-8508285D01*
X10326285Y-8508285D01*
X10326285Y-9270285D02*
X10326285Y-9213716D01*
X10269716Y-9213716D01*
X10269716Y-9270285D01*
X10326285Y-9270285D01*
X10329285Y-9841285D02*
X10329285Y-9784716D01*
X10272716Y-9784716D01*
X10272716Y-9841285D01*
X10329285Y-9841285D01*
X10329285Y-10603285D02*
X10329285Y-10546716D01*
X10272716Y-10546716D01*
X10272716Y-10603285D01*
X10329285Y-10603285D01*
X10458285Y-11048285D02*
X10458285Y-10991716D01*
X10401716Y-10991716D01*
X10401716Y-11048285D01*
X10458285Y-11048285D01*
X10478285Y-11688284D02*
X10478285Y-11631715D01*
X10421716Y-11631715D01*
X10421716Y-11688284D01*
X10478285Y-11688284D01*
X10513285Y-13108284D02*
X10513285Y-13051715D01*
X10456716Y-13051715D01*
X10456716Y-13108284D01*
X10513285Y-13108284D01*
D11*
X10455000Y-13025000D02*
X10455000Y-13135000D01*
X10515000Y-13025000D02*
X10515000Y-13135000D01*
X10455000Y-13135000D02*
G75*
G03*
X10515000Y-13135000I30000J0D01*
G01*
X10515000Y-13025000D02*
G75*
G03*
X10455000Y-13025000I-30000J0D01*
G01*
D15*
X10580285Y-8508285D02*
X10580285Y-8451716D01*
X10523716Y-8451716D01*
X10523716Y-8508285D01*
X10580285Y-8508285D01*
X10580285Y-9270285D02*
X10580285Y-9213716D01*
X10523716Y-9213716D01*
X10523716Y-9270285D01*
X10580285Y-9270285D01*
X10583285Y-9841285D02*
X10583285Y-9784716D01*
X10526716Y-9784716D01*
X10526716Y-9841285D01*
X10583285Y-9841285D01*
X10583285Y-10603285D02*
X10583285Y-10546716D01*
X10526716Y-10546716D01*
X10526716Y-10603285D01*
X10583285Y-10603285D01*
X10708285Y-11048285D02*
X10708285Y-10991716D01*
X10651716Y-10991716D01*
X10651716Y-11048285D01*
X10708285Y-11048285D01*
X10728285Y-11688284D02*
X10728285Y-11631715D01*
X10671716Y-11631715D01*
X10671716Y-11688284D01*
X10728285Y-11688284D01*
X10834285Y-8508285D02*
X10834285Y-8451716D01*
X10777716Y-8451716D01*
X10777716Y-8508285D01*
X10834285Y-8508285D01*
X10834285Y-9270285D02*
X10834285Y-9213716D01*
X10777716Y-9213716D01*
X10777716Y-9270285D01*
X10834285Y-9270285D01*
X10837285Y-9841285D02*
X10837285Y-9784716D01*
X10780716Y-9784716D01*
X10780716Y-9841285D01*
X10837285Y-9841285D01*
X10837285Y-10603285D02*
X10837285Y-10546716D01*
X10780716Y-10546716D01*
X10780716Y-10603285D01*
X10837285Y-10603285D01*
X10838285Y-9548285D02*
X10838285Y-9491716D01*
X10781716Y-9491716D01*
X10781716Y-9548285D01*
X10838285Y-9548285D01*
X10948285Y-11048285D02*
X10948285Y-10991716D01*
X10891716Y-10991716D01*
X10891716Y-11048285D01*
X10948285Y-11048285D01*
X11088285Y-8508285D02*
X11088285Y-8451716D01*
X11031716Y-8451716D01*
X11031716Y-8508285D01*
X11088285Y-8508285D01*
X11088285Y-9270285D02*
X11088285Y-9213716D01*
X11031716Y-9213716D01*
X11031716Y-9270285D01*
X11088285Y-9270285D01*
X11088285Y-9548285D02*
X11088285Y-9491716D01*
X11031716Y-9491716D01*
X11031716Y-9548285D01*
X11088285Y-9548285D01*
X11091285Y-9841285D02*
X11091285Y-9784716D01*
X11034716Y-9784716D01*
X11034716Y-9841285D01*
X11091285Y-9841285D01*
X11091285Y-10603285D02*
X11091285Y-10546716D01*
X11034716Y-10546716D01*
X11034716Y-10603285D01*
X11091285Y-10603285D01*
X11198284Y-11048285D02*
X11198284Y-10991716D01*
X11141716Y-10991716D01*
X11141716Y-11048285D01*
X11198284Y-11048285D01*
D16*
X8750000Y-7296000D02*
X8800000Y-7246000D01*
X8750000Y-7196000D01*
X8700000Y-7246000D01*
X8750000Y-7296000D01*
X8750000Y-7550000D02*
X8800000Y-7500000D01*
X8750000Y-7450000D01*
X8700000Y-7500000D01*
X8750000Y-7550000D01*
X8750000Y-7804000D02*
X8800000Y-7754000D01*
X8750000Y-7704000D01*
X8700000Y-7754000D01*
X8750000Y-7804000D01*
X8750000Y-12296000D02*
X8800000Y-12246000D01*
X8750000Y-12196000D01*
X8700000Y-12246000D01*
X8750000Y-12296000D01*
X8750000Y-12550000D02*
X8800000Y-12500000D01*
X8750000Y-12450000D01*
X8700000Y-12500000D01*
X8750000Y-12550000D01*
X8750000Y-12804000D02*
X8800000Y-12754000D01*
X8750000Y-12704000D01*
X8700000Y-12754000D01*
X8750000Y-12804000D01*
D11*
X8792619Y-13575476D02*
X8792619Y-13375476D01*
X8840238Y-13375476D01*
X8868810Y-13385000D01*
X8887857Y-13404048D01*
X8897381Y-13423095D01*
X8906905Y-13461190D01*
X8906905Y-13489762D01*
X8897381Y-13527857D01*
X8887857Y-13546905D01*
X8868810Y-13565952D01*
X8840238Y-13575476D01*
X8792619Y-13575476D01*
X8992619Y-13575476D02*
X8992619Y-13442143D01*
X8992619Y-13480238D02*
X9002143Y-13461190D01*
X9011667Y-13451667D01*
X9030714Y-13442143D01*
X9049762Y-13442143D01*
X9116429Y-13575476D02*
X9116429Y-13442143D01*
X9116429Y-13375476D02*
X9106905Y-13385000D01*
X9116429Y-13394524D01*
X9125952Y-13385000D01*
X9116429Y-13375476D01*
X9116429Y-13394524D01*
X9240238Y-13575476D02*
X9221190Y-13565952D01*
X9211667Y-13546905D01*
X9211667Y-13375476D01*
X9345000Y-13575476D02*
X9325952Y-13565952D01*
X9316429Y-13546905D01*
X9316429Y-13375476D01*
X9573571Y-13575476D02*
X9573571Y-13375476D01*
X9640238Y-13518333D01*
X9706905Y-13375476D01*
X9706905Y-13575476D01*
X9887857Y-13575476D02*
X9887857Y-13470714D01*
X9878333Y-13451667D01*
X9859286Y-13442143D01*
X9821190Y-13442143D01*
X9802143Y-13451667D01*
X9887857Y-13565952D02*
X9868810Y-13575476D01*
X9821190Y-13575476D01*
X9802143Y-13565952D01*
X9792619Y-13546905D01*
X9792619Y-13527857D01*
X9802143Y-13508809D01*
X9821190Y-13499286D01*
X9868810Y-13499286D01*
X9887857Y-13489762D01*
X9983095Y-13442143D02*
X9983095Y-13642143D01*
X9983095Y-13451667D02*
X10002143Y-13442143D01*
X10040238Y-13442143D01*
X10059286Y-13451667D01*
X10068810Y-13461190D01*
X10078333Y-13480238D01*
X10078333Y-13537381D01*
X10068810Y-13556428D01*
X10059286Y-13565952D01*
X10040238Y-13575476D01*
X10002143Y-13575476D01*
X9983095Y-13565952D01*
X10164048Y-13556428D02*
X10173571Y-13565952D01*
X10164048Y-13575476D01*
X10154524Y-13565952D01*
X10164048Y-13556428D01*
X10164048Y-13575476D01*
X10164048Y-13451667D02*
X10173571Y-13461190D01*
X10164048Y-13470714D01*
X10154524Y-13461190D01*
X10164048Y-13451667D01*
X10164048Y-13470714D01*
D12*
X8485000Y-13880000D02*
X8535000Y-13930000D01*
X8535000Y-13880000D02*
X8485000Y-13930000D01*
D11*
X8830714Y-13795476D02*
X8849762Y-13795476D01*
X8868810Y-13805000D01*
X8878333Y-13814524D01*
X8887857Y-13833571D01*
X8897381Y-13871667D01*
X8897381Y-13919286D01*
X8887857Y-13957381D01*
X8878333Y-13976428D01*
X8868810Y-13985952D01*
X8849762Y-13995476D01*
X8830714Y-13995476D01*
X8811667Y-13985952D01*
X8802143Y-13976428D01*
X8792619Y-13957381D01*
X8783095Y-13919286D01*
X8783095Y-13871667D01*
X8792619Y-13833571D01*
X8802143Y-13814524D01*
X8811667Y-13805000D01*
X8830714Y-13795476D01*
X8983095Y-13976428D02*
X8992619Y-13985952D01*
X8983095Y-13995476D01*
X8973571Y-13985952D01*
X8983095Y-13976428D01*
X8983095Y-13995476D01*
X9173571Y-13795476D02*
X9078333Y-13795476D01*
X9068810Y-13890714D01*
X9078333Y-13881190D01*
X9097381Y-13871667D01*
X9145000Y-13871667D01*
X9164048Y-13881190D01*
X9173571Y-13890714D01*
X9183095Y-13909762D01*
X9183095Y-13957381D01*
X9173571Y-13976428D01*
X9164048Y-13985952D01*
X9145000Y-13995476D01*
X9097381Y-13995476D01*
X9078333Y-13985952D01*
X9068810Y-13976428D01*
X9306905Y-13795476D02*
X9325952Y-13795476D01*
X9345000Y-13805000D01*
X9354524Y-13814524D01*
X9364048Y-13833571D01*
X9373571Y-13871667D01*
X9373571Y-13919286D01*
X9364048Y-13957381D01*
X9354524Y-13976428D01*
X9345000Y-13985952D01*
X9325952Y-13995476D01*
X9306905Y-13995476D01*
X9287857Y-13985952D01*
X9278333Y-13976428D01*
X9268810Y-13957381D01*
X9259286Y-13919286D01*
X9259286Y-13871667D01*
X9268810Y-13833571D01*
X9278333Y-13814524D01*
X9287857Y-13805000D01*
X9306905Y-13795476D01*
X9497381Y-13795476D02*
X9516429Y-13795476D01*
X9535476Y-13805000D01*
X9545000Y-13814524D01*
X9554524Y-13833571D01*
X9564048Y-13871667D01*
X9564048Y-13919286D01*
X9554524Y-13957381D01*
X9545000Y-13976428D01*
X9535476Y-13985952D01*
X9516429Y-13995476D01*
X9497381Y-13995476D01*
X9478333Y-13985952D01*
X9468810Y-13976428D01*
X9459286Y-13957381D01*
X9449762Y-13919286D01*
X9449762Y-13871667D01*
X9459286Y-13833571D01*
X9468810Y-13814524D01*
X9478333Y-13805000D01*
X9497381Y-13795476D01*
X9649762Y-13995476D02*
X9649762Y-13862143D01*
X9649762Y-13881190D02*
X9659286Y-13871667D01*
X9678333Y-13862143D01*
X9706905Y-13862143D01*
X9725952Y-13871667D01*
X9735476Y-13890714D01*
X9735476Y-13995476D01*
X9735476Y-13890714D02*
X9745000Y-13871667D01*
X9764048Y-13862143D01*
X9792619Y-13862143D01*
X9811667Y-13871667D01*
X9821190Y-13890714D01*
X9821190Y-13995476D01*
X9916429Y-13995476D02*
X9916429Y-13862143D01*
X9916429Y-13881190D02*
X9925952Y-13871667D01*
X9945000Y-13862143D01*
X9973571Y-13862143D01*
X9992619Y-13871667D01*
X10002143Y-13890714D01*
X10002143Y-13995476D01*
X10002143Y-13890714D02*
X10011667Y-13871667D01*
X10030714Y-13862143D01*
X10059286Y-13862143D01*
X10078333Y-13871667D01*
X10087857Y-13890714D01*
X10087857Y-13995476D01*
X10478333Y-13785952D02*
X10306905Y-14043095D01*
X10735476Y-13795476D02*
X10754524Y-13795476D01*
X10773571Y-13805000D01*
X10783095Y-13814524D01*
X10792619Y-13833571D01*
X10802143Y-13871667D01*
X10802143Y-13919286D01*
X10792619Y-13957381D01*
X10783095Y-13976428D01*
X10773571Y-13985952D01*
X10754524Y-13995476D01*
X10735476Y-13995476D01*
X10716429Y-13985952D01*
X10706905Y-13976428D01*
X10697381Y-13957381D01*
X10687857Y-13919286D01*
X10687857Y-13871667D01*
X10697381Y-13833571D01*
X10706905Y-13814524D01*
X10716429Y-13805000D01*
X10735476Y-13795476D01*
X10887857Y-13976428D02*
X10897381Y-13985952D01*
X10887857Y-13995476D01*
X10878333Y-13985952D01*
X10887857Y-13976428D01*
X10887857Y-13995476D01*
X11021190Y-13795476D02*
X11040238Y-13795476D01*
X11059286Y-13805000D01*
X11068810Y-13814524D01*
X11078333Y-13833571D01*
X11087857Y-13871667D01*
X11087857Y-13919286D01*
X11078333Y-13957381D01*
X11068810Y-13976428D01*
X11059286Y-13985952D01*
X11040238Y-13995476D01*
X11021190Y-13995476D01*
X11002143Y-13985952D01*
X10992619Y-13976428D01*
X10983095Y-13957381D01*
X10973571Y-13919286D01*
X10973571Y-13871667D01*
X10983095Y-13833571D01*
X10992619Y-13814524D01*
X11002143Y-13805000D01*
X11021190Y-13795476D01*
X11278333Y-13995476D02*
X11164048Y-13995476D01*
X11221190Y-13995476D02*
X11221190Y-13795476D01*
X11202143Y-13824048D01*
X11183095Y-13843095D01*
X11164048Y-13852619D01*
X11373571Y-13995476D02*
X11411667Y-13995476D01*
X11430714Y-13985952D01*
X11440238Y-13976428D01*
X11459286Y-13947857D01*
X11468809Y-13909762D01*
X11468809Y-13833571D01*
X11459286Y-13814524D01*
X11449762Y-13805000D01*
X11430714Y-13795476D01*
X11392619Y-13795476D01*
X11373571Y-13805000D01*
X11364048Y-13814524D01*
X11354524Y-13833571D01*
X11354524Y-13881190D01*
X11364048Y-13900238D01*
X11373571Y-13909762D01*
X11392619Y-13919286D01*
X11430714Y-13919286D01*
X11449762Y-13909762D01*
X11459286Y-13900238D01*
X11468809Y-13881190D01*
X11535476Y-13795476D02*
X11668809Y-13795476D01*
X11583095Y-13995476D01*
X11735476Y-13795476D02*
X11735476Y-13833571D01*
X11811667Y-13795476D02*
X11811667Y-13833571D01*
X12106905Y-14071667D02*
X12097381Y-14062143D01*
X12078333Y-14033571D01*
X12068809Y-14014524D01*
X12059286Y-13985952D01*
X12049762Y-13938333D01*
X12049762Y-13900238D01*
X12059286Y-13852619D01*
X12068809Y-13824048D01*
X12078333Y-13805000D01*
X12097381Y-13776428D01*
X12106905Y-13766905D01*
X12173571Y-13814524D02*
X12183095Y-13805000D01*
X12202143Y-13795476D01*
X12249762Y-13795476D01*
X12268809Y-13805000D01*
X12278333Y-13814524D01*
X12287857Y-13833571D01*
X12287857Y-13852619D01*
X12278333Y-13881190D01*
X12164048Y-13995476D01*
X12287857Y-13995476D01*
X12525952Y-13995476D02*
X12525952Y-13795476D01*
X12611667Y-13995476D02*
X12611667Y-13890714D01*
X12602143Y-13871667D01*
X12583095Y-13862143D01*
X12554524Y-13862143D01*
X12535476Y-13871667D01*
X12525952Y-13881190D01*
X12735476Y-13995476D02*
X12716428Y-13985952D01*
X12706905Y-13976428D01*
X12697381Y-13957381D01*
X12697381Y-13900238D01*
X12706905Y-13881190D01*
X12716428Y-13871667D01*
X12735476Y-13862143D01*
X12764048Y-13862143D01*
X12783095Y-13871667D01*
X12792619Y-13881190D01*
X12802143Y-13900238D01*
X12802143Y-13957381D01*
X12792619Y-13976428D01*
X12783095Y-13985952D01*
X12764048Y-13995476D01*
X12735476Y-13995476D01*
X12916428Y-13995476D02*
X12897381Y-13985952D01*
X12887857Y-13966905D01*
X12887857Y-13795476D01*
X13068809Y-13985952D02*
X13049762Y-13995476D01*
X13011667Y-13995476D01*
X12992619Y-13985952D01*
X12983095Y-13966905D01*
X12983095Y-13890714D01*
X12992619Y-13871667D01*
X13011667Y-13862143D01*
X13049762Y-13862143D01*
X13068809Y-13871667D01*
X13078333Y-13890714D01*
X13078333Y-13909762D01*
X12983095Y-13928809D01*
X13154524Y-13985952D02*
X13173571Y-13995476D01*
X13211667Y-13995476D01*
X13230714Y-13985952D01*
X13240238Y-13966905D01*
X13240238Y-13957381D01*
X13230714Y-13938333D01*
X13211667Y-13928809D01*
X13183095Y-13928809D01*
X13164048Y-13919286D01*
X13154524Y-13900238D01*
X13154524Y-13890714D01*
X13164048Y-13871667D01*
X13183095Y-13862143D01*
X13211667Y-13862143D01*
X13230714Y-13871667D01*
X13306905Y-14071667D02*
X13316428Y-14062143D01*
X13335476Y-14033571D01*
X13345000Y-14014524D01*
X13354524Y-13985952D01*
X13364048Y-13938333D01*
X13364048Y-13900238D01*
X13354524Y-13852619D01*
X13345000Y-13824048D01*
X13335476Y-13805000D01*
X13316428Y-13776428D01*
X13306905Y-13766905D01*
D13*
X8535000Y-14169000D02*
G75*
G03*
X8535000Y-14169000I-30000J0D01*
G01*
D11*
X8830714Y-14059476D02*
X8849762Y-14059476D01*
X8868810Y-14069000D01*
X8878333Y-14078524D01*
X8887857Y-14097571D01*
X8897381Y-14135667D01*
X8897381Y-14183286D01*
X8887857Y-14221381D01*
X8878333Y-14240428D01*
X8868810Y-14249952D01*
X8849762Y-14259476D01*
X8830714Y-14259476D01*
X8811667Y-14249952D01*
X8802143Y-14240428D01*
X8792619Y-14221381D01*
X8783095Y-14183286D01*
X8783095Y-14135667D01*
X8792619Y-14097571D01*
X8802143Y-14078524D01*
X8811667Y-14069000D01*
X8830714Y-14059476D01*
X8983095Y-14240428D02*
X8992619Y-14249952D01*
X8983095Y-14259476D01*
X8973571Y-14249952D01*
X8983095Y-14240428D01*
X8983095Y-14259476D01*
X9164048Y-14059476D02*
X9125952Y-14059476D01*
X9106905Y-14069000D01*
X9097381Y-14078524D01*
X9078333Y-14107095D01*
X9068810Y-14145190D01*
X9068810Y-14221381D01*
X9078333Y-14240428D01*
X9087857Y-14249952D01*
X9106905Y-14259476D01*
X9145000Y-14259476D01*
X9164048Y-14249952D01*
X9173571Y-14240428D01*
X9183095Y-14221381D01*
X9183095Y-14173762D01*
X9173571Y-14154714D01*
X9164048Y-14145190D01*
X9145000Y-14135667D01*
X9106905Y-14135667D01*
X9087857Y-14145190D01*
X9078333Y-14154714D01*
X9068810Y-14173762D01*
X9306905Y-14059476D02*
X9325952Y-14059476D01*
X9345000Y-14069000D01*
X9354524Y-14078524D01*
X9364048Y-14097571D01*
X9373571Y-14135667D01*
X9373571Y-14183286D01*
X9364048Y-14221381D01*
X9354524Y-14240428D01*
X9345000Y-14249952D01*
X9325952Y-14259476D01*
X9306905Y-14259476D01*
X9287857Y-14249952D01*
X9278333Y-14240428D01*
X9268810Y-14221381D01*
X9259286Y-14183286D01*
X9259286Y-14135667D01*
X9268810Y-14097571D01*
X9278333Y-14078524D01*
X9287857Y-14069000D01*
X9306905Y-14059476D01*
X9497381Y-14059476D02*
X9516429Y-14059476D01*
X9535476Y-14069000D01*
X9545000Y-14078524D01*
X9554524Y-14097571D01*
X9564048Y-14135667D01*
X9564048Y-14183286D01*
X9554524Y-14221381D01*
X9545000Y-14240428D01*
X9535476Y-14249952D01*
X9516429Y-14259476D01*
X9497381Y-14259476D01*
X9478333Y-14249952D01*
X9468810Y-14240428D01*
X9459286Y-14221381D01*
X9449762Y-14183286D01*
X9449762Y-14135667D01*
X9459286Y-14097571D01*
X9468810Y-14078524D01*
X9478333Y-14069000D01*
X9497381Y-14059476D01*
X9649762Y-14259476D02*
X9649762Y-14126143D01*
X9649762Y-14145190D02*
X9659286Y-14135667D01*
X9678333Y-14126143D01*
X9706905Y-14126143D01*
X9725952Y-14135667D01*
X9735476Y-14154714D01*
X9735476Y-14259476D01*
X9735476Y-14154714D02*
X9745000Y-14135667D01*
X9764048Y-14126143D01*
X9792619Y-14126143D01*
X9811667Y-14135667D01*
X9821190Y-14154714D01*
X9821190Y-14259476D01*
X9916429Y-14259476D02*
X9916429Y-14126143D01*
X9916429Y-14145190D02*
X9925952Y-14135667D01*
X9945000Y-14126143D01*
X9973571Y-14126143D01*
X9992619Y-14135667D01*
X10002143Y-14154714D01*
X10002143Y-14259476D01*
X10002143Y-14154714D02*
X10011667Y-14135667D01*
X10030714Y-14126143D01*
X10059286Y-14126143D01*
X10078333Y-14135667D01*
X10087857Y-14154714D01*
X10087857Y-14259476D01*
X10478333Y-14049952D02*
X10306905Y-14307095D01*
X10735476Y-14059476D02*
X10754524Y-14059476D01*
X10773571Y-14069000D01*
X10783095Y-14078524D01*
X10792619Y-14097571D01*
X10802143Y-14135667D01*
X10802143Y-14183286D01*
X10792619Y-14221381D01*
X10783095Y-14240428D01*
X10773571Y-14249952D01*
X10754524Y-14259476D01*
X10735476Y-14259476D01*
X10716429Y-14249952D01*
X10706905Y-14240428D01*
X10697381Y-14221381D01*
X10687857Y-14183286D01*
X10687857Y-14135667D01*
X10697381Y-14097571D01*
X10706905Y-14078524D01*
X10716429Y-14069000D01*
X10735476Y-14059476D01*
X10887857Y-14240428D02*
X10897381Y-14249952D01*
X10887857Y-14259476D01*
X10878333Y-14249952D01*
X10887857Y-14240428D01*
X10887857Y-14259476D01*
X11021190Y-14059476D02*
X11040238Y-14059476D01*
X11059286Y-14069000D01*
X11068810Y-14078524D01*
X11078333Y-14097571D01*
X11087857Y-14135667D01*
X11087857Y-14183286D01*
X11078333Y-14221381D01*
X11068810Y-14240428D01*
X11059286Y-14249952D01*
X11040238Y-14259476D01*
X11021190Y-14259476D01*
X11002143Y-14249952D01*
X10992619Y-14240428D01*
X10983095Y-14221381D01*
X10973571Y-14183286D01*
X10973571Y-14135667D01*
X10983095Y-14097571D01*
X10992619Y-14078524D01*
X11002143Y-14069000D01*
X11021190Y-14059476D01*
X11164048Y-14078524D02*
X11173571Y-14069000D01*
X11192619Y-14059476D01*
X11240238Y-14059476D01*
X11259286Y-14069000D01*
X11268809Y-14078524D01*
X11278333Y-14097571D01*
X11278333Y-14116619D01*
X11268809Y-14145190D01*
X11154524Y-14259476D01*
X11278333Y-14259476D01*
X11345000Y-14059476D02*
X11468809Y-14059476D01*
X11402143Y-14135667D01*
X11430714Y-14135667D01*
X11449762Y-14145190D01*
X11459286Y-14154714D01*
X11468809Y-14173762D01*
X11468809Y-14221381D01*
X11459286Y-14240428D01*
X11449762Y-14249952D01*
X11430714Y-14259476D01*
X11373571Y-14259476D01*
X11354524Y-14249952D01*
X11345000Y-14240428D01*
X11640238Y-14059476D02*
X11602143Y-14059476D01*
X11583095Y-14069000D01*
X11573571Y-14078524D01*
X11554524Y-14107095D01*
X11545000Y-14145190D01*
X11545000Y-14221381D01*
X11554524Y-14240428D01*
X11564048Y-14249952D01*
X11583095Y-14259476D01*
X11621190Y-14259476D01*
X11640238Y-14249952D01*
X11649762Y-14240428D01*
X11659286Y-14221381D01*
X11659286Y-14173762D01*
X11649762Y-14154714D01*
X11640238Y-14145190D01*
X11621190Y-14135667D01*
X11583095Y-14135667D01*
X11564048Y-14145190D01*
X11554524Y-14154714D01*
X11545000Y-14173762D01*
X11735476Y-14059476D02*
X11735476Y-14097571D01*
X11811667Y-14059476D02*
X11811667Y-14097571D01*
X12106905Y-14335667D02*
X12097381Y-14326143D01*
X12078333Y-14297571D01*
X12068809Y-14278524D01*
X12059286Y-14249952D01*
X12049762Y-14202333D01*
X12049762Y-14164238D01*
X12059286Y-14116619D01*
X12068809Y-14088048D01*
X12078333Y-14069000D01*
X12097381Y-14040428D01*
X12106905Y-14030905D01*
X12268809Y-14126143D02*
X12268809Y-14259476D01*
X12221190Y-14049952D02*
X12173571Y-14192809D01*
X12297381Y-14192809D01*
X12525952Y-14259476D02*
X12525952Y-14059476D01*
X12611667Y-14259476D02*
X12611667Y-14154714D01*
X12602143Y-14135667D01*
X12583095Y-14126143D01*
X12554524Y-14126143D01*
X12535476Y-14135667D01*
X12525952Y-14145190D01*
X12735476Y-14259476D02*
X12716428Y-14249952D01*
X12706905Y-14240428D01*
X12697381Y-14221381D01*
X12697381Y-14164238D01*
X12706905Y-14145190D01*
X12716428Y-14135667D01*
X12735476Y-14126143D01*
X12764048Y-14126143D01*
X12783095Y-14135667D01*
X12792619Y-14145190D01*
X12802143Y-14164238D01*
X12802143Y-14221381D01*
X12792619Y-14240428D01*
X12783095Y-14249952D01*
X12764048Y-14259476D01*
X12735476Y-14259476D01*
X12916428Y-14259476D02*
X12897381Y-14249952D01*
X12887857Y-14230905D01*
X12887857Y-14059476D01*
X13068809Y-14249952D02*
X13049762Y-14259476D01*
X13011667Y-14259476D01*
X12992619Y-14249952D01*
X12983095Y-14230905D01*
X12983095Y-14154714D01*
X12992619Y-14135667D01*
X13011667Y-14126143D01*
X13049762Y-14126143D01*
X13068809Y-14135667D01*
X13078333Y-14154714D01*
X13078333Y-14173762D01*
X12983095Y-14192809D01*
X13154524Y-14249952D02*
X13173571Y-14259476D01*
X13211667Y-14259476D01*
X13230714Y-14249952D01*
X13240238Y-14230905D01*
X13240238Y-14221381D01*
X13230714Y-14202333D01*
X13211667Y-14192809D01*
X13183095Y-14192809D01*
X13164048Y-14183286D01*
X13154524Y-14164238D01*
X13154524Y-14154714D01*
X13164048Y-14135667D01*
X13183095Y-14126143D01*
X13211667Y-14126143D01*
X13230714Y-14135667D01*
X13306905Y-14335667D02*
X13316428Y-14326143D01*
X13335476Y-14297571D01*
X13345000Y-14278524D01*
X13354524Y-14249952D01*
X13364048Y-14202333D01*
X13364048Y-14164238D01*
X13354524Y-14116619D01*
X13345000Y-14088048D01*
X13335476Y-14069000D01*
X13316428Y-14040428D01*
X13306905Y-14030905D01*
D14*
X8500000Y-14398000D02*
X8500000Y-14468000D01*
X8465000Y-14433000D02*
X8535000Y-14433000D01*
D11*
X8830714Y-14323476D02*
X8849762Y-14323476D01*
X8868810Y-14333000D01*
X8878333Y-14342524D01*
X8887857Y-14361571D01*
X8897381Y-14399667D01*
X8897381Y-14447286D01*
X8887857Y-14485381D01*
X8878333Y-14504428D01*
X8868810Y-14513952D01*
X8849762Y-14523476D01*
X8830714Y-14523476D01*
X8811667Y-14513952D01*
X8802143Y-14504428D01*
X8792619Y-14485381D01*
X8783095Y-14447286D01*
X8783095Y-14399667D01*
X8792619Y-14361571D01*
X8802143Y-14342524D01*
X8811667Y-14333000D01*
X8830714Y-14323476D01*
X8983095Y-14504428D02*
X8992619Y-14513952D01*
X8983095Y-14523476D01*
X8973571Y-14513952D01*
X8983095Y-14504428D01*
X8983095Y-14523476D01*
X9059286Y-14323476D02*
X9192619Y-14323476D01*
X9106905Y-14523476D01*
X9306905Y-14323476D02*
X9325952Y-14323476D01*
X9345000Y-14333000D01*
X9354524Y-14342524D01*
X9364048Y-14361571D01*
X9373571Y-14399667D01*
X9373571Y-14447286D01*
X9364048Y-14485381D01*
X9354524Y-14504428D01*
X9345000Y-14513952D01*
X9325952Y-14523476D01*
X9306905Y-14523476D01*
X9287857Y-14513952D01*
X9278333Y-14504428D01*
X9268810Y-14485381D01*
X9259286Y-14447286D01*
X9259286Y-14399667D01*
X9268810Y-14361571D01*
X9278333Y-14342524D01*
X9287857Y-14333000D01*
X9306905Y-14323476D01*
X9497381Y-14323476D02*
X9516429Y-14323476D01*
X9535476Y-14333000D01*
X9545000Y-14342524D01*
X9554524Y-14361571D01*
X9564048Y-14399667D01*
X9564048Y-14447286D01*
X9554524Y-14485381D01*
X9545000Y-14504428D01*
X9535476Y-14513952D01*
X9516429Y-14523476D01*
X9497381Y-14523476D01*
X9478333Y-14513952D01*
X9468810Y-14504428D01*
X9459286Y-14485381D01*
X9449762Y-14447286D01*
X9449762Y-14399667D01*
X9459286Y-14361571D01*
X9468810Y-14342524D01*
X9478333Y-14333000D01*
X9497381Y-14323476D01*
X9649762Y-14523476D02*
X9649762Y-14390143D01*
X9649762Y-14409190D02*
X9659286Y-14399667D01*
X9678333Y-14390143D01*
X9706905Y-14390143D01*
X9725952Y-14399667D01*
X9735476Y-14418714D01*
X9735476Y-14523476D01*
X9735476Y-14418714D02*
X9745000Y-14399667D01*
X9764048Y-14390143D01*
X9792619Y-14390143D01*
X9811667Y-14399667D01*
X9821190Y-14418714D01*
X9821190Y-14523476D01*
X9916429Y-14523476D02*
X9916429Y-14390143D01*
X9916429Y-14409190D02*
X9925952Y-14399667D01*
X9945000Y-14390143D01*
X9973571Y-14390143D01*
X9992619Y-14399667D01*
X10002143Y-14418714D01*
X10002143Y-14523476D01*
X10002143Y-14418714D02*
X10011667Y-14399667D01*
X10030714Y-14390143D01*
X10059286Y-14390143D01*
X10078333Y-14399667D01*
X10087857Y-14418714D01*
X10087857Y-14523476D01*
X10478333Y-14313952D02*
X10306905Y-14571095D01*
X10735476Y-14323476D02*
X10754524Y-14323476D01*
X10773571Y-14333000D01*
X10783095Y-14342524D01*
X10792619Y-14361571D01*
X10802143Y-14399667D01*
X10802143Y-14447286D01*
X10792619Y-14485381D01*
X10783095Y-14504428D01*
X10773571Y-14513952D01*
X10754524Y-14523476D01*
X10735476Y-14523476D01*
X10716429Y-14513952D01*
X10706905Y-14504428D01*
X10697381Y-14485381D01*
X10687857Y-14447286D01*
X10687857Y-14399667D01*
X10697381Y-14361571D01*
X10706905Y-14342524D01*
X10716429Y-14333000D01*
X10735476Y-14323476D01*
X10887857Y-14504428D02*
X10897381Y-14513952D01*
X10887857Y-14523476D01*
X10878333Y-14513952D01*
X10887857Y-14504428D01*
X10887857Y-14523476D01*
X11021190Y-14323476D02*
X11040238Y-14323476D01*
X11059286Y-14333000D01*
X11068810Y-14342524D01*
X11078333Y-14361571D01*
X11087857Y-14399667D01*
X11087857Y-14447286D01*
X11078333Y-14485381D01*
X11068810Y-14504428D01*
X11059286Y-14513952D01*
X11040238Y-14523476D01*
X11021190Y-14523476D01*
X11002143Y-14513952D01*
X10992619Y-14504428D01*
X10983095Y-14485381D01*
X10973571Y-14447286D01*
X10973571Y-14399667D01*
X10983095Y-14361571D01*
X10992619Y-14342524D01*
X11002143Y-14333000D01*
X11021190Y-14323476D01*
X11164048Y-14342524D02*
X11173571Y-14333000D01*
X11192619Y-14323476D01*
X11240238Y-14323476D01*
X11259286Y-14333000D01*
X11268809Y-14342524D01*
X11278333Y-14361571D01*
X11278333Y-14380619D01*
X11268809Y-14409190D01*
X11154524Y-14523476D01*
X11278333Y-14523476D01*
X11345000Y-14323476D02*
X11478333Y-14323476D01*
X11392619Y-14523476D01*
X11640238Y-14323476D02*
X11602143Y-14323476D01*
X11583095Y-14333000D01*
X11573571Y-14342524D01*
X11554524Y-14371095D01*
X11545000Y-14409190D01*
X11545000Y-14485381D01*
X11554524Y-14504428D01*
X11564048Y-14513952D01*
X11583095Y-14523476D01*
X11621190Y-14523476D01*
X11640238Y-14513952D01*
X11649762Y-14504428D01*
X11659286Y-14485381D01*
X11659286Y-14437762D01*
X11649762Y-14418714D01*
X11640238Y-14409190D01*
X11621190Y-14399667D01*
X11583095Y-14399667D01*
X11564048Y-14409190D01*
X11554524Y-14418714D01*
X11545000Y-14437762D01*
X11735476Y-14323476D02*
X11735476Y-14361571D01*
X11811667Y-14323476D02*
X11811667Y-14361571D01*
X12106905Y-14599667D02*
X12097381Y-14590143D01*
X12078333Y-14561571D01*
X12068809Y-14542524D01*
X12059286Y-14513952D01*
X12049762Y-14466333D01*
X12049762Y-14428238D01*
X12059286Y-14380619D01*
X12068809Y-14352048D01*
X12078333Y-14333000D01*
X12097381Y-14304428D01*
X12106905Y-14294905D01*
X12278333Y-14323476D02*
X12183095Y-14323476D01*
X12173571Y-14418714D01*
X12183095Y-14409190D01*
X12202143Y-14399667D01*
X12249762Y-14399667D01*
X12268809Y-14409190D01*
X12278333Y-14418714D01*
X12287857Y-14437762D01*
X12287857Y-14485381D01*
X12278333Y-14504428D01*
X12268809Y-14513952D01*
X12249762Y-14523476D01*
X12202143Y-14523476D01*
X12183095Y-14513952D01*
X12173571Y-14504428D01*
X12525952Y-14523476D02*
X12525952Y-14323476D01*
X12611667Y-14523476D02*
X12611667Y-14418714D01*
X12602143Y-14399667D01*
X12583095Y-14390143D01*
X12554524Y-14390143D01*
X12535476Y-14399667D01*
X12525952Y-14409190D01*
X12735476Y-14523476D02*
X12716428Y-14513952D01*
X12706905Y-14504428D01*
X12697381Y-14485381D01*
X12697381Y-14428238D01*
X12706905Y-14409190D01*
X12716428Y-14399667D01*
X12735476Y-14390143D01*
X12764048Y-14390143D01*
X12783095Y-14399667D01*
X12792619Y-14409190D01*
X12802143Y-14428238D01*
X12802143Y-14485381D01*
X12792619Y-14504428D01*
X12783095Y-14513952D01*
X12764048Y-14523476D01*
X12735476Y-14523476D01*
X12916428Y-14523476D02*
X12897381Y-14513952D01*
X12887857Y-14494905D01*
X12887857Y-14323476D01*
X13068809Y-14513952D02*
X13049762Y-14523476D01*
X13011667Y-14523476D01*
X12992619Y-14513952D01*
X12983095Y-14494905D01*
X12983095Y-14418714D01*
X12992619Y-14399667D01*
X13011667Y-14390143D01*
X13049762Y-14390143D01*
X13068809Y-14399667D01*
X13078333Y-14418714D01*
X13078333Y-14437762D01*
X12983095Y-14456809D01*
X13154524Y-14513952D02*
X13173571Y-14523476D01*
X13211667Y-14523476D01*
X13230714Y-14513952D01*
X13240238Y-14494905D01*
X13240238Y-14485381D01*
X13230714Y-14466333D01*
X13211667Y-14456809D01*
X13183095Y-14456809D01*
X13164048Y-14447286D01*
X13154524Y-14428238D01*
X13154524Y-14418714D01*
X13164048Y-14399667D01*
X13183095Y-14390143D01*
X13211667Y-14390143D01*
X13230714Y-14399667D01*
X13306905Y-14599667D02*
X13316428Y-14590143D01*
X13335476Y-14561571D01*
X13345000Y-14542524D01*
X13354524Y-14513952D01*
X13364048Y-14466333D01*
X13364048Y-14428238D01*
X13354524Y-14380619D01*
X13345000Y-14352048D01*
X13335476Y-14333000D01*
X13316428Y-14304428D01*
X13306905Y-14294905D01*
D15*
X8523285Y-14725284D02*
X8523285Y-14668715D01*
X8466716Y-14668715D01*
X8466716Y-14725284D01*
X8523285Y-14725284D01*
D11*
X8830714Y-14587476D02*
X8849762Y-14587476D01*
X8868810Y-14597000D01*
X8878333Y-14606524D01*
X8887857Y-14625571D01*
X8897381Y-14663667D01*
X8897381Y-14711286D01*
X8887857Y-14749381D01*
X8878333Y-14768428D01*
X8868810Y-14777952D01*
X8849762Y-14787476D01*
X8830714Y-14787476D01*
X8811667Y-14777952D01*
X8802143Y-14768428D01*
X8792619Y-14749381D01*
X8783095Y-14711286D01*
X8783095Y-14663667D01*
X8792619Y-14625571D01*
X8802143Y-14606524D01*
X8811667Y-14597000D01*
X8830714Y-14587476D01*
X8983095Y-14768428D02*
X8992619Y-14777952D01*
X8983095Y-14787476D01*
X8973571Y-14777952D01*
X8983095Y-14768428D01*
X8983095Y-14787476D01*
X9106905Y-14673190D02*
X9087857Y-14663667D01*
X9078333Y-14654143D01*
X9068810Y-14635095D01*
X9068810Y-14625571D01*
X9078333Y-14606524D01*
X9087857Y-14597000D01*
X9106905Y-14587476D01*
X9145000Y-14587476D01*
X9164048Y-14597000D01*
X9173571Y-14606524D01*
X9183095Y-14625571D01*
X9183095Y-14635095D01*
X9173571Y-14654143D01*
X9164048Y-14663667D01*
X9145000Y-14673190D01*
X9106905Y-14673190D01*
X9087857Y-14682714D01*
X9078333Y-14692238D01*
X9068810Y-14711286D01*
X9068810Y-14749381D01*
X9078333Y-14768428D01*
X9087857Y-14777952D01*
X9106905Y-14787476D01*
X9145000Y-14787476D01*
X9164048Y-14777952D01*
X9173571Y-14768428D01*
X9183095Y-14749381D01*
X9183095Y-14711286D01*
X9173571Y-14692238D01*
X9164048Y-14682714D01*
X9145000Y-14673190D01*
X9306905Y-14587476D02*
X9325952Y-14587476D01*
X9345000Y-14597000D01*
X9354524Y-14606524D01*
X9364048Y-14625571D01*
X9373571Y-14663667D01*
X9373571Y-14711286D01*
X9364048Y-14749381D01*
X9354524Y-14768428D01*
X9345000Y-14777952D01*
X9325952Y-14787476D01*
X9306905Y-14787476D01*
X9287857Y-14777952D01*
X9278333Y-14768428D01*
X9268810Y-14749381D01*
X9259286Y-14711286D01*
X9259286Y-14663667D01*
X9268810Y-14625571D01*
X9278333Y-14606524D01*
X9287857Y-14597000D01*
X9306905Y-14587476D01*
X9497381Y-14587476D02*
X9516429Y-14587476D01*
X9535476Y-14597000D01*
X9545000Y-14606524D01*
X9554524Y-14625571D01*
X9564048Y-14663667D01*
X9564048Y-14711286D01*
X9554524Y-14749381D01*
X9545000Y-14768428D01*
X9535476Y-14777952D01*
X9516429Y-14787476D01*
X9497381Y-14787476D01*
X9478333Y-14777952D01*
X9468810Y-14768428D01*
X9459286Y-14749381D01*
X9449762Y-14711286D01*
X9449762Y-14663667D01*
X9459286Y-14625571D01*
X9468810Y-14606524D01*
X9478333Y-14597000D01*
X9497381Y-14587476D01*
X9649762Y-14787476D02*
X9649762Y-14654143D01*
X9649762Y-14673190D02*
X9659286Y-14663667D01*
X9678333Y-14654143D01*
X9706905Y-14654143D01*
X9725952Y-14663667D01*
X9735476Y-14682714D01*
X9735476Y-14787476D01*
X9735476Y-14682714D02*
X9745000Y-14663667D01*
X9764048Y-14654143D01*
X9792619Y-14654143D01*
X9811667Y-14663667D01*
X9821190Y-14682714D01*
X9821190Y-14787476D01*
X9916429Y-14787476D02*
X9916429Y-14654143D01*
X9916429Y-14673190D02*
X9925952Y-14663667D01*
X9945000Y-14654143D01*
X9973571Y-14654143D01*
X9992619Y-14663667D01*
X10002143Y-14682714D01*
X10002143Y-14787476D01*
X10002143Y-14682714D02*
X10011667Y-14663667D01*
X10030714Y-14654143D01*
X10059286Y-14654143D01*
X10078333Y-14663667D01*
X10087857Y-14682714D01*
X10087857Y-14787476D01*
X10478333Y-14577952D02*
X10306905Y-14835095D01*
X10735476Y-14587476D02*
X10754524Y-14587476D01*
X10773571Y-14597000D01*
X10783095Y-14606524D01*
X10792619Y-14625571D01*
X10802143Y-14663667D01*
X10802143Y-14711286D01*
X10792619Y-14749381D01*
X10783095Y-14768428D01*
X10773571Y-14777952D01*
X10754524Y-14787476D01*
X10735476Y-14787476D01*
X10716429Y-14777952D01*
X10706905Y-14768428D01*
X10697381Y-14749381D01*
X10687857Y-14711286D01*
X10687857Y-14663667D01*
X10697381Y-14625571D01*
X10706905Y-14606524D01*
X10716429Y-14597000D01*
X10735476Y-14587476D01*
X10887857Y-14768428D02*
X10897381Y-14777952D01*
X10887857Y-14787476D01*
X10878333Y-14777952D01*
X10887857Y-14768428D01*
X10887857Y-14787476D01*
X11021190Y-14587476D02*
X11040238Y-14587476D01*
X11059286Y-14597000D01*
X11068810Y-14606524D01*
X11078333Y-14625571D01*
X11087857Y-14663667D01*
X11087857Y-14711286D01*
X11078333Y-14749381D01*
X11068810Y-14768428D01*
X11059286Y-14777952D01*
X11040238Y-14787476D01*
X11021190Y-14787476D01*
X11002143Y-14777952D01*
X10992619Y-14768428D01*
X10983095Y-14749381D01*
X10973571Y-14711286D01*
X10973571Y-14663667D01*
X10983095Y-14625571D01*
X10992619Y-14606524D01*
X11002143Y-14597000D01*
X11021190Y-14587476D01*
X11154524Y-14587476D02*
X11278333Y-14587476D01*
X11211667Y-14663667D01*
X11240238Y-14663667D01*
X11259286Y-14673190D01*
X11268809Y-14682714D01*
X11278333Y-14701762D01*
X11278333Y-14749381D01*
X11268809Y-14768428D01*
X11259286Y-14777952D01*
X11240238Y-14787476D01*
X11183095Y-14787476D01*
X11164048Y-14777952D01*
X11154524Y-14768428D01*
X11468809Y-14787476D02*
X11354524Y-14787476D01*
X11411667Y-14787476D02*
X11411667Y-14587476D01*
X11392619Y-14616048D01*
X11373571Y-14635095D01*
X11354524Y-14644619D01*
X11649762Y-14587476D02*
X11554524Y-14587476D01*
X11545000Y-14682714D01*
X11554524Y-14673190D01*
X11573571Y-14663667D01*
X11621190Y-14663667D01*
X11640238Y-14673190D01*
X11649762Y-14682714D01*
X11659286Y-14701762D01*
X11659286Y-14749381D01*
X11649762Y-14768428D01*
X11640238Y-14777952D01*
X11621190Y-14787476D01*
X11573571Y-14787476D01*
X11554524Y-14777952D01*
X11545000Y-14768428D01*
X11735476Y-14587476D02*
X11735476Y-14625571D01*
X11811667Y-14587476D02*
X11811667Y-14625571D01*
X12106905Y-14863667D02*
X12097381Y-14854143D01*
X12078333Y-14825571D01*
X12068809Y-14806524D01*
X12059286Y-14777952D01*
X12049762Y-14730333D01*
X12049762Y-14692238D01*
X12059286Y-14644619D01*
X12068809Y-14616048D01*
X12078333Y-14597000D01*
X12097381Y-14568428D01*
X12106905Y-14558905D01*
X12268809Y-14654143D02*
X12268809Y-14787476D01*
X12221190Y-14577952D02*
X12173571Y-14720809D01*
X12297381Y-14720809D01*
X12459286Y-14654143D02*
X12459286Y-14787476D01*
X12411667Y-14577952D02*
X12364048Y-14720809D01*
X12487857Y-14720809D01*
X12716428Y-14787476D02*
X12716428Y-14587476D01*
X12802143Y-14787476D02*
X12802143Y-14682714D01*
X12792619Y-14663667D01*
X12773571Y-14654143D01*
X12745000Y-14654143D01*
X12725952Y-14663667D01*
X12716428Y-14673190D01*
X12925952Y-14787476D02*
X12906905Y-14777952D01*
X12897381Y-14768428D01*
X12887857Y-14749381D01*
X12887857Y-14692238D01*
X12897381Y-14673190D01*
X12906905Y-14663667D01*
X12925952Y-14654143D01*
X12954524Y-14654143D01*
X12973571Y-14663667D01*
X12983095Y-14673190D01*
X12992619Y-14692238D01*
X12992619Y-14749381D01*
X12983095Y-14768428D01*
X12973571Y-14777952D01*
X12954524Y-14787476D01*
X12925952Y-14787476D01*
X13106905Y-14787476D02*
X13087857Y-14777952D01*
X13078333Y-14758905D01*
X13078333Y-14587476D01*
X13259286Y-14777952D02*
X13240238Y-14787476D01*
X13202143Y-14787476D01*
X13183095Y-14777952D01*
X13173571Y-14758905D01*
X13173571Y-14682714D01*
X13183095Y-14663667D01*
X13202143Y-14654143D01*
X13240238Y-14654143D01*
X13259286Y-14663667D01*
X13268809Y-14682714D01*
X13268809Y-14701762D01*
X13173571Y-14720809D01*
X13345000Y-14777952D02*
X13364048Y-14787476D01*
X13402143Y-14787476D01*
X13421190Y-14777952D01*
X13430714Y-14758905D01*
X13430714Y-14749381D01*
X13421190Y-14730333D01*
X13402143Y-14720809D01*
X13373571Y-14720809D01*
X13354524Y-14711286D01*
X13345000Y-14692238D01*
X13345000Y-14682714D01*
X13354524Y-14663667D01*
X13373571Y-14654143D01*
X13402143Y-14654143D01*
X13421190Y-14663667D01*
X13668809Y-14711286D02*
X13821190Y-14711286D01*
X13745000Y-14787476D02*
X13745000Y-14635095D01*
X14059286Y-14606524D02*
X14068809Y-14597000D01*
X14087857Y-14587476D01*
X14135476Y-14587476D01*
X14154524Y-14597000D01*
X14164048Y-14606524D01*
X14173571Y-14625571D01*
X14173571Y-14644619D01*
X14164048Y-14673190D01*
X14049762Y-14787476D01*
X14173571Y-14787476D01*
X14402143Y-14777952D02*
X14421190Y-14787476D01*
X14459286Y-14787476D01*
X14478333Y-14777952D01*
X14487857Y-14758905D01*
X14487857Y-14749381D01*
X14478333Y-14730333D01*
X14459286Y-14720809D01*
X14430714Y-14720809D01*
X14411667Y-14711286D01*
X14402143Y-14692238D01*
X14402143Y-14682714D01*
X14411667Y-14663667D01*
X14430714Y-14654143D01*
X14459286Y-14654143D01*
X14478333Y-14663667D01*
X14602143Y-14787476D02*
X14583095Y-14777952D01*
X14573571Y-14758905D01*
X14573571Y-14587476D01*
X14706905Y-14787476D02*
X14687857Y-14777952D01*
X14678333Y-14768428D01*
X14668809Y-14749381D01*
X14668809Y-14692238D01*
X14678333Y-14673190D01*
X14687857Y-14663667D01*
X14706905Y-14654143D01*
X14735476Y-14654143D01*
X14754524Y-14663667D01*
X14764048Y-14673190D01*
X14773571Y-14692238D01*
X14773571Y-14749381D01*
X14764048Y-14768428D01*
X14754524Y-14777952D01*
X14735476Y-14787476D01*
X14706905Y-14787476D01*
X14830714Y-14654143D02*
X14906905Y-14654143D01*
X14859286Y-14587476D02*
X14859286Y-14758905D01*
X14868809Y-14777952D01*
X14887857Y-14787476D01*
X14906905Y-14787476D01*
X14964048Y-14777952D02*
X14983095Y-14787476D01*
X15021190Y-14787476D01*
X15040238Y-14777952D01*
X15049762Y-14758905D01*
X15049762Y-14749381D01*
X15040238Y-14730333D01*
X15021190Y-14720809D01*
X14992619Y-14720809D01*
X14973571Y-14711286D01*
X14964048Y-14692238D01*
X14964048Y-14682714D01*
X14973571Y-14663667D01*
X14992619Y-14654143D01*
X15021190Y-14654143D01*
X15040238Y-14663667D01*
X15116428Y-14863667D02*
X15125952Y-14854143D01*
X15145000Y-14825571D01*
X15154524Y-14806524D01*
X15164048Y-14777952D01*
X15173571Y-14730333D01*
X15173571Y-14692238D01*
X15164048Y-14644619D01*
X15154524Y-14616048D01*
X15145000Y-14597000D01*
X15125952Y-14568428D01*
X15116428Y-14558905D01*
D16*
X8485000Y-15011000D02*
X8535000Y-14961000D01*
X8485000Y-14911000D01*
X8435000Y-14961000D01*
X8485000Y-15011000D01*
D11*
X8897381Y-15051476D02*
X8783095Y-15051476D01*
X8840238Y-15051476D02*
X8840238Y-14851476D01*
X8821190Y-14880048D01*
X8802143Y-14899095D01*
X8783095Y-14908619D01*
X8983095Y-15032428D02*
X8992619Y-15041952D01*
X8983095Y-15051476D01*
X8973571Y-15041952D01*
X8983095Y-15032428D01*
X8983095Y-15051476D01*
X9116429Y-14851476D02*
X9135476Y-14851476D01*
X9154524Y-14861000D01*
X9164048Y-14870524D01*
X9173571Y-14889571D01*
X9183095Y-14927667D01*
X9183095Y-14975286D01*
X9173571Y-15013381D01*
X9164048Y-15032428D01*
X9154524Y-15041952D01*
X9135476Y-15051476D01*
X9116429Y-15051476D01*
X9097381Y-15041952D01*
X9087857Y-15032428D01*
X9078333Y-15013381D01*
X9068810Y-14975286D01*
X9068810Y-14927667D01*
X9078333Y-14889571D01*
X9087857Y-14870524D01*
X9097381Y-14861000D01*
X9116429Y-14851476D01*
X9306905Y-14851476D02*
X9325952Y-14851476D01*
X9345000Y-14861000D01*
X9354524Y-14870524D01*
X9364048Y-14889571D01*
X9373571Y-14927667D01*
X9373571Y-14975286D01*
X9364048Y-15013381D01*
X9354524Y-15032428D01*
X9345000Y-15041952D01*
X9325952Y-15051476D01*
X9306905Y-15051476D01*
X9287857Y-15041952D01*
X9278333Y-15032428D01*
X9268810Y-15013381D01*
X9259286Y-14975286D01*
X9259286Y-14927667D01*
X9268810Y-14889571D01*
X9278333Y-14870524D01*
X9287857Y-14861000D01*
X9306905Y-14851476D01*
X9497381Y-14851476D02*
X9516429Y-14851476D01*
X9535476Y-14861000D01*
X9545000Y-14870524D01*
X9554524Y-14889571D01*
X9564048Y-14927667D01*
X9564048Y-14975286D01*
X9554524Y-15013381D01*
X9545000Y-15032428D01*
X9535476Y-15041952D01*
X9516429Y-15051476D01*
X9497381Y-15051476D01*
X9478333Y-15041952D01*
X9468810Y-15032428D01*
X9459286Y-15013381D01*
X9449762Y-14975286D01*
X9449762Y-14927667D01*
X9459286Y-14889571D01*
X9468810Y-14870524D01*
X9478333Y-14861000D01*
X9497381Y-14851476D01*
X9649762Y-15051476D02*
X9649762Y-14918143D01*
X9649762Y-14937190D02*
X9659286Y-14927667D01*
X9678333Y-14918143D01*
X9706905Y-14918143D01*
X9725952Y-14927667D01*
X9735476Y-14946714D01*
X9735476Y-15051476D01*
X9735476Y-14946714D02*
X9745000Y-14927667D01*
X9764048Y-14918143D01*
X9792619Y-14918143D01*
X9811667Y-14927667D01*
X9821190Y-14946714D01*
X9821190Y-15051476D01*
X9916429Y-15051476D02*
X9916429Y-14918143D01*
X9916429Y-14937190D02*
X9925952Y-14927667D01*
X9945000Y-14918143D01*
X9973571Y-14918143D01*
X9992619Y-14927667D01*
X10002143Y-14946714D01*
X10002143Y-15051476D01*
X10002143Y-14946714D02*
X10011667Y-14927667D01*
X10030714Y-14918143D01*
X10059286Y-14918143D01*
X10078333Y-14927667D01*
X10087857Y-14946714D01*
X10087857Y-15051476D01*
X10478333Y-14841952D02*
X10306905Y-15099095D01*
X10735476Y-14851476D02*
X10754524Y-14851476D01*
X10773571Y-14861000D01*
X10783095Y-14870524D01*
X10792619Y-14889571D01*
X10802143Y-14927667D01*
X10802143Y-14975286D01*
X10792619Y-15013381D01*
X10783095Y-15032428D01*
X10773571Y-15041952D01*
X10754524Y-15051476D01*
X10735476Y-15051476D01*
X10716429Y-15041952D01*
X10706905Y-15032428D01*
X10697381Y-15013381D01*
X10687857Y-14975286D01*
X10687857Y-14927667D01*
X10697381Y-14889571D01*
X10706905Y-14870524D01*
X10716429Y-14861000D01*
X10735476Y-14851476D01*
X10887857Y-15032428D02*
X10897381Y-15041952D01*
X10887857Y-15051476D01*
X10878333Y-15041952D01*
X10887857Y-15032428D01*
X10887857Y-15051476D01*
X11021190Y-14851476D02*
X11040238Y-14851476D01*
X11059286Y-14861000D01*
X11068810Y-14870524D01*
X11078333Y-14889571D01*
X11087857Y-14927667D01*
X11087857Y-14975286D01*
X11078333Y-15013381D01*
X11068810Y-15032428D01*
X11059286Y-15041952D01*
X11040238Y-15051476D01*
X11021190Y-15051476D01*
X11002143Y-15041952D01*
X10992619Y-15032428D01*
X10983095Y-15013381D01*
X10973571Y-14975286D01*
X10973571Y-14927667D01*
X10983095Y-14889571D01*
X10992619Y-14870524D01*
X11002143Y-14861000D01*
X11021190Y-14851476D01*
X11154524Y-14851476D02*
X11278333Y-14851476D01*
X11211667Y-14927667D01*
X11240238Y-14927667D01*
X11259286Y-14937190D01*
X11268809Y-14946714D01*
X11278333Y-14965762D01*
X11278333Y-15013381D01*
X11268809Y-15032428D01*
X11259286Y-15041952D01*
X11240238Y-15051476D01*
X11183095Y-15051476D01*
X11164048Y-15041952D01*
X11154524Y-15032428D01*
X11373571Y-15051476D02*
X11411667Y-15051476D01*
X11430714Y-15041952D01*
X11440238Y-15032428D01*
X11459286Y-15003857D01*
X11468809Y-14965762D01*
X11468809Y-14889571D01*
X11459286Y-14870524D01*
X11449762Y-14861000D01*
X11430714Y-14851476D01*
X11392619Y-14851476D01*
X11373571Y-14861000D01*
X11364048Y-14870524D01*
X11354524Y-14889571D01*
X11354524Y-14937190D01*
X11364048Y-14956238D01*
X11373571Y-14965762D01*
X11392619Y-14975286D01*
X11430714Y-14975286D01*
X11449762Y-14965762D01*
X11459286Y-14956238D01*
X11468809Y-14937190D01*
X11640238Y-14918143D02*
X11640238Y-15051476D01*
X11592619Y-14841952D02*
X11545000Y-14984809D01*
X11668809Y-14984809D01*
X11735476Y-14851476D02*
X11735476Y-14889571D01*
X11811667Y-14851476D02*
X11811667Y-14889571D01*
X12106905Y-15127667D02*
X12097381Y-15118143D01*
X12078333Y-15089571D01*
X12068809Y-15070524D01*
X12059286Y-15041952D01*
X12049762Y-14994333D01*
X12049762Y-14956238D01*
X12059286Y-14908619D01*
X12068809Y-14880048D01*
X12078333Y-14861000D01*
X12097381Y-14832428D01*
X12106905Y-14822905D01*
X12268809Y-14851476D02*
X12230714Y-14851476D01*
X12211667Y-14861000D01*
X12202143Y-14870524D01*
X12183095Y-14899095D01*
X12173571Y-14937190D01*
X12173571Y-15013381D01*
X12183095Y-15032428D01*
X12192619Y-15041952D01*
X12211667Y-15051476D01*
X12249762Y-15051476D01*
X12268809Y-15041952D01*
X12278333Y-15032428D01*
X12287857Y-15013381D01*
X12287857Y-14965762D01*
X12278333Y-14946714D01*
X12268809Y-14937190D01*
X12249762Y-14927667D01*
X12211667Y-14927667D01*
X12192619Y-14937190D01*
X12183095Y-14946714D01*
X12173571Y-14965762D01*
X12525952Y-15051476D02*
X12525952Y-14851476D01*
X12611667Y-15051476D02*
X12611667Y-14946714D01*
X12602143Y-14927667D01*
X12583095Y-14918143D01*
X12554524Y-14918143D01*
X12535476Y-14927667D01*
X12525952Y-14937190D01*
X12735476Y-15051476D02*
X12716428Y-15041952D01*
X12706905Y-15032428D01*
X12697381Y-15013381D01*
X12697381Y-14956238D01*
X12706905Y-14937190D01*
X12716428Y-14927667D01*
X12735476Y-14918143D01*
X12764048Y-14918143D01*
X12783095Y-14927667D01*
X12792619Y-14937190D01*
X12802143Y-14956238D01*
X12802143Y-15013381D01*
X12792619Y-15032428D01*
X12783095Y-15041952D01*
X12764048Y-15051476D01*
X12735476Y-15051476D01*
X12916428Y-15051476D02*
X12897381Y-15041952D01*
X12887857Y-15022905D01*
X12887857Y-14851476D01*
X13068809Y-15041952D02*
X13049762Y-15051476D01*
X13011667Y-15051476D01*
X12992619Y-15041952D01*
X12983095Y-15022905D01*
X12983095Y-14946714D01*
X12992619Y-14927667D01*
X13011667Y-14918143D01*
X13049762Y-14918143D01*
X13068809Y-14927667D01*
X13078333Y-14946714D01*
X13078333Y-14965762D01*
X12983095Y-14984809D01*
X13154524Y-15041952D02*
X13173571Y-15051476D01*
X13211667Y-15051476D01*
X13230714Y-15041952D01*
X13240238Y-15022905D01*
X13240238Y-15013381D01*
X13230714Y-14994333D01*
X13211667Y-14984809D01*
X13183095Y-14984809D01*
X13164048Y-14975286D01*
X13154524Y-14956238D01*
X13154524Y-14946714D01*
X13164048Y-14927667D01*
X13183095Y-14918143D01*
X13211667Y-14918143D01*
X13230714Y-14927667D01*
X13306905Y-15127667D02*
X13316428Y-15118143D01*
X13335476Y-15089571D01*
X13345000Y-15070524D01*
X13354524Y-15041952D01*
X13364048Y-14994333D01*
X13364048Y-14956238D01*
X13354524Y-14908619D01*
X13345000Y-14880048D01*
X13335476Y-14861000D01*
X13316428Y-14832428D01*
X13306905Y-14822905D01*
M02*
