M48
; DRILL file {KiCad 6.0.1-79c1e3a40b~116~ubuntu21.04.1} date Tue 15 Feb 2022 05:09:26 PM
; FORMAT={-:-/ absolute / metric / decimal}
; #@! TF.CreationDate,2022-02-15T17:09:26-05:00
; #@! TF.GenerationSoftware,Kicad,Pcbnew,6.0.1-79c1e3a40b~116~ubuntu21.04.1
; #@! TF.FileFunction,Plated,1,2,PTH
FMAT,2
METRIC
; #@! TA.AperFunction,Plated,PTH,ComponentDrill
T1C0.500
; #@! TA.AperFunction,Plated,PTH,ComponentDrill
T2C0.600
; #@! TA.AperFunction,Plated,PTH,ComponentDrill
T3C0.700
; #@! TA.AperFunction,Plated,PTH,ComponentDrill
T4C0.800
; #@! TA.AperFunction,Plated,PTH,ComponentDrill
T5C1.000
%
G90
G05
T1
X104.2Y-112.55
X104.2Y-114.25
T2
X92.6Y-120.2
X94.6Y-120.2
X98.2Y-120.2
X100.2Y-120.2
T3
X99.6Y-125.75
X100.4Y-126.95
X101.2Y-125.75
X102.0Y-126.95
X102.8Y-125.75
T4
X91.4Y-110.2
X91.4Y-113.6
X92.82Y-84.8
X92.82Y-92.42
X92.85Y-98.13
X92.85Y-105.75
X95.36Y-84.8
X95.36Y-92.42
X95.39Y-98.13
X95.39Y-105.75
X97.9Y-84.8
X97.9Y-92.42
X97.93Y-98.13
X97.93Y-105.75
X100.44Y-84.8
X100.44Y-92.42
X100.47Y-98.13
X100.47Y-105.75
X101.56Y-110.2
X101.56Y-113.6
X102.98Y-84.8
X102.98Y-92.42
X103.01Y-98.13
X103.01Y-105.75
X104.3Y-110.2
X104.5Y-116.6
X105.52Y-84.8
X105.52Y-92.42
X105.55Y-98.13
X105.55Y-105.75
X106.8Y-110.2
X107.0Y-116.6
X108.06Y-84.8
X108.06Y-92.42
X108.09Y-98.13
X108.09Y-105.75
X108.1Y-95.2
X109.2Y-110.2
X110.6Y-84.8
X110.6Y-92.42
X110.6Y-95.2
X110.63Y-98.13
X110.63Y-105.75
X111.7Y-110.2
T5
X87.5Y-72.46
X87.5Y-75.0
X87.5Y-77.54
X87.5Y-122.46
X87.5Y-125.0
X87.5Y-127.54
T4
X97.55Y-130.25G85X97.55Y-131.35
G05
X104.85Y-130.25G85X104.85Y-131.35
G05
T0
M30
